<svg width="1921" height="541" viewBox="0 0 1921 541" fill="none" xmlns="http://www.w3.org/2000/svg">
<path fill-rule="evenodd" clip-rule="evenodd" d="M1920.5 489.944L1841.9 441.512C1831.71 435.236 1825.44 423.638 1825.44 411.086V280.904C1825.44 268.352 1831.71 256.753 1841.9 250.477L1920.5 202.045C1920.5 280.904 1920.5 382.812 1920.5 489.944Z" fill="#FEECC2"/>
<path fill-rule="evenodd" clip-rule="evenodd" d="M1.6122e-05 121.192C50 151.607 55.8532 157.152 55.8532 157.152C61.8057 160.82 65.4725 167.598 65.4725 174.933V251.008C65.4725 258.343 61.8057 265.121 55.8532 268.789L0.000171625 303.682C0.000204878 236.315 -6.78013e-05 152.274 1.6122e-05 121.192Z" fill="#8BF8E7"/>
<path fill-rule="evenodd" clip-rule="evenodd" d="M464.71 0.0654419V27.3625C464.71 30.8374 462.613 34.0484 459.208 35.7859L423.893 53.8056C420.488 55.543 416.293 55.543 412.887 53.8056L377.573 35.7859C374.167 34.0484 372.07 30.8374 372.07 27.3625V0.0654419C397.397 0.0654014 450.883 0.0654778 464.71 0.0654419Z" fill="#F5F5FE"/>
<path fill-rule="evenodd" clip-rule="evenodd" d="M1632.4 127.183C1638.96 123.398 1647.04 123.398 1653.6 127.183L1721.6 166.447C1728.16 170.233 1732.2 177.23 1732.2 184.801V263.329C1732.2 270.901 1728.16 277.898 1721.6 281.683L1653.6 320.947C1647.04 324.733 1638.96 324.733 1632.4 320.947L1564.4 281.683C1557.84 277.898 1553.8 270.901 1553.8 263.329V184.801C1553.8 177.23 1557.84 170.233 1564.4 166.447L1632.4 127.183Z" fill="#F5F5FE"/>
<path fill-rule="evenodd" clip-rule="evenodd" d="M1428.5 77.3748C1430.98 75.9458 1434.02 75.9458 1436.5 77.3748L1456.65 89.006C1459.12 90.4351 1460.65 93.0761 1460.65 95.9342V119.197C1460.65 122.055 1459.12 124.696 1456.65 126.125L1436.5 137.756C1434.02 139.185 1430.98 139.185 1428.5 137.756L1408.35 126.125C1405.88 124.696 1404.35 122.055 1404.35 119.197V95.9342C1404.35 93.0761 1405.88 90.4351 1408.35 89.006L1428.5 77.3748Z" fill="#F5F5FE"/>
</svg>
