<svg width="80px" height="80px" viewBox="0 0 80 80" xmlns="http://www.w3.org/2000/svg">
    <style>
        .fr-artwork-decorative {
        fill: #ECECFF;
        }
        .fr-artwork-minor {
        fill: #E1000F;
        }
        .fr-artwork-major {
        fill: #000091;
        }
    </style>
    <symbol id="artwork-decorative">
        <path fill-rule="evenodd" clip-rule="evenodd"
            d="M61 73.5C60.4486 73.5 60 73.0514 60 72.5C60 71.9486 60.4486 71.5 61 71.5C61.5514 71.5 62 71.9486 62 72.5C62 73.0514 61.5514 73.5 61 73.5Z"
            fill="#ECECFE" />
        <path fill-rule="evenodd" clip-rule="evenodd"
            d="M69 10.5C68.4486 10.5 68 10.0514 68 9.5C68 8.94855 68.4486 8.5 69 8.5C69.5514 8.5 70 8.94855 70 9.5C70 10.0514 69.5514 10.5 69 10.5Z"
            fill="#ECECFE" />
        <path fill-rule="evenodd" clip-rule="evenodd"
            d="M14 12.5C13.4486 12.5 13 12.0514 13 11.5C13 10.9486 13.4486 10.5 14 10.5C14.5514 10.5 15 10.9486 15 11.5C15 12.0514 14.5514 12.5 14 12.5Z"
            fill="#ECECFE" />

    </symbol>
    <symbol id="artwork-minor">
        <path fill-rule="evenodd" clip-rule="evenodd"
            d="M40 19.5001C37.7909 19.5001 36 21.2909 36 23.5001C36 25.7092 37.7909 27.5001 40 27.5001C42.2091 27.5001 44 25.7092 44 23.5001C44 21.2909 42.2091 19.5001 40 19.5001ZM34 23.5001C34 20.1864 36.6863 17.5001 40 17.5001C43.3137 17.5001 46 20.1864 46 23.5001C46 26.8138 43.3137 29.5001 40 29.5001C36.6863 29.5001 34 26.8138 34 23.5001Z"
            fill="#E1000F" />
        <path fill-rule="evenodd" clip-rule="evenodd"
            d="M14.724 15.8102C15.105 16.2101 15.0896 16.8431 14.6898 17.224C9.33505 22.3253 6 29.5224 6 37.5001C6 38.0524 5.55228 38.5001 5 38.5001C4.44772 38.5001 4 38.0524 4 37.5001C4 28.9528 7.57577 21.239 13.3102 15.776C13.7101 15.395 14.3431 15.4104 14.724 15.8102Z"
            fill="#E1000F" />
        <path
            d="M70 43.5001C70 44.0523 69.5523 44.5001 69 44.5001C68.4477 44.5001 68 44.0523 68 43.5001C68 42.9478 68.4477 42.5001 69 42.5001C69.5523 42.5001 70 42.9478 70 43.5001Z"
            fill="#E1000F" />

    </symbol>
    <symbol id="artwork-major">
        <path fill-rule="evenodd" clip-rule="evenodd"
            d="M57.0422 29.5319C58.5952 29.2867 60 30.487 60 32.0594C60 33.2018 59.2427 34.2058 58.1442 34.5197L46.7253 37.7822C46.296 37.9049 46 38.2973 46 38.7437V45.0911L50.2161 59.4259C50.7758 61.3287 49.3493 63.2351 47.3659 63.2351C46.1274 63.2351 45.0189 62.4669 44.5841 61.3074L40 49.0831L35.4159 61.3074C34.9811 62.4669 33.8726 63.2351 32.6341 63.2351C30.6507 63.2351 29.2242 61.3287 29.7839 59.4259L34 45.0911V38.7437C34 38.2973 33.704 37.9049 33.2747 37.7822L21.8558 34.5197C20.7573 34.2058 20 33.2018 20 32.0594C20 30.487 21.4048 29.2867 22.9579 29.5319L39.844 32.1981C39.9474 32.2144 40.0526 32.2144 40.156 32.1981L57.0422 29.5319ZM58 32.0594C58 31.716 57.6932 31.4539 57.3541 31.5074L40.4679 34.1737C40.1579 34.2226 39.8421 34.2226 39.5321 34.1737L22.6459 31.5074C22.3068 31.4539 22 31.716 22 32.0594C22 32.3088 22.1654 32.5281 22.4053 32.5966L33.8242 35.8592C35.1121 36.2271 36 37.4043 36 38.7437V45.2351C36 45.3307 35.9863 45.4257 35.9594 45.5173L31.7026 59.9902C31.5197 60.6121 31.9859 61.2351 32.6341 61.2351C33.0389 61.2351 33.4011 60.9841 33.5433 60.6051L39.0637 45.884C39.21 45.4937 39.5832 45.2351 40 45.2351C40.4168 45.2351 40.79 45.4937 40.9363 45.884L46.4567 60.6051C46.5989 60.9841 46.9611 61.2351 47.3659 61.2351C48.0141 61.2351 48.4803 60.6121 48.2974 59.9902L44.0406 45.5173C44.0137 45.4257 44 45.3307 44 45.2351V38.7437C44 37.4043 44.8879 36.2271 46.1758 35.8592L57.5947 32.5966C57.8346 32.5281 58 32.3088 58 32.0594Z"
            fill="#000091" />
        <path fill-rule="evenodd" clip-rule="evenodd"
            d="M40 12.5C24.536 12.5 12 25.036 12 40.5C12 55.964 24.536 68.5 40 68.5C45.9202 68.5 51.4086 66.6638 55.9304 63.5298C56.3843 63.2152 57.0073 63.3281 57.3219 63.782C57.6365 64.2359 57.5236 64.859 57.0696 65.1736C52.224 68.532 46.3403 70.5 40 70.5C23.4315 70.5 10 57.0685 10 40.5C10 23.9315 23.4315 10.5 40 10.5C56.5685 10.5 70 23.9315 70 40.5C70 41.0523 69.5523 41.5 69 41.5C68.4477 41.5 68 41.0523 68 40.5C68 25.036 55.464 12.5 40 12.5ZM67.2206 50.5748C67.7316 50.7845 67.9758 51.3686 67.7662 51.8796C67.4035 52.7638 66.9998 53.6268 66.5574 54.4662C65.4782 56.5144 64.1691 58.4222 62.6647 60.1555C62.3027 60.5726 61.6711 60.6172 61.254 60.2552C60.8369 59.8932 60.7923 59.2616 61.1543 58.8445C62.559 57.2261 63.7809 55.4451 64.788 53.5338C65.2008 52.7505 65.5775 51.9453 65.9159 51.1204C66.1255 50.6095 66.7097 50.3652 67.2206 50.5748Z"
            fill="#000091" />
    </symbol>
    <use class="fr-artwork-decorative" href="#artwork-decorative" />
    <use class="fr-artwork-minor" href="#artwork-minor" />
    <use class="fr-artwork-major" href="#artwork-major" />
</svg>