<svg width="80px" height="80px" viewBox="0 0 80 80" xmlns="http://www.w3.org/2000/svg">
    <style>
        .fr-artwork-decorative {
        fill: #ECECFF;
        }
        .fr-artwork-minor {
        fill: #E1000F;
        }
        .fr-artwork-major {
        fill: #000091;
        }
    </style>
    <symbol id="artwork-decorative">
        <path fill-rule="evenodd" clip-rule="evenodd"
            d="M75 15.5C74.4486 15.5 74 15.0514 74 14.5C74 13.9486 74.4486 13.5 75 13.5C75.5514 13.5 76 13.9486 76 14.5C76 15.0514 75.5514 15.5 75 15.5Z"
            fill="#ECECFE" />
        <path fill-rule="evenodd" clip-rule="evenodd"
            d="M7 6.5C6.4486 6.5 6 6.0514 6 5.5C6 4.94855 6.4486 4.5 7 4.5C7.5514 4.5 8 4.94855 8 5.5C8 6.0514 7.5514 6.5 7 6.5Z"
            fill="#ECECFE" />
        <path fill-rule="evenodd" clip-rule="evenodd"
            d="M10 75.5C9.4486 75.5 9 75.0514 9 74.5C9 73.9486 9.4486 73.5 10 73.5C10.5514 73.5 11 73.9486 11 74.5C11 75.0514 10.5514 75.5 10 75.5Z"
            fill="#ECECFE" />
    </symbol>
    <symbol id="artwork-minor">
        <path
            d="M55.7 69.8129C55.5 69.8129 55.2 69.7129 55.1 69.6129C54.9 69.4129 54.8 69.2129 54.7 68.9129L50 13.1129C50 12.5129 50.4 12.1129 50.9 12.0129L68.8 10.5129C69.4 10.4129 69.8 10.9129 69.9 11.4129L70.1 14.0129L74.6 67.3129C74.6 67.8129 74.2 68.3129 73.7 68.4129L55.7 69.8129ZM52.1 13.9129L56.6 67.7129L72.5 66.4129L68 12.6129L52.1 13.9129Z"
            fill="#E1000F" />
        <path
            d="M64 65.1129C62.8 65.1129 61.7 64.7129 60.8 63.9129C59.8 63.0129 59.2 61.8129 59 60.5129C58.9 59.2129 59.3 57.9129 60.2 56.9129C61.1 55.9129 62.3 55.3129 63.6 55.1129C64.9 55.0129 66.2 55.4129 67.2 56.3129C68.2 57.2129 68.8 58.4129 69 59.7129C69.1 61.0129 68.7 62.3129 67.8 63.3129C66.9 64.3129 65.7 64.9129 64.4 65.1129C64.2 65.1129 64.1 65.1129 64 65.1129ZM64 57.1129C63.9 57.1129 63.8 57.1129 63.7 57.1129C62.9 57.2129 62.2 57.5129 61.7 58.2129C61.2 58.9129 60.9 59.6129 61 60.4129C61.1 61.2129 61.4 61.9129 62.1 62.4129C62.7 62.9129 63.5 63.2129 64.3 63.1129C65.1 63.0129 65.8 62.7129 66.3 62.0129C66.8 61.4129 67.1 60.6129 67 59.8129C66.9 59.0129 66.6 58.3129 65.9 57.8129C65.4 57.3129 64.7 57.1129 64 57.1129Z"
            fill="#E1000F" />
        <path
            d="M57.5 43.6129C57 43.6129 56.5 43.2129 56.5 42.7129L54.3 16.8129C54.3 16.2129 54.7 15.8129 55.2 15.7129L65.2 14.9129C65.5 14.9129 65.7 15.0129 65.9 15.1129C66.1 15.3129 66.2 15.5129 66.3 15.8129L68.5 41.7129C68.5 42.0129 68.4 42.2129 68.3 42.4129C68.1 42.6129 67.9 42.7129 67.6 42.8129L57.5 43.6129ZM56.4 17.6129L58.4 41.5129L66.4 40.8129L64.4 16.9129L56.4 17.6129Z"
            fill="#E1000F" />
        <path
            d="M57.8 47.5129C57.3 47.5129 56.8 47.1129 56.8 46.6129C56.8 46.1129 57.2 45.6129 57.7 45.5129L63.7 45.0129C64.3 44.9129 64.7 45.4129 64.8 45.9129C64.8 46.4129 64.4 46.9129 63.9 47.0129L57.8 47.5129Z"
            fill="#E1000F" />
        <path
            d="M67.8 46.7129C67.5 46.7129 67.3 46.6129 67.1 46.4129C66.9 46.2129 66.8 46.0129 66.8 45.7129C66.8 45.6129 66.8 45.4129 66.9 45.3129C67 45.2129 67 45.1129 67.1 45.0129L67.2 44.9129C67.3 44.9129 67.3 44.8129 67.4 44.8129C67.5 44.8129 67.5 44.7129 67.6 44.7129C67.7 44.7129 67.9 44.7129 68 44.7129C68.1 44.7129 68.1 44.7129 68.2 44.8129C68.3 44.8129 68.3 44.8129 68.4 44.9129C68.5 44.9129 68.5 45.0129 68.6 45.0129C68.7 45.1129 68.8 45.2129 68.8 45.3129C68.8 45.4129 68.9 45.5129 68.9 45.7129C68.9 46.0129 68.8 46.2129 68.6 46.4129C68.3 46.6129 68 46.7129 67.8 46.7129Z"
            fill="#E1000F" />
    </symbol>
    <symbol id="artwork-major">
        <path
            d="M47 69.813H29C28.4 69.813 28 69.413 28 68.813V12.813C28 12.213 28.4 11.813 29 11.813H47C47.6 11.813 48 12.213 48 12.813V68.813C48 69.413 47.6 69.813 47 69.813ZM30 67.813H46V13.813H30V67.813Z"
            fill="#000091" />
        <path
            d="M38 65.813C35.2 65.813 33 63.613 33 60.813C33 58.013 35.2 55.813 38 55.813C40.8 55.813 43 58.013 43 60.813C43 63.613 40.8 65.813 38 65.813ZM38 57.813C36.3 57.813 35 59.113 35 60.813C35 62.513 36.3 63.813 38 63.813C39.7 63.813 41 62.513 41 60.813C41 59.113 39.7 57.813 38 57.813Z"
            fill="#000091" />
        <path
            d="M43 43.813H33C32.4 43.813 32 43.413 32 42.813V16.813C32 16.213 32.4 15.813 33 15.813H43C43.6 15.813 44 16.213 44 16.813V42.813C44 43.413 43.6 43.813 43 43.813ZM34 41.813H42V17.813H34V41.813Z"
            fill="#000091" />
        <path
            d="M39 47.813H33C32.4 47.813 32 47.413 32 46.813C32 46.213 32.4 45.813 33 45.813H39C39.6 45.813 40 46.213 40 46.813C40 47.413 39.6 47.813 39 47.813Z"
            fill="#000091" />
        <path
            d="M43 47.813C42.9 47.813 42.7 47.813 42.6 47.713C42.5 47.613 42.4 47.613 42.3 47.513C42.1 47.313 42 47.113 42 46.813C42 46.713 42 46.513 42.1 46.413C42.1 46.313 42.2 46.213 42.3 46.113C42.5 45.913 42.9 45.813 43.2 45.813C43.3 45.813 43.3 45.813 43.4 45.913C43.5 45.913 43.5 45.913 43.6 46.013C43.7 46.013 43.7 46.113 43.8 46.113C44 46.313 44.1 46.613 44.1 46.813C44.1 47.113 44 47.313 43.8 47.513C43.7 47.613 43.6 47.713 43.5 47.713C43.4 47.713 43.1 47.813 43 47.813Z"
            fill="#000091" />
        <path
            d="M25 69.813H7C6.4 69.813 6 69.413 6 68.813V59.013C6 58.413 6.4 58.013 7 58.013C7.6 58.013 8 58.413 8 59.013V67.813H24V13.813H8V53.013C8 53.613 7.6 54.013 7 54.013C6.4 54.013 6 53.613 6 53.013V12.813C6 12.213 6.4 11.813 7 11.813H25C25.6 11.813 26 12.213 26 12.813V68.813C26 69.413 25.6 69.813 25 69.813Z"
            fill="#000091" />
        <path
            d="M16 65.813C13.2 65.813 11 63.613 11 60.813C11 58.013 13.2 55.813 16 55.813C18.8 55.813 21 58.013 21 60.813C21 63.613 18.8 65.813 16 65.813ZM16 57.813C14.3 57.813 13 59.113 13 60.813C13 62.513 14.3 63.813 16 63.813C17.7 63.813 19 62.513 19 60.813C19 59.113 17.7 57.813 16 57.813Z"
            fill="#000091" />
        <path
            d="M21 43.813H11C10.4 43.813 10 43.413 10 42.813V16.813C10 16.213 10.4 15.813 11 15.813H21C21.6 15.813 22 16.213 22 16.813V42.813C22 43.413 21.6 43.813 21 43.813ZM12 41.813H20V17.813H12V41.813Z"
            fill="#000091" />
        <path
            d="M17 47.813H11C10.4 47.813 10 47.413 10 46.813C10 46.213 10.4 45.813 11 45.813H17C17.6 45.813 18 46.213 18 46.813C18 47.413 17.6 47.813 17 47.813Z"
            fill="#000091" />
        <path
            d="M21 47.813C20.9 47.813 20.7 47.813 20.6 47.713C20.5 47.613 20.4 47.613 20.3 47.513C20.1 47.313 20 47.113 20 46.813C20 46.713 20 46.513 20.1 46.413C20.2 46.313 20.2 46.213 20.3 46.113C20.7 45.713 21.3 45.713 21.7 46.113C21.8 46.213 21.9 46.313 21.9 46.413C22 46.513 22 46.713 22 46.813C22 47.113 21.9 47.313 21.7 47.513C21.6 47.613 21.5 47.713 21.4 47.713C21.3 47.713 21.1 47.813 21 47.813Z"
            fill="#000091" />
    </symbol>
    <use class="fr-artwork-decorative" href="#artwork-decorative" />
    <use class="fr-artwork-minor" href="#artwork-minor" />
    <use class="fr-artwork-major" href="#artwork-major" />
</svg>