<svg width="40" height="40" viewBox="0 0 40 40" fill="none" xmlns="http://www.w3.org/2000/svg">
<path fill-rule="evenodd" clip-rule="evenodd" d="M36.5 16.5C36.2243 16.5 36 16.2757 36 16C36 15.7243 36.2243 15.5 36.5 15.5C36.7757 15.5 37 15.7243 37 16C37 16.2757 36.7757 16.5 36.5 16.5Z" fill="#ECECFE"/>
<path fill-rule="evenodd" clip-rule="evenodd" d="M6 21.5C5.7243 21.5 5.5 21.2757 5.5 21C5.5 20.7243 5.7243 20.5 6 20.5C6.2757 20.5 6.5 20.7243 6.5 21C6.5 21.2757 6.2757 21.5 6 21.5Z" fill="#ECECFE"/>
<path fill-rule="evenodd" clip-rule="evenodd" d="M4 3C3.7243 3 3.5 2.7757 3.5 2.5C3.5 2.22428 3.7243 2 4 2C4.2757 2 4.5 2.22428 4.5 2.5C4.5 2.7757 4.2757 3 4 3Z" fill="#ECECFE"/>
<path fill-rule="evenodd" clip-rule="evenodd" d="M11.5 37C11.2243 37 11 36.7757 11 36.5C11 36.2243 11.2243 36 11.5 36C11.7757 36 12 36.2243 12 36.5C12 36.7757 11.7757 37 11.5 37Z" fill="#ECECFE"/>
<path fill-rule="evenodd" clip-rule="evenodd" d="M22 4C21.7243 4 21.5 3.7757 21.5 3.5C21.5 3.22428 21.7243 3 22 3C22.2757 3 22.5 3.22428 22.5 3.5C22.5 3.7757 22.2757 4 22 4Z" fill="#ECECFE"/>
<path fill-rule="evenodd" clip-rule="evenodd" d="M35.5 36C35.2243 36 35 35.7757 35 35.5C35 35.2243 35.2243 35 35.5 35C35.7757 35 36 35.2243 36 35.5C36 35.7757 35.7757 36 35.5 36Z" fill="#ECECFE"/>
<path fill-rule="evenodd" clip-rule="evenodd" d="M33 7C33 7.3053 32.9088 7.58931 32.7521 7.82624C33.3465 8.16978 33.75 8.76284 33.75 9.5C33.75 9.77614 33.5261 10 33.25 10C32.9739 10 32.75 9.77614 32.75 9.5C32.75 8.99925 32.2958 8.5 31.5 8.5C30.7149 8.5 30.25 9.03679 30.25 9.5C30.25 9.77614 30.0261 10 29.75 10C29.4739 10 29.25 9.77614 29.25 9.5C29.25 8.79361 29.6541 8.18914 30.2537 7.83501C30.0935 7.59633 30 7.30908 30 7C30 6.17157 30.6716 5.5 31.5 5.5C32.3284 5.5 33 6.17157 33 7ZM31 7C31 6.72386 31.2239 6.5 31.5 6.5C31.7761 6.5 32 6.72386 32 7C32 7.27614 31.7761 7.5 31.5 7.5C31.2239 7.5 31 7.27614 31 7Z" fill="#E1000F"/>
<path fill-rule="evenodd" clip-rule="evenodd" d="M13.5 9.5C13.5 9.80531 13.4088 10.0893 13.2521 10.3262C13.8465 10.6698 14.25 11.2628 14.25 12C14.25 12.2761 14.0261 12.5 13.75 12.5C13.4739 12.5 13.25 12.2761 13.25 12C13.25 11.4992 12.7958 11 12 11C11.2149 11 10.75 11.5368 10.75 12C10.75 12.2761 10.5261 12.5 10.25 12.5C9.97386 12.5 9.75 12.2761 9.75 12C9.75 11.2936 10.1541 10.6891 10.7537 10.335C10.5935 10.0963 10.5 9.80908 10.5 9.5C10.5 8.67157 11.1716 8 12 8C12.8284 8 13.5 8.67157 13.5 9.5ZM11.5 9.5C11.5 9.22386 11.7239 9 12 9C12.2761 9 12.5 9.22386 12.5 9.5C12.5 9.77614 12.2761 10 12 10C11.7239 10 11.5 9.77614 11.5 9.5Z" fill="#E1000F"/>
<path fill-rule="evenodd" clip-rule="evenodd" d="M18.75 18C18.75 18.5124 18.9427 18.9798 19.2596 19.3337C18.2164 19.8316 17.5 20.8361 17.5 22C17.5 22.2761 17.7239 22.5 18 22.5C18.2761 22.5 18.5 22.2761 18.5 22C18.5 20.9626 19.4382 20 20.75 20C22.0685 20 23 20.9188 23 22C23 22.2761 23.2239 22.5 23.5 22.5C23.7761 22.5 24 22.2761 24 22C24 20.8002 23.2844 19.8136 22.2462 19.3272C22.5597 18.9741 22.75 18.5093 22.75 18C22.75 16.8954 21.8546 16 20.75 16C19.6454 16 18.75 16.8954 18.75 18ZM20.75 17C20.1977 17 19.75 17.4477 19.75 18C19.75 18.5523 20.1977 19 20.75 19L20.7517 19C21.3032 18.9991 21.75 18.5517 21.75 18C21.75 17.4477 21.3023 17 20.75 17Z" fill="#E1000F"/>
<path fill-rule="evenodd" clip-rule="evenodd" d="M23.5 31.5C23.5 31.8053 23.4088 32.0893 23.2521 32.3262C23.8465 32.6698 24.25 33.2628 24.25 34C24.25 34.2761 24.0261 34.5 23.75 34.5C23.4739 34.5 23.25 34.2761 23.25 34C23.25 33.4996 22.7965 33.0007 22.0018 33L22 33L21.9982 33C21.2142 33.0008 20.75 33.5371 20.75 34C20.75 34.2761 20.5261 34.5 20.25 34.5C19.9739 34.5 19.75 34.2761 19.75 34C19.75 33.2936 20.1541 32.6891 20.7537 32.335C20.5935 32.0963 20.5 31.8091 20.5 31.5C20.5 30.6716 21.1716 30 22 30C22.8284 30 23.5 30.6716 23.5 31.5ZM21.5 31.5C21.5 31.2239 21.7239 31 22 31C22.2761 31 22.5 31.2239 22.5 31.5C22.5 31.7761 22.2761 32 22 32L21.9987 32C21.7232 31.9993 21.5 31.7757 21.5 31.5Z" fill="#E1000F"/>
<path fill-rule="evenodd" clip-rule="evenodd" d="M33.5 20.5C32.6716 20.5 32 21.1716 32 22C32 22.3091 32.0935 22.5963 32.2537 22.835C31.6541 23.1891 31.25 23.7936 31.25 24.5C31.25 24.7761 31.4739 25 31.75 25C32.0261 25 32.25 24.7761 32.25 24.5C32.25 24.0368 32.7149 23.5 33.5 23.5C34.2958 23.5 34.75 23.9992 34.75 24.5C34.75 24.7761 34.9739 25 35.25 25C35.5261 25 35.75 24.7761 35.75 24.5C35.75 23.7628 35.3465 23.1698 34.7521 22.8262C34.9088 22.5893 35 22.3053 35 22C35 21.1716 34.3284 20.5 33.5 20.5ZM33 22C33 21.7239 33.2239 21.5 33.5 21.5C33.7761 21.5 34 21.7239 34 22C34 22.2761 33.7761 22.5 33.5 22.5C33.2239 22.5 33 22.2761 33 22Z" fill="#E1000F"/>
<path fill-rule="evenodd" clip-rule="evenodd" d="M8.5 29C8.5 29.3053 8.40879 29.5893 8.25213 29.8262C8.84647 30.1698 9.25 30.7628 9.25 31.5C9.25 31.7761 9.02614 32 8.75 32C8.47386 32 8.25 31.7761 8.25 31.5C8.25 30.9992 7.79583 30.5 7 30.5C6.21487 30.5 5.75 31.0368 5.75 31.5C5.75 31.7761 5.52614 32 5.25 32C4.97386 32 4.75 31.7761 4.75 31.5C4.75 30.7936 5.15413 30.1891 5.75372 29.835C5.59348 29.5963 5.5 29.3091 5.5 29C5.5 28.1716 6.17157 27.5 7 27.5C7.82843 27.5 8.5 28.1716 8.5 29ZM6.5 29C6.5 28.7239 6.72386 28.5 7 28.5C7.27614 28.5 7.5 28.7239 7.5 29C7.5 29.2761 7.27614 29.5 7 29.5C6.72386 29.5 6.5 29.2761 6.5 29Z" fill="#E1000F"/>
<path d="M6 13C6.27614 13 6.5 12.7761 6.5 12.5C6.5 12.2239 6.27614 12 6 12C5.72386 12 5.5 12.2239 5.5 12.5C5.5 12.7761 5.72386 13 6 13Z" fill="#E1000F"/>
<path fill-rule="evenodd" clip-rule="evenodd" d="M33.5 19.5C31.567 19.5 30 21.067 30 23C30 24.933 31.567 26.5 33.5 26.5C35.433 26.5 37 24.933 37 23C37 21.067 35.433 19.5 33.5 19.5ZM29 23C29 20.5147 31.0147 18.5 33.5 18.5C35.9853 18.5 38 20.5147 38 23C38 25.4853 35.9853 27.5 33.5 27.5C31.0147 27.5 29 25.4853 29 23Z" fill="#000091"/>
<path fill-rule="evenodd" clip-rule="evenodd" d="M6.71674 13.588C6.94429 13.4315 7.25558 13.4892 7.41202 13.7167C7.89993 14.4264 8.6232 14.9776 9.47361 15.4028C9.7206 15.5263 9.82071 15.8266 9.69721 16.0736C9.57372 16.3206 9.27338 16.4207 9.02639 16.2972C8.0768 15.8224 7.20007 15.1736 6.58798 14.2833C6.43154 14.0557 6.48918 13.7444 6.71674 13.588Z" fill="#000091"/>
<path fill-rule="evenodd" clip-rule="evenodd" d="M12 7C10.067 7 8.5 8.567 8.5 10.5C8.5 12.433 10.067 14 12 14C13.933 14 15.5 12.433 15.5 10.5C15.5 8.567 13.933 7 12 7ZM7.5 10.5C7.5 8.01472 9.51472 6 12 6C14.4853 6 16.5 8.01472 16.5 10.5C16.5 12.9853 14.4853 15 12 15C9.51472 15 7.5 12.9853 7.5 10.5Z" fill="#000091"/>
<path fill-rule="evenodd" clip-rule="evenodd" d="M7 26.5C5.067 26.5 3.5 28.067 3.5 30C3.5 31.933 5.067 33.5 7 33.5C8.933 33.5 10.5 31.933 10.5 30C10.5 28.067 8.933 26.5 7 26.5ZM2.5 30C2.5 27.5147 4.51472 25.5 7 25.5C9.48528 25.5 11.5 27.5147 11.5 30C11.5 32.4853 9.48528 34.5 7 34.5C4.51472 34.5 2.5 32.4853 2.5 30Z" fill="#000091"/>
<path fill-rule="evenodd" clip-rule="evenodd" d="M27 8C27 5.52386 29.0239 3.5 31.5 3.5C32.1796 3.5 32.856 3.66897 33.4236 3.95279C33.6706 4.07628 33.7707 4.37662 33.6472 4.62361C33.5237 4.8706 33.2234 4.97071 32.9764 4.84721C32.544 4.63103 32.0204 4.5 31.5 4.5C29.5761 4.5 28 6.07614 28 8C28 9.92386 29.5761 11.5 31.5 11.5C33.4239 11.5 35 9.92386 35 8C35 7.72386 35.2239 7.5 35.5 7.5C35.7761 7.5 36 7.72386 36 8C36 10.4761 33.9761 12.5 31.5 12.5C29.0239 12.5 27 10.4761 27 8Z" fill="#000091"/>
<path fill-rule="evenodd" clip-rule="evenodd" d="M34.1 5.1C34.2657 4.87908 34.5791 4.83431 34.8 4.99999C34.8505 5.03787 34.8919 5.07811 34.9215 5.10856C34.95 5.13797 34.977 5.16842 34.9963 5.1901C34.9971 5.19102 34.9979 5.19192 34.9987 5.19281C35.021 5.21789 35.0345 5.23297 35.0464 5.24528C35.0507 5.2497 35.0535 5.25241 35.055 5.25378C35.2716 5.42041 35.3144 5.73075 35.15 5.94999C34.9843 6.17091 34.6709 6.21568 34.45 6.05C34.3995 6.01212 34.3581 5.97188 34.3285 5.94143C34.3 5.91202 34.273 5.88157 34.2537 5.85989C34.2529 5.85897 34.2521 5.85806 34.2513 5.85717C34.229 5.8321 34.2155 5.81702 34.2035 5.80471C34.1993 5.80029 34.1965 5.79758 34.195 5.79621C33.9784 5.62958 33.9356 5.31924 34.1 5.1Z" fill="#000091"/>
<path fill-rule="evenodd" clip-rule="evenodd" d="M17.5 32.5C17.5 30.0239 19.5239 28 22 28C24.4761 28 26.5 30.0239 26.5 32.5C26.5 34.9761 24.4761 37 22 37C21.3204 37 20.644 36.831 20.0764 36.5472C19.8294 36.4237 19.7293 36.1234 19.8528 35.8764C19.9763 35.6294 20.2766 35.5293 20.5236 35.6528C20.956 35.869 21.4796 36 22 36C23.9239 36 25.5 34.4239 25.5 32.5C25.5 30.5761 23.9239 29 22 29C20.0761 29 18.5 30.5761 18.5 32.5C18.5 32.7761 18.2761 33 18 33C17.7239 33 17.5 32.7761 17.5 32.5Z" fill="#000091"/>
<path fill-rule="evenodd" clip-rule="evenodd" d="M18.6 34.7C18.7657 34.4791 19.0791 34.4343 19.3 34.6C19.3505 34.6379 19.3919 34.6781 19.4215 34.7086C19.45 34.738 19.477 34.7684 19.4963 34.7901C19.4971 34.791 19.4979 34.7919 19.4987 34.7928C19.521 34.8179 19.5345 34.833 19.5465 34.8453C19.5507 34.8497 19.5535 34.8524 19.555 34.8538C19.7716 35.0204 19.8144 35.3308 19.65 35.55C19.4843 35.7709 19.1709 35.8157 18.95 35.65C18.8995 35.6121 18.8581 35.5719 18.8286 35.5414C18.8 35.512 18.773 35.4816 18.7537 35.4599C18.7529 35.459 18.7521 35.4581 18.7513 35.4572C18.729 35.4321 18.7155 35.417 18.7036 35.4047C18.6993 35.4003 18.6965 35.3976 18.695 35.3962C18.4784 35.2296 18.4356 34.9192 18.6 34.7Z" fill="#000091"/>
<path fill-rule="evenodd" clip-rule="evenodd" d="M20.75 15C18.1266 15 16 17.1266 16 19.75C16 22.3734 18.1266 24.5 20.75 24.5C23.3734 24.5 25.5 22.3734 25.5 19.75C25.5 17.1266 23.3734 15 20.75 15ZM15 19.75C15 16.5744 17.5744 14 20.75 14C23.9256 14 26.5 16.5744 26.5 19.75C26.5 22.9256 23.9256 25.5 20.75 25.5C17.5744 25.5 15 22.9256 15 19.75Z" fill="#000091"/>
<path fill-rule="evenodd" clip-rule="evenodd" d="M28.8536 10.6465C29.0488 10.8417 29.0488 11.1583 28.8536 11.3536L24.3536 15.8536C24.1583 16.0488 23.8417 16.0488 23.6464 15.8536C23.4512 15.6583 23.4512 15.3417 23.6464 15.1465L28.1464 10.6465C28.3417 10.4512 28.6583 10.4512 28.8536 10.6465Z" fill="#000091"/>
<path fill-rule="evenodd" clip-rule="evenodd" d="M25.5128 21.3876C25.5749 21.1185 25.8434 20.9507 26.1124 21.0128L29.3624 21.7628C29.6315 21.8249 29.7993 22.0934 29.7372 22.3624C29.6751 22.6315 29.4067 22.7993 29.1376 22.7372L25.8876 21.9872C25.6185 21.9251 25.4507 21.6566 25.5128 21.3876Z" fill="#000091"/>
<path fill-rule="evenodd" clip-rule="evenodd" d="M21.4585 24.7517C21.7337 24.7288 21.9753 24.9333 21.9983 25.2085L22.2483 28.2085C22.2712 28.4837 22.0667 28.7253 21.7915 28.7483C21.5163 28.7712 21.2747 28.5667 21.2517 28.2915L21.0017 25.2915C20.9788 25.0163 21.1833 24.7747 21.4585 24.7517Z" fill="#000091"/>
<path fill-rule="evenodd" clip-rule="evenodd" d="M14.3965 13.3964C14.5917 13.2012 14.9083 13.2012 15.1036 13.3964L17.3536 15.6464C17.5488 15.8417 17.5488 16.1583 17.3536 16.3536C17.1583 16.5488 16.8417 16.5488 16.6465 16.3536L14.3965 14.1036C14.2012 13.9083 14.2012 13.5917 14.3965 13.3964Z" fill="#000091"/>
<path fill-rule="evenodd" clip-rule="evenodd" d="M16.6521 22.9528C16.8162 23.1749 16.7693 23.488 16.5472 23.6521L10.7972 27.9021C10.5751 28.0662 10.262 28.0193 10.0979 27.7972C9.93378 27.5751 9.98074 27.2621 10.2028 27.0979L15.9528 22.8479C16.1749 22.6838 16.488 22.7307 16.6521 22.9528Z" fill="#000091"/>
</svg>
