<svg width="40" height="40" viewBox="0 0 40 40" fill="none" xmlns="http://www.w3.org/2000/svg">
<path fill-rule="evenodd" clip-rule="evenodd" d="M5 4.00012C4.7243 4.00012 4.5 3.77582 4.5 3.50012C4.5 3.2244 4.7243 3.00012 5 3.00012C5.2757 3.00012 5.5 3.2244 5.5 3.50012C5.5 3.77582 5.2757 4.00012 5 4.00012Z" fill="#ECECFE"/>
<path fill-rule="evenodd" clip-rule="evenodd" d="M8 35.5001C7.7243 35.5001 7.5 35.2758 7.5 35.0001C7.5 34.7244 7.7243 34.5001 8 34.5001C8.2757 34.5001 8.5 34.7244 8.5 35.0001C8.5 35.2758 8.2757 35.5001 8 35.5001Z" fill="#ECECFE"/>
<path fill-rule="evenodd" clip-rule="evenodd" d="M34 28.0001C33.7243 28.0001 33.5 27.7758 33.5 27.5001C33.5 27.2244 33.7243 27.0001 34 27.0001C34.2757 27.0001 34.5 27.2244 34.5 27.5001C34.5 27.7758 34.2757 28.0001 34 28.0001Z" fill="#ECECFE"/>
<path fill-rule="evenodd" clip-rule="evenodd" d="M35 4.00012C34.7243 4.00012 34.5 3.77582 34.5 3.50012C34.5 3.2244 34.7243 3.00012 35 3.00012C35.2757 3.00012 35.5 3.2244 35.5 3.50012C35.5 3.77582 35.2757 4.00012 35 4.00012Z" fill="#ECECFE"/>
<path fill-rule="evenodd" clip-rule="evenodd" d="M20.25 17.0001C19.2835 17.0001 18.5 17.7836 18.5 18.7501C18.5 19.7166 19.2835 20.5001 20.25 20.5001C21.2165 20.5001 22 19.7166 22 18.7501C22 17.7836 21.2165 17.0001 20.25 17.0001ZM17.5 18.7501C17.5 17.2313 18.7312 16.0001 20.25 16.0001C21.7688 16.0001 23 17.2313 23 18.7501C23 20.2689 21.7688 21.5001 20.25 21.5001C18.7312 21.5001 17.5 20.2689 17.5 18.7501Z" fill="#E1000F"/>
<path fill-rule="evenodd" clip-rule="evenodd" d="M17.75 28.5001C17.75 28.224 17.9739 28.0001 18.25 28.0001H18.75C19.0261 28.0001 19.25 28.224 19.25 28.5001C19.25 28.7763 19.0261 29.0001 18.75 29.0001H18.25C17.9739 29.0001 17.75 28.7763 17.75 28.5001Z" fill="#E1000F"/>
<path fill-rule="evenodd" clip-rule="evenodd" d="M19.0296 12.8308C19.101 12.6324 19.2892 12.5001 19.5 12.5001H21C21.2108 12.5001 21.399 12.6324 21.4704 12.8308L21.849 13.8822L22.5397 14.1962L23.5264 13.7029C23.7189 13.6067 23.9514 13.6444 24.1036 13.7966L25.2036 14.8966C25.3557 15.0487 25.3935 15.2812 25.2972 15.4737L24.7966 16.4749L25.0777 17.1932L26.147 17.5222C26.3568 17.5868 26.5 17.7806 26.5 18.0001V19.5501C26.5 19.7632 26.3649 19.9529 26.1636 20.0226L25.0772 20.3987L24.7987 21.0794L25.2972 22.0765C25.3954 22.2728 25.354 22.5102 25.1952 22.6618L24.0952 23.7118C23.9471 23.8532 23.7278 23.89 23.5417 23.8047L22.5387 23.345L21.8451 23.6287L21.4704 24.6695C21.399 24.8679 21.2108 25.0001 21 25.0001H19.5C19.2892 25.0001 19.101 24.8679 19.0296 24.6695L18.6549 23.6287L17.9613 23.345L16.9583 23.8047C16.7722 23.89 16.5529 23.8532 16.4048 23.7118L15.3048 22.6618C15.146 22.5102 15.1046 22.2728 15.2028 22.0765L15.7013 21.0794L15.4228 20.3987L14.3364 20.0226C14.1351 19.9529 14 19.7632 14 19.5501V18.0001C14 17.7806 14.1432 17.5868 14.353 17.5222L15.4223 17.1932L15.7034 16.4749L15.2028 15.4737C15.1065 15.2812 15.1443 15.0487 15.2964 14.8966L16.3964 13.7966C16.5486 13.6444 16.7811 13.6067 16.9736 13.7029L17.9603 14.1962L18.651 13.8822L19.0296 12.8308ZM19.8514 13.5001L19.5204 14.4195C19.4747 14.5464 19.3797 14.6495 19.2569 14.7053L18.1569 15.2053C18.0195 15.2677 17.8613 15.2648 17.7264 15.1973L16.8487 14.7585L16.2584 15.3488L16.6972 16.2265C16.7605 16.3531 16.7672 16.5005 16.7156 16.6323L16.2656 17.7823C16.2101 17.9243 16.0928 18.0332 15.947 18.078L15 18.3694V19.1941L15.9636 19.5276C16.0994 19.5746 16.2084 19.6778 16.2628 19.8108L16.7128 20.9108C16.7674 21.0443 16.7617 21.1948 16.6972 21.3237L16.2624 22.1934L16.8499 22.7543L17.7417 22.3456C17.8674 22.288 18.0113 22.285 18.1393 22.3373L19.2393 22.7873C19.3703 22.8409 19.4725 22.9476 19.5204 23.0808L19.8514 24.0001H20.6486L20.9796 23.0808C21.0275 22.9476 21.1297 22.8409 21.2607 22.7873L22.3607 22.3373C22.4887 22.285 22.6326 22.288 22.7583 22.3456L23.6501 22.7543L24.2376 22.1934L23.8028 21.3237C23.7383 21.1948 23.7326 21.0443 23.7872 20.9108L24.2372 19.8108C24.2916 19.6778 24.4006 19.5746 24.5364 19.5276L25.5 19.1941V18.3694L24.553 18.078C24.4072 18.0332 24.2899 17.9243 24.2344 17.7823L23.7844 16.6323C23.7328 16.5005 23.7395 16.3531 23.8028 16.2265L24.2416 15.3488L23.6513 14.7585L22.7736 15.1973C22.6387 15.2648 22.4805 15.2677 22.3431 15.2053L21.2431 14.7053C21.1203 14.6495 21.0253 14.5464 20.9796 14.4195L20.6486 13.5001H19.8514Z" fill="#E1000F"/>
<path fill-rule="evenodd" clip-rule="evenodd" d="M19.75 28.5001C19.75 28.224 19.9739 28.0001 20.25 28.0001H23.75C24.0261 28.0001 24.25 28.224 24.25 28.5001C24.25 28.7763 24.0261 29.0001 23.75 29.0001H20.25C19.9739 29.0001 19.75 28.7763 19.75 28.5001Z" fill="#000091"/>
<path fill-rule="evenodd" clip-rule="evenodd" d="M22.6303 32.2674C22.8969 32.3394 23.0547 32.6139 22.9827 32.8805C22.6546 34.0957 21.7755 35.2501 20.35 35.2501C18.9294 35.2501 17.805 34.1612 17.5122 32.8599C17.4516 32.5905 17.6208 32.3229 17.8902 32.2623C18.1597 32.2017 18.4272 32.371 18.4878 32.6404C18.695 33.5613 19.4706 34.2501 20.35 34.2501C21.1245 34.2501 21.7454 33.6267 22.0173 32.6198C22.0893 32.3532 22.3637 32.1954 22.6303 32.2674Z" fill="#000091"/>
<path fill-rule="evenodd" clip-rule="evenodd" d="M20.25 5.00012C20.5261 5.00012 20.75 5.22398 20.75 5.50012V8.00012C20.75 8.27626 20.5261 8.50012 20.25 8.50012C19.9739 8.50012 19.75 8.27626 19.75 8.00012V5.50012C19.75 5.22398 19.9739 5.00012 20.25 5.00012Z" fill="#000091"/>
<path fill-rule="evenodd" clip-rule="evenodd" d="M6.5 19.0001C6.5 18.724 6.72386 18.5001 7 18.5001H9.5C9.77614 18.5001 10 18.724 10 19.0001C10 19.2763 9.77614 19.5001 9.5 19.5001H7C6.72386 19.5001 6.5 19.2763 6.5 19.0001Z" fill="#000091"/>
<path fill-rule="evenodd" clip-rule="evenodd" d="M8.58766 14.3097C8.69281 14.0544 8.98504 13.9326 9.24038 14.0378L10.0904 14.3878C10.3457 14.4929 10.4675 14.7852 10.3623 15.0405C10.2572 15.2958 9.96497 15.4176 9.70963 15.3125L8.85963 14.9625C8.60429 14.8573 8.48252 14.5651 8.58766 14.3097Z" fill="#000091"/>
<path fill-rule="evenodd" clip-rule="evenodd" d="M15.2764 7.40291C15.5234 7.27942 15.8237 7.37953 15.9472 7.62652L16.4472 8.62652C16.5707 8.87351 16.4706 9.17385 16.2236 9.29734C15.9766 9.42084 15.6763 9.32072 15.5528 9.07373L15.0528 8.07373C14.9293 7.82675 15.0294 7.52641 15.2764 7.40291Z" fill="#000091"/>
<path fill-rule="evenodd" clip-rule="evenodd" d="M10.1464 8.74657C10.3417 8.55131 10.6583 8.55131 10.8536 8.74657L12.8536 10.7466C13.0488 10.9418 13.0488 11.2584 12.8536 11.4537C12.6583 11.6489 12.3417 11.6489 12.1464 11.4537L10.1464 9.45368C9.95118 9.25842 9.95118 8.94184 10.1464 8.74657Z" fill="#000091"/>
<path fill-rule="evenodd" clip-rule="evenodd" d="M30.5 19.0001C30.5 18.724 30.7239 18.5001 31 18.5001H33.5C33.7761 18.5001 34 18.724 34 19.0001C34 19.2763 33.7761 19.5001 33.5 19.5001H31C30.7239 19.5001 30.5 19.2763 30.5 19.0001Z" fill="#000091"/>
<path fill-rule="evenodd" clip-rule="evenodd" d="M31.9123 14.3097C32.0175 14.5651 31.8957 14.8573 31.6404 14.9625L30.7904 15.3125C30.535 15.4176 30.2428 15.2958 30.1377 15.0405C30.0325 14.7852 30.1543 14.4929 30.4096 14.3878L31.2596 14.0378C31.515 13.9326 31.8072 14.0544 31.9123 14.3097Z" fill="#000091"/>
<path fill-rule="evenodd" clip-rule="evenodd" d="M25.2236 7.40291C25.4706 7.52641 25.5707 7.82675 25.4472 8.07373L24.9472 9.07373C24.8237 9.32072 24.5234 9.42084 24.2764 9.29734C24.0294 9.17385 23.9293 8.87351 24.0528 8.62652L24.5528 7.62652C24.6763 7.37953 24.9766 7.27942 25.2236 7.40291Z" fill="#000091"/>
<path fill-rule="evenodd" clip-rule="evenodd" d="M30.3536 8.74657C30.5488 8.94184 30.5488 9.25842 30.3536 9.45368L28.3536 11.4537C28.1583 11.6489 27.8417 11.6489 27.6464 11.4537C27.4512 11.2584 27.4512 10.9418 27.6464 10.7466L29.6464 8.74657C29.8417 8.55131 30.1583 8.55131 30.3536 8.74657Z" fill="#000091"/>
<path fill-rule="evenodd" clip-rule="evenodd" d="M26.9036 24.3966C27.0988 24.5918 27.0988 24.9084 26.9036 25.1037C26.8448 25.1624 26.7848 25.2231 26.7236 25.2852C26.2405 25.7743 25.6754 26.3464 24.9736 26.6973C24.7266 26.8208 24.4263 26.7207 24.3028 26.4737C24.1793 26.2267 24.2794 25.9264 24.5264 25.8029C25.0702 25.531 25.5134 25.0844 26.0135 24.5804C26.0736 24.5199 26.1345 24.4586 26.1964 24.3966C26.3917 24.2013 26.7083 24.2013 26.9036 24.3966Z" fill="#000091"/>
<path fill-rule="evenodd" clip-rule="evenodd" d="M20.25 10.5001C15.6761 10.5001 12 14.1763 12 18.7501C12 21.7147 13.5997 24.3096 15.9635 25.7752C16.1982 25.9207 16.2705 26.2289 16.125 26.4636C15.9794 26.6983 15.6712 26.7706 15.4365 26.6251C12.8003 24.9906 11 22.0856 11 18.7501C11 13.624 15.1239 9.50012 20.25 9.50012C25.3761 9.50012 29.5 13.624 29.5 18.7501C29.5 20.2826 29.1296 21.7145 28.4396 22.9883C28.3081 23.2311 28.0047 23.3213 27.7619 23.1898C27.519 23.0582 27.4288 22.7548 27.5604 22.512C28.1704 21.3857 28.5 20.1177 28.5 18.7501C28.5 14.1763 24.8239 10.5001 20.25 10.5001Z" fill="#000091"/>
<path fill-rule="evenodd" clip-rule="evenodd" d="M15.3578 25.94C15.5291 25.7234 15.8435 25.6866 16.0601 25.8579C16.2554 26.0123 16.3944 26.2295 16.496 26.4435C16.6005 26.6636 16.6827 26.9175 16.7465 27.1836C16.874 27.716 16.9385 28.3435 16.9385 28.9501H15.9385C15.9385 28.4068 15.8801 27.8592 15.774 27.4166C15.721 27.1952 15.6587 27.0116 15.5926 26.8724C15.5236 26.727 15.4659 26.6629 15.4399 26.6423C15.2233 26.471 15.1865 26.1566 15.3578 25.94ZM24.5615 28.9501V31.2001C24.5615 31.5279 24.4318 32.0026 24.1963 32.3992C23.9632 32.7918 23.5355 33.2501 22.8811 33.2501H17.6189C16.9645 33.2501 16.5368 32.7918 16.3037 32.3992C16.0682 32.0026 15.9385 31.5279 15.9385 31.2001V28.9501H16.9385V31.2001C16.9385 31.3223 17.0056 31.6226 17.1635 31.8886C17.3238 32.1585 17.4863 32.2501 17.6189 32.2501H22.8811C23.0137 32.2501 23.1762 32.1585 23.3365 31.8886C23.4944 31.6226 23.5615 31.3223 23.5615 31.2001V28.9503L24.5615 28.9501ZM24.5615 28.9501C24.5615 28.4068 24.6199 27.8592 24.726 27.4166C24.779 27.1952 24.8413 27.0116 24.9074 26.8724C24.9764 26.727 25.0341 26.6629 25.0601 26.6423C25.2767 26.471 25.3135 26.1566 25.1422 25.94C24.9709 25.7234 24.6565 25.6866 24.4399 25.8579C24.2446 26.0123 24.1056 26.2295 24.004 26.4435C23.8995 26.6636 23.8173 26.9175 23.7535 27.1836C23.626 27.716 23.5615 28.3437 23.5615 28.9503L24.5615 28.9501Z" fill="#000091"/>
</svg>
