<svg width="40" height="40" viewBox="0 0 40 40" fill="none" xmlns="http://www.w3.org/2000/svg">
<path fill-rule="evenodd" clip-rule="evenodd" d="M3 17.0001C3.275 17.0001 3.5 16.7751 3.5 16.5001C3.5 16.2251 3.275 16.0001 3 16.0001C2.725 16.0001 2.5 16.2251 2.5 16.5001C2.5 16.7751 2.725 17.0001 3 17.0001Z" fill="#ECECFE"/>
<path fill-rule="evenodd" clip-rule="evenodd" d="M23 3.00012C23.275 3.00012 23.5 2.77512 23.5 2.50012C23.5 2.22512 23.275 2.00012 23 2.00012C22.725 2.00012 22.5 2.22512 22.5 2.50012C22.5 2.77512 22.725 3.00012 23 3.00012Z" fill="#ECECFE"/>
<path fill-rule="evenodd" clip-rule="evenodd" d="M33 31.0001C33.275 31.0001 33.5 30.7751 33.5 30.5001C33.5 30.2251 33.275 30.0001 33 30.0001C32.725 30.0001 32.5 30.2251 32.5 30.5001C32.5 30.7751 32.725 31.0001 33 31.0001Z" fill="#ECECFE"/>
<path fill-rule="evenodd" clip-rule="evenodd" d="M37 15.0001C37.275 15.0001 37.5 14.7751 37.5 14.5001C37.5 14.2251 37.275 14.0001 37 14.0001C36.725 14.0001 36.5 14.2251 36.5 14.5001C36.5 14.7751 36.725 15.0001 37 15.0001Z" fill="#ECECFE"/>
<path fill-rule="evenodd" clip-rule="evenodd" d="M18 36.5001C18.275 36.5001 18.5 36.2751 18.5 36.0001C18.5 35.7251 18.275 35.5001 18 35.5001C17.725 35.5001 17.5 35.7251 17.5 36.0001C17.5 36.2751 17.725 36.5001 18 36.5001Z" fill="#ECECFE"/>
<path fill-rule="evenodd" clip-rule="evenodd" d="M20.0001 13.1453C17.0566 13.1453 14.6716 15.5302 14.6716 18.4738C14.6716 18.6676 14.6838 18.8683 14.7045 19.063C14.7052 19.0696 14.7058 19.0762 14.7062 19.0827C15.0074 21.7361 17.2627 23.8023 20.0001 23.8023C22.9437 23.8023 25.3287 21.4174 25.3287 18.4738C25.3287 15.5302 22.9437 13.1453 20.0001 13.1453ZM13.7082 19.1509C13.7087 19.159 13.7094 19.1671 13.7103 19.1752C14.059 22.3377 16.741 24.8023 20.0001 24.8023C23.496 24.8023 26.3287 21.9696 26.3287 18.4738C26.3287 14.9779 23.496 12.1453 20.0001 12.1453C16.5043 12.1453 13.6716 14.9779 13.6716 18.4738C13.6716 18.7018 13.6855 18.9318 13.7082 19.1509Z" fill="#E1000F"/>
<path fill-rule="evenodd" clip-rule="evenodd" d="M20.0001 24.8022C15.4509 24.8022 11.7595 28.4895 11.7595 33.0428C11.7595 33.3189 11.5357 33.5428 11.2595 33.5428C10.9834 33.5428 10.7595 33.3189 10.7595 33.0428C10.7595 27.9369 14.899 23.8022 20.0001 23.8022C25.1013 23.8022 29.2406 27.9415 29.2406 33.0428C29.2406 33.3189 29.0167 33.5428 28.7406 33.5428C28.4645 33.5428 28.2406 33.3189 28.2406 33.0428C28.2406 28.4938 24.5491 24.8022 20.0001 24.8022Z" fill="#E1000F"/>
<path d="M28.697 10.8413C29.2493 10.8413 29.697 10.3936 29.697 9.84131C29.697 9.28902 29.2493 8.84131 28.697 8.84131C28.1447 8.84131 27.697 9.28902 27.697 9.84131C27.697 10.3936 28.1447 10.8413 28.697 10.8413Z" fill="#E1000F"/>
<path fill-rule="evenodd" clip-rule="evenodd" d="M32.0224 17.1443C32.2985 17.1465 32.5206 17.3722 32.5183 17.6483L32.4826 22.0454C32.4804 22.3215 32.2547 22.5435 31.9786 22.5413C31.7025 22.5391 31.4804 22.3134 31.4827 22.0373L31.5184 17.6402C31.5206 17.3641 31.7463 17.1421 32.0224 17.1443Z" fill="#000091"/>
<path fill-rule="evenodd" clip-rule="evenodd" d="M7.28868 6.14716C7.38321 6.05231 7.51183 5.99935 7.64574 6.00013L32.1014 6.14283C32.2342 6.14361 32.3612 6.19715 32.4544 6.29166C32.5477 6.38616 32.5995 6.51387 32.5985 6.64663L32.5316 15.4451C32.5295 15.7213 32.3039 15.9434 32.0278 15.9413C31.7517 15.9392 31.5295 15.7137 31.5316 15.4375L31.5947 7.13989L8.14746 7.00308L8.2855 22.0367C8.28804 22.3129 8.06625 22.5388 7.79012 22.5413C7.51399 22.5439 7.28808 22.3221 7.28555 22.0459L7.14284 6.50471C7.14161 6.37081 7.19415 6.24201 7.28868 6.14716Z" fill="#000091"/>
<path fill-rule="evenodd" clip-rule="evenodd" d="M7.42731 21.6925C7.52144 21.5958 7.65063 21.5413 7.78555 21.5413H12.1826C12.4587 21.5413 12.6826 21.7651 12.6826 22.0413C12.6826 22.3174 12.4587 22.5413 12.1826 22.5413H7.99658L4.6847 25.9427H9.5515C9.82764 25.9427 10.0515 26.1666 10.0515 26.4427C10.0515 26.7189 9.82764 26.9427 9.5515 26.9427H3.50001C3.299 26.9427 3.11752 26.8224 3.03936 26.6372C2.9612 26.452 3.00154 26.238 3.14177 26.0939L7.42731 21.6925Z" fill="#000091"/>
<path d="M9.99736 26.4429C9.99736 26.6892 9.7977 26.8888 9.55141 26.8888C9.30513 26.8888 9.10547 26.6892 9.10547 26.4429C9.10547 26.1966 9.30513 25.9969 9.55141 25.9969C9.7977 25.9969 9.99736 26.1966 9.99736 26.4429Z" fill="#000091"/>
<path d="M9.99736 26.4429C9.99736 26.6892 9.7977 26.8888 9.55141 26.8888C9.30513 26.8888 9.10547 26.6892 9.10547 26.4429C9.10547 26.1966 9.30513 25.9969 9.55141 25.9969C9.7977 25.9969 9.99736 26.1966 9.99736 26.4429Z" fill="#000091"/>
<path d="M9.99736 26.4429C9.99736 26.6892 9.7977 26.8888 9.55141 26.8888C9.30513 26.8888 9.10547 26.6892 9.10547 26.4429C9.10547 26.1966 9.30513 25.9969 9.55141 25.9969C9.7977 25.9969 9.99736 26.1966 9.99736 26.4429Z" fill="#000091"/>
<path d="M9.99736 26.4429C9.99736 26.6892 9.7977 26.8888 9.55141 26.8888C9.30513 26.8888 9.10547 26.6892 9.10547 26.4429C9.10547 26.1966 9.30513 25.9969 9.55141 25.9969C9.7977 25.9969 9.99736 26.1966 9.99736 26.4429Z" fill="#000091"/>
<path d="M9.99736 26.4429C9.99736 26.6892 9.7977 26.8888 9.55141 26.8888C9.30513 26.8888 9.10547 26.6892 9.10547 26.4429C9.10547 26.1966 9.30513 25.9969 9.55141 25.9969C9.7977 25.9969 9.99736 26.1966 9.99736 26.4429Z" fill="#000091"/>
<path fill-rule="evenodd" clip-rule="evenodd" d="M11.25 26.4427C11.25 26.1666 11.4739 25.9427 11.75 25.9427H12.2985C12.5747 25.9427 12.7985 26.1666 12.7985 26.4427C12.7985 26.7189 12.5747 26.9427 12.2985 26.9427H11.75C11.4739 26.9427 11.25 26.7189 11.25 26.4427Z" fill="#000091"/>
<path fill-rule="evenodd" clip-rule="evenodd" d="M27.0854 22.0413C27.0854 21.7651 27.3093 21.5413 27.5854 21.5413H31.9825C32.1128 21.5413 32.238 21.5922 32.3314 21.6831L36.8488 26.0846C36.9945 26.2266 37.0397 26.4427 36.9631 26.6311C36.8865 26.8195 36.7033 26.9427 36.4999 26.9427H27.7014C27.4253 26.9427 27.2014 26.7189 27.2014 26.4427C27.2014 26.1666 27.4253 25.9427 27.7014 25.9427H35.2703L31.7792 22.5413H27.5854C27.3093 22.5413 27.0854 22.3174 27.0854 22.0413Z" fill="#000091"/>
<path fill-rule="evenodd" clip-rule="evenodd" d="M9.6001 8.84131C9.6001 8.56517 9.82396 8.34131 10.1001 8.34131H23.3001C23.5762 8.34131 23.8001 8.56517 23.8001 8.84131C23.8001 9.11745 23.5762 9.34131 23.3001 9.34131H10.1001C9.82396 9.34131 9.6001 9.11745 9.6001 8.84131Z" fill="#000091"/>
<path fill-rule="evenodd" clip-rule="evenodd" d="M9.6001 11.0443C9.6001 10.7682 9.82396 10.5443 10.1001 10.5443H14.5016C14.7777 10.5443 15.0016 10.7682 15.0016 11.0443C15.0016 11.3205 14.7777 11.5443 14.5016 11.5443H10.1001C9.82396 11.5443 9.6001 11.3205 9.6001 11.0443Z" fill="#000091"/>
<path fill-rule="evenodd" clip-rule="evenodd" d="M9.6001 13.2428C9.6001 12.9667 9.82396 12.7428 10.1001 12.7428H12.2986C12.5748 12.7428 12.7986 12.9667 12.7986 13.2428C12.7986 13.5189 12.5748 13.7428 12.2986 13.7428H10.1001C9.82396 13.7428 9.6001 13.5189 9.6001 13.2428Z" fill="#000091"/>
</svg>
