<svg width="1920" height="1269" viewBox="0 0 1920 1269" fill="none" xmlns="http://www.w3.org/2000/svg">
<path fill-rule="evenodd" clip-rule="evenodd" d="M1679.61 1146.86C1676.2 1148.82 1672.01 1148.82 1668.6 1146.86L1633.28 1126.46C1629.87 1124.5 1627.77 1120.86 1627.77 1116.93V1076.14C1627.77 1072.21 1629.87 1068.57 1633.28 1066.61L1668.6 1046.21C1672.01 1044.25 1676.2 1044.25 1679.61 1046.21L1714.93 1066.61C1718.34 1068.57 1720.44 1072.21 1720.44 1076.14V1116.93C1720.44 1120.86 1718.34 1124.5 1714.93 1126.46L1679.61 1146.86Z" fill="#F5F5FE"/>
<path fill-rule="evenodd" clip-rule="evenodd" d="M367.826 103.822C364.42 105.789 360.223 105.789 356.817 103.822L321.493 83.4278C318.087 81.4614 315.989 77.8273 315.989 73.8944V33.1056C315.989 29.1727 318.087 25.5386 321.493 23.5722L356.817 3.1778C360.223 1.21137 364.42 1.21137 367.826 3.1778L403.15 23.5722C406.556 25.5386 408.654 29.1727 408.654 33.1056V73.8944C408.654 77.8273 406.556 81.4614 403.15 83.4278L367.826 103.822Z" fill="#F5F5FE"/>
<path fill-rule="evenodd" clip-rule="evenodd" d="M0.000200937 325.888C-0.000169088 268.27 5.82895e-05 166.124 0.000200937 132.125L68.0074 171.388C74.5646 175.174 78.6041 182.171 78.6041 189.743V268.27C78.6041 275.842 74.5646 282.839 68.0074 286.625L0.000200937 325.888Z" fill="#F5F5FE"/>
<path fill-rule="evenodd" clip-rule="evenodd" d="M90.8127 457.825C87.4067 459.792 83.2104 459.792 79.8045 457.825L44.4803 437.431C41.0744 435.464 38.9762 431.83 38.9762 427.897L38.9762 387.109C38.9762 383.176 41.0744 379.542 44.4803 377.575L79.8045 357.181C83.2104 355.214 87.4067 355.214 90.8127 357.181L126.137 377.575C129.543 379.542 131.641 383.176 131.641 387.109V427.897C131.641 431.83 129.543 435.464 126.137 437.431L90.8127 457.825Z" fill="#1B1B35"/>
<path fill-rule="evenodd" clip-rule="evenodd" d="M1902.44 1267.24C1899.03 1269.21 1894.84 1269.21 1891.43 1267.24L1856.11 1246.85C1852.7 1244.88 1850.6 1241.25 1850.6 1237.32V1196.53C1850.6 1192.59 1852.7 1188.96 1856.11 1186.99L1891.43 1166.6C1894.84 1164.63 1899.03 1164.63 1902.44 1166.6L1920.1 1176.8C1920.1 1196.53 1920.1 1231.01 1920.1 1257.05L1902.44 1267.24Z" fill="#FFE9E9"/>
</svg>
