<svg width="1920" height="632" viewBox="0 0 1920 632" fill="none" xmlns="http://www.w3.org/2000/svg">
<path fill-rule="evenodd" clip-rule="evenodd" d="M-1.00024 279.269C5.36047 279.954 11.6121 281.952 17.3371 285.261L202.663 392.394C217.104 400.742 226 416.17 226 432.867V631.5C185.866 631.5 -1.00024 631.5 -1.00024 631.5C-1.00024 631.5 -1.00013 344.048 -1.00024 279.269Z" fill="#000091"/>
<path fill-rule="evenodd" clip-rule="evenodd" d="M111.42 178.367C114.564 176.544 118.436 176.544 121.58 178.367L161.92 201.764C165.064 203.587 167 206.957 167 210.603V257.397C167 261.043 165.064 264.413 161.92 266.236L121.58 289.633C118.436 291.456 114.564 291.456 111.42 289.633L71.0798 266.236C67.9364 264.413 66 261.043 66 257.397V210.603C66 206.957 67.9364 203.587 71.0798 201.764L111.42 178.367Z" fill="#000091"/>
<path fill-rule="evenodd" clip-rule="evenodd" d="M1920.3 0C1920.3 0 1920.3 204.553 1920.3 258.579L1787.7 182.026C1777.37 176.061 1771 165.037 1771 153.106V0C1856 0.000110626 1920.3 0 1920.3 0Z" fill="#000091"/>
<path fill-rule="evenodd" clip-rule="evenodd" d="M1828.42 267.355C1831.56 265.548 1835.44 265.548 1838.58 267.355L1878.92 290.547C1882.06 292.354 1884 295.694 1884 299.308V345.692C1884 349.306 1882.06 352.646 1878.92 354.453L1838.58 377.645C1835.44 379.452 1831.56 379.452 1828.42 377.645L1788.08 354.453C1784.94 352.646 1783 349.306 1783 345.692V299.308C1783 295.694 1784.94 292.354 1788.08 290.547L1828.42 267.355Z" fill="#000091"/>
</svg>
