<svg width="24" height="24" viewBox="0 0 24 24" fill="none" xmlns="http://www.w3.org/2000/svg">
<path d="M18.7337 23.9214H5.24832C2.3856 23.9214 0.0720215 21.6006 0.0720215 18.749V5.28277C0.0720215 2.4222 2.3946 0.110352 5.24832 0.110352H18.7247C21.5874 0.110352 23.901 2.43119 23.901 5.28277V18.749C23.91 21.6096 21.5874 23.9214 18.7337 23.9214Z" fill="#FCFCFC"/>
<path d="M17.8156 9.93262V10.7242C15.8081 13.8007 14.5658 16.9941 14.0797 20.3044H13.1884C13.7016 16.9671 14.9619 13.7737 16.9874 10.7242H11.7571V9.93262H17.8156Z" fill="#5A5A5A"/>
<path d="M8.25515 9.93262C8.17413 10.2834 8.03009 10.7242 7.69701 10.9941C7.37293 11.264 6.74277 11.3989 6.13062 11.4349V11.9926H8.24614V20.2954H9.11936V9.93262H8.25515Z" fill="#5A5A5A"/>
<path d="M18.5806 24.0023H5.41035C2.4216 24.0023 0 21.5735 0 18.596V5.43559C0 2.44909 2.43061 0.0292969 5.41035 0.0292969H18.5806C21.5694 0.0292969 23.991 2.45808 23.991 5.43559V18.596C24 21.5735 21.5694 24.0023 18.5806 24.0023ZM5.41035 0.18222C2.51163 0.18222 0.153038 2.53904 0.153038 5.43559V18.596C0.153038 21.4926 2.51163 23.8494 5.41035 23.8494H18.5806C21.4794 23.8494 23.838 21.4926 23.838 18.596V5.43559C23.838 2.53904 21.4794 0.18222 18.5806 0.18222H5.41035Z" fill="#D8D8D8"/>
<path d="M23.919 7.21665V5.40855C23.919 2.46702 21.5334 0.0742188 18.5807 0.0742188H5.41036C2.46662 0.0742188 0.0720215 2.45803 0.0720215 5.40855V7.21665H23.919Z" fill="#E9574E"/>
<path d="M24 7.2973H0V5.40825C0 2.42174 2.43061 0.00195312 5.41035 0.00195312H18.5806C21.5694 0.00195312 23.991 2.43074 23.991 5.40825V7.2973H24ZM0.162039 7.13539H23.838V5.40825C23.838 2.5117 21.4794 0.154877 18.5806 0.154877H5.41035C2.51163 0.154877 0.153038 2.5117 0.153038 5.40825V7.13539H0.162039Z" fill="#E9574E"/>
<path d="M7.49878 4.63431C7.49878 4.69728 7.50778 4.77824 7.51679 4.8502C7.52579 4.92216 7.54379 4.99413 7.5888 5.0571C7.62481 5.11107 7.67883 5.15605 7.75985 5.21002C7.84087 5.26399 7.94889 5.29098 8.08393 5.29098C8.19195 5.29098 8.29998 5.27299 8.39 5.22801C8.48003 5.18303 8.56105 5.11107 8.61506 5.02112C8.63307 4.98513 8.65107 4.94016 8.66907 4.89518C8.67808 4.8502 8.68708 4.79623 8.69608 4.75125C8.70508 4.70627 8.70508 4.6613 8.70508 4.61632C8.70508 4.57134 8.70508 4.53536 8.70508 4.50837V1.8457H9.23622V4.6613C9.23622 4.84121 9.20021 4.99413 9.13719 5.12906C9.07418 5.26399 8.98415 5.38094 8.87613 5.47089C8.7681 5.56085 8.64207 5.63281 8.49803 5.67779C8.354 5.72276 8.20096 5.74975 8.03892 5.74975C7.9849 5.74975 7.92189 5.74076 7.84987 5.73176C7.76885 5.72276 7.68783 5.70477 7.60681 5.67779C7.52579 5.6508 7.43577 5.60582 7.35475 5.55185C7.27373 5.49788 7.19271 5.42591 7.12969 5.33596C7.08468 5.27299 7.04867 5.21002 7.02166 5.14705C6.99466 5.07509 6.97665 5.01212 6.96765 4.94915C6.95865 4.88618 6.94964 4.83221 6.94064 4.76924C6.94064 4.71527 6.93164 4.67029 6.93164 4.62531H7.49878V4.63431Z" fill="white"/>
<path d="M10.8207 1.8457V4.22951C10.8207 4.32846 10.8297 4.41842 10.8387 4.49938C10.8477 4.57134 10.8657 4.63431 10.8747 4.68828C10.8927 4.74225 10.9107 4.78723 10.9287 4.82321C10.9467 4.8592 10.9647 4.89518 10.9917 4.92217C11.0547 5.00312 11.1178 5.06609 11.1988 5.12007C11.2798 5.17404 11.3518 5.21002 11.4238 5.23701C11.5049 5.26399 11.5769 5.28199 11.6579 5.29098C11.7299 5.29998 11.8019 5.29998 11.8739 5.29998C12.135 5.29998 12.3331 5.255 12.4771 5.16504C12.6211 5.07509 12.7202 4.97614 12.7832 4.8502C12.8462 4.73326 12.8912 4.60732 12.9002 4.49038C12.9092 4.37344 12.9182 4.27449 12.9182 4.20252V1.8457H13.4313V4.22052C13.4313 4.27449 13.4313 4.33746 13.4223 4.41842C13.4223 4.49038 13.4043 4.58034 13.3863 4.67029C13.3683 4.76025 13.3323 4.8592 13.2963 4.95815C13.2513 5.0571 13.1973 5.15605 13.1163 5.255C13.0172 5.37194 12.9182 5.47089 12.8012 5.53386C12.6841 5.60582 12.5761 5.6598 12.4591 5.69578C12.3421 5.73176 12.234 5.75875 12.135 5.76774C12.036 5.77674 11.946 5.78573 11.883 5.78573C11.7929 5.78573 11.6849 5.77674 11.5679 5.75875C11.4508 5.74076 11.3248 5.71377 11.1988 5.66879C11.0727 5.62381 10.9557 5.56085 10.8297 5.47989C10.7127 5.39893 10.6046 5.29998 10.5146 5.16504C10.4876 5.12007 10.4606 5.07509 10.4336 5.02112C10.4066 4.96714 10.3796 4.90417 10.3616 4.83221C10.3436 4.76025 10.3256 4.67029 10.3076 4.56235C10.2986 4.46339 10.2896 4.33746 10.2896 4.19353V1.8457H10.8207Z" fill="white"/>
<path d="M14.4307 1.8457H14.9618V5.21902H16.7532V5.69578H14.4307V1.8457Z" fill="white"/>
</svg>
