<svg width="56" height="56" viewBox="0 0 56 56" fill="none" xmlns="http://www.w3.org/2000/svg">
<path fill-rule="evenodd" clip-rule="evenodd" d="M5.5999 11.8996C5.21392 11.8996 4.8999 11.5856 4.8999 11.1996C4.8999 10.8136 5.21392 10.4996 5.5999 10.4996C5.98588 10.4996 6.2999 10.8136 6.2999 11.1996C6.2999 11.5856 5.98588 11.8996 5.5999 11.8996Z" fill="#ECECFE"/>
<path fill-rule="evenodd" clip-rule="evenodd" d="M45.4998 50.3996C45.1138 50.3996 44.7998 50.0856 44.7998 49.6996C44.7998 49.3136 45.1138 48.9996 45.4998 48.9996C45.8858 48.9996 46.1998 49.3136 46.1998 49.6996C46.1998 50.0856 45.8858 50.3996 45.4998 50.3996Z" fill="#ECECFE"/>
<path fill-rule="evenodd" clip-rule="evenodd" d="M46.2 7.69962C45.814 7.69962 45.5 7.3856 45.5 6.99962C45.5 6.61361 45.814 6.29962 46.2 6.29962C46.586 6.29962 46.9 6.61361 46.9 6.99962C46.9 7.3856 46.586 7.69962 46.2 7.69962Z" fill="#ECECFE"/>
<path fill-rule="evenodd" clip-rule="evenodd" d="M14.7 53.8996C14.314 53.8996 14 53.5856 14 53.1996C14 52.8136 14.314 52.4996 14.7 52.4996C15.086 52.4996 15.4 52.8136 15.4 53.1996C15.4 53.5856 15.086 53.8996 14.7 53.8996Z" fill="#ECECFE"/>
<path d="M28.0001 25.5847L33.9046 19.6802C34.4787 19.1061 35.4095 19.1061 35.9835 19.6802C36.5243 20.2209 36.559 21.0845 36.0593 21.6771L35.9835 21.7591L30.079 27.6636L36.6555 34.2402L36.7313 34.3222C37.231 34.9148 37.1963 35.7784 36.6555 36.3191C36.0815 36.8932 35.1507 36.8932 34.5766 36.3191L28.0001 29.7425L21.4235 36.3191C20.8495 36.8932 19.9187 36.8932 19.3447 36.3191C18.8039 35.7784 18.7692 34.9148 19.2689 34.3222L19.3447 34.2402L25.9212 27.6636L20.0166 21.7591L19.9409 21.6771C19.4412 21.0845 19.4759 20.2209 20.0166 19.6802C20.5907 19.1061 21.5215 19.1061 22.0955 19.6802L28.0001 25.5847Z" fill="#E1000F"/>
<path d="M39.8999 8.39966C44.085 8.39966 47.4903 11.7385 47.5973 15.8978L47.5999 16.0997V20.2997C47.5999 20.6863 47.2865 20.9997 46.8999 20.9997C46.5409 20.9997 46.245 20.7294 46.2046 20.3813L46.1999 20.2997V16.0997C46.1999 12.6824 43.4791 9.9006 40.0857 9.80234L39.8999 9.79966H16.0999C12.6826 9.79966 9.90085 12.5204 9.80259 15.9139L9.7999 16.0997V39.8997C9.7999 43.3169 12.5207 46.0987 15.9141 46.197L16.0999 46.1997H39.8999C43.3172 46.1997 46.099 43.4789 46.1972 40.0854L46.1999 39.8997V30.0997C46.1999 29.7131 46.5133 29.3997 46.8999 29.3997C47.2589 29.3997 47.5548 29.6699 47.5952 30.018L47.5999 30.0997V39.8997C47.5999 44.0847 44.2611 47.49 40.1018 47.5971L39.8999 47.5997H16.0999C11.9148 47.5997 8.50955 44.2608 8.4025 40.1015L8.3999 39.8997V16.0997C8.3999 11.9146 11.7387 8.5093 15.898 8.40225L16.0999 8.39966H39.8999Z" fill="#000091"/>
<path d="M48.9999 21.6997C48.9999 21.3131 49.3133 20.9997 49.6999 20.9997C50.0865 20.9997 50.3999 21.3131 50.3999 21.6997C50.3999 22.0863 50.0865 22.3997 49.6999 22.3997C49.3133 22.3997 48.9999 22.0863 48.9999 21.6997Z" fill="#000091"/>
<path d="M50.3952 24.418C50.3548 24.0699 50.0589 23.7997 49.6999 23.7997C49.3133 23.7997 48.9999 24.1131 48.9999 24.4997V35.6997L49.0046 35.7813C49.045 36.1294 49.3409 36.3997 49.6999 36.3997C50.0865 36.3997 50.3999 36.0863 50.3999 35.6997V24.4997L50.3952 24.418Z" fill="#000091"/>
</svg>
