<svg width="56" height="56" viewBox="0 0 56 56" fill="none" xmlns="http://www.w3.org/2000/svg">
    <path fill-rule="evenodd" clip-rule="evenodd"
        d="M47.6001 9.09959C47.2142 9.09959 46.9001 8.78557 46.9001 8.39959C46.9001 8.01357 47.2142 7.69958 47.6001 7.69958C47.9861 7.69958 48.3001 8.01357 48.3001 8.39959C48.3001 8.78557 47.9861 9.09959 47.6001 9.09959Z"
        fill="#ECECFE" />
    <path fill-rule="evenodd" clip-rule="evenodd"
        d="M28.7 53.1996C28.314 53.1996 28 52.8856 28 52.4996C28 52.1136 28.314 51.7996 28.7 51.7996C29.086 51.7996 29.4 52.1136 29.4 52.4996C29.4 52.8856 29.086 53.1996 28.7 53.1996Z"
        fill="#ECECFE" />
    <path fill-rule="evenodd" clip-rule="evenodd"
        d="M10.5 6.99961C10.1141 6.99961 9.80005 6.68559 9.80005 6.29961C9.80005 5.9136 10.1141 5.59961 10.5 5.59961C10.886 5.59961 11.2 5.9136 11.2 6.29961C11.2 6.68559 10.886 6.99961 10.5 6.99961Z"
        fill="#ECECFE" />
    <path fill-rule="evenodd" clip-rule="evenodd"
        d="M26.1373 32.6049L21.6698 27.3239L21.5841 27.2316C21.0502 26.7158 20.2403 26.7064 19.7074 27.2041C19.1448 27.7295 19.0946 28.6265 19.5934 29.216L25.3306 35.9971C25.3672 36.0403 25.4072 36.0805 25.4502 36.1173C25.8912 36.4939 26.5539 36.4418 26.9306 36.0009L39.2023 21.6346L39.2798 21.5348C39.6986 20.9324 39.6191 20.114 39.0975 19.6222C38.5276 19.0849 37.6447 19.135 37.1345 19.7322L26.1373 32.6049Z"
        fill="#E1000F" />
    <path
        d="M8.00833 31.5247C6.06149 20.4836 13.4338 9.95487 24.4749 8.00803C31.4896 6.77115 38.5203 9.28735 43.1715 14.508C43.4287 14.7966 43.4031 15.2391 43.1145 15.4963C42.8258 15.7535 42.3833 15.7279 42.1262 15.4393C37.7946 10.5774 31.2497 8.23505 24.718 9.38677C14.4384 11.1993 7.57449 21.002 9.38706 31.2816C11.1996 41.5612 21.0023 48.4251 31.2819 46.6125C41.5615 44.7999 48.4254 34.9973 46.6128 24.7177C46.5457 24.337 46.7999 23.9739 47.1806 23.9068C47.5613 23.8396 47.9244 24.0938 47.9915 24.4746C49.9384 35.5156 42.566 46.0444 31.525 47.9912C20.4839 49.9381 9.95517 42.5657 8.00833 31.5247Z"
        fill="#000091" />
    <path
        d="M49.1567 32.8467C49.2427 32.4697 49.618 32.2339 49.9949 32.3199C50.3718 32.4059 50.6076 32.7811 50.5217 33.158C49.5801 37.2854 47.5175 41.0548 44.5849 44.0791C44.3158 44.3566 43.8726 44.3634 43.5951 44.0943C43.3175 43.8252 43.3107 43.382 43.5799 43.1045C46.3353 40.263 48.2726 36.7225 49.1567 32.8467Z"
        fill="#000091" />
    <path
        d="M50.3999 29.3996C50.0133 29.3996 49.6999 29.713 49.6999 30.0996C49.6999 30.4862 50.0133 30.7996 50.3999 30.7996C50.7865 30.7996 51.0999 30.4862 51.0999 30.0996C51.0999 29.713 50.7865 29.3996 50.3999 29.3996Z"
        fill="#000091" />
</svg>
