<svg width="283" height="320" viewBox="0 0 283 320" fill="none" xmlns="http://www.w3.org/2000/svg">
<g clip-path="url(#clip0_2078_1682)">
<path fill-rule="evenodd" clip-rule="evenodd" d="M36.7054 315.1C37.9233 315.1 38.9107 316.085 38.9107 317.3C38.9107 318.515 37.9233 319.5 36.7054 319.5C35.4874 319.5 34.5 318.515 34.5 317.3C34.5 316.085 35.4874 315.1 36.7054 315.1ZM52.878 315.1C54.096 315.1 55.0833 316.085 55.0833 317.3C55.0833 318.515 54.096 319.5 52.878 319.5C51.66 319.5 50.6726 318.515 50.6726 317.3C50.6726 316.085 51.66 315.1 52.878 315.1ZM69.0506 315.1C70.2686 315.1 71.256 316.085 71.256 317.3C71.256 318.515 70.2686 319.5 69.0506 319.5C67.8326 319.5 66.8452 318.515 66.8452 317.3C66.8452 316.085 67.8326 315.1 69.0506 315.1ZM85.2232 315.1C86.4412 315.1 87.4286 316.085 87.4286 317.3C87.4286 318.515 86.4412 319.5 85.2232 319.5C84.0052 319.5 83.0179 318.515 83.0179 317.3C83.0179 316.085 84.0052 315.1 85.2232 315.1ZM101.396 315.1C102.614 315.1 103.601 316.085 103.601 317.3C103.601 318.515 102.614 319.5 101.396 319.5C100.178 319.5 99.1905 318.515 99.1905 317.3C99.1905 316.085 100.178 315.1 101.396 315.1ZM117.568 315.1C118.786 315.1 119.774 316.085 119.774 317.3C119.774 318.515 118.786 319.5 117.568 319.5C116.35 319.5 115.363 318.515 115.363 317.3C115.363 316.085 116.35 315.1 117.568 315.1ZM133.741 315.1C134.959 315.1 135.946 316.085 135.946 317.3C135.946 318.515 134.959 319.5 133.741 319.5C132.523 319.5 131.536 318.515 131.536 317.3C131.536 316.085 132.523 315.1 133.741 315.1ZM149.914 315.1C151.132 315.1 152.119 316.085 152.119 317.3C152.119 318.515 151.132 319.5 149.914 319.5C148.696 319.5 147.708 318.515 147.708 317.3C147.708 316.085 148.696 315.1 149.914 315.1ZM166.086 315.1C167.304 315.1 168.292 316.085 168.292 317.3C168.292 318.515 167.304 319.5 166.086 319.5C164.868 319.5 163.881 318.515 163.881 317.3C163.881 316.085 164.868 315.1 166.086 315.1ZM182.259 315.008C183.477 315.008 184.464 315.993 184.464 317.208C184.464 318.423 183.477 319.408 182.259 319.408C181.041 319.408 180.054 318.423 180.054 317.208C180.054 315.993 181.041 315.008 182.259 315.008ZM198.432 315.008C199.65 315.008 200.637 315.993 200.637 317.208C200.637 318.423 199.65 319.408 198.432 319.408C197.214 319.408 196.226 318.423 196.226 317.208C196.226 315.993 197.214 315.008 198.432 315.008ZM214.604 315.008C215.822 315.008 216.81 315.993 216.81 317.208C216.81 318.423 215.822 319.408 214.604 319.408C213.386 319.408 212.399 318.423 212.399 317.208C212.399 315.993 213.386 315.008 214.604 315.008ZM230.777 315.008C231.995 315.008 232.982 315.993 232.982 317.208C232.982 318.423 231.995 319.408 230.777 319.408C229.559 319.408 228.571 318.423 228.571 317.208C228.571 315.993 229.559 315.008 230.777 315.008ZM246.949 315.008C248.167 315.008 249.155 315.993 249.155 317.208C249.155 318.423 248.167 319.408 246.949 319.408C245.731 319.408 244.744 318.423 244.744 317.208C244.744 315.993 245.731 315.008 246.949 315.008ZM263.122 315.008C264.34 315.008 265.327 315.993 265.327 317.208C265.327 318.423 264.34 319.408 263.122 319.408C261.904 319.408 260.917 318.423 260.917 317.208C260.917 315.993 261.904 315.008 263.122 315.008ZM279.295 315.008C280.513 315.008 281.5 315.993 281.5 317.208C281.5 318.423 280.513 319.408 279.295 319.408C278.077 319.408 277.089 318.423 277.089 317.208C277.089 315.993 278.077 315.008 279.295 315.008ZM166.086 298.967C167.304 298.967 168.292 299.952 168.292 301.167C168.292 302.382 167.304 303.367 166.086 303.367C164.868 303.367 163.881 302.382 163.881 301.167C163.881 299.952 164.868 298.967 166.086 298.967ZM182.259 298.874C183.477 298.874 184.464 299.859 184.464 301.074C184.464 302.289 183.477 303.274 182.259 303.274C181.041 303.274 180.054 302.289 180.054 301.074C180.054 299.859 181.041 298.874 182.259 298.874ZM198.432 298.874C199.65 298.874 200.637 299.859 200.637 301.074C200.637 302.289 199.65 303.274 198.432 303.274C197.214 303.274 196.226 302.289 196.226 301.074C196.226 299.859 197.214 298.874 198.432 298.874ZM214.604 298.874C215.822 298.874 216.81 299.859 216.81 301.074C216.81 302.289 215.822 303.274 214.604 303.274C213.386 303.274 212.399 302.289 212.399 301.074C212.399 299.859 213.386 298.874 214.604 298.874ZM36.7054 298.967C37.9233 298.967 38.9107 299.952 38.9107 301.167C38.9107 302.382 37.9233 303.367 36.7054 303.367C35.4874 303.367 34.5 302.382 34.5 301.167C34.5 299.952 35.4874 298.967 36.7054 298.967ZM69.0506 298.967C70.2686 298.967 71.256 299.952 71.256 301.167C71.256 302.382 70.2686 303.367 69.0506 303.367C67.8326 303.367 66.8452 302.382 66.8452 301.167C66.8452 299.952 67.8326 298.967 69.0506 298.967ZM101.396 298.967C102.614 298.967 103.601 299.952 103.601 301.167C103.601 302.382 102.614 303.367 101.396 303.367C100.178 303.367 99.1905 302.382 99.1905 301.167C99.1905 299.952 100.178 298.967 101.396 298.967ZM133.741 298.967C134.959 298.967 135.946 299.952 135.946 301.167C135.946 302.382 134.959 303.367 133.741 303.367C132.523 303.367 131.536 302.382 131.536 301.167C131.536 299.952 132.523 298.967 133.741 298.967ZM149.914 298.967C151.132 298.967 152.119 299.952 152.119 301.167C152.119 302.382 151.132 303.367 149.914 303.367C148.696 303.367 147.708 302.382 147.708 301.167C147.708 299.952 148.696 298.967 149.914 298.967ZM246.949 298.874C248.167 298.874 249.155 299.859 249.155 301.074C249.155 302.289 248.167 303.274 246.949 303.274C245.731 303.274 244.744 302.289 244.744 301.074C244.744 299.859 245.731 298.874 246.949 298.874ZM52.878 298.967C54.096 298.967 55.0833 299.952 55.0833 301.167C55.0833 302.382 54.096 303.367 52.878 303.367C51.66 303.367 50.6726 302.382 50.6726 301.167C50.6726 299.952 51.66 298.967 52.878 298.967ZM263.122 298.874C264.34 298.874 265.327 299.859 265.327 301.074C265.327 302.289 264.34 303.274 263.122 303.274C261.904 303.274 260.917 302.289 260.917 301.074C260.917 299.859 261.904 298.874 263.122 298.874ZM85.2232 298.967C86.4412 298.967 87.4286 299.952 87.4286 301.167C87.4286 302.382 86.4412 303.367 85.2232 303.367C84.0052 303.367 83.0179 302.382 83.0179 301.167C83.0179 299.952 84.0052 298.967 85.2232 298.967ZM279.295 298.874C280.513 298.874 281.5 299.859 281.5 301.074C281.5 302.289 280.513 303.274 279.295 303.274C278.077 303.274 277.089 302.289 277.089 301.074C277.089 299.859 278.077 298.874 279.295 298.874ZM117.568 298.967C118.786 298.967 119.774 299.952 119.774 301.167C119.774 302.382 118.786 303.367 117.568 303.367C116.35 303.367 115.363 302.382 115.363 301.167C115.363 299.952 116.35 298.967 117.568 298.967ZM230.777 298.874C231.995 298.874 232.982 299.859 232.982 301.074C232.982 302.289 231.995 303.274 230.777 303.274C229.559 303.274 228.571 302.289 228.571 301.074C228.571 299.859 229.559 298.874 230.777 298.874ZM69.0506 282.833C70.2686 282.833 71.256 283.818 71.256 285.033C71.256 286.248 70.2686 287.233 69.0506 287.233C67.8326 287.233 66.8452 286.248 66.8452 285.033C66.8452 283.818 67.8326 282.833 69.0506 282.833ZM101.396 282.833C102.614 282.833 103.601 283.818 103.601 285.033C103.601 286.248 102.614 287.233 101.396 287.233C100.178 287.233 99.1905 286.248 99.1905 285.033C99.1905 283.818 100.178 282.833 101.396 282.833ZM117.568 282.833C118.786 282.833 119.774 283.818 119.774 285.033C119.774 286.248 118.786 287.233 117.568 287.233C116.35 287.233 115.363 286.248 115.363 285.033C115.363 283.818 116.35 282.833 117.568 282.833ZM133.741 282.833C134.959 282.833 135.946 283.818 135.946 285.033C135.946 286.248 134.959 287.233 133.741 287.233C132.523 287.233 131.536 286.248 131.536 285.033C131.536 283.818 132.523 282.833 133.741 282.833ZM149.914 282.833C151.132 282.833 152.119 283.818 152.119 285.033C152.119 286.248 151.132 287.233 149.914 287.233C148.696 287.233 147.708 286.248 147.708 285.033C147.708 283.818 148.696 282.833 149.914 282.833ZM36.7054 282.833C37.9233 282.833 38.9107 283.818 38.9107 285.033C38.9107 286.248 37.9233 287.233 36.7054 287.233C35.4874 287.233 34.5 286.248 34.5 285.033C34.5 283.818 35.4874 282.833 36.7054 282.833ZM52.878 282.833C54.096 282.833 55.0833 283.818 55.0833 285.033C55.0833 286.248 54.096 287.233 52.878 287.233C51.66 287.233 50.6726 286.248 50.6726 285.033C50.6726 283.818 51.66 282.833 52.878 282.833ZM85.2232 282.833C86.4412 282.833 87.4286 283.818 87.4286 285.033C87.4286 286.248 86.4412 287.233 85.2232 287.233C84.0052 287.233 83.0179 286.248 83.0179 285.033C83.0179 283.818 84.0052 282.833 85.2232 282.833ZM166.086 282.833C167.304 282.833 168.292 283.818 168.292 285.033C168.292 286.248 167.304 287.233 166.086 287.233C164.868 287.233 163.881 286.248 163.881 285.033C163.881 283.818 164.868 282.833 166.086 282.833ZM182.259 282.741C183.477 282.741 184.464 283.726 184.464 284.941C184.464 286.156 183.477 287.141 182.259 287.141C181.041 287.141 180.054 286.156 180.054 284.941C180.054 283.726 181.041 282.741 182.259 282.741ZM198.432 282.741C199.65 282.741 200.637 283.726 200.637 284.941C200.637 286.156 199.65 287.141 198.432 287.141C197.214 287.141 196.226 286.156 196.226 284.941C196.226 283.726 197.214 282.741 198.432 282.741ZM214.604 282.741C215.822 282.741 216.81 283.726 216.81 284.941C216.81 286.156 215.822 287.141 214.604 287.141C213.386 287.141 212.399 286.156 212.399 284.941C212.399 283.726 213.386 282.741 214.604 282.741ZM230.777 282.741C231.995 282.741 232.982 283.726 232.982 284.941C232.982 286.156 231.995 287.141 230.777 287.141C229.559 287.141 228.571 286.156 228.571 284.941C228.571 283.726 229.559 282.741 230.777 282.741ZM246.949 282.741C248.167 282.741 249.155 283.726 249.155 284.941C249.155 286.156 248.167 287.141 246.949 287.141C245.731 287.141 244.744 286.156 244.744 284.941C244.744 283.726 245.731 282.741 246.949 282.741ZM263.122 282.741C264.34 282.741 265.327 283.726 265.327 284.941C265.327 286.156 264.34 287.141 263.122 287.141C261.904 287.141 260.917 286.156 260.917 284.941C260.917 283.726 261.904 282.741 263.122 282.741ZM279.295 282.741C280.513 282.741 281.5 283.726 281.5 284.941C281.5 286.156 280.513 287.141 279.295 287.141C278.077 287.141 277.089 286.156 277.089 284.941C277.089 283.726 278.077 282.741 279.295 282.741ZM36.7054 266.7C37.9233 266.7 38.9107 267.685 38.9107 268.9C38.9107 270.115 37.9233 271.1 36.7054 271.1C35.4874 271.1 34.5 270.115 34.5 268.9C34.5 267.685 35.4874 266.7 36.7054 266.7ZM52.878 266.7C54.096 266.7 55.0833 267.685 55.0833 268.9C55.0833 270.115 54.096 271.1 52.878 271.1C51.66 271.1 50.6726 270.115 50.6726 268.9C50.6726 267.685 51.66 266.7 52.878 266.7ZM69.0506 266.7C70.2686 266.7 71.256 267.685 71.256 268.9C71.256 270.115 70.2686 271.1 69.0506 271.1C67.8326 271.1 66.8452 270.115 66.8452 268.9C66.8452 267.685 67.8326 266.7 69.0506 266.7ZM85.2232 266.7C86.4412 266.7 87.4286 267.685 87.4286 268.9C87.4286 270.115 86.4412 271.1 85.2232 271.1C84.0052 271.1 83.0179 270.115 83.0179 268.9C83.0179 267.685 84.0052 266.7 85.2232 266.7ZM101.396 266.7C102.614 266.7 103.601 267.685 103.601 268.9C103.601 270.115 102.614 271.1 101.396 271.1C100.178 271.1 99.1905 270.115 99.1905 268.9C99.1905 267.685 100.178 266.7 101.396 266.7ZM117.568 266.7C118.786 266.7 119.774 267.685 119.774 268.9C119.774 270.115 118.786 271.1 117.568 271.1C116.35 271.1 115.363 270.115 115.363 268.9C115.363 267.685 116.35 266.7 117.568 266.7ZM133.741 266.7C134.959 266.7 135.946 267.685 135.946 268.9C135.946 270.115 134.959 271.1 133.741 271.1C132.523 271.1 131.536 270.115 131.536 268.9C131.536 267.685 132.523 266.7 133.741 266.7ZM149.914 266.7C151.132 266.7 152.119 267.685 152.119 268.9C152.119 270.115 151.132 271.1 149.914 271.1C148.696 271.1 147.708 270.115 147.708 268.9C147.708 267.685 148.696 266.7 149.914 266.7ZM166.086 266.7C167.304 266.7 168.292 267.685 168.292 268.9C168.292 270.115 167.304 271.1 166.086 271.1C164.868 271.1 163.881 270.115 163.881 268.9C163.881 267.685 164.868 266.7 166.086 266.7ZM182.259 266.608C183.477 266.608 184.464 267.593 184.464 268.808C184.464 270.023 183.477 271.008 182.259 271.008C181.041 271.008 180.054 270.023 180.054 268.808C180.054 267.593 181.041 266.608 182.259 266.608ZM198.432 266.608C199.65 266.608 200.637 267.593 200.637 268.808C200.637 270.023 199.65 271.008 198.432 271.008C197.214 271.008 196.226 270.023 196.226 268.808C196.226 267.593 197.214 266.608 198.432 266.608ZM214.604 266.608C215.822 266.608 216.81 267.593 216.81 268.808C216.81 270.023 215.822 271.008 214.604 271.008C213.386 271.008 212.399 270.023 212.399 268.808C212.399 267.593 213.386 266.608 214.604 266.608ZM230.777 266.608C231.995 266.608 232.982 267.593 232.982 268.808C232.982 270.023 231.995 271.008 230.777 271.008C229.559 271.008 228.571 270.023 228.571 268.808C228.571 267.593 229.559 266.608 230.777 266.608ZM246.949 266.608C248.167 266.608 249.155 267.593 249.155 268.808C249.155 270.023 248.167 271.008 246.949 271.008C245.731 271.008 244.744 270.023 244.744 268.808C244.744 267.593 245.731 266.608 246.949 266.608ZM263.122 266.608C264.34 266.608 265.327 267.593 265.327 268.808C265.327 270.023 264.34 271.008 263.122 271.008C261.904 271.008 260.917 270.023 260.917 268.808C260.917 267.593 261.904 266.608 263.122 266.608ZM279.295 266.608C280.513 266.608 281.5 267.593 281.5 268.808C281.5 270.023 280.513 271.008 279.295 271.008C278.077 271.008 277.089 270.023 277.089 268.808C277.089 267.593 278.077 266.608 279.295 266.608ZM36.7054 250.567C37.9233 250.567 38.9107 251.552 38.9107 252.767C38.9107 253.982 37.9233 254.967 36.7054 254.967C35.4874 254.967 34.5 253.982 34.5 252.767C34.5 251.552 35.4874 250.567 36.7054 250.567ZM52.878 250.567C54.096 250.567 55.0833 251.552 55.0833 252.767C55.0833 253.982 54.096 254.967 52.878 254.967C51.66 254.967 50.6726 253.982 50.6726 252.767C50.6726 251.552 51.66 250.567 52.878 250.567ZM69.0506 250.567C70.2686 250.567 71.256 251.552 71.256 252.767C71.256 253.982 70.2686 254.967 69.0506 254.967C67.8326 254.967 66.8452 253.982 66.8452 252.767C66.8452 251.552 67.8326 250.567 69.0506 250.567ZM85.2232 250.567C86.4412 250.567 87.4286 251.552 87.4286 252.767C87.4286 253.982 86.4412 254.967 85.2232 254.967C84.0052 254.967 83.0179 253.982 83.0179 252.767C83.0179 251.552 84.0052 250.567 85.2232 250.567ZM101.396 250.567C102.614 250.567 103.601 251.552 103.601 252.767C103.601 253.982 102.614 254.967 101.396 254.967C100.178 254.967 99.1905 253.982 99.1905 252.767C99.1905 251.552 100.178 250.567 101.396 250.567ZM117.568 250.567C118.786 250.567 119.774 251.552 119.774 252.767C119.774 253.982 118.786 254.967 117.568 254.967C116.35 254.967 115.363 253.982 115.363 252.767C115.363 251.552 116.35 250.567 117.568 250.567ZM133.741 250.567C134.959 250.567 135.946 251.552 135.946 252.767C135.946 253.982 134.959 254.967 133.741 254.967C132.523 254.967 131.536 253.982 131.536 252.767C131.536 251.552 132.523 250.567 133.741 250.567ZM149.914 250.567C151.132 250.567 152.119 251.552 152.119 252.767C152.119 253.982 151.132 254.967 149.914 254.967C148.696 254.967 147.708 253.982 147.708 252.767C147.708 251.552 148.696 250.567 149.914 250.567ZM166.086 250.567C167.304 250.567 168.292 251.552 168.292 252.767C168.292 253.982 167.304 254.967 166.086 254.967C164.868 254.967 163.881 253.982 163.881 252.767C163.881 251.552 164.868 250.567 166.086 250.567ZM79.3423 2.7C79.3423 3.91503 78.3549 4.9 77.1369 4.9C75.9189 4.9 74.9315 3.91503 74.9315 2.7C74.9315 1.48497 75.9189 0.5 77.1369 0.5C78.3549 0.5 79.3423 1.48497 79.3423 2.7ZM79.3423 18.8333C79.3423 20.0484 78.3549 21.0333 77.1369 21.0333C75.9189 21.0333 74.9315 20.0484 74.9315 18.8333C74.9315 17.6183 75.9189 16.6333 77.1369 16.6333C78.3549 16.6333 79.3423 17.6183 79.3423 18.8333ZM79.3423 34.9667C79.3423 36.1817 78.3549 37.1667 77.1369 37.1667C75.9189 37.1667 74.9315 36.1817 74.9315 34.9667C74.9315 33.7516 75.9189 32.7667 77.1369 32.7667C78.3549 32.7667 79.3423 33.7516 79.3423 34.9667ZM79.3423 51.1C79.3423 52.315 78.3549 53.3 77.1369 53.3C75.9189 53.3 74.9315 52.315 74.9315 51.1C74.9315 49.885 75.9189 48.9 77.1369 48.9C78.3549 48.9 79.3423 49.885 79.3423 51.1ZM79.3423 67.2333C79.3423 68.4484 78.3549 69.4333 77.1369 69.4333C75.9189 69.4333 74.9315 68.4484 74.9315 67.2333C74.9315 66.0183 75.9189 65.0333 77.1369 65.0333C78.3549 65.0333 79.3423 66.0183 79.3423 67.2333ZM79.3423 83.3667C79.3423 84.5817 78.3549 85.5667 77.1369 85.5667C75.9189 85.5667 74.9315 84.5817 74.9315 83.3667C74.9315 82.1516 75.9189 81.1667 77.1369 81.1667C78.3549 81.1667 79.3423 82.1516 79.3423 83.3667ZM79.3423 99.5C79.3423 100.715 78.3549 101.7 77.1369 101.7C75.9189 101.7 74.9315 100.715 74.9315 99.5C74.9315 98.285 75.9189 97.3 77.1369 97.3C78.3549 97.3 79.3423 98.285 79.3423 99.5ZM79.3423 115.633C79.3423 116.848 78.3549 117.833 77.1369 117.833C75.9189 117.833 74.9315 116.848 74.9315 115.633C74.9315 114.418 75.9189 113.433 77.1369 113.433C78.3549 113.433 79.3423 114.418 79.3423 115.633ZM79.3423 131.767C79.3423 132.982 78.3549 133.967 77.1369 133.967C75.9189 133.967 74.9315 132.982 74.9315 131.767C74.9315 130.552 75.9189 129.567 77.1369 129.567C78.3549 129.567 79.3423 130.552 79.3423 131.767ZM79.3423 147.9C79.3423 149.115 78.3549 150.1 77.1369 150.1C75.9189 150.1 74.9315 149.115 74.9315 147.9C74.9315 146.685 75.9189 145.7 77.1369 145.7C78.3549 145.7 79.3423 146.685 79.3423 147.9ZM79.3423 164.033C79.3423 165.248 78.3549 166.233 77.1369 166.233C75.9189 166.233 74.9315 165.248 74.9315 164.033C74.9315 162.818 75.9189 161.833 77.1369 161.833C78.3549 161.833 79.3423 162.818 79.3423 164.033ZM79.3423 180.167C79.3423 181.382 78.3549 182.367 77.1369 182.367C75.9189 182.367 74.9315 181.382 74.9315 180.167C74.9315 178.952 75.9189 177.967 77.1369 177.967C78.3549 177.967 79.3423 178.952 79.3423 180.167ZM79.3423 196.3C79.3423 197.515 78.3549 198.5 77.1369 198.5C75.9189 198.5 74.9315 197.515 74.9315 196.3C74.9315 195.085 75.9189 194.1 77.1369 194.1C78.3549 194.1 79.3423 195.085 79.3423 196.3ZM79.3423 212.433C79.3423 213.648 78.3549 214.633 77.1369 214.633C75.9189 214.633 74.9315 213.648 74.9315 212.433C74.9315 211.218 75.9189 210.233 77.1369 210.233C78.3549 210.233 79.3423 211.218 79.3423 212.433ZM95.5149 99.5C95.5149 100.715 94.5275 101.7 93.3095 101.7C92.0915 101.7 91.1042 100.715 91.1042 99.5C91.1042 98.285 92.0915 97.3 93.3095 97.3C94.5275 97.3 95.5149 98.285 95.5149 99.5ZM95.5149 115.633C95.5149 116.848 94.5275 117.833 93.3095 117.833C92.0915 117.833 91.1042 116.848 91.1042 115.633C91.1042 114.418 92.0915 113.433 93.3095 113.433C94.5275 113.433 95.5149 114.418 95.5149 115.633ZM95.5149 131.767C95.5149 132.982 94.5275 133.967 93.3095 133.967C92.0915 133.967 91.1042 132.982 91.1042 131.767C91.1042 130.552 92.0915 129.567 93.3095 129.567C94.5275 129.567 95.5149 130.552 95.5149 131.767ZM95.5149 147.9C95.5149 149.115 94.5275 150.1 93.3095 150.1C92.0915 150.1 91.1042 149.115 91.1042 147.9C91.1042 146.685 92.0915 145.7 93.3095 145.7C94.5275 145.7 95.5149 146.685 95.5149 147.9ZM95.5149 2.7C95.5149 3.91503 94.5275 4.9 93.3095 4.9C92.0915 4.9 91.1042 3.91503 91.1042 2.7C91.1042 1.48497 92.0915 0.5 93.3095 0.5C94.5275 0.5 95.5149 1.48497 95.5149 2.7ZM95.5149 34.9667C95.5149 36.1817 94.5275 37.1667 93.3095 37.1667C92.0915 37.1667 91.1042 36.1817 91.1042 34.9667C91.1042 33.7516 92.0915 32.7667 93.3095 32.7667C94.5275 32.7667 95.5149 33.7516 95.5149 34.9667ZM95.5149 67.2333C95.5149 68.4484 94.5275 69.4333 93.3095 69.4333C92.0915 69.4333 91.1042 68.4484 91.1042 67.2333C91.1042 66.0183 92.0915 65.0333 93.3095 65.0333C94.5275 65.0333 95.5149 66.0183 95.5149 67.2333ZM95.5149 83.3667C95.5149 84.5817 94.5275 85.5667 93.3095 85.5667C92.0915 85.5667 91.1042 84.5817 91.1042 83.3667C91.1042 82.1516 92.0915 81.1667 93.3095 81.1667C94.5275 81.1667 95.5149 82.1516 95.5149 83.3667ZM95.5149 180.167C95.5149 181.382 94.5275 182.367 93.3095 182.367C92.0915 182.367 91.1042 181.382 91.1042 180.167C91.1042 178.952 92.0915 177.967 93.3095 177.967C94.5275 177.967 95.5149 178.952 95.5149 180.167ZM95.5149 196.3C95.5149 197.515 94.5275 198.5 93.3095 198.5C92.0915 198.5 91.1042 197.515 91.1042 196.3C91.1042 195.085 92.0915 194.1 93.3095 194.1C94.5275 194.1 95.5149 195.085 95.5149 196.3ZM95.5149 18.8333C95.5149 20.0484 94.5275 21.0333 93.3095 21.0333C92.0915 21.0333 91.1042 20.0484 91.1042 18.8333C91.1042 17.6183 92.0915 16.6333 93.3095 16.6333C94.5275 16.6333 95.5149 17.6183 95.5149 18.8333ZM95.5149 212.433C95.5149 213.648 94.5275 214.633 93.3095 214.633C92.0915 214.633 91.1042 213.648 91.1042 212.433C91.1042 211.218 92.0915 210.233 93.3095 210.233C94.5275 210.233 95.5149 211.218 95.5149 212.433ZM95.5149 51.1C95.5149 52.315 94.5275 53.3 93.3095 53.3C92.0915 53.3 91.1042 52.315 91.1042 51.1C91.1042 49.885 92.0915 48.9 93.3095 48.9C94.5275 48.9 95.5149 49.885 95.5149 51.1ZM95.5149 164.033C95.5149 165.248 94.5275 166.233 93.3095 166.233C92.0915 166.233 91.1042 165.248 91.1042 164.033C91.1042 162.818 92.0915 161.833 93.3095 161.833C94.5275 161.833 95.5149 162.818 95.5149 164.033ZM111.688 2.7C111.688 3.91503 110.7 4.9 109.482 4.9C108.264 4.9 107.277 3.91503 107.277 2.7C107.277 1.48497 108.264 0.5 109.482 0.5C110.7 0.5 111.688 1.48497 111.688 2.7ZM111.688 34.9667C111.688 36.1817 110.7 37.1667 109.482 37.1667C108.264 37.1667 107.277 36.1817 107.277 34.9667C107.277 33.7516 108.264 32.7667 109.482 32.7667C110.7 32.7667 111.688 33.7516 111.688 34.9667ZM111.688 51.1C111.688 52.315 110.7 53.3 109.482 53.3C108.264 53.3 107.277 52.315 107.277 51.1C107.277 49.885 108.264 48.9 109.482 48.9C110.7 48.9 111.688 49.885 111.688 51.1ZM111.688 67.2333C111.688 68.4484 110.7 69.4333 109.482 69.4333C108.264 69.4333 107.277 68.4484 107.277 67.2333C107.277 66.0183 108.264 65.0333 109.482 65.0333C110.7 65.0333 111.688 66.0183 111.688 67.2333ZM111.688 83.3667C111.688 84.5817 110.7 85.5667 109.482 85.5667C108.264 85.5667 107.277 84.5817 107.277 83.3667C107.277 82.1516 108.264 81.1667 109.482 81.1667C110.7 81.1667 111.688 82.1516 111.688 83.3667ZM111.688 18.8333C111.688 20.0484 110.7 21.0333 109.482 21.0333C108.264 21.0333 107.277 20.0484 107.277 18.8333C107.277 17.6183 108.264 16.6333 109.482 16.6333C110.7 16.6333 111.688 17.6183 111.688 18.8333ZM111.688 99.5C111.688 100.715 110.7 101.7 109.482 101.7C108.264 101.7 107.277 100.715 107.277 99.5C107.277 98.285 108.264 97.3 109.482 97.3C110.7 97.3 111.688 98.285 111.688 99.5ZM111.688 115.633C111.688 116.848 110.7 117.833 109.482 117.833C108.264 117.833 107.277 116.848 107.277 115.633C107.277 114.418 108.264 113.433 109.482 113.433C110.7 113.433 111.688 114.418 111.688 115.633ZM111.688 131.767C111.688 132.982 110.7 133.967 109.482 133.967C108.264 133.967 107.277 132.982 107.277 131.767C107.277 130.552 108.264 129.567 109.482 129.567C110.7 129.567 111.688 130.552 111.688 131.767ZM111.688 147.9C111.688 149.115 110.7 150.1 109.482 150.1C108.264 150.1 107.277 149.115 107.277 147.9C107.277 146.685 108.264 145.7 109.482 145.7C110.7 145.7 111.688 146.685 111.688 147.9ZM111.688 164.033C111.688 165.248 110.7 166.233 109.482 166.233C108.264 166.233 107.277 165.248 107.277 164.033C107.277 162.818 108.264 161.833 109.482 161.833C110.7 161.833 111.688 162.818 111.688 164.033ZM111.688 180.167C111.688 181.382 110.7 182.367 109.482 182.367C108.264 182.367 107.277 181.382 107.277 180.167C107.277 178.952 108.264 177.967 109.482 177.967C110.7 177.967 111.688 178.952 111.688 180.167ZM111.688 196.3C111.688 197.515 110.7 198.5 109.482 198.5C108.264 198.5 107.277 197.515 107.277 196.3C107.277 195.085 108.264 194.1 109.482 194.1C110.7 194.1 111.688 195.085 111.688 196.3ZM111.688 212.433C111.688 213.648 110.7 214.633 109.482 214.633C108.264 214.633 107.277 213.648 107.277 212.433C107.277 211.218 108.264 210.233 109.482 210.233C110.7 210.233 111.688 211.218 111.688 212.433ZM127.86 2.7C127.86 3.91503 126.873 4.9 125.655 4.9C124.437 4.9 123.449 3.91503 123.449 2.7C123.449 1.48497 124.437 0.5 125.655 0.5C126.873 0.5 127.86 1.48497 127.86 2.7ZM127.86 18.8333C127.86 20.0484 126.873 21.0333 125.655 21.0333C124.437 21.0333 123.449 20.0484 123.449 18.8333C123.449 17.6183 124.437 16.6333 125.655 16.6333C126.873 16.6333 127.86 17.6183 127.86 18.8333ZM127.86 34.9667C127.86 36.1817 126.873 37.1667 125.655 37.1667C124.437 37.1667 123.449 36.1817 123.449 34.9667C123.449 33.7516 124.437 32.7667 125.655 32.7667C126.873 32.7667 127.86 33.7516 127.86 34.9667ZM127.86 51.1C127.86 52.315 126.873 53.3 125.655 53.3C124.437 53.3 123.449 52.315 123.449 51.1C123.449 49.885 124.437 48.9 125.655 48.9C126.873 48.9 127.86 49.885 127.86 51.1ZM127.86 67.2333C127.86 68.4484 126.873 69.4333 125.655 69.4333C124.437 69.4333 123.449 68.4484 123.449 67.2333C123.449 66.0183 124.437 65.0333 125.655 65.0333C126.873 65.0333 127.86 66.0183 127.86 67.2333ZM127.86 83.3667C127.86 84.5817 126.873 85.5667 125.655 85.5667C124.437 85.5667 123.449 84.5817 123.449 83.3667C123.449 82.1516 124.437 81.1667 125.655 81.1667C126.873 81.1667 127.86 82.1516 127.86 83.3667ZM127.86 99.5C127.86 100.715 126.873 101.7 125.655 101.7C124.437 101.7 123.449 100.715 123.449 99.5C123.449 98.285 124.437 97.3 125.655 97.3C126.873 97.3 127.86 98.285 127.86 99.5ZM127.86 115.633C127.86 116.848 126.873 117.833 125.655 117.833C124.437 117.833 123.449 116.848 123.449 115.633C123.449 114.418 124.437 113.433 125.655 113.433C126.873 113.433 127.86 114.418 127.86 115.633ZM127.86 131.767C127.86 132.982 126.873 133.967 125.655 133.967C124.437 133.967 123.449 132.982 123.449 131.767C123.449 130.552 124.437 129.567 125.655 129.567C126.873 129.567 127.86 130.552 127.86 131.767ZM127.86 147.9C127.86 149.115 126.873 150.1 125.655 150.1C124.437 150.1 123.449 149.115 123.449 147.9C123.449 146.685 124.437 145.7 125.655 145.7C126.873 145.7 127.86 146.685 127.86 147.9ZM127.86 164.033C127.86 165.248 126.873 166.233 125.655 166.233C124.437 166.233 123.449 165.248 123.449 164.033C123.449 162.818 124.437 161.833 125.655 161.833C126.873 161.833 127.86 162.818 127.86 164.033ZM127.86 180.167C127.86 181.382 126.873 182.367 125.655 182.367C124.437 182.367 123.449 181.382 123.449 180.167C123.449 178.952 124.437 177.967 125.655 177.967C126.873 177.967 127.86 178.952 127.86 180.167ZM127.86 196.3C127.86 197.515 126.873 198.5 125.655 198.5C124.437 198.5 123.449 197.515 123.449 196.3C123.449 195.085 124.437 194.1 125.655 194.1C126.873 194.1 127.86 195.085 127.86 196.3ZM127.86 212.433C127.86 213.648 126.873 214.633 125.655 214.633C124.437 214.633 123.449 213.648 123.449 212.433C123.449 211.218 124.437 210.233 125.655 210.233C126.873 210.233 127.86 211.218 127.86 212.433ZM144.033 2.7C144.033 3.91503 143.045 4.9 141.827 4.9C140.609 4.9 139.622 3.91503 139.622 2.7C139.622 1.48497 140.609 0.5 141.827 0.5C143.045 0.5 144.033 1.48497 144.033 2.7ZM144.033 18.8333C144.033 20.0484 143.045 21.0333 141.827 21.0333C140.609 21.0333 139.622 20.0484 139.622 18.8333C139.622 17.6183 140.609 16.6333 141.827 16.6333C143.045 16.6333 144.033 17.6183 144.033 18.8333ZM144.033 34.9667C144.033 36.1817 143.045 37.1667 141.827 37.1667C140.609 37.1667 139.622 36.1817 139.622 34.9667C139.622 33.7516 140.609 32.7667 141.827 32.7667C143.045 32.7667 144.033 33.7516 144.033 34.9667ZM144.033 51.1C144.033 52.315 143.045 53.3 141.827 53.3C140.609 53.3 139.622 52.315 139.622 51.1C139.622 49.885 140.609 48.9 141.827 48.9C143.045 48.9 144.033 49.885 144.033 51.1ZM144.033 67.2333C144.033 68.4484 143.045 69.4333 141.827 69.4333C140.609 69.4333 139.622 68.4484 139.622 67.2333C139.622 66.0183 140.609 65.0333 141.827 65.0333C143.045 65.0333 144.033 66.0183 144.033 67.2333ZM144.033 83.3667C144.033 84.5817 143.045 85.5667 141.827 85.5667C140.609 85.5667 139.622 84.5817 139.622 83.3667C139.622 82.1516 140.609 81.1667 141.827 81.1667C143.045 81.1667 144.033 82.1516 144.033 83.3667ZM144.033 99.5C144.033 100.715 143.045 101.7 141.827 101.7C140.609 101.7 139.622 100.715 139.622 99.5C139.622 98.285 140.609 97.3 141.827 97.3C143.045 97.3 144.033 98.285 144.033 99.5ZM144.033 115.633C144.033 116.848 143.045 117.833 141.827 117.833C140.609 117.833 139.622 116.848 139.622 115.633C139.622 114.418 140.609 113.433 141.827 113.433C143.045 113.433 144.033 114.418 144.033 115.633ZM144.033 131.767C144.033 132.982 143.045 133.967 141.827 133.967C140.609 133.967 139.622 132.982 139.622 131.767C139.622 130.552 140.609 129.567 141.827 129.567C143.045 129.567 144.033 130.552 144.033 131.767ZM144.033 147.9C144.033 149.115 143.045 150.1 141.827 150.1C140.609 150.1 139.622 149.115 139.622 147.9C139.622 146.685 140.609 145.7 141.827 145.7C143.045 145.7 144.033 146.685 144.033 147.9ZM144.033 164.033C144.033 165.248 143.045 166.233 141.827 166.233C140.609 166.233 139.622 165.248 139.622 164.033C139.622 162.818 140.609 161.833 141.827 161.833C143.045 161.833 144.033 162.818 144.033 164.033ZM144.033 180.167C144.033 181.382 143.045 182.367 141.827 182.367C140.609 182.367 139.622 181.382 139.622 180.167C139.622 178.952 140.609 177.967 141.827 177.967C143.045 177.967 144.033 178.952 144.033 180.167ZM144.033 196.3C144.033 197.515 143.045 198.5 141.827 198.5C140.609 198.5 139.622 197.515 139.622 196.3C139.622 195.085 140.609 194.1 141.827 194.1C143.045 194.1 144.033 195.085 144.033 196.3ZM144.033 212.433C144.033 213.648 143.045 214.633 141.827 214.633C140.609 214.633 139.622 213.648 139.622 212.433C139.622 211.218 140.609 210.233 141.827 210.233C143.045 210.233 144.033 211.218 144.033 212.433ZM160.205 2.7C160.205 3.91503 159.218 4.9 158 4.9C156.782 4.9 155.795 3.91503 155.795 2.7C155.795 1.48497 156.782 0.5 158 0.5C159.218 0.5 160.205 1.48497 160.205 2.7ZM160.205 18.8333C160.205 20.0484 159.218 21.0333 158 21.0333C156.782 21.0333 155.795 20.0484 155.795 18.8333C155.795 17.6183 156.782 16.6333 158 16.6333C159.218 16.6333 160.205 17.6183 160.205 18.8333ZM160.205 34.9667C160.205 36.1817 159.218 37.1667 158 37.1667C156.782 37.1667 155.795 36.1817 155.795 34.9667C155.795 33.7516 156.782 32.7667 158 32.7667C159.218 32.7667 160.205 33.7516 160.205 34.9667ZM160.205 51.1C160.205 52.315 159.218 53.3 158 53.3C156.782 53.3 155.795 52.315 155.795 51.1C155.795 49.885 156.782 48.9 158 48.9C159.218 48.9 160.205 49.885 160.205 51.1ZM160.205 67.2333C160.205 68.4484 159.218 69.4333 158 69.4333C156.782 69.4333 155.795 68.4484 155.795 67.2333C155.795 66.0183 156.782 65.0333 158 65.0333C159.218 65.0333 160.205 66.0183 160.205 67.2333ZM160.205 83.3667C160.205 84.5817 159.218 85.5667 158 85.5667C156.782 85.5667 155.795 84.5817 155.795 83.3667C155.795 82.1516 156.782 81.1667 158 81.1667C159.218 81.1667 160.205 82.1516 160.205 83.3667ZM160.205 99.5C160.205 100.715 159.218 101.7 158 101.7C156.782 101.7 155.795 100.715 155.795 99.5C155.795 98.285 156.782 97.3 158 97.3C159.218 97.3 160.205 98.285 160.205 99.5ZM160.205 115.633C160.205 116.848 159.218 117.833 158 117.833C156.782 117.833 155.795 116.848 155.795 115.633C155.795 114.418 156.782 113.433 158 113.433C159.218 113.433 160.205 114.418 160.205 115.633ZM160.205 131.767C160.205 132.982 159.218 133.967 158 133.967C156.782 133.967 155.795 132.982 155.795 131.767C155.795 130.552 156.782 129.567 158 129.567C159.218 129.567 160.205 130.552 160.205 131.767ZM160.205 147.9C160.205 149.115 159.218 150.1 158 150.1C156.782 150.1 155.795 149.115 155.795 147.9C155.795 146.685 156.782 145.7 158 145.7C159.218 145.7 160.205 146.685 160.205 147.9ZM160.205 164.033C160.205 165.248 159.218 166.233 158 166.233C156.782 166.233 155.795 165.248 155.795 164.033C155.795 162.818 156.782 161.833 158 161.833C159.218 161.833 160.205 162.818 160.205 164.033ZM160.205 180.167C160.205 181.382 159.218 182.367 158 182.367C156.782 182.367 155.795 181.382 155.795 180.167C155.795 178.952 156.782 177.967 158 177.967C159.218 177.967 160.205 178.952 160.205 180.167ZM160.205 196.3C160.205 197.515 159.218 198.5 158 198.5C156.782 198.5 155.795 197.515 155.795 196.3C155.795 195.085 156.782 194.1 158 194.1C159.218 194.1 160.205 195.085 160.205 196.3ZM160.205 212.433C160.205 213.648 159.218 214.633 158 214.633C156.782 214.633 155.795 213.648 155.795 212.433C155.795 211.218 156.782 210.233 158 210.233C159.218 210.233 160.205 211.218 160.205 212.433ZM176.378 2.7C176.378 3.91503 175.391 4.9 174.173 4.9C172.955 4.9 171.967 3.91503 171.967 2.7C171.967 1.48497 172.955 0.5 174.173 0.5C175.391 0.5 176.378 1.48497 176.378 2.7ZM176.378 18.8333C176.378 20.0484 175.391 21.0333 174.173 21.0333C172.955 21.0333 171.967 20.0484 171.967 18.8333C171.967 17.6183 172.955 16.6333 174.173 16.6333C175.391 16.6333 176.378 17.6183 176.378 18.8333ZM176.378 34.9667C176.378 36.1817 175.391 37.1667 174.173 37.1667C172.955 37.1667 171.967 36.1817 171.967 34.9667C171.967 33.7516 172.955 32.7667 174.173 32.7667C175.391 32.7667 176.378 33.7516 176.378 34.9667ZM176.378 51.1C176.378 52.315 175.391 53.3 174.173 53.3C172.955 53.3 171.967 52.315 171.967 51.1C171.967 49.885 172.955 48.9 174.173 48.9C175.391 48.9 176.378 49.885 176.378 51.1ZM176.378 67.2333C176.378 68.4484 175.391 69.4333 174.173 69.4333C172.955 69.4333 171.967 68.4484 171.967 67.2333C171.967 66.0183 172.955 65.0333 174.173 65.0333C175.391 65.0333 176.378 66.0183 176.378 67.2333ZM176.378 83.3667C176.378 84.5817 175.391 85.5667 174.173 85.5667C172.955 85.5667 171.967 84.5817 171.967 83.3667C171.967 82.1516 172.955 81.1667 174.173 81.1667C175.391 81.1667 176.378 82.1516 176.378 83.3667ZM176.378 99.5C176.378 100.715 175.391 101.7 174.173 101.7C172.955 101.7 171.967 100.715 171.967 99.5C171.967 98.285 172.955 97.3 174.173 97.3C175.391 97.3 176.378 98.285 176.378 99.5ZM176.378 115.633C176.378 116.848 175.391 117.833 174.173 117.833C172.955 117.833 171.967 116.848 171.967 115.633C171.967 114.418 172.955 113.433 174.173 113.433C175.391 113.433 176.378 114.418 176.378 115.633ZM176.378 131.767C176.378 132.982 175.391 133.967 174.173 133.967C172.955 133.967 171.967 132.982 171.967 131.767C171.967 130.552 172.955 129.567 174.173 129.567C175.391 129.567 176.378 130.552 176.378 131.767ZM176.378 147.9C176.378 149.115 175.391 150.1 174.173 150.1C172.955 150.1 171.967 149.115 171.967 147.9C171.967 146.685 172.955 145.7 174.173 145.7C175.391 145.7 176.378 146.685 176.378 147.9ZM176.378 164.033C176.378 165.248 175.391 166.233 174.173 166.233C172.955 166.233 171.967 165.248 171.967 164.033C171.967 162.818 172.955 161.833 174.173 161.833C175.391 161.833 176.378 162.818 176.378 164.033ZM176.378 180.167C176.378 181.382 175.391 182.367 174.173 182.367C172.955 182.367 171.967 181.382 171.967 180.167C171.967 178.952 172.955 177.967 174.173 177.967C175.391 177.967 176.378 178.952 176.378 180.167ZM176.378 196.3C176.378 197.515 175.391 198.5 174.173 198.5C172.955 198.5 171.967 197.515 171.967 196.3C171.967 195.085 172.955 194.1 174.173 194.1C175.391 194.1 176.378 195.085 176.378 196.3ZM176.378 212.433C176.378 213.648 175.391 214.633 174.173 214.633C172.955 214.633 171.967 213.648 171.967 212.433C171.967 211.218 172.955 210.233 174.173 210.233C175.391 210.233 176.378 211.218 176.378 212.433ZM192.551 2.7C192.551 3.91503 191.563 4.9 190.345 4.9C189.127 4.9 188.14 3.91503 188.14 2.7C188.14 1.48497 189.127 0.5 190.345 0.5C191.563 0.5 192.551 1.48497 192.551 2.7ZM192.551 18.8333C192.551 20.0484 191.563 21.0333 190.345 21.0333C189.127 21.0333 188.14 20.0484 188.14 18.8333C188.14 17.6183 189.127 16.6333 190.345 16.6333C191.563 16.6333 192.551 17.6183 192.551 18.8333ZM192.551 34.9667C192.551 36.1817 191.563 37.1667 190.345 37.1667C189.127 37.1667 188.14 36.1817 188.14 34.9667C188.14 33.7516 189.127 32.7667 190.345 32.7667C191.563 32.7667 192.551 33.7516 192.551 34.9667ZM192.551 51.1C192.551 52.315 191.563 53.3 190.345 53.3C189.127 53.3 188.14 52.315 188.14 51.1C188.14 49.885 189.127 48.9 190.345 48.9C191.563 48.9 192.551 49.885 192.551 51.1ZM192.551 67.2333C192.551 68.4484 191.563 69.4333 190.345 69.4333C189.127 69.4333 188.14 68.4484 188.14 67.2333C188.14 66.0183 189.127 65.0333 190.345 65.0333C191.563 65.0333 192.551 66.0183 192.551 67.2333ZM192.551 83.3667C192.551 84.5817 191.563 85.5667 190.345 85.5667C189.127 85.5667 188.14 84.5817 188.14 83.3667C188.14 82.1516 189.127 81.1667 190.345 81.1667C191.563 81.1667 192.551 82.1516 192.551 83.3667ZM192.551 99.5C192.551 100.715 191.563 101.7 190.345 101.7C189.127 101.7 188.14 100.715 188.14 99.5C188.14 98.285 189.127 97.3 190.345 97.3C191.563 97.3 192.551 98.285 192.551 99.5ZM192.551 115.633C192.551 116.848 191.563 117.833 190.345 117.833C189.127 117.833 188.14 116.848 188.14 115.633C188.14 114.418 189.127 113.433 190.345 113.433C191.563 113.433 192.551 114.418 192.551 115.633ZM192.551 131.767C192.551 132.982 191.563 133.967 190.345 133.967C189.127 133.967 188.14 132.982 188.14 131.767C188.14 130.552 189.127 129.567 190.345 129.567C191.563 129.567 192.551 130.552 192.551 131.767ZM192.551 147.9C192.551 149.115 191.563 150.1 190.345 150.1C189.127 150.1 188.14 149.115 188.14 147.9C188.14 146.685 189.127 145.7 190.345 145.7C191.563 145.7 192.551 146.685 192.551 147.9ZM192.551 164.033C192.551 165.248 191.563 166.233 190.345 166.233C189.127 166.233 188.14 165.248 188.14 164.033C188.14 162.818 189.127 161.833 190.345 161.833C191.563 161.833 192.551 162.818 192.551 164.033ZM192.551 180.167C192.551 181.382 191.563 182.367 190.345 182.367C189.127 182.367 188.14 181.382 188.14 180.167C188.14 178.952 189.127 177.967 190.345 177.967C191.563 177.967 192.551 178.952 192.551 180.167ZM192.551 196.3C192.551 197.515 191.563 198.5 190.345 198.5C189.127 198.5 188.14 197.515 188.14 196.3C188.14 195.085 189.127 194.1 190.345 194.1C191.563 194.1 192.551 195.085 192.551 196.3ZM192.551 212.433C192.551 213.648 191.563 214.633 190.345 214.633C189.127 214.633 188.14 213.648 188.14 212.433C188.14 211.218 189.127 210.233 190.345 210.233C191.563 210.233 192.551 211.218 192.551 212.433Z" fill="#F6F6F6"/>
<path fill-rule="evenodd" clip-rule="evenodd" d="M152.31 58.9185C145.621 55.0272 137.379 55.0272 130.69 58.9185L61.3105 99.2765C54.6209 103.168 50.5 110.359 50.5 118.142V198.858C50.5 206.641 54.6209 213.832 61.3105 217.723L130.69 258.082C137.379 261.973 145.621 261.973 152.31 258.082L221.69 217.723C228.379 213.832 232.5 206.641 232.5 198.858V118.142C232.5 110.359 228.379 103.168 221.69 99.2765L152.31 58.9185Z" fill="#F6F6F6"/>
<path fill-rule="evenodd" clip-rule="evenodd" d="M4.90625 250.171C5.98304 250.171 6.9594 250.611 7.66665 251.319C8.37413 252.028 8.8125 253.006 8.8125 254.086C8.8125 255.165 8.37405 256.143 7.66649 256.852C6.95926 257.561 5.98296 258 4.90625 258C3.82954 258 2.85324 257.561 2.14601 256.852C1.43845 256.143 1 255.165 1 254.086C1 253.006 1.43837 252.028 2.14585 251.319C2.8531 250.611 3.82946 250.171 4.90625 250.171ZM4.90625 250.498C3.91885 250.498 3.02309 250.901 2.37434 251.551C1.72604 252.2 1.32459 253.097 1.32459 254.086C1.32459 255.075 1.72604 255.971 2.37434 256.621C3.02309 257.271 3.91885 257.673 4.90625 257.673C5.89395 257.673 6.78961 257.271 7.43825 256.621C8.08656 255.972 8.48791 255.075 8.48791 254.086C8.48791 253.097 8.08656 252.2 7.43825 251.55C6.78961 250.901 5.89395 250.498 4.90625 250.498ZM233.23 198.671C233.307 198.671 233.383 198.701 233.443 198.761C233.502 198.82 233.531 198.897 233.531 198.974C233.531 199.052 233.502 199.13 233.442 199.189L230.051 202.585L233.442 205.983C233.502 206.042 233.531 206.119 233.531 206.197C233.531 206.275 233.502 206.352 233.442 206.412C233.384 206.47 233.307 206.5 233.23 206.5C233.153 206.5 233.076 206.47 233.017 206.412L229.625 203.013L226.233 206.412C226.174 206.47 226.097 206.5 226.02 206.5C225.943 206.5 225.866 206.47 225.808 206.412C225.748 206.352 225.719 206.275 225.719 206.197C225.719 206.119 225.748 206.042 225.808 205.983L229.198 202.585L225.808 199.189C225.748 199.13 225.719 199.052 225.719 198.974C225.719 198.897 225.748 198.82 225.808 198.76C225.867 198.701 225.943 198.671 226.02 198.671L229.625 202.157L233.017 198.76C233.076 198.701 233.153 198.671 233.23 198.671ZM56.9796 189.843C57.0568 189.843 57.1338 189.873 57.1927 189.932C57.2517 189.991 57.281 190.068 57.281 190.146C57.281 190.224 57.2514 190.301 57.1927 190.36L53.8012 193.757L57.1923 197.154C57.2515 197.213 57.2812 197.291 57.2812 197.368C57.2812 197.446 57.2515 197.524 57.1923 197.583C57.1337 197.642 57.0567 197.671 56.9796 197.671C56.9026 197.671 56.8256 197.642 56.7669 197.583L53.3747 194.184L49.9831 197.583C49.9244 197.642 49.8474 197.671 49.7704 197.671C49.6933 197.671 49.6163 197.642 49.5577 197.583C49.4985 197.524 49.4688 197.446 49.4688 197.368C49.4688 197.291 49.4985 197.213 49.5577 197.154L52.9482 193.757L49.5578 190.361C49.4986 190.301 49.469 190.224 49.469 190.146C49.469 190.068 49.4983 189.991 49.5573 189.932C49.6162 189.873 49.6932 189.843 49.7704 189.843L53.3747 193.33L56.7677 189.931C56.8262 189.872 56.9029 189.843 56.9796 189.843ZM229.625 114.8C230.702 114.8 231.678 115.239 232.385 115.947C233.093 116.656 233.531 117.635 233.531 118.714C233.531 119.793 233.093 120.772 232.385 121.481C231.678 122.189 230.702 122.629 229.625 122.629C228.548 122.629 227.572 122.189 226.865 121.481C226.157 120.772 225.719 119.793 225.719 118.714C225.719 117.635 226.157 116.656 226.865 115.948C227.572 115.239 228.548 114.8 229.625 114.8ZM229.625 115.127C228.637 115.127 227.742 115.529 227.093 116.179C226.445 116.828 226.043 117.725 226.043 118.714C226.043 119.703 226.445 120.6 227.093 121.249C227.742 121.899 228.637 122.302 229.625 122.302C230.612 122.302 231.508 121.899 232.157 121.249C232.805 120.6 233.207 119.703 233.207 118.714C233.207 117.725 232.805 116.828 232.157 116.179C231.508 115.529 230.612 115.127 229.625 115.127ZM281.699 53C281.776 53 281.852 53.0293 281.911 53.0881C281.97 53.1474 282 53.2251 282 53.3028C282 53.3802 281.97 53.4576 281.911 53.517L278.52 56.914L281.911 60.3112C281.97 60.3705 282 60.448 282 60.5256C282 60.6033 281.97 60.6808 281.911 60.7401C281.852 60.7989 281.775 60.8286 281.698 60.8286C281.621 60.8286 281.544 60.7989 281.486 60.7401L278.093 57.3412L274.702 60.7401C274.643 60.7989 274.566 60.8286 274.489 60.8286C274.412 60.8286 274.335 60.7989 274.276 60.7401C274.217 60.6808 274.188 60.6033 274.188 60.5256C274.188 60.448 274.217 60.3705 274.276 60.3112L277.667 56.914L274.276 53.5165C274.217 53.4576 274.188 53.3802 274.188 53.3028C274.188 53.2251 274.217 53.1474 274.276 53.0881C274.335 53.0293 274.412 53 274.489 53L278.093 56.4857L281.485 53.0885C281.544 53.0296 281.621 53 281.699 53ZM55.9548 53.972C56.7642 54.6846 57.2086 55.6609 57.2731 56.6614C57.3375 57.662 57.0221 58.6872 56.3107 59.4979C55.6251 60.2796 54.6777 60.749 53.6415 60.8194C52.4344 60.8249 51.5213 60.4919 50.7972 59.8536C50.0131 59.1639 49.5446 58.2094 49.477 57.1652C49.4101 56.1218 49.7524 55.1143 50.4422 54.3284C51.153 53.5179 52.1267 53.0727 53.1248 53.0082C54.123 52.9437 55.1457 53.2597 55.9548 53.972ZM53.3781 53.3269C52.3827 53.3269 51.3921 53.739 50.6847 54.5449C50.0535 55.2652 49.7395 56.188 49.8018 57.1448C49.8634 58.1004 50.2929 58.9754 51.0109 59.6076C51.7305 60.2413 52.6545 60.5585 53.6081 60.4936C54.5618 60.4321 55.4356 60.001 56.0669 59.2814C56.7186 58.5387 57.0083 57.5996 56.9493 56.6828C56.8904 55.7659 56.4829 54.8716 55.7414 54.2182C55.0619 53.6208 54.2181 53.3269 53.3781 53.3269Z" stroke="#E5E5E5"/>
<path fill-rule="evenodd" clip-rule="evenodd" d="M205.4 211.251C204.421 211.251 203.625 210.455 203.625 209.476C203.625 208.497 204.421 207.701 205.4 207.701C206.379 207.701 207.175 208.497 207.175 209.476C207.175 210.455 206.379 211.251 205.4 211.251Z" fill="#ECECFE"/>
<path fill-rule="evenodd" clip-rule="evenodd" d="M139.725 94.1008C138.746 94.1008 137.95 93.3045 137.95 92.3258C137.95 91.347 138.746 90.5508 139.725 90.5508C140.704 90.5508 141.5 91.347 141.5 92.3258C141.5 93.3045 140.704 94.1008 139.725 94.1008Z" fill="#ECECFE"/>
<path fill-rule="evenodd" clip-rule="evenodd" d="M77.6 197.05C76.6212 197.05 75.825 196.254 75.825 195.275C75.825 194.296 76.6212 193.5 77.6 193.5C78.5787 193.5 79.375 194.296 79.375 195.275C79.375 196.254 78.5787 197.05 77.6 197.05Z" fill="#ECECFE"/>
<path fill-rule="evenodd" clip-rule="evenodd" d="M166.796 165.446L173.69 148.829C174.441 147.018 176.518 146.159 178.329 146.911C179.194 147.269 179.882 147.955 180.244 148.819L187.198 165.438C187.597 166.392 187.561 167.472 187.099 168.396L184.403 173.787C184.315 173.963 184.214 174.13 184.1 174.286V180.787L187.559 191.163C187.621 191.349 187.651 191.543 187.65 191.738L187.638 191.932L185.128 213.232C185.031 214.057 184.378 214.695 183.57 214.788L183.365 214.8H170.635C169.804 214.8 169.095 214.226 168.908 213.434L168.872 213.232L168.049 206.243C167.934 205.27 168.63 204.387 169.604 204.273C170.508 204.166 171.333 204.759 171.538 205.624L171.574 205.828L172.213 211.25H181.785L184.065 191.907L181.045 182.85H172.953L169.809 192.286C169.521 193.149 168.634 193.645 167.764 193.463L167.564 193.409C166.7 193.121 166.205 192.233 166.387 191.363L166.441 191.163L169.9 180.787V174.286C169.787 174.13 169.685 173.963 169.597 173.787L166.9 168.394C166.439 167.472 166.402 166.397 166.796 165.446ZM173.45 175.75V179.3H180.55V175.75H173.45ZM175.225 154.393L170.075 166.806L172.772 172.2H181.228L183.923 166.809L178.775 154.506V163.325C178.775 164.305 177.98 165.1 177 165.1C176.09 165.1 175.34 164.414 175.237 163.532L175.225 163.325V154.393Z" fill="#E1000F"/>
<path d="M153.925 182.85C157.272 182.85 159.25 184.828 159.25 188.175C159.25 188.32 159.232 188.464 159.197 188.605C158.3 192.193 154.312 194.525 147.195 195.811L146.045 196.005C145.653 196.067 145.252 196.126 144.843 196.182L143.589 196.342C143.376 196.368 143.161 196.392 142.943 196.416L141.611 196.551L140.227 196.669L138.79 196.771L137.302 196.857C137.05 196.87 136.795 196.882 136.538 196.894L134.971 196.956L133.352 197.002L131.68 197.033L129.075 197.05C128.095 197.05 127.3 196.255 127.3 195.275C127.3 194.294 128.095 193.5 129.075 193.5L130.761 193.492C131.038 193.489 131.312 193.486 131.584 193.482L133.188 193.452L134.738 193.407L136.234 193.347L137.674 193.272L139.06 193.184L140.392 193.081L141.668 192.965C141.876 192.945 142.082 192.924 142.286 192.902L143.48 192.766C144.063 192.694 144.626 192.618 145.168 192.536L146.225 192.367L147.227 192.186L148.175 191.992C152.466 191.057 154.959 189.725 155.636 188.097L155.695 187.935L155.683 187.726C155.601 186.77 155.206 186.443 154.159 186.404L153.925 186.4C152.081 186.4 150.139 187.37 148.08 189.43C147.011 190.499 145.215 189.821 145.061 188.376L145.05 188.175C145.05 186.788 144.661 186.4 143.275 186.4C141.431 186.4 139.489 187.37 137.43 189.43C136.737 190.123 135.613 190.123 134.92 189.43C134.227 188.737 134.227 187.613 134.92 186.919C137.594 184.245 140.386 182.85 143.275 182.85C145.307 182.85 146.835 183.579 147.721 184.901L147.791 185.013L148.138 184.772C149.872 183.601 151.651 182.954 153.47 182.861L153.925 182.85Z" fill="#E1000F"/>
<path d="M169.888 109.869C169.786 108.986 169.035 108.301 168.125 108.301H100.675L100.468 108.313C99.5852 108.415 98.9 109.165 98.9 110.076V205.926L98.912 206.133C99.0145 207.016 99.7647 207.701 100.675 207.701H157.475L157.682 207.689C158.565 207.586 159.25 206.836 159.25 205.926L159.238 205.719C159.136 204.836 158.385 204.151 157.475 204.151H102.45V111.851H166.35V145.576L166.362 145.783C166.465 146.666 167.215 147.351 168.125 147.351C169.105 147.351 169.9 146.556 169.9 145.576V110.076L169.888 109.869Z" fill="#000091"/>
<path d="M141.5 120.726C141.5 119.745 140.705 118.951 139.725 118.951H111.325L111.118 118.963C110.235 119.065 109.55 119.815 109.55 120.726C109.55 121.706 110.345 122.501 111.325 122.501H139.725L139.932 122.489C140.815 122.386 141.5 121.636 141.5 120.726Z" fill="#000091"/>
<path d="M157.475 129.601C158.455 129.601 159.25 130.395 159.25 131.376C159.25 132.286 158.565 133.036 157.682 133.139L157.475 133.151H111.325C110.345 133.151 109.55 132.356 109.55 131.376C109.55 130.465 110.235 129.715 111.118 129.613L111.325 129.601H157.475Z" fill="#000091"/>
<path d="M148.6 142.026C148.6 141.045 147.805 140.251 146.825 140.251H111.325L111.118 140.263C110.235 140.365 109.55 141.115 109.55 142.026C109.55 143.006 110.345 143.801 111.325 143.801H146.825L147.032 143.789C147.915 143.686 148.6 142.936 148.6 142.026Z" fill="#000091"/>
<path d="M157.475 150.901C158.455 150.901 159.25 151.695 159.25 152.676C159.25 153.586 158.565 154.336 157.682 154.439L157.475 154.451H111.325C110.345 154.451 109.55 153.656 109.55 152.676C109.55 151.765 110.235 151.015 111.118 150.913L111.325 150.901H157.475Z" fill="#000091"/>
<path d="M176.988 124.069C176.886 123.186 176.135 122.501 175.225 122.501C174.245 122.501 173.45 123.295 173.45 124.276V138.476L173.462 138.683C173.564 139.566 174.315 140.251 175.225 140.251C176.205 140.251 177 139.456 177 138.476V124.276L176.988 124.069Z" fill="#000091"/>
<path d="M161.025 211.251C162.005 211.251 162.8 212.045 162.8 213.026C162.8 213.936 162.115 214.686 161.232 214.789L161.025 214.801H114.875C113.895 214.801 113.1 214.006 113.1 213.026C113.1 212.115 113.785 211.365 114.668 211.263L114.875 211.251H161.025Z" fill="#000091"/>
<path d="M148.6 163.326C148.6 162.345 147.805 161.551 146.825 161.551H111.325L111.118 161.563C110.235 161.665 109.55 162.415 109.55 163.326C109.55 164.306 110.345 165.101 111.325 165.101H146.825L147.032 165.089C147.915 164.986 148.6 164.236 148.6 163.326Z" fill="#000091"/>
</g>
<defs>
<clipPath id="clip0_2078_1682">
<rect width="282" height="319" fill="white" transform="translate(0.5 0.5)"/>
</clipPath>
</defs>
</svg>
