<svg width="57" height="56" viewBox="0 0 57 56" fill="none" xmlns="http://www.w3.org/2000/svg">
<path fill-rule="evenodd" clip-rule="evenodd" d="M7.50005 5.59965C7.11407 5.59965 6.80005 5.28563 6.80005 4.89965C6.80005 4.51363 7.11407 4.19965 7.50005 4.19965C7.88603 4.19965 8.20005 4.51363 8.20005 4.89965C8.20005 5.28563 7.88603 5.59965 7.50005 5.59965Z" fill="#ECECFE"/>
<path fill-rule="evenodd" clip-rule="evenodd" d="M11.7 49.6996C11.314 49.6996 11 49.3856 11 48.9996C11 48.6136 11.314 48.2996 11.7 48.2996C12.086 48.2996 12.4 48.6136 12.4 48.9996C12.4 49.3856 12.086 49.6996 11.7 49.6996Z" fill="#ECECFE"/>
<path fill-rule="evenodd" clip-rule="evenodd" d="M48.0999 39.1996C47.7139 39.1996 47.3999 38.8856 47.3999 38.4996C47.3999 38.1136 47.7139 37.7996 48.0999 37.7996C48.4859 37.7996 48.7999 38.1136 48.7999 38.4996C48.7999 38.8856 48.4859 39.1996 48.0999 39.1996Z" fill="#ECECFE"/>
<path fill-rule="evenodd" clip-rule="evenodd" d="M49.5 5.59965C49.1141 5.59965 48.8 5.28563 48.8 4.89965C48.8 4.51363 49.1141 4.19965 49.5 4.19965C49.886 4.19965 50.2001 4.51363 50.2001 4.89965C50.2001 5.28563 49.886 5.59965 49.5 5.59965Z" fill="#ECECFE"/>
<path fill-rule="evenodd" clip-rule="evenodd" d="M28.8501 23.7996C27.497 23.7996 26.4001 24.8965 26.4001 26.2496C26.4001 27.6027 27.497 28.6996 28.8501 28.6996C30.2032 28.6996 31.3001 27.6027 31.3001 26.2496C31.3001 24.8965 30.2032 23.7996 28.8501 23.7996ZM25.0001 26.2496C25.0001 24.1233 26.7238 22.3996 28.8501 22.3996C30.9764 22.3996 32.7001 24.1233 32.7001 26.2496C32.7001 28.3759 30.9764 30.0996 28.8501 30.0996C26.7238 30.0996 25.0001 28.3759 25.0001 26.2496Z" fill="#E1000F"/>
<path fill-rule="evenodd" clip-rule="evenodd" d="M25.3501 39.8996C25.3501 39.513 25.6635 39.1996 26.0501 39.1996H26.7501C27.1367 39.1996 27.4501 39.513 27.4501 39.8996C27.4501 40.2862 27.1367 40.5996 26.7501 40.5996H26.0501C25.6635 40.5996 25.3501 40.2862 25.3501 39.8996Z" fill="#E1000F"/>
<path fill-rule="evenodd" clip-rule="evenodd" d="M27.1415 17.9625C27.2415 17.6848 27.5049 17.4996 27.8001 17.4996H29.9001C30.1953 17.4996 30.4587 17.6848 30.5587 17.9625L31.0887 19.4346L32.0557 19.8742L33.437 19.1835C33.7065 19.0488 34.032 19.1016 34.2451 19.3147L35.7851 20.8547C35.9981 21.0677 36.0509 21.3932 35.9162 21.6627L35.2154 23.0643L35.6089 24.0699L37.106 24.5306C37.3997 24.621 37.6001 24.8923 37.6001 25.1996V27.3696C37.6001 27.668 37.411 27.9335 37.1291 28.0311L35.6081 28.5576L35.2182 29.5107L35.9162 30.9066C36.0536 31.1814 35.9957 31.5138 35.7734 31.726L34.2334 33.196C34.0261 33.3939 33.719 33.4454 33.4584 33.326L32.0543 32.6824L31.0833 33.0796L30.5587 34.5367C30.4587 34.8145 30.1953 34.9996 29.9001 34.9996H27.8001C27.5049 34.9996 27.2415 34.8145 27.1415 34.5367L26.6169 33.0796L25.6459 32.6824L24.2418 33.326C23.9812 33.4454 23.6741 33.3939 23.4668 33.196L21.9268 31.726C21.7045 31.5138 21.6466 31.1814 21.784 30.9066L22.4819 29.5107L22.092 28.5576L20.5711 28.0311C20.2892 27.9335 20.1001 27.668 20.1001 27.3696V25.1996C20.1001 24.8923 20.3005 24.621 20.5942 24.5306L22.0913 24.0699L22.4848 23.0643L21.784 21.6627C21.6493 21.3932 21.7021 21.0677 21.9151 20.8547L23.4551 19.3147C23.6682 19.1016 23.9937 19.0488 24.2631 19.1835L25.6445 19.8742L26.6115 19.4346L27.1415 17.9625ZM28.2921 18.8996L27.8287 20.1867C27.7647 20.3644 27.6317 20.5087 27.4598 20.5869L25.9198 21.2869C25.7275 21.3743 25.506 21.3702 25.317 21.2757L24.0883 20.6614L23.2618 21.4879L23.8762 22.7166C23.9648 22.8938 23.9742 23.1002 23.902 23.2847L23.272 24.8947C23.1942 25.0935 23.03 25.2459 22.826 25.3087L21.5001 25.7166V26.8712L22.8491 27.3381C23.0392 27.404 23.1918 27.5484 23.268 27.7346L23.898 29.2746C23.9744 29.4614 23.9665 29.6721 23.8762 29.8527L23.2674 31.0703L24.09 31.8555L25.3384 31.2833C25.5144 31.2026 25.716 31.1984 25.8951 31.2718L27.4351 31.9018C27.6186 31.9768 27.7616 32.1261 27.8287 32.3125L28.2921 33.5996H29.4081L29.8715 32.3125C29.9386 32.1261 30.0816 31.9768 30.2651 31.9018L31.8051 31.2718C31.9842 31.1984 32.1858 31.2026 32.3618 31.2833L33.6102 31.8555L34.4328 31.0703L33.824 29.8527C33.7337 29.6721 33.7258 29.4614 33.8022 29.2746L34.4322 27.7346C34.5084 27.5484 34.661 27.404 34.8511 27.3381L36.2001 26.8712V25.7166L34.8742 25.3087C34.6702 25.2459 34.506 25.0935 34.4282 24.8947L33.7982 23.2847C33.726 23.1002 33.7354 22.8938 33.824 22.7166L34.4384 21.4879L33.6119 20.6614L32.3831 21.2757C32.1942 21.3702 31.9727 21.3743 31.7804 21.2869L30.2404 20.5869C30.0685 20.5087 29.9354 20.3644 29.8715 20.1867L29.4081 18.8996H28.2921Z" fill="#E1000F"/>
<path fill-rule="evenodd" clip-rule="evenodd" d="M28.1501 39.8996C28.1501 39.513 28.4635 39.1996 28.8501 39.1996H33.7501C34.1367 39.1996 34.4501 39.513 34.4501 39.8996C34.4501 40.2862 34.1367 40.5996 33.7501 40.5996H28.8501C28.4635 40.5996 28.1501 40.2862 28.1501 39.8996Z" fill="#000091"/>
<path fill-rule="evenodd" clip-rule="evenodd" d="M32.1826 45.1738C32.5558 45.2746 32.7767 45.6589 32.6759 46.0321C32.2165 47.7335 30.9858 49.3496 28.9901 49.3496C27.0012 49.3496 25.4271 47.8252 25.0172 46.0033C24.9323 45.6261 25.1693 45.2516 25.5464 45.1667C25.9236 45.0818 26.2982 45.3188 26.383 45.696C26.6731 46.9852 27.759 47.9496 28.9901 47.9496C30.0744 47.9496 30.9437 47.0769 31.3243 45.6672C31.4251 45.2939 31.8093 45.0731 32.1826 45.1738Z" fill="#000091"/>
<path fill-rule="evenodd" clip-rule="evenodd" d="M28.8501 6.99963C29.2367 6.99963 29.5501 7.31303 29.5501 7.69963V11.1996C29.5501 11.5862 29.2367 11.8996 28.8501 11.8996C28.4635 11.8996 28.1501 11.5862 28.1501 11.1996V7.69963C28.1501 7.31303 28.4635 6.99963 28.8501 6.99963Z" fill="#000091"/>
<path fill-rule="evenodd" clip-rule="evenodd" d="M9.6001 26.5996C9.6001 26.213 9.9135 25.8996 10.3001 25.8996H13.8001C14.1867 25.8996 14.5001 26.213 14.5001 26.5996C14.5001 26.9862 14.1867 27.2996 13.8001 27.2996H10.3001C9.9135 27.2996 9.6001 26.9862 9.6001 26.5996Z" fill="#000091"/>
<path fill-rule="evenodd" clip-rule="evenodd" d="M12.5228 20.0331C12.67 19.6756 13.0791 19.5052 13.4366 19.6524L14.6266 20.1424C14.9841 20.2896 15.1546 20.6987 15.0074 21.0562C14.8602 21.4136 14.4511 21.5841 14.0936 21.4369L12.9036 20.9469C12.5461 20.7997 12.3756 20.3906 12.5228 20.0331Z" fill="#000091"/>
<path fill-rule="evenodd" clip-rule="evenodd" d="M21.887 10.3635C22.2328 10.1907 22.6533 10.3308 22.8262 10.6766L23.5262 12.0766C23.6991 12.4224 23.5589 12.8428 23.2131 13.0157C22.8674 13.1886 22.4469 13.0485 22.274 12.7027L21.574 11.3027C21.4011 10.9569 21.5413 10.5364 21.887 10.3635Z" fill="#000091"/>
<path fill-rule="evenodd" clip-rule="evenodd" d="M14.7051 12.2447C14.9785 11.9713 15.4217 11.9713 15.6951 12.2447L18.4951 15.0447C18.7684 15.318 18.7684 15.7612 18.4951 16.0346C18.2217 16.308 17.7785 16.308 17.5051 16.0346L14.7051 13.2346C14.4318 12.9612 14.4318 12.518 14.7051 12.2447Z" fill="#000091"/>
<path fill-rule="evenodd" clip-rule="evenodd" d="M43.2001 26.5996C43.2001 26.213 43.5135 25.8996 43.9001 25.8996H47.4001C47.7867 25.8996 48.1001 26.213 48.1001 26.5996C48.1001 26.9862 47.7867 27.2996 47.4001 27.2996H43.9001C43.5135 27.2996 43.2001 26.9862 43.2001 26.5996Z" fill="#000091"/>
<path fill-rule="evenodd" clip-rule="evenodd" d="M45.1774 20.0331C45.3246 20.3906 45.1541 20.7997 44.7966 20.9469L43.6066 21.4369C43.2491 21.5841 42.84 21.4136 42.6928 21.0562C42.5456 20.6987 42.7161 20.2896 43.0736 20.1424L44.2636 19.6524C44.6211 19.5052 45.0302 19.6756 45.1774 20.0331Z" fill="#000091"/>
<path fill-rule="evenodd" clip-rule="evenodd" d="M35.8131 10.3635C36.1589 10.5364 36.2991 10.9569 36.1262 11.3027L35.4262 12.7027C35.2533 13.0485 34.8328 13.1886 34.487 13.0157C34.1413 12.8428 34.0011 12.4224 34.174 12.0766L34.874 10.6766C35.0469 10.3308 35.4674 10.1907 35.8131 10.3635Z" fill="#000091"/>
<path fill-rule="evenodd" clip-rule="evenodd" d="M42.9951 12.2447C43.2684 12.518 43.2684 12.9612 42.9951 13.2346L40.1951 16.0346C39.9217 16.308 39.4785 16.308 39.2051 16.0346C38.9318 15.7612 38.9318 15.318 39.2051 15.0447L42.0051 12.2447C42.2785 11.9713 42.7217 11.9713 42.9951 12.2447Z" fill="#000091"/>
<path fill-rule="evenodd" clip-rule="evenodd" d="M38.1651 34.1547C38.4384 34.428 38.4384 34.8712 38.1651 35.1446C38.0828 35.2269 37.9989 35.3119 37.9131 35.3987C37.2367 36.0835 36.4457 36.8845 35.4631 37.3757C35.1174 37.5486 34.6969 37.4085 34.524 37.0627C34.3511 36.7169 34.4913 36.2964 34.837 36.1235C35.5984 35.7428 36.2188 35.1176 36.919 34.4121C37.0031 34.3273 37.0884 34.2414 37.1751 34.1547C37.4485 33.8813 37.8917 33.8813 38.1651 34.1547Z" fill="#000091"/>
<path fill-rule="evenodd" clip-rule="evenodd" d="M28.8501 14.6996C22.4467 14.6996 17.3001 19.8462 17.3001 26.2496C17.3001 30.4 19.5396 34.0329 22.849 36.0847C23.1775 36.2884 23.2787 36.7199 23.075 37.0485C22.8713 37.3771 22.4398 37.4783 22.1112 37.2746C18.4206 34.9863 15.9001 30.9193 15.9001 26.2496C15.9001 19.073 21.6735 13.2996 28.8501 13.2996C36.0267 13.2996 41.8001 19.073 41.8001 26.2496C41.8001 28.3951 41.2815 30.3998 40.3156 32.183C40.1315 32.523 39.7066 32.6493 39.3667 32.4651C39.0268 32.281 38.9005 31.8562 39.0846 31.5162C39.9387 29.9395 40.4001 28.1642 40.4001 26.2496C40.4001 19.8462 35.2535 14.6996 28.8501 14.6996Z" fill="#000091"/>
<path fill-rule="evenodd" clip-rule="evenodd" d="M22.001 36.3155C22.2408 36.0122 22.681 35.9608 22.9843 36.2006C23.2577 36.4167 23.4523 36.7208 23.5945 37.0204C23.7408 37.3285 23.8559 37.684 23.9452 38.0565C24.1238 38.8019 24.214 39.6803 24.214 40.5296H22.814C22.814 39.7689 22.7322 39.0024 22.5837 38.3827C22.5095 38.0728 22.4223 37.8158 22.3298 37.6208C22.2331 37.4172 22.1524 37.3275 22.1159 37.2987C21.8127 37.0589 21.7612 36.6187 22.001 36.3155ZM34.8862 40.5297V43.6796C34.8862 44.1385 34.7046 44.8031 34.3749 45.3583C34.0485 45.9079 33.4498 46.5496 32.5337 46.5496H25.1665C24.2504 46.5496 23.6517 45.9079 23.3253 45.3583C22.9956 44.8031 22.814 44.1385 22.814 43.6796V40.5296H24.214V43.6796C24.214 43.8507 24.3079 44.2711 24.529 44.6434C24.7534 45.0214 24.9809 45.1496 25.1665 45.1496H32.5337C32.7193 45.1496 32.9468 45.0213 33.1712 44.6434C33.3923 44.2711 33.4862 43.8507 33.4862 43.6796V40.5299L34.8862 40.5297ZM34.8862 40.5297C34.8862 39.7689 34.968 39.0024 35.1165 38.3827C35.1907 38.0728 35.2779 37.8158 35.3704 37.6208C35.467 37.4172 35.5478 37.3275 35.5843 37.2987C35.8875 37.0589 35.939 36.6187 35.6992 36.3155C35.4594 36.0122 35.0192 35.9608 34.7159 36.2006C34.4425 36.4167 34.2479 36.7208 34.1057 37.0204C33.9594 37.3285 33.8443 37.684 33.755 38.0565C33.5764 38.8019 33.4862 39.6806 33.4862 40.5299L34.8862 40.5297Z" fill="#000091"/>
</svg>
