<svg width="208" height="234" viewBox="0 0 208 234" fill="none" xmlns="http://www.w3.org/2000/svg">
<g clip-path="url(#clip0_5889_23033)">
<path fill-rule="evenodd" clip-rule="evenodd" d="M27.1275 230.772C28.0209 230.772 28.7452 231.495 28.7452 232.386C28.7452 233.277 28.0209 234 27.1275 234C26.234 234 25.5098 233.277 25.5098 232.386C25.5098 231.495 26.234 230.772 27.1275 230.772ZM38.9908 230.772C39.8842 230.772 40.6085 231.495 40.6085 232.386C40.6085 233.277 39.8842 234 38.9908 234C38.0973 234 37.3731 233.277 37.3731 232.386C37.3731 231.495 38.0973 230.772 38.9908 230.772ZM50.8541 230.772C51.7475 230.772 52.4718 231.495 52.4718 232.386C52.4718 233.277 51.7475 234 50.8541 234C49.9606 234 49.2364 233.277 49.2364 232.386C49.2364 231.495 49.9606 230.772 50.8541 230.772ZM62.7174 230.772C63.6108 230.772 64.3351 231.495 64.3351 232.386C64.3351 233.277 63.6108 234 62.7174 234C61.8239 234 61.0997 233.277 61.0997 232.386C61.0997 231.495 61.8239 230.772 62.7174 230.772ZM74.5807 230.772C75.4741 230.772 76.1984 231.495 76.1984 232.386C76.1984 233.277 75.4741 234 74.5807 234C73.6872 234 72.963 233.277 72.963 232.386C72.963 231.495 73.6872 230.772 74.5807 230.772ZM86.444 230.772C87.3374 230.772 88.0617 231.495 88.0617 232.386C88.0617 233.277 87.3374 234 86.444 234C85.5505 234 84.8263 233.277 84.8263 232.386C84.8263 231.495 85.5505 230.772 86.444 230.772ZM98.3073 230.772C99.2007 230.772 99.925 231.495 99.925 232.386C99.925 233.277 99.2007 234 98.3073 234C97.4138 234 96.6896 233.277 96.6896 232.386C96.6896 231.495 97.4138 230.772 98.3073 230.772ZM110.171 230.772C111.064 230.772 111.788 231.495 111.788 232.386C111.788 233.277 111.064 234 110.171 234C109.277 234 108.553 233.277 108.553 232.386C108.553 231.495 109.277 230.772 110.171 230.772ZM122.034 230.772C122.927 230.772 123.652 231.495 123.652 232.386C123.652 233.277 122.927 234 122.034 234C121.14 234 120.416 233.277 120.416 232.386C120.416 231.495 121.14 230.772 122.034 230.772ZM133.897 230.705C134.791 230.705 135.515 231.427 135.515 232.319C135.515 233.21 134.791 233.932 133.897 233.932C133.004 233.932 132.279 233.21 132.279 232.319C132.279 231.427 133.004 230.705 133.897 230.705ZM145.76 230.705C146.654 230.705 147.378 231.427 147.378 232.319C147.378 233.21 146.654 233.932 145.76 233.932C144.867 233.932 144.143 233.21 144.143 232.319C144.143 231.427 144.867 230.705 145.76 230.705ZM157.624 230.705C158.517 230.705 159.242 231.427 159.242 232.319C159.242 233.21 158.517 233.932 157.624 233.932C156.73 233.932 156.006 233.21 156.006 232.319C156.006 231.427 156.73 230.705 157.624 230.705ZM169.487 230.705C170.381 230.705 171.105 231.427 171.105 232.319C171.105 233.21 170.381 233.932 169.487 233.932C168.594 233.932 167.869 233.21 167.869 232.319C167.869 231.427 168.594 230.705 169.487 230.705ZM181.35 230.705C182.244 230.705 182.968 231.427 182.968 232.319C182.968 233.21 182.244 233.932 181.35 233.932C180.457 233.932 179.733 233.21 179.733 232.319C179.733 231.427 180.457 230.705 181.35 230.705ZM193.214 230.705C194.107 230.705 194.831 231.427 194.831 232.319C194.831 233.21 194.107 233.932 193.214 233.932C192.32 233.932 191.596 233.21 191.596 232.319C191.596 231.427 192.32 230.705 193.214 230.705ZM205.077 230.705C205.97 230.705 206.695 231.427 206.695 232.319C206.695 233.21 205.97 233.932 205.077 233.932C204.184 233.932 203.459 233.21 203.459 232.319C203.459 231.427 204.184 230.705 205.077 230.705ZM122.034 218.938C122.927 218.938 123.652 219.66 123.652 220.552C123.652 221.443 122.927 222.166 122.034 222.166C121.14 222.166 120.416 221.443 120.416 220.552C120.416 219.66 121.14 218.938 122.034 218.938ZM133.897 218.87C134.791 218.87 135.515 219.593 135.515 220.484C135.515 221.375 134.791 222.098 133.897 222.098C133.004 222.098 132.279 221.375 132.279 220.484C132.279 219.593 133.004 218.87 133.897 218.87ZM145.76 218.87C146.654 218.87 147.378 219.593 147.378 220.484C147.378 221.375 146.654 222.098 145.76 222.098C144.867 222.098 144.143 221.375 144.143 220.484C144.143 219.593 144.867 218.87 145.76 218.87ZM157.624 218.87C158.517 218.87 159.242 219.593 159.242 220.484C159.242 221.375 158.517 222.098 157.624 222.098C156.73 222.098 156.006 221.375 156.006 220.484C156.006 219.593 156.73 218.87 157.624 218.87ZM27.1275 218.938C28.0209 218.938 28.7452 219.66 28.7452 220.552C28.7452 221.443 28.0209 222.166 27.1275 222.166C26.234 222.166 25.5098 221.443 25.5098 220.552C25.5098 219.66 26.234 218.938 27.1275 218.938ZM50.8541 218.938C51.7475 218.938 52.4718 219.66 52.4718 220.552C52.4718 221.443 51.7475 222.166 50.8541 222.166C49.9606 222.166 49.2364 221.443 49.2364 220.552C49.2364 219.66 49.9606 218.938 50.8541 218.938ZM74.5807 218.938C75.4741 218.938 76.1984 219.66 76.1984 220.552C76.1984 221.443 75.4741 222.166 74.5807 222.166C73.6872 222.166 72.963 221.443 72.963 220.552C72.963 219.66 73.6872 218.938 74.5807 218.938ZM98.3073 218.938C99.2007 218.938 99.925 219.66 99.925 220.552C99.925 221.443 99.2007 222.166 98.3073 222.166C97.4138 222.166 96.6896 221.443 96.6896 220.552C96.6896 219.66 97.4138 218.938 98.3073 218.938ZM110.171 218.938C111.064 218.938 111.788 219.66 111.788 220.552C111.788 221.443 111.064 222.166 110.171 222.166C109.277 222.166 108.553 221.443 108.553 220.552C108.553 219.66 109.277 218.938 110.171 218.938ZM181.35 218.87C182.244 218.87 182.968 219.593 182.968 220.484C182.968 221.375 182.244 222.098 181.35 222.098C180.457 222.098 179.733 221.375 179.733 220.484C179.733 219.593 180.457 218.87 181.35 218.87ZM38.9908 218.938C39.8842 218.938 40.6085 219.66 40.6085 220.552C40.6085 221.443 39.8842 222.166 38.9908 222.166C38.0973 222.166 37.3731 221.443 37.3731 220.552C37.3731 219.66 38.0973 218.938 38.9908 218.938ZM193.214 218.87C194.107 218.87 194.831 219.593 194.831 220.484C194.831 221.375 194.107 222.098 193.214 222.098C192.32 222.098 191.596 221.375 191.596 220.484C191.596 219.593 192.32 218.87 193.214 218.87ZM62.7174 218.938C63.6108 218.938 64.3351 219.66 64.3351 220.552C64.3351 221.443 63.6108 222.166 62.7174 222.166C61.8239 222.166 61.0997 221.443 61.0997 220.552C61.0997 219.66 61.8239 218.938 62.7174 218.938ZM205.077 218.87C205.97 218.87 206.695 219.593 206.695 220.484C206.695 221.375 205.97 222.098 205.077 222.098C204.184 222.098 203.459 221.375 203.459 220.484C203.459 219.593 204.184 218.87 205.077 218.87ZM86.444 218.938C87.3374 218.938 88.0617 219.66 88.0617 220.552C88.0617 221.443 87.3374 222.166 86.444 222.166C85.5505 222.166 84.8263 221.443 84.8263 220.552C84.8263 219.66 85.5505 218.938 86.444 218.938ZM169.487 218.87C170.381 218.87 171.105 219.593 171.105 220.484C171.105 221.375 170.381 222.098 169.487 222.098C168.594 222.098 167.869 221.375 167.869 220.484C167.869 219.593 168.594 218.87 169.487 218.87ZM50.8541 207.103C51.7475 207.103 52.4718 207.826 52.4718 208.717C52.4718 209.609 51.7475 210.331 50.8541 210.331C49.9606 210.331 49.2364 209.609 49.2364 208.717C49.2364 207.826 49.9606 207.103 50.8541 207.103ZM74.5807 207.103C75.4741 207.103 76.1984 207.826 76.1984 208.717C76.1984 209.609 75.4741 210.331 74.5807 210.331C73.6872 210.331 72.963 209.609 72.963 208.717C72.963 207.826 73.6872 207.103 74.5807 207.103ZM86.444 207.103C87.3374 207.103 88.0617 207.826 88.0617 208.717C88.0617 209.609 87.3374 210.331 86.444 210.331C85.5505 210.331 84.8263 209.609 84.8263 208.717C84.8263 207.826 85.5505 207.103 86.444 207.103ZM98.3073 207.103C99.2007 207.103 99.925 207.826 99.925 208.717C99.925 209.609 99.2007 210.331 98.3073 210.331C97.4138 210.331 96.6896 209.609 96.6896 208.717C96.6896 207.826 97.4138 207.103 98.3073 207.103ZM110.171 207.103C111.064 207.103 111.788 207.826 111.788 208.717C111.788 209.609 111.064 210.331 110.171 210.331C109.277 210.331 108.553 209.609 108.553 208.717C108.553 207.826 109.277 207.103 110.171 207.103ZM27.1275 207.103C28.0209 207.103 28.7452 207.826 28.7452 208.717C28.7452 209.609 28.0209 210.331 27.1275 210.331C26.234 210.331 25.5098 209.609 25.5098 208.717C25.5098 207.826 26.234 207.103 27.1275 207.103ZM38.9908 207.103C39.8842 207.103 40.6085 207.826 40.6085 208.717C40.6085 209.609 39.8842 210.331 38.9908 210.331C38.0973 210.331 37.3731 209.609 37.3731 208.717C37.3731 207.826 38.0973 207.103 38.9908 207.103ZM62.7174 207.103C63.6108 207.103 64.3351 207.826 64.3351 208.717C64.3351 209.609 63.6108 210.331 62.7174 210.331C61.8239 210.331 61.0997 209.609 61.0997 208.717C61.0997 207.826 61.8239 207.103 62.7174 207.103ZM122.034 207.103C122.927 207.103 123.652 207.826 123.652 208.717C123.652 209.609 122.927 210.331 122.034 210.331C121.14 210.331 120.416 209.609 120.416 208.717C120.416 207.826 121.14 207.103 122.034 207.103ZM133.897 207.036C134.791 207.036 135.515 207.758 135.515 208.65C135.515 209.541 134.791 210.263 133.897 210.263C133.004 210.263 132.279 209.541 132.279 208.65C132.279 207.758 133.004 207.036 133.897 207.036ZM145.76 207.036C146.654 207.036 147.378 207.758 147.378 208.65C147.378 209.541 146.654 210.263 145.76 210.263C144.867 210.263 144.143 209.541 144.143 208.65C144.143 207.758 144.867 207.036 145.76 207.036ZM157.624 207.036C158.517 207.036 159.242 207.758 159.242 208.65C159.242 209.541 158.517 210.263 157.624 210.263C156.73 210.263 156.006 209.541 156.006 208.65C156.006 207.758 156.73 207.036 157.624 207.036ZM169.487 207.036C170.381 207.036 171.105 207.758 171.105 208.65C171.105 209.541 170.381 210.263 169.487 210.263C168.594 210.263 167.869 209.541 167.869 208.65C167.869 207.758 168.594 207.036 169.487 207.036ZM181.35 207.036C182.244 207.036 182.968 207.758 182.968 208.65C182.968 209.541 182.244 210.263 181.35 210.263C180.457 210.263 179.733 209.541 179.733 208.65C179.733 207.758 180.457 207.036 181.35 207.036ZM193.214 207.036C194.107 207.036 194.831 207.758 194.831 208.65C194.831 209.541 194.107 210.263 193.214 210.263C192.32 210.263 191.596 209.541 191.596 208.65C191.596 207.758 192.32 207.036 193.214 207.036ZM205.077 207.036C205.97 207.036 206.695 207.758 206.695 208.65C206.695 209.541 205.97 210.263 205.077 210.263C204.184 210.263 203.459 209.541 203.459 208.65C203.459 207.758 204.184 207.036 205.077 207.036ZM27.1275 195.269C28.0209 195.269 28.7452 195.991 28.7452 196.883C28.7452 197.774 28.0209 198.497 27.1275 198.497C26.234 198.497 25.5098 197.774 25.5098 196.883C25.5098 195.991 26.234 195.269 27.1275 195.269ZM38.9908 195.269C39.8842 195.269 40.6085 195.991 40.6085 196.883C40.6085 197.774 39.8842 198.497 38.9908 198.497C38.0973 198.497 37.3731 197.774 37.3731 196.883C37.3731 195.991 38.0973 195.269 38.9908 195.269ZM50.8541 195.269C51.7475 195.269 52.4718 195.991 52.4718 196.883C52.4718 197.774 51.7475 198.497 50.8541 198.497C49.9606 198.497 49.2364 197.774 49.2364 196.883C49.2364 195.991 49.9606 195.269 50.8541 195.269ZM62.7174 195.269C63.6108 195.269 64.3351 195.991 64.3351 196.883C64.3351 197.774 63.6108 198.497 62.7174 198.497C61.8239 198.497 61.0997 197.774 61.0997 196.883C61.0997 195.991 61.8239 195.269 62.7174 195.269ZM74.5807 195.269C75.4741 195.269 76.1984 195.991 76.1984 196.883C76.1984 197.774 75.4741 198.497 74.5807 198.497C73.6872 198.497 72.963 197.774 72.963 196.883C72.963 195.991 73.6872 195.269 74.5807 195.269ZM86.444 195.269C87.3374 195.269 88.0617 195.991 88.0617 196.883C88.0617 197.774 87.3374 198.497 86.444 198.497C85.5505 198.497 84.8263 197.774 84.8263 196.883C84.8263 195.991 85.5505 195.269 86.444 195.269ZM98.3073 195.269C99.2007 195.269 99.925 195.991 99.925 196.883C99.925 197.774 99.2007 198.497 98.3073 198.497C97.4138 198.497 96.6896 197.774 96.6896 196.883C96.6896 195.991 97.4138 195.269 98.3073 195.269ZM110.171 195.269C111.064 195.269 111.788 195.991 111.788 196.883C111.788 197.774 111.064 198.497 110.171 198.497C109.277 198.497 108.553 197.774 108.553 196.883C108.553 195.991 109.277 195.269 110.171 195.269ZM122.034 195.269C122.927 195.269 123.652 195.991 123.652 196.883C123.652 197.774 122.927 198.497 122.034 198.497C121.14 198.497 120.416 197.774 120.416 196.883C120.416 195.991 121.14 195.269 122.034 195.269ZM133.897 195.201C134.791 195.201 135.515 195.924 135.515 196.815C135.515 197.706 134.791 198.429 133.897 198.429C133.004 198.429 132.279 197.706 132.279 196.815C132.279 195.924 133.004 195.201 133.897 195.201ZM145.76 195.201C146.654 195.201 147.378 195.924 147.378 196.815C147.378 197.706 146.654 198.429 145.76 198.429C144.867 198.429 144.143 197.706 144.143 196.815C144.143 195.924 144.867 195.201 145.76 195.201ZM157.624 195.201C158.517 195.201 159.242 195.924 159.242 196.815C159.242 197.706 158.517 198.429 157.624 198.429C156.73 198.429 156.006 197.706 156.006 196.815C156.006 195.924 156.73 195.201 157.624 195.201ZM169.487 195.201C170.381 195.201 171.105 195.924 171.105 196.815C171.105 197.706 170.381 198.429 169.487 198.429C168.594 198.429 167.869 197.706 167.869 196.815C167.869 195.924 168.594 195.201 169.487 195.201ZM181.35 195.201C182.244 195.201 182.968 195.924 182.968 196.815C182.968 197.706 182.244 198.429 181.35 198.429C180.457 198.429 179.733 197.706 179.733 196.815C179.733 195.924 180.457 195.201 181.35 195.201ZM193.214 195.201C194.107 195.201 194.831 195.924 194.831 196.815C194.831 197.706 194.107 198.429 193.214 198.429C192.32 198.429 191.596 197.706 191.596 196.815C191.596 195.924 192.32 195.201 193.214 195.201ZM205.077 195.201C205.97 195.201 206.695 195.924 206.695 196.815C206.695 197.706 205.97 198.429 205.077 198.429C204.184 198.429 203.459 197.706 203.459 196.815C203.459 195.924 204.184 195.201 205.077 195.201ZM27.1275 183.434C28.0209 183.434 28.7452 184.157 28.7452 185.048C28.7452 185.94 28.0209 186.662 27.1275 186.662C26.234 186.662 25.5098 185.94 25.5098 185.048C25.5098 184.157 26.234 183.434 27.1275 183.434ZM38.9908 183.434C39.8842 183.434 40.6085 184.157 40.6085 185.048C40.6085 185.94 39.8842 186.662 38.9908 186.662C38.0973 186.662 37.3731 185.94 37.3731 185.048C37.3731 184.157 38.0973 183.434 38.9908 183.434ZM50.8541 183.434C51.7475 183.434 52.4718 184.157 52.4718 185.048C52.4718 185.94 51.7475 186.662 50.8541 186.662C49.9606 186.662 49.2364 185.94 49.2364 185.048C49.2364 184.157 49.9606 183.434 50.8541 183.434ZM62.7174 183.434C63.6108 183.434 64.3351 184.157 64.3351 185.048C64.3351 185.94 63.6108 186.662 62.7174 186.662C61.8239 186.662 61.0997 185.94 61.0997 185.048C61.0997 184.157 61.8239 183.434 62.7174 183.434ZM74.5807 183.434C75.4741 183.434 76.1984 184.157 76.1984 185.048C76.1984 185.94 75.4741 186.662 74.5807 186.662C73.6872 186.662 72.963 185.94 72.963 185.048C72.963 184.157 73.6872 183.434 74.5807 183.434ZM86.444 183.434C87.3374 183.434 88.0617 184.157 88.0617 185.048C88.0617 185.94 87.3374 186.662 86.444 186.662C85.5505 186.662 84.8263 185.94 84.8263 185.048C84.8263 184.157 85.5505 183.434 86.444 183.434ZM98.3073 183.434C99.2007 183.434 99.925 184.157 99.925 185.048C99.925 185.94 99.2007 186.662 98.3073 186.662C97.4138 186.662 96.6896 185.94 96.6896 185.048C96.6896 184.157 97.4138 183.434 98.3073 183.434ZM110.171 183.434C111.064 183.434 111.788 184.157 111.788 185.048C111.788 185.94 111.064 186.662 110.171 186.662C109.277 186.662 108.553 185.94 108.553 185.048C108.553 184.157 109.277 183.434 110.171 183.434ZM122.034 183.434C122.927 183.434 123.652 184.157 123.652 185.048C123.652 185.94 122.927 186.662 122.034 186.662C121.14 186.662 120.416 185.94 120.416 185.048C120.416 184.157 121.14 183.434 122.034 183.434ZM58.4035 1.61379C58.4035 2.50507 57.6792 3.22759 56.7857 3.22759C55.8923 3.22759 55.168 2.50507 55.168 1.61379C55.168 0.72252 55.8923 0 56.7857 0C57.6792 0 58.4035 0.72252 58.4035 1.61379ZM58.4035 13.4483C58.4035 14.3395 57.6792 15.0621 56.7857 15.0621C55.8923 15.0621 55.168 14.3395 55.168 13.4483C55.168 12.557 55.8923 11.8345 56.7857 11.8345C57.6792 11.8345 58.4035 12.557 58.4035 13.4483ZM58.4035 25.2828C58.4035 26.174 57.6792 26.8966 56.7857 26.8966C55.8923 26.8966 55.168 26.174 55.168 25.2828C55.168 24.3915 55.8923 23.669 56.7857 23.669C57.6792 23.669 58.4035 24.3915 58.4035 25.2828ZM58.4035 37.1172C58.4035 38.0085 57.6792 38.731 56.7857 38.731C55.8923 38.731 55.168 38.0085 55.168 37.1172C55.168 36.226 55.8923 35.5034 56.7857 35.5034C57.6792 35.5034 58.4035 36.226 58.4035 37.1172ZM58.4035 48.9517C58.4035 49.843 57.6792 50.5655 56.7857 50.5655C55.8923 50.5655 55.168 49.843 55.168 48.9517C55.168 48.0604 55.8923 47.3379 56.7857 47.3379C57.6792 47.3379 58.4035 48.0604 58.4035 48.9517ZM58.4035 60.7862C58.4035 61.6775 57.6792 62.4 56.7857 62.4C55.8923 62.4 55.168 61.6775 55.168 60.7862C55.168 59.8949 55.8923 59.1724 56.7857 59.1724C57.6792 59.1724 58.4035 59.8949 58.4035 60.7862ZM58.4035 72.6207C58.4035 73.512 57.6792 74.2345 56.7857 74.2345C55.8923 74.2345 55.168 73.512 55.168 72.6207C55.168 71.7294 55.8923 71.0069 56.7857 71.0069C57.6792 71.0069 58.4035 71.7294 58.4035 72.6207ZM58.4035 84.4552C58.4035 85.3464 57.6792 86.069 56.7857 86.069C55.8923 86.069 55.168 85.3464 55.168 84.4552C55.168 83.5639 55.8923 82.8414 56.7857 82.8414C57.6792 82.8414 58.4035 83.5639 58.4035 84.4552ZM58.4035 96.2896C58.4035 97.1809 57.6792 97.9034 56.7857 97.9034C55.8923 97.9034 55.168 97.1809 55.168 96.2896C55.168 95.3984 55.8923 94.6759 56.7857 94.6759C57.6792 94.6759 58.4035 95.3984 58.4035 96.2896ZM58.4035 108.124C58.4035 109.015 57.6792 109.738 56.7857 109.738C55.8923 109.738 55.168 109.015 55.168 108.124C55.168 107.233 55.8923 106.51 56.7857 106.51C57.6792 106.51 58.4035 107.233 58.4035 108.124ZM58.4035 119.959C58.4035 120.85 57.6792 121.572 56.7857 121.572C55.8923 121.572 55.168 120.85 55.168 119.959C55.168 119.067 55.8923 118.345 56.7857 118.345C57.6792 118.345 58.4035 119.067 58.4035 119.959ZM58.4035 131.793C58.4035 132.684 57.6792 133.407 56.7857 133.407C55.8923 133.407 55.168 132.684 55.168 131.793C55.168 130.902 55.8923 130.179 56.7857 130.179C57.6792 130.179 58.4035 130.902 58.4035 131.793ZM58.4035 143.628C58.4035 144.519 57.6792 145.241 56.7857 145.241C55.8923 145.241 55.168 144.519 55.168 143.628C55.168 142.736 55.8923 142.014 56.7857 142.014C57.6792 142.014 58.4035 142.736 58.4035 143.628ZM58.4035 155.462C58.4035 156.353 57.6792 157.076 56.7857 157.076C55.8923 157.076 55.168 156.353 55.168 155.462C55.168 154.571 55.8923 153.848 56.7857 153.848C57.6792 153.848 58.4035 154.571 58.4035 155.462ZM70.2668 72.6207C70.2668 73.512 69.5425 74.2345 68.649 74.2345C67.7556 74.2345 67.0313 73.512 67.0313 72.6207C67.0313 71.7294 67.7556 71.0069 68.649 71.0069C69.5425 71.0069 70.2668 71.7294 70.2668 72.6207ZM70.2668 84.4552C70.2668 85.3464 69.5425 86.069 68.649 86.069C67.7556 86.069 67.0313 85.3464 67.0313 84.4552C67.0313 83.5639 67.7556 82.8414 68.649 82.8414C69.5425 82.8414 70.2668 83.5639 70.2668 84.4552ZM70.2668 96.2896C70.2668 97.1809 69.5425 97.9034 68.649 97.9034C67.7556 97.9034 67.0313 97.1809 67.0313 96.2896C67.0313 95.3984 67.7556 94.6759 68.649 94.6759C69.5425 94.6759 70.2668 95.3984 70.2668 96.2896ZM70.2668 108.124C70.2668 109.015 69.5425 109.738 68.649 109.738C67.7556 109.738 67.0313 109.015 67.0313 108.124C67.0313 107.233 67.7556 106.51 68.649 106.51C69.5425 106.51 70.2668 107.233 70.2668 108.124ZM70.2668 1.61379C70.2668 2.50507 69.5425 3.22759 68.649 3.22759C67.7556 3.22759 67.0313 2.50507 67.0313 1.61379C67.0313 0.72252 67.7556 0 68.649 0C69.5425 0 70.2668 0.72252 70.2668 1.61379ZM70.2668 25.2828C70.2668 26.174 69.5425 26.8966 68.649 26.8966C67.7556 26.8966 67.0313 26.174 67.0313 25.2828C67.0313 24.3915 67.7556 23.669 68.649 23.669C69.5425 23.669 70.2668 24.3915 70.2668 25.2828ZM70.2668 48.9517C70.2668 49.843 69.5425 50.5655 68.649 50.5655C67.7556 50.5655 67.0313 49.843 67.0313 48.9517C67.0313 48.0604 67.7556 47.3379 68.649 47.3379C69.5425 47.3379 70.2668 48.0604 70.2668 48.9517ZM70.2668 60.7862C70.2668 61.6775 69.5425 62.4 68.649 62.4C67.7556 62.4 67.0313 61.6775 67.0313 60.7862C67.0313 59.8949 67.7556 59.1724 68.649 59.1724C69.5425 59.1724 70.2668 59.8949 70.2668 60.7862ZM70.2668 131.793C70.2668 132.684 69.5425 133.407 68.649 133.407C67.7556 133.407 67.0313 132.684 67.0313 131.793C67.0313 130.902 67.7556 130.179 68.649 130.179C69.5425 130.179 70.2668 130.902 70.2668 131.793ZM70.2668 143.628C70.2668 144.519 69.5425 145.241 68.649 145.241C67.7556 145.241 67.0313 144.519 67.0313 143.628C67.0313 142.736 67.7556 142.014 68.649 142.014C69.5425 142.014 70.2668 142.736 70.2668 143.628ZM70.2668 13.4483C70.2668 14.3395 69.5425 15.0621 68.649 15.0621C67.7556 15.0621 67.0313 14.3395 67.0313 13.4483C67.0313 12.557 67.7556 11.8345 68.649 11.8345C69.5425 11.8345 70.2668 12.557 70.2668 13.4483ZM70.2668 155.462C70.2668 156.353 69.5425 157.076 68.649 157.076C67.7556 157.076 67.0313 156.353 67.0313 155.462C67.0313 154.571 67.7556 153.848 68.649 153.848C69.5425 153.848 70.2668 154.571 70.2668 155.462ZM70.2668 37.1172C70.2668 38.0085 69.5425 38.731 68.649 38.731C67.7556 38.731 67.0313 38.0085 67.0313 37.1172C67.0313 36.226 67.7556 35.5034 68.649 35.5034C69.5425 35.5034 70.2668 36.226 70.2668 37.1172ZM70.2668 119.959C70.2668 120.85 69.5425 121.572 68.649 121.572C67.7556 121.572 67.0313 120.85 67.0313 119.959C67.0313 119.067 67.7556 118.345 68.649 118.345C69.5425 118.345 70.2668 119.067 70.2668 119.959ZM82.1301 1.61379C82.1301 2.50507 81.4058 3.22759 80.5123 3.22759C79.6189 3.22759 78.8946 2.50507 78.8946 1.61379C78.8946 0.72252 79.6189 0 80.5123 0C81.4058 0 82.1301 0.72252 82.1301 1.61379ZM82.1301 25.2828C82.1301 26.174 81.4058 26.8966 80.5123 26.8966C79.6189 26.8966 78.8946 26.174 78.8946 25.2828C78.8946 24.3915 79.6189 23.669 80.5123 23.669C81.4058 23.669 82.1301 24.3915 82.1301 25.2828ZM82.1301 37.1172C82.1301 38.0085 81.4058 38.731 80.5123 38.731C79.6189 38.731 78.8946 38.0085 78.8946 37.1172C78.8946 36.226 79.6189 35.5034 80.5123 35.5034C81.4058 35.5034 82.1301 36.226 82.1301 37.1172ZM82.1301 48.9517C82.1301 49.843 81.4058 50.5655 80.5123 50.5655C79.6189 50.5655 78.8946 49.843 78.8946 48.9517C78.8946 48.0604 79.6189 47.3379 80.5123 47.3379C81.4058 47.3379 82.1301 48.0604 82.1301 48.9517ZM82.1301 60.7862C82.1301 61.6775 81.4058 62.4 80.5123 62.4C79.6189 62.4 78.8946 61.6775 78.8946 60.7862C78.8946 59.8949 79.6189 59.1724 80.5123 59.1724C81.4058 59.1724 82.1301 59.8949 82.1301 60.7862ZM82.1301 13.4483C82.1301 14.3395 81.4058 15.0621 80.5123 15.0621C79.6189 15.0621 78.8946 14.3395 78.8946 13.4483C78.8946 12.557 79.6189 11.8345 80.5123 11.8345C81.4058 11.8345 82.1301 12.557 82.1301 13.4483ZM82.1301 72.6207C82.1301 73.512 81.4058 74.2345 80.5123 74.2345C79.6189 74.2345 78.8946 73.512 78.8946 72.6207C78.8946 71.7294 79.6189 71.0069 80.5123 71.0069C81.4058 71.0069 82.1301 71.7294 82.1301 72.6207ZM82.1301 84.4552C82.1301 85.3464 81.4058 86.069 80.5123 86.069C79.6189 86.069 78.8946 85.3464 78.8946 84.4552C78.8946 83.5639 79.6189 82.8414 80.5123 82.8414C81.4058 82.8414 82.1301 83.5639 82.1301 84.4552ZM82.1301 96.2896C82.1301 97.1809 81.4058 97.9034 80.5123 97.9034C79.6189 97.9034 78.8946 97.1809 78.8946 96.2896C78.8946 95.3984 79.6189 94.6759 80.5123 94.6759C81.4058 94.6759 82.1301 95.3984 82.1301 96.2896ZM82.1301 108.124C82.1301 109.015 81.4058 109.738 80.5123 109.738C79.6189 109.738 78.8946 109.015 78.8946 108.124C78.8946 107.233 79.6189 106.51 80.5123 106.51C81.4058 106.51 82.1301 107.233 82.1301 108.124ZM82.1301 119.959C82.1301 120.85 81.4058 121.572 80.5123 121.572C79.6189 121.572 78.8946 120.85 78.8946 119.959C78.8946 119.067 79.6189 118.345 80.5123 118.345C81.4058 118.345 82.1301 119.067 82.1301 119.959ZM82.1301 131.793C82.1301 132.684 81.4058 133.407 80.5123 133.407C79.6189 133.407 78.8946 132.684 78.8946 131.793C78.8946 130.902 79.6189 130.179 80.5123 130.179C81.4058 130.179 82.1301 130.902 82.1301 131.793ZM82.1301 143.628C82.1301 144.519 81.4058 145.241 80.5123 145.241C79.6189 145.241 78.8946 144.519 78.8946 143.628C78.8946 142.736 79.6189 142.014 80.5123 142.014C81.4058 142.014 82.1301 142.736 82.1301 143.628ZM82.1301 155.462C82.1301 156.353 81.4058 157.076 80.5123 157.076C79.6189 157.076 78.8946 156.353 78.8946 155.462C78.8946 154.571 79.6189 153.848 80.5123 153.848C81.4058 153.848 82.1301 154.571 82.1301 155.462ZM93.9934 1.61379C93.9934 2.50507 93.2691 3.22759 92.3756 3.22759C91.4822 3.22759 90.7579 2.50507 90.7579 1.61379C90.7579 0.72252 91.4822 0 92.3756 0C93.2691 0 93.9934 0.72252 93.9934 1.61379ZM93.9934 13.4483C93.9934 14.3395 93.2691 15.0621 92.3756 15.0621C91.4822 15.0621 90.7579 14.3395 90.7579 13.4483C90.7579 12.557 91.4822 11.8345 92.3756 11.8345C93.2691 11.8345 93.9934 12.557 93.9934 13.4483ZM93.9934 25.2828C93.9934 26.174 93.2691 26.8966 92.3756 26.8966C91.4822 26.8966 90.7579 26.174 90.7579 25.2828C90.7579 24.3915 91.4822 23.669 92.3756 23.669C93.2691 23.669 93.9934 24.3915 93.9934 25.2828ZM93.9934 37.1172C93.9934 38.0085 93.2691 38.731 92.3756 38.731C91.4822 38.731 90.7579 38.0085 90.7579 37.1172C90.7579 36.226 91.4822 35.5034 92.3756 35.5034C93.2691 35.5034 93.9934 36.226 93.9934 37.1172ZM93.9934 48.9517C93.9934 49.843 93.2691 50.5655 92.3756 50.5655C91.4822 50.5655 90.7579 49.843 90.7579 48.9517C90.7579 48.0604 91.4822 47.3379 92.3756 47.3379C93.2691 47.3379 93.9934 48.0604 93.9934 48.9517ZM93.9934 60.7862C93.9934 61.6775 93.2691 62.4 92.3756 62.4C91.4822 62.4 90.7579 61.6775 90.7579 60.7862C90.7579 59.8949 91.4822 59.1724 92.3756 59.1724C93.2691 59.1724 93.9934 59.8949 93.9934 60.7862ZM93.9934 72.6207C93.9934 73.512 93.2691 74.2345 92.3756 74.2345C91.4822 74.2345 90.7579 73.512 90.7579 72.6207C90.7579 71.7294 91.4822 71.0069 92.3756 71.0069C93.2691 71.0069 93.9934 71.7294 93.9934 72.6207ZM93.9934 84.4552C93.9934 85.3464 93.2691 86.069 92.3756 86.069C91.4822 86.069 90.7579 85.3464 90.7579 84.4552C90.7579 83.5639 91.4822 82.8414 92.3756 82.8414C93.2691 82.8414 93.9934 83.5639 93.9934 84.4552ZM93.9934 96.2896C93.9934 97.1809 93.2691 97.9034 92.3756 97.9034C91.4822 97.9034 90.7579 97.1809 90.7579 96.2896C90.7579 95.3984 91.4822 94.6759 92.3756 94.6759C93.2691 94.6759 93.9934 95.3984 93.9934 96.2896ZM93.9934 108.124C93.9934 109.015 93.2691 109.738 92.3756 109.738C91.4822 109.738 90.7579 109.015 90.7579 108.124C90.7579 107.233 91.4822 106.51 92.3756 106.51C93.2691 106.51 93.9934 107.233 93.9934 108.124ZM93.9934 119.959C93.9934 120.85 93.2691 121.572 92.3756 121.572C91.4822 121.572 90.7579 120.85 90.7579 119.959C90.7579 119.067 91.4822 118.345 92.3756 118.345C93.2691 118.345 93.9934 119.067 93.9934 119.959ZM93.9934 131.793C93.9934 132.684 93.2691 133.407 92.3756 133.407C91.4822 133.407 90.7579 132.684 90.7579 131.793C90.7579 130.902 91.4822 130.179 92.3756 130.179C93.2691 130.179 93.9934 130.902 93.9934 131.793ZM93.9934 143.628C93.9934 144.519 93.2691 145.241 92.3756 145.241C91.4822 145.241 90.7579 144.519 90.7579 143.628C90.7579 142.736 91.4822 142.014 92.3756 142.014C93.2691 142.014 93.9934 142.736 93.9934 143.628ZM93.9934 155.462C93.9934 156.353 93.2691 157.076 92.3756 157.076C91.4822 157.076 90.7579 156.353 90.7579 155.462C90.7579 154.571 91.4822 153.848 92.3756 153.848C93.2691 153.848 93.9934 154.571 93.9934 155.462ZM105.857 1.61379C105.857 2.50507 105.132 3.22759 104.239 3.22759C103.345 3.22759 102.621 2.50507 102.621 1.61379C102.621 0.72252 103.345 0 104.239 0C105.132 0 105.857 0.72252 105.857 1.61379ZM105.857 13.4483C105.857 14.3395 105.132 15.0621 104.239 15.0621C103.345 15.0621 102.621 14.3395 102.621 13.4483C102.621 12.557 103.345 11.8345 104.239 11.8345C105.132 11.8345 105.857 12.557 105.857 13.4483ZM105.857 25.2828C105.857 26.174 105.132 26.8966 104.239 26.8966C103.345 26.8966 102.621 26.174 102.621 25.2828C102.621 24.3915 103.345 23.669 104.239 23.669C105.132 23.669 105.857 24.3915 105.857 25.2828ZM105.857 37.1172C105.857 38.0085 105.132 38.731 104.239 38.731C103.345 38.731 102.621 38.0085 102.621 37.1172C102.621 36.226 103.345 35.5034 104.239 35.5034C105.132 35.5034 105.857 36.226 105.857 37.1172ZM105.857 48.9517C105.857 49.843 105.132 50.5655 104.239 50.5655C103.345 50.5655 102.621 49.843 102.621 48.9517C102.621 48.0604 103.345 47.3379 104.239 47.3379C105.132 47.3379 105.857 48.0604 105.857 48.9517ZM105.857 60.7862C105.857 61.6775 105.132 62.4 104.239 62.4C103.345 62.4 102.621 61.6775 102.621 60.7862C102.621 59.8949 103.345 59.1724 104.239 59.1724C105.132 59.1724 105.857 59.8949 105.857 60.7862ZM105.857 72.6207C105.857 73.512 105.132 74.2345 104.239 74.2345C103.345 74.2345 102.621 73.512 102.621 72.6207C102.621 71.7294 103.345 71.0069 104.239 71.0069C105.132 71.0069 105.857 71.7294 105.857 72.6207ZM105.857 84.4552C105.857 85.3464 105.132 86.069 104.239 86.069C103.345 86.069 102.621 85.3464 102.621 84.4552C102.621 83.5639 103.345 82.8414 104.239 82.8414C105.132 82.8414 105.857 83.5639 105.857 84.4552ZM105.857 96.2896C105.857 97.1809 105.132 97.9034 104.239 97.9034C103.345 97.9034 102.621 97.1809 102.621 96.2896C102.621 95.3984 103.345 94.6759 104.239 94.6759C105.132 94.6759 105.857 95.3984 105.857 96.2896ZM105.857 108.124C105.857 109.015 105.132 109.738 104.239 109.738C103.345 109.738 102.621 109.015 102.621 108.124C102.621 107.233 103.345 106.51 104.239 106.51C105.132 106.51 105.857 107.233 105.857 108.124ZM105.857 119.959C105.857 120.85 105.132 121.572 104.239 121.572C103.345 121.572 102.621 120.85 102.621 119.959C102.621 119.067 103.345 118.345 104.239 118.345C105.132 118.345 105.857 119.067 105.857 119.959ZM105.857 131.793C105.857 132.684 105.132 133.407 104.239 133.407C103.345 133.407 102.621 132.684 102.621 131.793C102.621 130.902 103.345 130.179 104.239 130.179C105.132 130.179 105.857 130.902 105.857 131.793ZM105.857 143.628C105.857 144.519 105.132 145.241 104.239 145.241C103.345 145.241 102.621 144.519 102.621 143.628C102.621 142.736 103.345 142.014 104.239 142.014C105.132 142.014 105.857 142.736 105.857 143.628ZM105.857 155.462C105.857 156.353 105.132 157.076 104.239 157.076C103.345 157.076 102.621 156.353 102.621 155.462C102.621 154.571 103.345 153.848 104.239 153.848C105.132 153.848 105.857 154.571 105.857 155.462ZM117.72 1.61379C117.72 2.50507 116.996 3.22759 116.102 3.22759C115.209 3.22759 114.485 2.50507 114.485 1.61379C114.485 0.72252 115.209 0 116.102 0C116.996 0 117.72 0.72252 117.72 1.61379ZM117.72 13.4483C117.72 14.3395 116.996 15.0621 116.102 15.0621C115.209 15.0621 114.485 14.3395 114.485 13.4483C114.485 12.557 115.209 11.8345 116.102 11.8345C116.996 11.8345 117.72 12.557 117.72 13.4483ZM117.72 25.2828C117.72 26.174 116.996 26.8966 116.102 26.8966C115.209 26.8966 114.485 26.174 114.485 25.2828C114.485 24.3915 115.209 23.669 116.102 23.669C116.996 23.669 117.72 24.3915 117.72 25.2828ZM117.72 37.1172C117.72 38.0085 116.996 38.731 116.102 38.731C115.209 38.731 114.485 38.0085 114.485 37.1172C114.485 36.226 115.209 35.5034 116.102 35.5034C116.996 35.5034 117.72 36.226 117.72 37.1172ZM117.72 48.9517C117.72 49.843 116.996 50.5655 116.102 50.5655C115.209 50.5655 114.485 49.843 114.485 48.9517C114.485 48.0604 115.209 47.3379 116.102 47.3379C116.996 47.3379 117.72 48.0604 117.72 48.9517ZM117.72 60.7862C117.72 61.6775 116.996 62.4 116.102 62.4C115.209 62.4 114.485 61.6775 114.485 60.7862C114.485 59.8949 115.209 59.1724 116.102 59.1724C116.996 59.1724 117.72 59.8949 117.72 60.7862ZM117.72 72.6207C117.72 73.512 116.996 74.2345 116.102 74.2345C115.209 74.2345 114.485 73.512 114.485 72.6207C114.485 71.7294 115.209 71.0069 116.102 71.0069C116.996 71.0069 117.72 71.7294 117.72 72.6207ZM117.72 84.4552C117.72 85.3464 116.996 86.069 116.102 86.069C115.209 86.069 114.485 85.3464 114.485 84.4552C114.485 83.5639 115.209 82.8414 116.102 82.8414C116.996 82.8414 117.72 83.5639 117.72 84.4552ZM117.72 96.2896C117.72 97.1809 116.996 97.9034 116.102 97.9034C115.209 97.9034 114.485 97.1809 114.485 96.2896C114.485 95.3984 115.209 94.6759 116.102 94.6759C116.996 94.6759 117.72 95.3984 117.72 96.2896ZM117.72 108.124C117.72 109.015 116.996 109.738 116.102 109.738C115.209 109.738 114.485 109.015 114.485 108.124C114.485 107.233 115.209 106.51 116.102 106.51C116.996 106.51 117.72 107.233 117.72 108.124ZM117.72 119.959C117.72 120.85 116.996 121.572 116.102 121.572C115.209 121.572 114.485 120.85 114.485 119.959C114.485 119.067 115.209 118.345 116.102 118.345C116.996 118.345 117.72 119.067 117.72 119.959ZM117.72 131.793C117.72 132.684 116.996 133.407 116.102 133.407C115.209 133.407 114.485 132.684 114.485 131.793C114.485 130.902 115.209 130.179 116.102 130.179C116.996 130.179 117.72 130.902 117.72 131.793ZM117.72 143.628C117.72 144.519 116.996 145.241 116.102 145.241C115.209 145.241 114.485 144.519 114.485 143.628C114.485 142.736 115.209 142.014 116.102 142.014C116.996 142.014 117.72 142.736 117.72 143.628ZM117.72 155.462C117.72 156.353 116.996 157.076 116.102 157.076C115.209 157.076 114.485 156.353 114.485 155.462C114.485 154.571 115.209 153.848 116.102 153.848C116.996 153.848 117.72 154.571 117.72 155.462ZM129.583 1.61379C129.583 2.50507 128.859 3.22759 127.966 3.22759C127.072 3.22759 126.348 2.50507 126.348 1.61379C126.348 0.72252 127.072 0 127.966 0C128.859 0 129.583 0.72252 129.583 1.61379ZM129.583 13.4483C129.583 14.3395 128.859 15.0621 127.966 15.0621C127.072 15.0621 126.348 14.3395 126.348 13.4483C126.348 12.557 127.072 11.8345 127.966 11.8345C128.859 11.8345 129.583 12.557 129.583 13.4483ZM129.583 25.2828C129.583 26.174 128.859 26.8966 127.966 26.8966C127.072 26.8966 126.348 26.174 126.348 25.2828C126.348 24.3915 127.072 23.669 127.966 23.669C128.859 23.669 129.583 24.3915 129.583 25.2828ZM129.583 37.1172C129.583 38.0085 128.859 38.731 127.966 38.731C127.072 38.731 126.348 38.0085 126.348 37.1172C126.348 36.226 127.072 35.5034 127.966 35.5034C128.859 35.5034 129.583 36.226 129.583 37.1172ZM129.583 48.9517C129.583 49.843 128.859 50.5655 127.966 50.5655C127.072 50.5655 126.348 49.843 126.348 48.9517C126.348 48.0604 127.072 47.3379 127.966 47.3379C128.859 47.3379 129.583 48.0604 129.583 48.9517ZM129.583 60.7862C129.583 61.6775 128.859 62.4 127.966 62.4C127.072 62.4 126.348 61.6775 126.348 60.7862C126.348 59.8949 127.072 59.1724 127.966 59.1724C128.859 59.1724 129.583 59.8949 129.583 60.7862ZM129.583 72.6207C129.583 73.512 128.859 74.2345 127.966 74.2345C127.072 74.2345 126.348 73.512 126.348 72.6207C126.348 71.7294 127.072 71.0069 127.966 71.0069C128.859 71.0069 129.583 71.7294 129.583 72.6207ZM129.583 84.4552C129.583 85.3464 128.859 86.069 127.966 86.069C127.072 86.069 126.348 85.3464 126.348 84.4552C126.348 83.5639 127.072 82.8414 127.966 82.8414C128.859 82.8414 129.583 83.5639 129.583 84.4552ZM129.583 96.2896C129.583 97.1809 128.859 97.9034 127.966 97.9034C127.072 97.9034 126.348 97.1809 126.348 96.2896C126.348 95.3984 127.072 94.6759 127.966 94.6759C128.859 94.6759 129.583 95.3984 129.583 96.2896ZM129.583 108.124C129.583 109.015 128.859 109.738 127.966 109.738C127.072 109.738 126.348 109.015 126.348 108.124C126.348 107.233 127.072 106.51 127.966 106.51C128.859 106.51 129.583 107.233 129.583 108.124ZM129.583 119.959C129.583 120.85 128.859 121.572 127.966 121.572C127.072 121.572 126.348 120.85 126.348 119.959C126.348 119.067 127.072 118.345 127.966 118.345C128.859 118.345 129.583 119.067 129.583 119.959ZM129.583 131.793C129.583 132.684 128.859 133.407 127.966 133.407C127.072 133.407 126.348 132.684 126.348 131.793C126.348 130.902 127.072 130.179 127.966 130.179C128.859 130.179 129.583 130.902 129.583 131.793ZM129.583 143.628C129.583 144.519 128.859 145.241 127.966 145.241C127.072 145.241 126.348 144.519 126.348 143.628C126.348 142.736 127.072 142.014 127.966 142.014C128.859 142.014 129.583 142.736 129.583 143.628ZM129.583 155.462C129.583 156.353 128.859 157.076 127.966 157.076C127.072 157.076 126.348 156.353 126.348 155.462C126.348 154.571 127.072 153.848 127.966 153.848C128.859 153.848 129.583 154.571 129.583 155.462ZM141.447 1.61379C141.447 2.50507 140.722 3.22759 139.829 3.22759C138.935 3.22759 138.211 2.50507 138.211 1.61379C138.211 0.72252 138.935 0 139.829 0C140.722 0 141.447 0.72252 141.447 1.61379ZM141.447 13.4483C141.447 14.3395 140.722 15.0621 139.829 15.0621C138.935 15.0621 138.211 14.3395 138.211 13.4483C138.211 12.557 138.935 11.8345 139.829 11.8345C140.722 11.8345 141.447 12.557 141.447 13.4483ZM141.447 25.2828C141.447 26.174 140.722 26.8966 139.829 26.8966C138.935 26.8966 138.211 26.174 138.211 25.2828C138.211 24.3915 138.935 23.669 139.829 23.669C140.722 23.669 141.447 24.3915 141.447 25.2828ZM141.447 37.1172C141.447 38.0085 140.722 38.731 139.829 38.731C138.935 38.731 138.211 38.0085 138.211 37.1172C138.211 36.226 138.935 35.5034 139.829 35.5034C140.722 35.5034 141.447 36.226 141.447 37.1172ZM141.447 48.9517C141.447 49.843 140.722 50.5655 139.829 50.5655C138.935 50.5655 138.211 49.843 138.211 48.9517C138.211 48.0604 138.935 47.3379 139.829 47.3379C140.722 47.3379 141.447 48.0604 141.447 48.9517ZM141.447 60.7862C141.447 61.6775 140.722 62.4 139.829 62.4C138.935 62.4 138.211 61.6775 138.211 60.7862C138.211 59.8949 138.935 59.1724 139.829 59.1724C140.722 59.1724 141.447 59.8949 141.447 60.7862ZM141.447 72.6207C141.447 73.512 140.722 74.2345 139.829 74.2345C138.935 74.2345 138.211 73.512 138.211 72.6207C138.211 71.7294 138.935 71.0069 139.829 71.0069C140.722 71.0069 141.447 71.7294 141.447 72.6207ZM141.447 84.4552C141.447 85.3464 140.722 86.069 139.829 86.069C138.935 86.069 138.211 85.3464 138.211 84.4552C138.211 83.5639 138.935 82.8414 139.829 82.8414C140.722 82.8414 141.447 83.5639 141.447 84.4552ZM141.447 96.2896C141.447 97.1809 140.722 97.9034 139.829 97.9034C138.935 97.9034 138.211 97.1809 138.211 96.2896C138.211 95.3984 138.935 94.6759 139.829 94.6759C140.722 94.6759 141.447 95.3984 141.447 96.2896ZM141.447 108.124C141.447 109.015 140.722 109.738 139.829 109.738C138.935 109.738 138.211 109.015 138.211 108.124C138.211 107.233 138.935 106.51 139.829 106.51C140.722 106.51 141.447 107.233 141.447 108.124ZM141.447 119.959C141.447 120.85 140.722 121.572 139.829 121.572C138.935 121.572 138.211 120.85 138.211 119.959C138.211 119.067 138.935 118.345 139.829 118.345C140.722 118.345 141.447 119.067 141.447 119.959ZM141.447 131.793C141.447 132.684 140.722 133.407 139.829 133.407C138.935 133.407 138.211 132.684 138.211 131.793C138.211 130.902 138.935 130.179 139.829 130.179C140.722 130.179 141.447 130.902 141.447 131.793ZM141.447 143.628C141.447 144.519 140.722 145.241 139.829 145.241C138.935 145.241 138.211 144.519 138.211 143.628C138.211 142.736 138.935 142.014 139.829 142.014C140.722 142.014 141.447 142.736 141.447 143.628ZM141.447 155.462C141.447 156.353 140.722 157.076 139.829 157.076C138.935 157.076 138.211 156.353 138.211 155.462C138.211 154.571 138.935 153.848 139.829 153.848C140.722 153.848 141.447 154.571 141.447 155.462Z" fill="#F6F6F6"/>
<path fill-rule="evenodd" clip-rule="evenodd" d="M114.81 17.9185C108.121 14.0272 99.8791 14.0272 93.1895 17.9185L23.8105 58.2765C17.1209 62.1678 13 69.3593 13 77.142V157.858C13 165.641 17.1209 172.832 23.8105 176.723L93.1895 217.082C99.8791 220.973 108.121 220.973 114.81 217.082L184.19 176.723C190.879 172.832 195 165.641 195 157.858V77.142C195 69.3593 190.879 62.1678 184.19 58.2765L114.81 17.9185Z" fill="#F6F6F6"/>
<path fill-rule="evenodd" clip-rule="evenodd" d="M3.80095 183.145C4.59082 183.145 5.30702 183.467 5.82582 183.986C6.34478 184.506 6.66635 185.224 6.66635 186.016C6.66635 186.807 6.34472 187.525 5.8257 188.045C5.30691 188.565 4.59076 188.887 3.80095 188.887C3.01113 188.887 2.29498 188.565 1.7762 188.045C1.25717 187.525 0.935547 186.807 0.935547 186.016C0.935547 185.224 1.25711 184.506 1.77608 183.986C2.29487 183.467 3.01108 183.145 3.80095 183.145ZM3.80095 183.384C3.07664 183.384 2.41957 183.679 1.94368 184.156C1.46813 184.633 1.17365 185.29 1.17365 186.016C1.17365 186.741 1.46813 187.399 1.94368 187.876C2.41957 188.352 3.07664 188.647 3.80095 188.647C4.52546 188.647 5.18247 188.352 5.65827 187.876C6.13384 187.399 6.42825 186.741 6.42825 186.016C6.42825 185.29 6.13384 184.633 5.65827 184.156C5.18247 183.679 4.52546 183.384 3.80095 183.384ZM171.286 145.367C171.342 145.367 171.399 145.389 171.442 145.433C171.485 145.476 171.507 145.533 171.507 145.589C171.507 145.646 171.485 145.703 171.442 145.747L168.954 148.238L171.442 150.73C171.485 150.774 171.507 150.831 171.507 150.888C171.507 150.944 171.485 151.001 171.442 151.045C171.399 151.088 171.342 151.11 171.286 151.11C171.229 151.11 171.173 151.088 171.13 151.045L168.641 148.552L166.153 151.045C166.11 151.088 166.054 151.11 165.997 151.11C165.941 151.11 165.885 151.088 165.841 151.045C165.798 151.001 165.776 150.944 165.776 150.888C165.776 150.831 165.798 150.774 165.841 150.73L168.329 148.238L165.842 145.747C165.798 145.703 165.776 145.646 165.776 145.589C165.776 145.533 165.798 145.476 165.842 145.432C165.885 145.389 165.941 145.367 165.997 145.367L168.641 147.924L171.13 145.432C171.173 145.389 171.229 145.367 171.286 145.367ZM41.999 138.891C42.0555 138.891 42.1121 138.913 42.1552 138.956C42.1985 138.999 42.22 139.056 42.22 139.113C42.22 139.17 42.1983 139.227 42.1553 139.271L39.6675 141.762L42.155 144.254C42.1984 144.298 42.2202 144.354 42.2202 144.411C42.2202 144.468 42.1984 144.525 42.155 144.569C42.112 144.612 42.0555 144.634 41.999 144.634C41.9424 144.634 41.886 144.612 41.8429 144.569L39.3546 142.075L36.8667 144.569C36.8237 144.612 36.7672 144.634 36.7107 144.634C36.6541 144.634 36.5977 144.612 36.5546 144.569C36.5112 144.525 36.4894 144.468 36.4894 144.411C36.4894 144.354 36.5112 144.298 36.5547 144.254L39.0418 141.762L36.5547 139.271C36.5113 139.227 36.4896 139.17 36.4896 139.113C36.4896 139.056 36.5111 138.999 36.5544 138.956C36.5976 138.913 36.6541 138.891 36.7107 138.891L39.3546 141.449L41.8435 138.956C41.8864 138.913 41.9427 138.891 41.999 138.891ZM168.641 83.8439C169.431 83.8439 170.148 84.166 170.666 84.6856C171.185 85.2056 171.507 85.9234 171.507 86.715C171.507 87.5067 171.186 88.2247 170.666 88.7447C170.148 89.2644 169.431 89.5865 168.641 89.5865C167.852 89.5865 167.135 89.2644 166.617 88.7446C166.098 88.2246 165.776 87.5067 165.776 86.715C165.776 85.9234 166.098 85.2056 166.617 84.6857C167.136 84.166 167.852 83.8439 168.641 83.8439ZM168.641 84.0837C167.917 84.0837 167.26 84.3787 166.784 84.8554C166.309 85.3318 166.014 85.9895 166.014 86.715C166.014 87.4404 166.309 88.0983 166.784 88.5748C167.26 89.0516 167.917 89.3467 168.641 89.3467C169.366 89.3467 170.023 89.0516 170.499 88.5748C170.974 88.0983 171.269 87.4403 171.269 86.715C171.269 85.9896 170.974 85.3318 170.499 84.8554C170.023 84.3787 169.366 84.0837 168.641 84.0837ZM206.84 38.511C206.896 38.511 206.953 38.5325 206.996 38.5756C207.039 38.6191 207.061 38.6761 207.061 38.7331C207.061 38.7899 207.039 38.8466 206.996 38.8902L204.508 41.3821L206.996 43.8741C207.039 43.9176 207.061 43.9744 207.061 44.0314C207.061 44.0883 207.039 44.1452 206.996 44.1887C206.953 44.2318 206.896 44.2536 206.84 44.2536C206.783 44.2536 206.727 44.2318 206.684 44.1887L204.195 41.6954L201.707 44.1887C201.664 44.2318 201.608 44.2536 201.551 44.2536C201.495 44.2536 201.438 44.2318 201.395 44.1887C201.352 44.1452 201.33 44.0883 201.33 44.0314C201.33 43.9744 201.352 43.9176 201.395 43.874L203.882 41.3821L201.395 38.8899C201.352 38.8466 201.33 38.7899 201.33 38.7331C201.33 38.6761 201.352 38.6191 201.395 38.5756C201.438 38.5325 201.495 38.511 201.551 38.511L204.195 41.0679L206.683 38.5759C206.727 38.5327 206.783 38.511 206.84 38.511ZM41.2472 39.224C41.841 39.7467 42.1669 40.4628 42.2142 41.1968C42.2615 41.9308 42.0301 42.6828 41.5083 43.2775C41.0053 43.8509 40.3104 44.1952 39.5503 44.2468C38.6649 44.2509 37.995 44.0066 37.4639 43.5384C36.8887 43.0325 36.545 42.3323 36.4955 41.5663C36.4464 40.801 36.6975 40.0619 37.2035 39.4855C37.7249 38.8909 38.4391 38.5644 39.1713 38.517C39.9035 38.4697 40.6537 38.7015 41.2472 39.224ZM39.3571 38.7508C38.627 38.7508 37.9003 39.0531 37.3814 39.6442C36.9183 40.1726 36.688 40.8495 36.7338 41.5513C36.7789 42.2524 37.094 42.8942 37.6207 43.358C38.1485 43.8228 38.8263 44.0554 39.5258 44.0079C40.2254 43.9627 40.8664 43.6465 41.3295 43.1187C41.8075 42.5739 42.02 41.885 41.9768 41.2125C41.9335 40.5399 41.6346 39.8839 41.0907 39.4046C40.5923 38.9664 39.9733 38.7508 39.3571 38.7508Z" stroke="#E5E5E5" stroke-width="0.733542"/>
<path fill-rule="evenodd" clip-rule="evenodd" d="M144.906 90.168C144.227 90.168 143.675 89.6155 143.675 88.9364C143.675 88.2573 144.227 87.7048 144.906 87.7048C145.585 87.7048 146.138 88.2573 146.138 88.9364C146.138 89.6155 145.585 90.168 144.906 90.168Z" fill="#ECECFE"/>
<path fill-rule="evenodd" clip-rule="evenodd" d="M63.6222 90.168C62.9431 90.168 62.3906 89.6155 62.3906 88.9364C62.3906 88.2573 62.9431 87.7048 63.6222 87.7048C64.3013 87.7048 64.8538 88.2573 64.8538 88.9364C64.8538 89.6155 64.3013 90.168 63.6222 90.168Z" fill="#ECECFE"/>
<path fill-rule="evenodd" clip-rule="evenodd" d="M68.549 151.747C67.8699 151.747 67.3174 151.194 67.3174 150.515C67.3174 149.836 67.8699 149.284 68.549 149.284C69.2281 149.284 69.7805 149.836 69.7805 150.515C69.7805 151.194 69.2281 151.747 68.549 151.747Z" fill="#ECECFE"/>
<path fill-rule="evenodd" clip-rule="evenodd" d="M78.4015 75.3889C77.7224 75.3889 77.1699 74.8365 77.1699 74.1574C77.1699 73.4782 77.7224 72.9258 78.4015 72.9258C79.0806 72.9258 79.6331 73.4782 79.6331 74.1574C79.6331 74.8365 79.0806 75.3889 78.4015 75.3889Z" fill="#ECECFE"/>
<path fill-rule="evenodd" clip-rule="evenodd" d="M122.738 164.063C122.059 164.063 121.507 163.51 121.507 162.831C121.507 162.152 122.059 161.599 122.738 161.599C123.418 161.599 123.97 162.152 123.97 162.831C123.97 163.51 123.418 164.063 122.738 164.063Z" fill="#ECECFE"/>
<path d="M121.55 118.164C121.733 117.509 122.412 117.126 123.067 117.308C125.949 118.111 128.157 120.371 128.742 123.173C128.881 123.838 128.454 124.491 127.788 124.63C127.122 124.769 126.47 124.342 126.331 123.676C125.939 121.796 124.42 120.242 122.406 119.681C121.751 119.499 121.368 118.82 121.55 118.164Z" fill="#E1000F"/>
<path fill-rule="evenodd" clip-rule="evenodd" d="M109.189 124.653C109.189 117.86 114.713 112.337 121.505 112.337C128.297 112.337 133.821 117.86 133.821 124.653C133.821 127.813 132.625 130.699 130.662 132.881L137.922 145.457C138.943 147.224 138.337 149.484 136.57 150.504C134.866 151.488 132.704 150.96 131.637 149.337L131.523 149.152L124.304 136.648C123.405 136.858 122.468 136.968 121.505 136.968C114.713 136.968 109.189 131.445 109.189 124.653ZM126.676 135.83L133.656 147.92C133.996 148.509 134.749 148.711 135.338 148.371C135.885 148.055 136.098 147.383 135.854 146.817L135.789 146.688L128.795 134.574C128.136 135.06 127.426 135.482 126.676 135.83ZM131.358 124.653C131.358 119.221 126.937 114.8 121.505 114.8C116.073 114.8 111.653 119.221 111.653 124.653C111.653 130.084 116.074 134.505 121.505 134.505C126.937 134.505 131.358 130.084 131.358 124.653Z" fill="#E1000F"/>
<path d="M139.971 90.0247C139.9 89.4122 139.379 88.9368 138.748 88.9368H72.2423L72.0987 88.9451C71.4862 89.0162 71.0107 89.5367 71.0107 90.1683V146.821L71.019 146.965C71.0902 147.577 71.6107 148.053 72.2423 148.053H123.969L124.112 148.044C124.725 147.973 125.2 147.453 125.2 146.821L125.192 146.677C125.121 146.065 124.6 145.589 123.969 145.589H73.4739V101.253H119.042L119.186 101.244C119.798 101.173 120.274 100.653 120.274 100.021C120.274 99.3408 119.723 98.7894 119.042 98.7894H73.4739V91.3999H137.516V98.7894H126.432L126.288 98.7977C125.676 98.8688 125.2 99.3894 125.2 100.021C125.2 100.701 125.752 101.253 126.432 101.253H137.516V136.968L137.524 137.112C137.595 137.724 138.116 138.2 138.748 138.2C139.428 138.2 139.979 137.649 139.979 136.968V90.1683L139.971 90.0247Z" fill="#000091"/>
<path d="M77.1686 96.3262C76.4895 96.3262 75.9371 95.7738 75.9371 95.0947C75.9371 94.4155 76.4895 93.8631 77.1686 93.8631C77.8477 93.8631 78.4002 94.4155 78.4002 95.0947C78.4002 95.7738 77.8477 96.3262 77.1686 96.3262Z" fill="#000091"/>
<path d="M80.8634 95.0947C80.8634 95.7738 81.4159 96.3262 82.095 96.3262C82.774 96.3262 83.3265 95.7738 83.3265 95.0947C83.3265 94.4155 82.774 93.8631 82.095 93.8631C81.4159 93.8631 80.8634 94.4155 80.8634 95.0947Z" fill="#000091"/>
<path d="M87.0213 96.3262C86.3422 96.3262 85.7897 95.7738 85.7897 95.0947C85.7897 94.4155 86.3422 93.8631 87.0213 93.8631C87.7004 93.8631 88.2528 94.4155 88.2528 95.0947C88.2528 95.7738 87.7004 96.3262 87.0213 96.3262Z" fill="#000091"/>
<path d="M133.821 93.8631C134.501 93.8631 135.053 94.4145 135.053 95.0947C135.053 95.7263 134.577 96.2468 133.965 96.318L133.821 96.3262H96.8739C96.1937 96.3262 95.6423 95.7748 95.6423 95.0947C95.6423 94.4631 96.1178 93.9425 96.7303 93.8714L96.8739 93.8631H133.821Z" fill="#000091"/>
<path d="M105.495 109.874C105.495 109.193 104.944 108.642 104.263 108.642H82.095L81.9513 108.65C81.3388 108.721 80.8634 109.242 80.8634 109.874C80.8634 110.554 81.4148 111.105 82.095 111.105H104.263L104.407 111.097C105.02 111.026 105.495 110.505 105.495 109.874Z" fill="#000091"/>
<path d="M99.3371 116.032C100.017 116.032 100.569 116.583 100.569 117.263C100.569 117.895 100.093 118.415 99.4807 118.486L99.3371 118.495H82.095C81.4148 118.495 80.8634 117.943 80.8634 117.263C80.8634 116.631 81.3388 116.111 81.9513 116.04L82.095 116.032H99.3371Z" fill="#000091"/>
<path d="M98.1055 124.653C98.1055 123.972 97.5541 123.421 96.8739 123.421H82.095L81.9513 123.429C81.3388 123.5 80.8634 124.021 80.8634 124.653C80.8634 125.333 81.4148 125.884 82.095 125.884H96.8739L97.0175 125.876C97.63 125.805 98.1055 125.284 98.1055 124.653Z" fill="#000091"/>
</g>
<defs>
<clipPath id="clip0_5889_23033">
<rect width="206.859" height="234" fill="white" transform="translate(0.570312)"/>
</clipPath>
</defs>
</svg>
