<svg width="80" height="80" viewBox="0 0 80 80" fill="none" xmlns="http://www.w3.org/2000/svg">
<path fill-rule="evenodd" clip-rule="evenodd" d="M73 32.9995C72.4486 32.9995 72 32.5509 72 31.9995C72 31.4481 72.4486 30.9995 73 30.9995C73.5514 30.9995 74 31.4481 74 31.9995C74 32.5509 73.5514 32.9995 73 32.9995Z" fill="#ECECFE"/>
<path fill-rule="evenodd" clip-rule="evenodd" d="M12 42.9995C11.4486 42.9995 11 42.5509 11 41.9995C11 41.4481 11.4486 40.9995 12 40.9995C12.5514 40.9995 13 41.4481 13 41.9995C13 42.5509 12.5514 42.9995 12 42.9995Z" fill="#ECECFE"/>
<path fill-rule="evenodd" clip-rule="evenodd" d="M8 5.99951C7.4486 5.99951 7 5.55091 7 4.99951C7 4.44806 7.4486 3.99951 8 3.99951C8.5514 3.99951 9 4.44806 9 4.99951C9 5.55091 8.5514 5.99951 8 5.99951Z" fill="#ECECFE"/>
<path fill-rule="evenodd" clip-rule="evenodd" d="M23 73.9995C22.4486 73.9995 22 73.5509 22 72.9995C22 72.4481 22.4486 71.9995 23 71.9995C23.5514 71.9995 24 72.4481 24 72.9995C24 73.5509 23.5514 73.9995 23 73.9995Z" fill="#ECECFE"/>
<path fill-rule="evenodd" clip-rule="evenodd" d="M44 7.99951C43.4486 7.99951 43 7.55091 43 6.99951C43 6.44806 43.4486 5.99951 44 5.99951C44.5514 5.99951 45 6.44806 45 6.99951C45 7.55091 44.5514 7.99951 44 7.99951Z" fill="#ECECFE"/>
<path fill-rule="evenodd" clip-rule="evenodd" d="M71 71.9995C70.4486 71.9995 70 71.5509 70 70.9995C70 70.4481 70.4486 69.9995 71 69.9995C71.5514 69.9995 72 70.4481 72 70.9995C72 71.5509 71.5514 71.9995 71 71.9995Z" fill="#ECECFE"/>
<path fill-rule="evenodd" clip-rule="evenodd" d="M66 13.9995C66 14.6101 65.8176 15.1781 65.5043 15.652C66.693 16.3391 67.5 17.5252 67.5 18.9995C67.5 19.5518 67.0523 19.9995 66.5 19.9995C65.9477 19.9995 65.5 19.5518 65.5 18.9995C65.5 17.998 64.5917 16.9995 63 16.9995C61.4297 16.9995 60.5 18.0731 60.5 18.9995C60.5 19.5518 60.0523 19.9995 59.5 19.9995C58.9477 19.9995 58.5 19.5518 58.5 18.9995C58.5 17.5867 59.3083 16.3778 60.5074 15.6695C60.187 15.1922 60 14.6177 60 13.9995C60 12.3427 61.3431 10.9995 63 10.9995C64.6569 10.9995 66 12.3427 66 13.9995ZM62 13.9995C62 13.4472 62.4477 12.9995 63 12.9995C63.5523 12.9995 64 13.4472 64 13.9995C64 14.5518 63.5523 14.9995 63 14.9995C62.4477 14.9995 62 14.5518 62 13.9995Z" fill="#E1000F"/>
<path fill-rule="evenodd" clip-rule="evenodd" d="M27 18.9995C27 19.6101 26.8176 20.1781 26.5043 20.652C27.6929 21.3391 28.5 22.5252 28.5 23.9995C28.5 24.5518 28.0523 24.9995 27.5 24.9995C26.9477 24.9995 26.5 24.5518 26.5 23.9995C26.5 22.998 25.5917 21.9995 24 21.9995C22.4297 21.9995 21.5 23.0731 21.5 23.9995C21.5 24.5518 21.0523 24.9995 20.5 24.9995C19.9477 24.9995 19.5 24.5518 19.5 23.9995C19.5 22.5867 20.3083 21.3778 21.5074 20.6695C21.187 20.1922 21 19.6177 21 18.9995C21 17.3427 22.3431 15.9995 24 15.9995C25.6569 15.9995 27 17.3427 27 18.9995ZM23 18.9995C23 18.4472 23.4477 17.9995 24 17.9995C24.5523 17.9995 25 18.4472 25 18.9995C25 19.5518 24.5523 19.9995 24 19.9995C23.4477 19.9995 23 19.5518 23 18.9995Z" fill="#E1000F"/>
<path fill-rule="evenodd" clip-rule="evenodd" d="M37.5 35.9995C37.5 37.0243 37.8854 37.9591 38.5191 38.6669C36.4327 39.6627 35 41.6717 35 43.9995C35 44.5518 35.4477 44.9995 36 44.9995C36.5523 44.9995 37 44.5518 37 43.9995C37 41.9247 38.8764 39.9995 41.5 39.9995C44.1371 39.9995 46 41.8371 46 43.9995C46 44.5518 46.4477 44.9995 47 44.9995C47.5523 44.9995 48 44.5518 48 43.9995C48 41.5998 46.5688 39.6266 44.4925 38.6538C45.1193 37.9477 45.5 37.018 45.5 35.9995C45.5 33.7904 43.7091 31.9995 41.5 31.9995C39.2909 31.9995 37.5 33.7904 37.5 35.9995ZM41.5 33.9995C40.3954 33.9995 39.5 34.8949 39.5 35.9995C39.5 37.1041 40.3954 37.9995 41.5 37.9995L41.5035 37.9995C42.6065 37.9976 43.5 37.1029 43.5 35.9995C43.5 34.8949 42.6046 33.9995 41.5 33.9995Z" fill="#E1000F"/>
<path fill-rule="evenodd" clip-rule="evenodd" d="M47 62.9995C47 63.6101 46.8176 64.1781 46.5043 64.652C47.693 65.3391 48.5 66.5252 48.5 67.9995C48.5 68.5518 48.0523 68.9995 47.5 68.9995C46.9477 68.9995 46.5 68.5518 46.5 67.9995C46.5 66.9988 45.593 66.001 44.0036 65.9995L44 65.9995L43.9965 65.9995C42.4284 66.0011 41.5 67.0738 41.5 67.9995C41.5 68.5518 41.0523 68.9995 40.5 68.9995C39.9477 68.9995 39.5 68.5518 39.5 67.9995C39.5 66.5867 40.3083 65.3778 41.5074 64.6695C41.187 64.1922 41 63.6177 41 62.9995C41 61.3427 42.3431 59.9995 44 59.9995C45.6569 59.9995 47 61.3427 47 62.9995ZM43 62.9995C43 62.4472 43.4477 61.9995 44 61.9995C44.5523 61.9995 45 62.4472 45 62.9995C45 63.5518 44.5523 63.9995 44 63.9995L43.9975 63.9995C43.4463 63.9981 43 63.5509 43 62.9995Z" fill="#E1000F"/>
<path fill-rule="evenodd" clip-rule="evenodd" d="M67 40.9995C65.3431 40.9995 64 42.3427 64 43.9995C64 44.6177 64.187 45.1922 64.5074 45.6695C63.3083 46.3778 62.5 47.5867 62.5 48.9995C62.5 49.5518 62.9477 49.9995 63.5 49.9995C64.0523 49.9995 64.5 49.5518 64.5 48.9995C64.5 48.0731 65.4298 46.9995 67 46.9995C68.5917 46.9995 69.5 47.998 69.5 48.9995C69.5 49.5518 69.9477 49.9995 70.5 49.9995C71.0523 49.9995 71.5 49.5518 71.5 48.9995C71.5 47.5252 70.693 46.3391 69.5043 45.652C69.8176 45.1781 70 44.6101 70 43.9995C70 42.3427 68.6569 40.9995 67 40.9995ZM66 43.9995C66 43.4472 66.4477 42.9995 67 42.9995C67.5523 42.9995 68 43.4472 68 43.9995C68 44.5518 67.5523 44.9995 67 44.9995C66.4477 44.9995 66 44.5518 66 43.9995Z" fill="#E1000F"/>
<path fill-rule="evenodd" clip-rule="evenodd" d="M17 57.9995C17 58.6101 16.8176 59.1781 16.5043 59.652C17.6929 60.3391 18.5 61.5252 18.5 62.9995C18.5 63.5518 18.0523 63.9995 17.5 63.9995C16.9477 63.9995 16.5 63.5518 16.5 62.9995C16.5 61.998 15.5917 60.9995 14 60.9995C12.4297 60.9995 11.5 62.0731 11.5 62.9995C11.5 63.5518 11.0523 63.9995 10.5 63.9995C9.94772 63.9995 9.5 63.5518 9.5 62.9995C9.5 61.5867 10.3083 60.3778 11.5074 59.6695C11.187 59.1922 11 58.6177 11 57.9995C11 56.3427 12.3431 54.9995 14 54.9995C15.6569 54.9995 17 56.3427 17 57.9995ZM13 57.9995C13 57.4472 13.4477 56.9995 14 56.9995C14.5523 56.9995 15 57.4472 15 57.9995C15 58.5518 14.5523 58.9995 14 58.9995C13.4477 58.9995 13 58.5518 13 57.9995Z" fill="#E1000F"/>
<path d="M12 25.9995C12.5523 25.9995 13 25.5518 13 24.9995C13 24.4472 12.5523 23.9995 12 23.9995C11.4477 23.9995 11 24.4472 11 24.9995C11 25.5518 11.4477 25.9995 12 25.9995Z" fill="#E1000F"/>
<path fill-rule="evenodd" clip-rule="evenodd" d="M67 38.9995C63.134 38.9995 60 42.1335 60 45.9995C60 49.8655 63.134 52.9995 67 52.9995C70.866 52.9995 74 49.8655 74 45.9995C74 42.1335 70.866 38.9995 67 38.9995ZM58 45.9995C58 41.0289 62.0294 36.9995 67 36.9995C71.9706 36.9995 76 41.0289 76 45.9995C76 50.9701 71.9706 54.9995 67 54.9995C62.0294 54.9995 58 50.9701 58 45.9995Z" fill="#000091"/>
<path fill-rule="evenodd" clip-rule="evenodd" d="M13.4335 27.1755C13.8886 26.8626 14.5112 26.9779 14.824 27.433C15.7999 28.8523 17.2464 29.9547 18.9472 30.8051C19.4412 31.0521 19.6414 31.6527 19.3944 32.1467C19.1474 32.6407 18.5468 32.8409 18.0528 32.5939C16.1536 31.6443 14.4001 30.3467 13.176 28.566C12.8631 28.1109 12.9784 27.4884 13.4335 27.1755Z" fill="#000091"/>
<path fill-rule="evenodd" clip-rule="evenodd" d="M24 13.9995C20.134 13.9995 17 17.1335 17 20.9995C17 24.8655 20.134 27.9995 24 27.9995C27.866 27.9995 31 24.8655 31 20.9995C31 17.1335 27.866 13.9995 24 13.9995ZM15 20.9995C15 16.0289 19.0294 11.9995 24 11.9995C28.9706 11.9995 33 16.0289 33 20.9995C33 25.9701 28.9706 29.9995 24 29.9995C19.0294 29.9995 15 25.9701 15 20.9995Z" fill="#000091"/>
<path fill-rule="evenodd" clip-rule="evenodd" d="M14 52.9995C10.134 52.9995 7 56.1335 7 59.9995C7 63.8655 10.134 66.9995 14 66.9995C17.866 66.9995 21 63.8655 21 59.9995C21 56.1335 17.866 52.9995 14 52.9995ZM5 59.9995C5 55.0289 9.02944 50.9995 14 50.9995C18.9706 50.9995 23 55.0289 23 59.9995C23 64.9701 18.9706 68.9995 14 68.9995C9.02944 68.9995 5 64.9701 5 59.9995Z" fill="#000091"/>
<path fill-rule="evenodd" clip-rule="evenodd" d="M54 15.9995C54 11.0472 58.0477 6.99951 63 6.99951C64.3592 6.99951 65.7119 7.33744 66.8472 7.90508C67.3412 8.15207 67.5414 8.75275 67.2944 9.24673C67.0474 9.7407 66.4468 9.94093 65.9528 9.69394C65.0881 9.26158 64.0408 8.99951 63 8.99951C59.1523 8.99951 56 12.1518 56 15.9995C56 19.8472 59.1523 22.9995 63 22.9995C66.8477 22.9995 70 19.8472 70 15.9995C70 15.4472 70.4477 14.9995 71 14.9995C71.5523 14.9995 72 15.4472 72 15.9995C72 20.9518 67.9523 24.9995 63 24.9995C58.0477 24.9995 54 20.9518 54 15.9995Z" fill="#000091"/>
<path fill-rule="evenodd" clip-rule="evenodd" d="M68.2 10.1995C68.5314 9.75767 69.1582 9.66813 69.6 9.9995C69.701 10.0753 69.7838 10.1557 69.8429 10.2166C69.8999 10.2754 69.9541 10.3364 69.9926 10.3797C69.9942 10.3816 69.9958 10.3834 69.9974 10.3851C70.042 10.4353 70.069 10.4654 70.0929 10.4901C70.1015 10.4989 70.1071 10.5043 70.11 10.5071C70.5432 10.8403 70.6289 11.461 70.3 11.8995C69.9686 12.3413 69.3418 12.4309 68.9 12.0995C68.799 12.0237 68.7162 11.9433 68.6571 11.8824C68.6001 11.8235 68.5459 11.7626 68.5074 11.7193C68.5058 11.7174 68.5042 11.7156 68.5026 11.7139C68.458 11.6637 68.431 11.6336 68.4071 11.6089C68.3985 11.6001 68.3929 11.5947 68.39 11.5919C67.9568 11.2587 67.8711 10.638 68.2 10.1995Z" fill="#000091"/>
<path fill-rule="evenodd" clip-rule="evenodd" d="M35 64.9995C35 60.0472 39.0477 55.9995 44 55.9995C48.9523 55.9995 53 60.0472 53 64.9995C53 69.9518 48.9523 73.9995 44 73.9995C42.6408 73.9995 41.2881 73.6616 40.1528 73.0939C39.6588 72.847 39.4586 72.2463 39.7056 71.7523C39.9526 71.2583 40.5532 71.0581 41.0472 71.3051C41.9119 71.7374 42.9592 71.9995 44 71.9995C47.8477 71.9995 51 68.8472 51 64.9995C51 61.1518 47.8477 57.9995 44 57.9995C40.1523 57.9995 37 61.1518 37 64.9995C37 65.5518 36.5523 65.9995 36 65.9995C35.4477 65.9995 35 65.5518 35 64.9995Z" fill="#000091"/>
<path fill-rule="evenodd" clip-rule="evenodd" d="M37.2 69.3995C37.5314 68.9577 38.1582 68.8681 38.6 69.1995C38.701 69.2753 38.7838 69.3557 38.8429 69.4166C38.8999 69.4755 38.9541 69.5364 38.9926 69.5797C38.9942 69.5816 38.9958 69.5834 38.9974 69.5851C39.042 69.6353 39.069 69.6655 39.0929 69.6901C39.1015 69.6989 39.1071 69.7043 39.11 69.7071C39.5432 70.0403 39.6289 70.661 39.3 71.0995C38.9686 71.5413 38.3418 71.6309 37.9 71.2995C37.799 71.2238 37.7162 71.1433 37.6571 71.0824C37.6001 71.0236 37.5459 70.9627 37.5074 70.9193C37.5058 70.9175 37.5042 70.9156 37.5026 70.9139C37.458 70.8637 37.431 70.8336 37.4071 70.8089C37.3985 70.8001 37.3929 70.7947 37.39 70.7919C36.9568 70.4587 36.8711 69.838 37.2 69.3995Z" fill="#000091"/>
<path fill-rule="evenodd" clip-rule="evenodd" d="M41.5 29.9995C36.2533 29.9995 32 34.2528 32 39.4995C32 44.7462 36.2533 48.9995 41.5 48.9995C46.7467 48.9995 51 44.7462 51 39.4995C51 34.2528 46.7467 29.9995 41.5 29.9995ZM30 39.4995C30 33.1482 35.1487 27.9995 41.5 27.9995C47.8513 27.9995 53 33.1482 53 39.4995C53 45.8508 47.8513 50.9995 41.5 50.9995C35.1487 50.9995 30 45.8508 30 39.4995Z" fill="#000091"/>
<path fill-rule="evenodd" clip-rule="evenodd" d="M57.7071 21.2924C58.0976 21.6829 58.0976 22.3161 57.7071 22.7066L48.7071 31.7066C48.3166 32.0972 47.6834 32.0972 47.2929 31.7066C46.9024 31.3161 46.9024 30.6829 47.2929 30.2924L56.2929 21.2924C56.6834 20.9019 57.3166 20.9019 57.7071 21.2924Z" fill="#000091"/>
<path fill-rule="evenodd" clip-rule="evenodd" d="M51.0256 42.7747C51.1498 42.2365 51.6867 41.9009 52.2249 42.0251L58.7249 43.5251C59.263 43.6493 59.5986 44.1862 59.4744 44.7244C59.3502 45.2625 58.8133 45.5981 58.2752 45.4739L51.7752 43.9739C51.237 43.8497 50.9014 43.3128 51.0256 42.7747Z" fill="#000091"/>
<path fill-rule="evenodd" clip-rule="evenodd" d="M42.9169 49.503C43.4673 49.4571 43.9507 49.8661 43.9965 50.4165L44.4966 56.4165C44.5424 56.9668 44.1334 57.4502 43.5831 57.4961C43.0327 57.5419 42.5493 57.1329 42.5035 56.5826L42.0034 50.5826C41.9576 50.0322 42.3666 49.5488 42.9169 49.503Z" fill="#000091"/>
<path fill-rule="evenodd" clip-rule="evenodd" d="M28.7929 26.7924C29.1834 26.4019 29.8166 26.4019 30.2071 26.7924L34.7071 31.2924C35.0976 31.6829 35.0976 32.3161 34.7071 32.7066C34.3166 33.0971 33.6834 33.0971 33.2929 32.7066L28.7929 28.2066C28.4024 27.8161 28.4024 27.1829 28.7929 26.7924Z" fill="#000091"/>
<path fill-rule="evenodd" clip-rule="evenodd" d="M33.3042 45.9051C33.6325 46.3493 33.5385 46.9754 33.0944 47.3037L21.5944 55.8037C21.1503 56.132 20.5241 56.0381 20.1958 55.5939C19.8676 55.1498 19.9615 54.5236 20.4056 54.1954L31.9056 45.6954C32.3497 45.3671 32.9759 45.461 33.3042 45.9051Z" fill="#000091"/>
</svg>
