<svg width="80" height="80" viewBox="0 0 80 80" fill="none" xmlns="http://www.w3.org/2000/svg">
<path fill-rule="evenodd" clip-rule="evenodd" d="M56 76.9995C55.4486 76.9995 55 76.5509 55 75.9995C55 75.4481 55.4486 74.9995 56 74.9995C56.5514 74.9995 57 75.4481 57 75.9995C57 76.5509 56.5514 76.9995 56 76.9995Z" fill="#ECECFE"/>
<path fill-rule="evenodd" clip-rule="evenodd" d="M8 64.9995C7.4486 64.9995 7 64.5509 7 63.9995C7 63.4481 7.4486 62.9995 8 62.9995C8.5514 62.9995 9 63.4481 9 63.9995C9 64.5509 8.5514 64.9995 8 64.9995Z" fill="#ECECFE"/>
<path fill-rule="evenodd" clip-rule="evenodd" d="M76 57.9995C75.4486 57.9995 75 57.5509 75 56.9995C75 56.4481 75.4486 55.9995 76 55.9995C76.5514 55.9995 77 56.4481 77 56.9995C77 57.5509 76.5514 57.9995 76 57.9995Z" fill="#ECECFE"/>
<path fill-rule="evenodd" clip-rule="evenodd" d="M65 9.99951C64.4486 9.99951 64 9.55091 64 8.99951C64 8.44806 64.4486 7.99951 65 7.99951C65.5514 7.99951 66 8.44806 66 8.99951C66 9.55091 65.5514 9.99951 65 9.99951Z" fill="#ECECFE"/>
<path fill-rule="evenodd" clip-rule="evenodd" d="M24 3.99951C23.4486 3.99951 23 3.55091 23 2.99951C23 2.44806 23.4486 1.99951 24 1.99951C24.5514 1.99951 25 2.44806 25 2.99951C25 3.55091 24.5514 3.99951 24 3.99951Z" fill="#ECECFE"/>
<path d="M37.096 15.6803C37.5128 16.8188 37.1301 18.1558 36.3759 18.7886C36.0547 19.0582 35.7714 19.2173 35.2893 19.3639L34.9743 19.4511C34.9172 19.4656 34.8577 19.4802 34.7954 19.495L34.3876 19.5865L32.4642 19.9797L32.2225 20.0312L32.3574 20.1018L32.6028 20.2349L33.0712 20.4985C33.5495 20.7746 33.7134 21.3862 33.4372 21.8645C33.1611 22.3428 32.5495 22.5067 32.0712 22.2305L31.8576 22.1088L31.4116 21.864L29.8778 21.0618L29.192 20.6962C29.0786 20.6349 28.9651 20.5732 28.8507 20.5105L28.1463 20.1188L27.3798 19.6812C26.9015 19.4051 26.7376 18.7935 27.0137 18.3152C27.2899 17.8369 27.9015 17.673 28.3798 17.9492L29.1264 18.3754C29.2446 18.4421 29.3603 18.5068 29.4742 18.5702L29.6091 18.6441C29.7103 18.5731 29.8265 18.5198 29.9542 18.4898L30.501 18.3629L31.545 18.1307L32.3141 17.968L33.8958 17.6464L34.3423 17.5473L34.5641 17.4909L34.7365 17.4393C34.7616 17.4309 34.7851 17.4226 34.8072 17.4143L34.9236 17.3647L35.0147 17.313L35.0904 17.2566C35.2101 17.1561 35.3401 16.7017 35.2179 16.3678C35.0122 15.8057 34.2 15.3234 32.488 15.1301L29.1047 14.7827L27.2401 14.5982L25.1611 14.401L23.0359 14.2138L22.0769 14.1376L21.9214 14.1401L21.8052 14.1517L21.6075 14.1856L21.4575 14.2201L21.2908 14.2649L21.0055 14.3529L20.5497 14.5125L19.9947 14.7251L19.3258 14.9959L18.0775 15.5228L15.8058 16.5093L15.6978 16.5468L15.6246 16.5646L15.5478 16.5758C15.5346 16.5771 15.5211 16.578 15.5074 16.5786L15.4214 16.5783L15.3264 16.5694L15.2205 16.551L15.1013 16.5224L14.8932 16.4586L14.7318 16.4009L14.4501 16.2899L14.2329 16.1983L13.7182 15.9694L12.902 15.5894L10.5663 14.4695C10.0688 14.2297 9.85995 13.632 10.0998 13.1345C10.3396 12.637 10.9374 12.4281 11.4348 12.668L13.1876 13.5043L13.899 13.8364L14.6759 14.1897L15.1473 14.395L15.4073 14.5004L17.4276 13.6231L18.5651 13.1413L19.1406 12.9058L19.7999 12.649L20.0886 12.5433L20.4773 12.411L20.8198 12.3079L21.0266 12.254L21.2189 12.2111L21.399 12.1784L21.5695 12.1552L21.7327 12.1406C21.7594 12.1388 21.7859 12.1374 21.8123 12.1363L22.0467 12.1343L22.2791 12.1463L23.5268 12.2481L25.7324 12.4454L28.338 12.6963L31.8822 13.0566L32.4328 13.114C34.9968 13.3497 36.5707 14.2452 37.096 15.6803Z" fill="#E1000F"/>
<path d="M25.7928 36.0475C26.2524 36.2462 26.7981 36.0731 27.0545 35.629C27.3307 35.1507 27.1668 34.5391 26.6885 34.263L23.7499 32.5664L23.6455 32.5139C23.1859 32.3153 22.6403 32.4883 22.3839 32.9324C22.1077 33.4107 22.2716 34.0223 22.7499 34.2984L25.6885 35.995L25.7928 36.0475Z" fill="#E1000F"/>
<path d="M20.4848 38.2478C20.2284 38.692 19.6827 38.865 19.2232 38.6663L19.1188 38.6139L14.6429 36.0297C14.4917 35.9424 14.2861 35.7398 14.0423 35.4451L13.8243 35.1704C13.7865 35.1211 13.748 35.07 13.7089 35.0172L13.467 34.681L13.2119 34.3077L12.9459 33.9007L12.6713 33.4632C12.6249 33.3879 12.5782 33.3115 12.5314 33.234L12.2479 32.7568L11.9614 32.2571L11.674 31.7382C11.6261 31.6504 11.5784 31.5618 11.5307 31.4727L11.2463 30.9311C11.1992 30.8399 11.1523 30.7481 11.1057 30.656L10.8293 30.0991L10.561 29.536L10.3031 28.9699L10.0577 28.4041C9.97832 28.2159 9.90137 28.0282 9.82728 27.8418L9.70352 27.5228L8.7463 26.7957L6.73178 25.2888L6.36713 25.0068L6.15981 24.8376L6.06985 24.7566L5.98186 24.6696L5.94957 24.6276L5.87609 24.4984L5.7883 24.3324C5.6044 23.8116 5.87748 23.2404 6.39825 23.0565C6.75878 22.9292 7.14351 23.0209 7.40715 23.2622L7.46897 23.3252L7.74844 23.548L10.6847 25.7532L11.0032 26.0023L11.1678 26.1405L11.296 26.2635L11.3279 26.3043L11.371 26.3755L11.4894 26.5917C12.2081 28.5323 13.1714 30.4471 14.2294 32.1663L14.4005 32.4413L14.7363 32.9625C14.9011 33.2125 15.0605 33.4453 15.2107 33.6561L15.4574 33.9939L15.633 34.2208L15.7206 34.3287C15.7249 34.3365 15.7204 34.339 15.6869 34.3219L20.1188 36.8818C20.5971 37.1579 20.761 37.7695 20.4848 38.2478Z" fill="#E1000F"/>
<path d="M22.9999 39.9994C23.5522 39.9994 23.9999 39.5517 23.9999 38.9994C23.9999 38.4471 23.5522 37.9994 22.9999 37.9994C22.4476 37.9994 21.9999 38.4471 21.9999 38.9994C21.9999 39.5517 22.4476 39.9994 22.9999 39.9994Z" fill="#E1000F"/>
<path d="M54.4184 42.6609C54.1422 42.1826 54.3061 41.5711 54.7844 41.2949L54.9966 41.1708L55.4316 40.9069L57.224 39.7722C57.3337 39.7039 57.443 39.6361 57.5527 39.5686L58.2235 39.1612L58.9454 38.7345C59.0721 38.6605 59.2027 38.5847 59.3379 38.5066C59.8162 38.2305 60.4278 38.3944 60.7039 38.8727C60.98 39.351 60.8162 39.9626 60.3379 40.2387L59.5954 40.6722L59.2072 40.9047C59.2008 40.9369 59.1928 40.9691 59.1832 41.0012C59.0729 41.367 58.9655 41.7159 58.8587 42.0554L58.5384 43.0527L57.8907 44.9975L57.8054 45.2726L57.7433 45.4929L57.7019 45.668L57.6956 45.6997C57.6928 45.7141 57.6903 45.7281 57.6881 45.7417L57.6729 45.8673L57.6721 45.9721L57.6831 46.0658C57.7103 46.2198 58.0387 46.5596 58.389 46.6207C58.9787 46.7235 59.8024 46.2613 60.8259 44.8754L63.1017 41.725L64.8924 39.2171L65.9648 37.6942L66.6986 36.6371C66.7551 36.555 66.8105 36.4743 66.8648 36.3952C67.0245 36.1621 67.183 35.7843 67.3369 35.2669L67.4388 34.9013L67.5391 34.4946L67.6376 34.0472L67.7341 33.5594L67.8284 33.0315L67.9202 32.4639L68.0094 31.8569C68.024 31.7525 68.0385 31.6464 68.0529 31.5387L68.1376 30.8732L68.2192 30.1691C68.2234 30.1304 68.2282 30.0935 68.2343 30.0577L68.258 29.9526L68.2814 29.8833L68.3322 29.7768L68.3792 29.7018L68.4386 29.6219L68.5548 29.4891L68.6529 29.3899L68.8354 29.221L69.1535 28.9504L69.8194 28.4217L71.1321 27.4229L72.496 26.399C72.938 26.0678 73.5647 26.1575 73.896 26.5994C74.2272 27.0413 74.1375 27.6681 73.6956 27.9994L71.9053 29.3535L70.9685 30.0792L70.5306 30.4282L70.1691 30.73L70.0673 31.5634C70.0511 31.6901 70.0346 31.8148 70.018 31.9377L69.916 32.6525C69.568 34.9603 69.141 36.5234 68.5941 37.4038L68.5144 37.526L67.8024 38.5558L66.9807 39.7278L65.5427 41.7524L63.2426 44.9482L62.5994 45.8356C61.1133 47.9383 59.5509 48.8535 58.0454 48.5909C56.851 48.3826 55.8845 47.3827 55.7135 46.4131C55.6334 45.9589 55.6461 45.6111 55.7962 45.032L55.8921 44.6912L56.0168 44.2923L56.6039 42.5318L56.4848 42.6072L56.015 42.8921C55.9382 42.9376 55.8616 42.9824 55.7844 43.027C55.3061 43.3031 54.6945 43.1392 54.4184 42.6609Z" fill="#E1000F"/>
<path d="M64.327 19.8266L61.7838 20.9487L61.3 21.1497L61.1037 21.2206C60.9238 21.2784 60.8335 21.3015 60.6715 21.2844L60.5644 21.2693C58.5301 20.9251 56.3979 20.804 54.3889 20.8612L54.0665 20.872L53.4499 20.9022L52.8799 20.9427C52.7894 20.9502 52.7014 20.958 52.6159 20.9662L52.202 21.0109L51.9191 21.0494L51.7829 21.0711C51.7743 21.0709 51.7745 21.0658 51.8062 21.0453L45.4999 24.6851C45.0216 24.9612 44.41 24.7973 44.1338 24.319C43.8774 23.8749 44.0004 23.3159 44.4022 23.0172L44.4999 22.953L50.8492 19.2873C51.0476 19.1727 51.4656 19.0763 52.0393 19.0035L52.4441 18.9584C52.5152 18.9515 52.588 18.9449 52.6625 18.9386L53.1286 18.9046L53.6304 18.8784L54.1635 18.8604C54.2547 18.8581 54.3471 18.8561 54.4405 18.8545L55.0129 18.8493L55.6061 18.8532L56.2161 18.8663L56.8385 18.8892L57.4692 18.922L58.1039 18.9653L58.7386 19.0192L59.3688 19.0842C59.6822 19.1196 59.9924 19.1591 60.2969 19.2032L60.648 19.2569L60.8645 19.1666L63.629 17.9497L63.8995 17.8355L64.1104 17.7507L64.2477 17.7L64.3077 17.6801C64.5267 17.6109 64.6172 17.5914 64.8585 17.6364C65.4014 17.7375 65.7596 18.2596 65.6585 18.8025C65.5573 19.3455 65.0352 19.7037 64.4923 19.6025C64.5597 19.6151 64.6017 19.6272 64.6301 19.6371L64.6858 19.658C64.7049 19.6633 64.7195 19.6595 64.7691 19.6404L64.327 19.8266Z" fill="#E1000F"/>
<path d="M48.9999 27.9994C49.5522 27.9994 49.9999 27.5517 49.9999 26.9994C49.9999 26.4471 49.5522 25.9994 48.9999 25.9994C48.4476 25.9994 47.9999 26.4471 47.9999 26.9994C47.9999 27.5517 48.4476 27.9994 48.9999 27.9994Z" fill="#E1000F"/>
<path d="M41.9949 27.3075C41.8952 25.4638 40.3687 23.9995 38.5001 23.9995C36.5671 23.9995 35.0001 25.5665 35.0001 27.4995V29.3363C34.5455 29.1204 34.0369 28.9995 33.5001 28.9995C31.5671 28.9995 30.0001 30.5665 30.0001 32.4995V47.3845L29.3918 46.6702L28.1697 45.2117L27.5487 44.4823L27.1736 44.0579L26.9585 43.8259L26.7666 43.6299C26.7363 43.6001 26.7067 43.5715 26.6779 43.5442L26.5124 43.3949C26.433 43.3271 26.3583 43.2691 26.2857 43.2187L26.1427 43.1271C26.072 43.0857 26.0018 43.0503 25.9297 43.0187L25.7823 42.9599C24.8571 42.6231 23.5079 42.9602 22.7303 43.8904C21.7501 45.063 21.7616 46.8737 22.8395 49.212L24.3293 52.5339L25.7766 55.7098L26.5425 57.3578L27.0783 58.4893L27.1487 58.6285C27.4886 59.2672 28.1203 60.0289 29.0524 60.9318L29.504 61.3586C29.8193 61.6499 30.1632 61.9548 30.536 62.2739L31.1167 62.7632C31.3175 62.9299 31.5255 63.1002 31.7408 63.2742L31.9994 63.4821L31.9997 66.9997L32.0074 67.1251C32.0691 67.6182 32.4898 67.9997 32.9997 67.9997C33.5519 67.9997 33.9997 67.552 33.9997 66.9997V62.5152L33.3319 61.9867L32.5212 61.3288L32.024 60.9128L31.5615 60.5154L31.134 60.1367L30.7415 59.7772L30.3843 59.437C30.2711 59.3269 30.1638 59.2201 30.0624 59.1166L29.7761 58.8163L29.5254 58.5363L29.3105 58.277C29.1137 58.0281 28.9707 57.8106 28.8824 57.6261L28.4904 56.8001L27.7507 55.2145L26.5344 52.5559L24.5578 48.1562C23.8693 46.5769 23.8809 45.6324 24.2648 45.1732C24.4928 44.9003 24.9513 44.7858 25.0982 44.8393C25.1115 44.8441 25.1284 44.8537 25.1492 44.8684L25.2235 44.9282L25.3226 45.0206L25.6025 45.312L26.0023 45.7591L26.5354 46.3787L27.8695 47.9675L28.4042 48.5976L28.8892 49.1594L29.3471 49.6779L29.8002 50.178L30.271 50.6846C30.5178 50.9471 30.8729 51.0467 31.2016 50.9792C31.226 50.9742 31.2501 50.9683 31.2739 50.9616C31.6931 50.8425 32.0001 50.4569 32.0001 49.9995V32.4995L32.007 32.3551C32.0796 31.5944 32.7204 30.9995 33.5001 30.9995C34.3285 30.9995 35.0001 31.6711 35.0001 32.4995V44.9995L35.0068 45.1161C35.0646 45.6135 35.4873 45.9995 36.0001 45.9995C36.5524 45.9995 37.0001 45.5518 37.0001 44.9995V27.4995L37.007 27.3551C37.0796 26.5944 37.7204 25.9995 38.5001 25.9995C39.3285 25.9995 40.0001 26.6711 40.0001 27.4995V44.9995L40.0068 45.1161C40.0646 45.6135 40.4873 45.9995 41.0001 45.9995C41.5524 45.9995 42.0001 45.5518 42.0001 44.9995V30.4701L42.0069 30.3289C42.0794 29.5851 42.7179 28.9995 43.5001 28.9995C44.3312 28.9995 45.0001 29.6606 45.0001 30.4701V44.9995L45.0068 45.1161C45.0646 45.6135 45.4873 45.9995 46.0001 45.9995C46.5524 45.9995 47.0001 45.5518 47.0001 44.9995V34.4701L47.0069 34.3289C47.0794 33.5851 47.7179 32.9995 48.5001 32.9995C49.3312 32.9995 50.0001 33.6606 50.0001 34.4701V52.9995L49.9967 53.2905C49.9538 55.1068 49.4913 56.4398 48.1655 58.4487C48.0219 58.6663 47.7756 58.9549 47.4288 59.3153L47.107 59.6419L46.7364 60.0036L46.3663 60.3547L44.9986 61.6193L44.4887 62.1002L44.0001 62.5853V66.9995L44.0068 67.1161C44.0646 67.6135 44.4873 67.9995 45.0001 67.9995L45.1167 67.9928C45.6141 67.935 46.0001 67.5123 46.0001 66.9995V63.4215L46.0994 63.3279L47.7355 61.8125L48.1386 61.43L48.5592 61.0188C49.1505 60.4293 49.5656 59.958 49.8347 59.5504C51.4392 57.1193 52.0001 55.3743 52.0001 52.9995V34.4701L51.9949 34.2794C51.895 32.449 50.3661 30.9995 48.5001 30.9995C47.9636 30.9995 47.4549 31.1193 47.0001 31.3336V30.4701L46.9949 30.2794C46.895 28.449 45.3661 26.9995 43.5001 26.9995C42.9618 26.9995 42.4516 27.1201 41.9957 27.3357L41.9949 27.3075Z" fill="#000091"/>
</svg>
