<svg width="282" height="319" viewBox="0 0 282 319" fill="none" xmlns="http://www.w3.org/2000/svg">
<g clip-path="url(#clip0_7327_16934)">
<path fill-rule="evenodd" clip-rule="evenodd" d="M36.2054 314.599C37.4233 314.599 38.4107 315.584 38.4107 316.799C38.4107 318.014 37.4233 318.999 36.2054 318.999C34.9874 318.999 34 318.014 34 316.799C34 315.584 34.9874 314.599 36.2054 314.599ZM52.378 314.599C53.596 314.599 54.5833 315.584 54.5833 316.799C54.5833 318.014 53.596 318.999 52.378 318.999C51.16 318.999 50.1726 318.014 50.1726 316.799C50.1726 315.584 51.16 314.599 52.378 314.599ZM68.5506 314.599C69.7686 314.599 70.756 315.584 70.756 316.799C70.756 318.014 69.7686 318.999 68.5506 318.999C67.3326 318.999 66.3452 318.014 66.3452 316.799C66.3452 315.584 67.3326 314.599 68.5506 314.599ZM84.7232 314.599C85.9412 314.599 86.9286 315.584 86.9286 316.799C86.9286 318.014 85.9412 318.999 84.7232 318.999C83.5052 318.999 82.5179 318.014 82.5179 316.799C82.5179 315.584 83.5052 314.599 84.7232 314.599ZM100.896 314.599C102.114 314.599 103.101 315.584 103.101 316.799C103.101 318.014 102.114 318.999 100.896 318.999C99.6778 318.999 98.6905 318.014 98.6905 316.799C98.6905 315.584 99.6778 314.599 100.896 314.599ZM117.068 314.599C118.286 314.599 119.274 315.584 119.274 316.799C119.274 318.014 118.286 318.999 117.068 318.999C115.85 318.999 114.863 318.014 114.863 316.799C114.863 315.584 115.85 314.599 117.068 314.599ZM133.241 314.599C134.459 314.599 135.446 315.584 135.446 316.799C135.446 318.014 134.459 318.999 133.241 318.999C132.023 318.999 131.036 318.014 131.036 316.799C131.036 315.584 132.023 314.599 133.241 314.599ZM149.414 314.599C150.632 314.599 151.619 315.584 151.619 316.799C151.619 318.014 150.632 318.999 149.414 318.999C148.196 318.999 147.208 318.014 147.208 316.799C147.208 315.584 148.196 314.599 149.414 314.599ZM165.586 314.599C166.804 314.599 167.792 315.584 167.792 316.799C167.792 318.014 166.804 318.999 165.586 318.999C164.368 318.999 163.381 318.014 163.381 316.799C163.381 315.584 164.368 314.599 165.586 314.599ZM181.759 314.507C182.977 314.507 183.964 315.492 183.964 316.707C183.964 317.922 182.977 318.907 181.759 318.907C180.541 318.907 179.554 317.922 179.554 316.707C179.554 315.492 180.541 314.507 181.759 314.507ZM197.932 314.507C199.15 314.507 200.137 315.492 200.137 316.707C200.137 317.922 199.15 318.907 197.932 318.907C196.714 318.907 195.726 317.922 195.726 316.707C195.726 315.492 196.714 314.507 197.932 314.507ZM214.104 314.507C215.322 314.507 216.31 315.492 216.31 316.707C216.31 317.922 215.322 318.907 214.104 318.907C212.886 318.907 211.899 317.922 211.899 316.707C211.899 315.492 212.886 314.507 214.104 314.507ZM230.277 314.507C231.495 314.507 232.482 315.492 232.482 316.707C232.482 317.922 231.495 318.907 230.277 318.907C229.059 318.907 228.071 317.922 228.071 316.707C228.071 315.492 229.059 314.507 230.277 314.507ZM246.449 314.507C247.667 314.507 248.655 315.492 248.655 316.707C248.655 317.922 247.667 318.907 246.449 318.907C245.231 318.907 244.244 317.922 244.244 316.707C244.244 315.492 245.231 314.507 246.449 314.507ZM262.622 314.507C263.84 314.507 264.827 315.492 264.827 316.707C264.827 317.922 263.84 318.907 262.622 318.907C261.404 318.907 260.417 317.922 260.417 316.707C260.417 315.492 261.404 314.507 262.622 314.507ZM278.795 314.507C280.013 314.507 281 315.492 281 316.707C281 317.922 280.013 318.907 278.795 318.907C277.577 318.907 276.589 317.922 276.589 316.707C276.589 315.492 277.577 314.507 278.795 314.507ZM165.586 298.466C166.804 298.466 167.792 299.451 167.792 300.666C167.792 301.881 166.804 302.866 165.586 302.866C164.368 302.866 163.381 301.881 163.381 300.666C163.381 299.451 164.368 298.466 165.586 298.466ZM181.759 298.374C182.977 298.374 183.964 299.359 183.964 300.574C183.964 301.789 182.977 302.774 181.759 302.774C180.541 302.774 179.554 301.789 179.554 300.574C179.554 299.359 180.541 298.374 181.759 298.374ZM197.932 298.374C199.15 298.374 200.137 299.359 200.137 300.574C200.137 301.789 199.15 302.774 197.932 302.774C196.714 302.774 195.726 301.789 195.726 300.574C195.726 299.359 196.714 298.374 197.932 298.374ZM214.104 298.374C215.322 298.374 216.31 299.359 216.31 300.574C216.31 301.789 215.322 302.774 214.104 302.774C212.886 302.774 211.899 301.789 211.899 300.574C211.899 299.359 212.886 298.374 214.104 298.374ZM36.2054 298.466C37.4233 298.466 38.4107 299.451 38.4107 300.666C38.4107 301.881 37.4233 302.866 36.2054 302.866C34.9874 302.866 34 301.881 34 300.666C34 299.451 34.9874 298.466 36.2054 298.466ZM68.5506 298.466C69.7686 298.466 70.756 299.451 70.756 300.666C70.756 301.881 69.7686 302.866 68.5506 302.866C67.3326 302.866 66.3452 301.881 66.3452 300.666C66.3452 299.451 67.3326 298.466 68.5506 298.466ZM100.896 298.466C102.114 298.466 103.101 299.451 103.101 300.666C103.101 301.881 102.114 302.866 100.896 302.866C99.6778 302.866 98.6905 301.881 98.6905 300.666C98.6905 299.451 99.6778 298.466 100.896 298.466ZM133.241 298.466C134.459 298.466 135.446 299.451 135.446 300.666C135.446 301.881 134.459 302.866 133.241 302.866C132.023 302.866 131.036 301.881 131.036 300.666C131.036 299.451 132.023 298.466 133.241 298.466ZM149.414 298.466C150.632 298.466 151.619 299.451 151.619 300.666C151.619 301.881 150.632 302.866 149.414 302.866C148.196 302.866 147.208 301.881 147.208 300.666C147.208 299.451 148.196 298.466 149.414 298.466ZM246.449 298.374C247.667 298.374 248.655 299.359 248.655 300.574C248.655 301.789 247.667 302.774 246.449 302.774C245.231 302.774 244.244 301.789 244.244 300.574C244.244 299.359 245.231 298.374 246.449 298.374ZM52.378 298.466C53.596 298.466 54.5833 299.451 54.5833 300.666C54.5833 301.881 53.596 302.866 52.378 302.866C51.16 302.866 50.1726 301.881 50.1726 300.666C50.1726 299.451 51.16 298.466 52.378 298.466ZM262.622 298.374C263.84 298.374 264.827 299.359 264.827 300.574C264.827 301.789 263.84 302.774 262.622 302.774C261.404 302.774 260.417 301.789 260.417 300.574C260.417 299.359 261.404 298.374 262.622 298.374ZM84.7232 298.466C85.9412 298.466 86.9286 299.451 86.9286 300.666C86.9286 301.881 85.9412 302.866 84.7232 302.866C83.5052 302.866 82.5179 301.881 82.5179 300.666C82.5179 299.451 83.5052 298.466 84.7232 298.466ZM278.795 298.374C280.013 298.374 281 299.359 281 300.574C281 301.789 280.013 302.774 278.795 302.774C277.577 302.774 276.589 301.789 276.589 300.574C276.589 299.359 277.577 298.374 278.795 298.374ZM117.068 298.466C118.286 298.466 119.274 299.451 119.274 300.666C119.274 301.881 118.286 302.866 117.068 302.866C115.85 302.866 114.863 301.881 114.863 300.666C114.863 299.451 115.85 298.466 117.068 298.466ZM230.277 298.374C231.495 298.374 232.482 299.359 232.482 300.574C232.482 301.789 231.495 302.774 230.277 302.774C229.059 302.774 228.071 301.789 228.071 300.574C228.071 299.359 229.059 298.374 230.277 298.374ZM68.5506 282.333C69.7686 282.333 70.756 283.318 70.756 284.533C70.756 285.748 69.7686 286.733 68.5506 286.733C67.3326 286.733 66.3452 285.748 66.3452 284.533C66.3452 283.318 67.3326 282.333 68.5506 282.333ZM100.896 282.333C102.114 282.333 103.101 283.318 103.101 284.533C103.101 285.748 102.114 286.733 100.896 286.733C99.6778 286.733 98.6905 285.748 98.6905 284.533C98.6905 283.318 99.6778 282.333 100.896 282.333ZM117.068 282.333C118.286 282.333 119.274 283.318 119.274 284.533C119.274 285.748 118.286 286.733 117.068 286.733C115.85 286.733 114.863 285.748 114.863 284.533C114.863 283.318 115.85 282.333 117.068 282.333ZM133.241 282.333C134.459 282.333 135.446 283.318 135.446 284.533C135.446 285.748 134.459 286.733 133.241 286.733C132.023 286.733 131.036 285.748 131.036 284.533C131.036 283.318 132.023 282.333 133.241 282.333ZM149.414 282.333C150.632 282.333 151.619 283.318 151.619 284.533C151.619 285.748 150.632 286.733 149.414 286.733C148.196 286.733 147.208 285.748 147.208 284.533C147.208 283.318 148.196 282.333 149.414 282.333ZM36.2054 282.333C37.4233 282.333 38.4107 283.318 38.4107 284.533C38.4107 285.748 37.4233 286.733 36.2054 286.733C34.9874 286.733 34 285.748 34 284.533C34 283.318 34.9874 282.333 36.2054 282.333ZM52.378 282.333C53.596 282.333 54.5833 283.318 54.5833 284.533C54.5833 285.748 53.596 286.733 52.378 286.733C51.16 286.733 50.1726 285.748 50.1726 284.533C50.1726 283.318 51.16 282.333 52.378 282.333ZM84.7232 282.333C85.9412 282.333 86.9286 283.318 86.9286 284.533C86.9286 285.748 85.9412 286.733 84.7232 286.733C83.5052 286.733 82.5179 285.748 82.5179 284.533C82.5179 283.318 83.5052 282.333 84.7232 282.333ZM165.586 282.333C166.804 282.333 167.792 283.318 167.792 284.533C167.792 285.748 166.804 286.733 165.586 286.733C164.368 286.733 163.381 285.748 163.381 284.533C163.381 283.318 164.368 282.333 165.586 282.333ZM181.759 282.24C182.977 282.24 183.964 283.225 183.964 284.44C183.964 285.655 182.977 286.64 181.759 286.64C180.541 286.64 179.554 285.655 179.554 284.44C179.554 283.225 180.541 282.24 181.759 282.24ZM197.932 282.24C199.15 282.24 200.137 283.225 200.137 284.44C200.137 285.655 199.15 286.64 197.932 286.64C196.714 286.64 195.726 285.655 195.726 284.44C195.726 283.225 196.714 282.24 197.932 282.24ZM214.104 282.24C215.322 282.24 216.31 283.225 216.31 284.44C216.31 285.655 215.322 286.64 214.104 286.64C212.886 286.64 211.899 285.655 211.899 284.44C211.899 283.225 212.886 282.24 214.104 282.24ZM230.277 282.24C231.495 282.24 232.482 283.225 232.482 284.44C232.482 285.655 231.495 286.64 230.277 286.64C229.059 286.64 228.071 285.655 228.071 284.44C228.071 283.225 229.059 282.24 230.277 282.24ZM246.449 282.24C247.667 282.24 248.655 283.225 248.655 284.44C248.655 285.655 247.667 286.64 246.449 286.64C245.231 286.64 244.244 285.655 244.244 284.44C244.244 283.225 245.231 282.24 246.449 282.24ZM262.622 282.24C263.84 282.24 264.827 283.225 264.827 284.44C264.827 285.655 263.84 286.64 262.622 286.64C261.404 286.64 260.417 285.655 260.417 284.44C260.417 283.225 261.404 282.24 262.622 282.24ZM278.795 282.24C280.013 282.24 281 283.225 281 284.44C281 285.655 280.013 286.64 278.795 286.64C277.577 286.64 276.589 285.655 276.589 284.44C276.589 283.225 277.577 282.24 278.795 282.24ZM36.2054 266.199C37.4233 266.199 38.4107 267.184 38.4107 268.399C38.4107 269.614 37.4233 270.599 36.2054 270.599C34.9874 270.599 34 269.614 34 268.399C34 267.184 34.9874 266.199 36.2054 266.199ZM52.378 266.199C53.596 266.199 54.5833 267.184 54.5833 268.399C54.5833 269.614 53.596 270.599 52.378 270.599C51.16 270.599 50.1726 269.614 50.1726 268.399C50.1726 267.184 51.16 266.199 52.378 266.199ZM68.5506 266.199C69.7686 266.199 70.756 267.184 70.756 268.399C70.756 269.614 69.7686 270.599 68.5506 270.599C67.3326 270.599 66.3452 269.614 66.3452 268.399C66.3452 267.184 67.3326 266.199 68.5506 266.199ZM84.7232 266.199C85.9412 266.199 86.9286 267.184 86.9286 268.399C86.9286 269.614 85.9412 270.599 84.7232 270.599C83.5052 270.599 82.5179 269.614 82.5179 268.399C82.5179 267.184 83.5052 266.199 84.7232 266.199ZM100.896 266.199C102.114 266.199 103.101 267.184 103.101 268.399C103.101 269.614 102.114 270.599 100.896 270.599C99.6778 270.599 98.6905 269.614 98.6905 268.399C98.6905 267.184 99.6778 266.199 100.896 266.199ZM117.068 266.199C118.286 266.199 119.274 267.184 119.274 268.399C119.274 269.614 118.286 270.599 117.068 270.599C115.85 270.599 114.863 269.614 114.863 268.399C114.863 267.184 115.85 266.199 117.068 266.199ZM133.241 266.199C134.459 266.199 135.446 267.184 135.446 268.399C135.446 269.614 134.459 270.599 133.241 270.599C132.023 270.599 131.036 269.614 131.036 268.399C131.036 267.184 132.023 266.199 133.241 266.199ZM149.414 266.199C150.632 266.199 151.619 267.184 151.619 268.399C151.619 269.614 150.632 270.599 149.414 270.599C148.196 270.599 147.208 269.614 147.208 268.399C147.208 267.184 148.196 266.199 149.414 266.199ZM165.586 266.199C166.804 266.199 167.792 267.184 167.792 268.399C167.792 269.614 166.804 270.599 165.586 270.599C164.368 270.599 163.381 269.614 163.381 268.399C163.381 267.184 164.368 266.199 165.586 266.199ZM181.759 266.107C182.977 266.107 183.964 267.092 183.964 268.307C183.964 269.522 182.977 270.507 181.759 270.507C180.541 270.507 179.554 269.522 179.554 268.307C179.554 267.092 180.541 266.107 181.759 266.107ZM197.932 266.107C199.15 266.107 200.137 267.092 200.137 268.307C200.137 269.522 199.15 270.507 197.932 270.507C196.714 270.507 195.726 269.522 195.726 268.307C195.726 267.092 196.714 266.107 197.932 266.107ZM214.104 266.107C215.322 266.107 216.31 267.092 216.31 268.307C216.31 269.522 215.322 270.507 214.104 270.507C212.886 270.507 211.899 269.522 211.899 268.307C211.899 267.092 212.886 266.107 214.104 266.107ZM230.277 266.107C231.495 266.107 232.482 267.092 232.482 268.307C232.482 269.522 231.495 270.507 230.277 270.507C229.059 270.507 228.071 269.522 228.071 268.307C228.071 267.092 229.059 266.107 230.277 266.107ZM246.449 266.107C247.667 266.107 248.655 267.092 248.655 268.307C248.655 269.522 247.667 270.507 246.449 270.507C245.231 270.507 244.244 269.522 244.244 268.307C244.244 267.092 245.231 266.107 246.449 266.107ZM262.622 266.107C263.84 266.107 264.827 267.092 264.827 268.307C264.827 269.522 263.84 270.507 262.622 270.507C261.404 270.507 260.417 269.522 260.417 268.307C260.417 267.092 261.404 266.107 262.622 266.107ZM278.795 266.107C280.013 266.107 281 267.092 281 268.307C281 269.522 280.013 270.507 278.795 270.507C277.577 270.507 276.589 269.522 276.589 268.307C276.589 267.092 277.577 266.107 278.795 266.107ZM36.2054 250.066C37.4233 250.066 38.4107 251.051 38.4107 252.266C38.4107 253.481 37.4233 254.466 36.2054 254.466C34.9874 254.466 34 253.481 34 252.266C34 251.051 34.9874 250.066 36.2054 250.066ZM52.378 250.066C53.596 250.066 54.5833 251.051 54.5833 252.266C54.5833 253.481 53.596 254.466 52.378 254.466C51.16 254.466 50.1726 253.481 50.1726 252.266C50.1726 251.051 51.16 250.066 52.378 250.066ZM68.5506 250.066C69.7686 250.066 70.756 251.051 70.756 252.266C70.756 253.481 69.7686 254.466 68.5506 254.466C67.3326 254.466 66.3452 253.481 66.3452 252.266C66.3452 251.051 67.3326 250.066 68.5506 250.066ZM84.7232 250.066C85.9412 250.066 86.9286 251.051 86.9286 252.266C86.9286 253.481 85.9412 254.466 84.7232 254.466C83.5052 254.466 82.5179 253.481 82.5179 252.266C82.5179 251.051 83.5052 250.066 84.7232 250.066ZM100.896 250.066C102.114 250.066 103.101 251.051 103.101 252.266C103.101 253.481 102.114 254.466 100.896 254.466C99.6778 254.466 98.6905 253.481 98.6905 252.266C98.6905 251.051 99.6778 250.066 100.896 250.066ZM117.068 250.066C118.286 250.066 119.274 251.051 119.274 252.266C119.274 253.481 118.286 254.466 117.068 254.466C115.85 254.466 114.863 253.481 114.863 252.266C114.863 251.051 115.85 250.066 117.068 250.066ZM133.241 250.066C134.459 250.066 135.446 251.051 135.446 252.266C135.446 253.481 134.459 254.466 133.241 254.466C132.023 254.466 131.036 253.481 131.036 252.266C131.036 251.051 132.023 250.066 133.241 250.066ZM149.414 250.066C150.632 250.066 151.619 251.051 151.619 252.266C151.619 253.481 150.632 254.466 149.414 254.466C148.196 254.466 147.208 253.481 147.208 252.266C147.208 251.051 148.196 250.066 149.414 250.066ZM165.586 250.066C166.804 250.066 167.792 251.051 167.792 252.266C167.792 253.481 166.804 254.466 165.586 254.466C164.368 254.466 163.381 253.481 163.381 252.266C163.381 251.051 164.368 250.066 165.586 250.066ZM78.8423 2.19927C78.8423 3.41429 77.8549 4.39927 76.6369 4.39927C75.4189 4.39927 74.4315 3.41429 74.4315 2.19927C74.4315 0.984241 75.4189 -0.000732422 76.6369 -0.000732422C77.8549 -0.000732422 78.8423 0.984241 78.8423 2.19927ZM78.8423 18.3326C78.8423 19.5476 77.8549 20.5326 76.6369 20.5326C75.4189 20.5326 74.4315 19.5476 74.4315 18.3326C74.4315 17.1176 75.4189 16.1326 76.6369 16.1326C77.8549 16.1326 78.8423 17.1176 78.8423 18.3326ZM78.8423 34.4659C78.8423 35.681 77.8549 36.6659 76.6369 36.6659C75.4189 36.6659 74.4315 35.681 74.4315 34.4659C74.4315 33.2509 75.4189 32.2659 76.6369 32.2659C77.8549 32.2659 78.8423 33.2509 78.8423 34.4659ZM78.8423 50.5993C78.8423 51.8143 77.8549 52.7993 76.6369 52.7993C75.4189 52.7993 74.4315 51.8143 74.4315 50.5993C74.4315 49.3842 75.4189 48.3993 76.6369 48.3993C77.8549 48.3993 78.8423 49.3842 78.8423 50.5993ZM78.8423 66.7326C78.8423 67.9476 77.8549 68.9326 76.6369 68.9326C75.4189 68.9326 74.4315 67.9476 74.4315 66.7326C74.4315 65.5176 75.4189 64.5326 76.6369 64.5326C77.8549 64.5326 78.8423 65.5176 78.8423 66.7326ZM78.8423 82.8659C78.8423 84.081 77.8549 85.0659 76.6369 85.0659C75.4189 85.0659 74.4315 84.081 74.4315 82.8659C74.4315 81.6509 75.4189 80.6659 76.6369 80.6659C77.8549 80.6659 78.8423 81.6509 78.8423 82.8659ZM78.8423 98.9993C78.8423 100.214 77.8549 101.199 76.6369 101.199C75.4189 101.199 74.4315 100.214 74.4315 98.9993C74.4315 97.7842 75.4189 96.7993 76.6369 96.7993C77.8549 96.7993 78.8423 97.7842 78.8423 98.9993ZM78.8423 115.133C78.8423 116.348 77.8549 117.333 76.6369 117.333C75.4189 117.333 74.4315 116.348 74.4315 115.133C74.4315 113.918 75.4189 112.933 76.6369 112.933C77.8549 112.933 78.8423 113.918 78.8423 115.133ZM78.8423 131.266C78.8423 132.481 77.8549 133.466 76.6369 133.466C75.4189 133.466 74.4315 132.481 74.4315 131.266C74.4315 130.051 75.4189 129.066 76.6369 129.066C77.8549 129.066 78.8423 130.051 78.8423 131.266ZM78.8423 147.399C78.8423 148.614 77.8549 149.599 76.6369 149.599C75.4189 149.599 74.4315 148.614 74.4315 147.399C74.4315 146.184 75.4189 145.199 76.6369 145.199C77.8549 145.199 78.8423 146.184 78.8423 147.399ZM78.8423 163.533C78.8423 164.748 77.8549 165.733 76.6369 165.733C75.4189 165.733 74.4315 164.748 74.4315 163.533C74.4315 162.318 75.4189 161.333 76.6369 161.333C77.8549 161.333 78.8423 162.318 78.8423 163.533ZM78.8423 179.666C78.8423 180.881 77.8549 181.866 76.6369 181.866C75.4189 181.866 74.4315 180.881 74.4315 179.666C74.4315 178.451 75.4189 177.466 76.6369 177.466C77.8549 177.466 78.8423 178.451 78.8423 179.666ZM78.8423 195.799C78.8423 197.014 77.8549 197.999 76.6369 197.999C75.4189 197.999 74.4315 197.014 74.4315 195.799C74.4315 194.584 75.4189 193.599 76.6369 193.599C77.8549 193.599 78.8423 194.584 78.8423 195.799ZM78.8423 211.933C78.8423 213.148 77.8549 214.133 76.6369 214.133C75.4189 214.133 74.4315 213.148 74.4315 211.933C74.4315 210.718 75.4189 209.733 76.6369 209.733C77.8549 209.733 78.8423 210.718 78.8423 211.933ZM95.0149 98.9993C95.0149 100.214 94.0275 101.199 92.8095 101.199C91.5915 101.199 90.6042 100.214 90.6042 98.9993C90.6042 97.7842 91.5915 96.7993 92.8095 96.7993C94.0275 96.7993 95.0149 97.7842 95.0149 98.9993ZM95.0149 115.133C95.0149 116.348 94.0275 117.333 92.8095 117.333C91.5915 117.333 90.6042 116.348 90.6042 115.133C90.6042 113.918 91.5915 112.933 92.8095 112.933C94.0275 112.933 95.0149 113.918 95.0149 115.133ZM95.0149 131.266C95.0149 132.481 94.0275 133.466 92.8095 133.466C91.5915 133.466 90.6042 132.481 90.6042 131.266C90.6042 130.051 91.5915 129.066 92.8095 129.066C94.0275 129.066 95.0149 130.051 95.0149 131.266ZM95.0149 147.399C95.0149 148.614 94.0275 149.599 92.8095 149.599C91.5915 149.599 90.6042 148.614 90.6042 147.399C90.6042 146.184 91.5915 145.199 92.8095 145.199C94.0275 145.199 95.0149 146.184 95.0149 147.399ZM95.0149 2.19927C95.0149 3.41429 94.0275 4.39927 92.8095 4.39927C91.5915 4.39927 90.6042 3.41429 90.6042 2.19927C90.6042 0.984241 91.5915 -0.000732422 92.8095 -0.000732422C94.0275 -0.000732422 95.0149 0.984241 95.0149 2.19927ZM95.0149 34.4659C95.0149 35.681 94.0275 36.6659 92.8095 36.6659C91.5915 36.6659 90.6042 35.681 90.6042 34.4659C90.6042 33.2509 91.5915 32.2659 92.8095 32.2659C94.0275 32.2659 95.0149 33.2509 95.0149 34.4659ZM95.0149 66.7326C95.0149 67.9476 94.0275 68.9326 92.8095 68.9326C91.5915 68.9326 90.6042 67.9476 90.6042 66.7326C90.6042 65.5176 91.5915 64.5326 92.8095 64.5326C94.0275 64.5326 95.0149 65.5176 95.0149 66.7326ZM95.0149 82.8659C95.0149 84.081 94.0275 85.0659 92.8095 85.0659C91.5915 85.0659 90.6042 84.081 90.6042 82.8659C90.6042 81.6509 91.5915 80.6659 92.8095 80.6659C94.0275 80.6659 95.0149 81.6509 95.0149 82.8659ZM95.0149 179.666C95.0149 180.881 94.0275 181.866 92.8095 181.866C91.5915 181.866 90.6042 180.881 90.6042 179.666C90.6042 178.451 91.5915 177.466 92.8095 177.466C94.0275 177.466 95.0149 178.451 95.0149 179.666ZM95.0149 195.799C95.0149 197.014 94.0275 197.999 92.8095 197.999C91.5915 197.999 90.6042 197.014 90.6042 195.799C90.6042 194.584 91.5915 193.599 92.8095 193.599C94.0275 193.599 95.0149 194.584 95.0149 195.799ZM95.0149 18.3326C95.0149 19.5476 94.0275 20.5326 92.8095 20.5326C91.5915 20.5326 90.6042 19.5476 90.6042 18.3326C90.6042 17.1176 91.5915 16.1326 92.8095 16.1326C94.0275 16.1326 95.0149 17.1176 95.0149 18.3326ZM95.0149 211.933C95.0149 213.148 94.0275 214.133 92.8095 214.133C91.5915 214.133 90.6042 213.148 90.6042 211.933C90.6042 210.718 91.5915 209.733 92.8095 209.733C94.0275 209.733 95.0149 210.718 95.0149 211.933ZM95.0149 50.5993C95.0149 51.8143 94.0275 52.7993 92.8095 52.7993C91.5915 52.7993 90.6042 51.8143 90.6042 50.5993C90.6042 49.3842 91.5915 48.3993 92.8095 48.3993C94.0275 48.3993 95.0149 49.3842 95.0149 50.5993ZM95.0149 163.533C95.0149 164.748 94.0275 165.733 92.8095 165.733C91.5915 165.733 90.6042 164.748 90.6042 163.533C90.6042 162.318 91.5915 161.333 92.8095 161.333C94.0275 161.333 95.0149 162.318 95.0149 163.533ZM111.188 2.19927C111.188 3.41429 110.2 4.39927 108.982 4.39927C107.764 4.39927 106.777 3.41429 106.777 2.19927C106.777 0.984241 107.764 -0.000732422 108.982 -0.000732422C110.2 -0.000732422 111.188 0.984241 111.188 2.19927ZM111.188 34.4659C111.188 35.681 110.2 36.6659 108.982 36.6659C107.764 36.6659 106.777 35.681 106.777 34.4659C106.777 33.2509 107.764 32.2659 108.982 32.2659C110.2 32.2659 111.188 33.2509 111.188 34.4659ZM111.188 50.5993C111.188 51.8143 110.2 52.7993 108.982 52.7993C107.764 52.7993 106.777 51.8143 106.777 50.5993C106.777 49.3842 107.764 48.3993 108.982 48.3993C110.2 48.3993 111.188 49.3842 111.188 50.5993ZM111.188 66.7326C111.188 67.9476 110.2 68.9326 108.982 68.9326C107.764 68.9326 106.777 67.9476 106.777 66.7326C106.777 65.5176 107.764 64.5326 108.982 64.5326C110.2 64.5326 111.188 65.5176 111.188 66.7326ZM111.188 82.8659C111.188 84.081 110.2 85.0659 108.982 85.0659C107.764 85.0659 106.777 84.081 106.777 82.8659C106.777 81.6509 107.764 80.6659 108.982 80.6659C110.2 80.6659 111.188 81.6509 111.188 82.8659ZM111.188 18.3326C111.188 19.5476 110.2 20.5326 108.982 20.5326C107.764 20.5326 106.777 19.5476 106.777 18.3326C106.777 17.1176 107.764 16.1326 108.982 16.1326C110.2 16.1326 111.188 17.1176 111.188 18.3326ZM111.188 98.9993C111.188 100.214 110.2 101.199 108.982 101.199C107.764 101.199 106.777 100.214 106.777 98.9993C106.777 97.7842 107.764 96.7993 108.982 96.7993C110.2 96.7993 111.188 97.7842 111.188 98.9993ZM111.188 115.133C111.188 116.348 110.2 117.333 108.982 117.333C107.764 117.333 106.777 116.348 106.777 115.133C106.777 113.918 107.764 112.933 108.982 112.933C110.2 112.933 111.188 113.918 111.188 115.133ZM111.188 131.266C111.188 132.481 110.2 133.466 108.982 133.466C107.764 133.466 106.777 132.481 106.777 131.266C106.777 130.051 107.764 129.066 108.982 129.066C110.2 129.066 111.188 130.051 111.188 131.266ZM111.188 147.399C111.188 148.614 110.2 149.599 108.982 149.599C107.764 149.599 106.777 148.614 106.777 147.399C106.777 146.184 107.764 145.199 108.982 145.199C110.2 145.199 111.188 146.184 111.188 147.399ZM111.188 163.533C111.188 164.748 110.2 165.733 108.982 165.733C107.764 165.733 106.777 164.748 106.777 163.533C106.777 162.318 107.764 161.333 108.982 161.333C110.2 161.333 111.188 162.318 111.188 163.533ZM111.188 179.666C111.188 180.881 110.2 181.866 108.982 181.866C107.764 181.866 106.777 180.881 106.777 179.666C106.777 178.451 107.764 177.466 108.982 177.466C110.2 177.466 111.188 178.451 111.188 179.666ZM111.188 195.799C111.188 197.014 110.2 197.999 108.982 197.999C107.764 197.999 106.777 197.014 106.777 195.799C106.777 194.584 107.764 193.599 108.982 193.599C110.2 193.599 111.188 194.584 111.188 195.799ZM111.188 211.933C111.188 213.148 110.2 214.133 108.982 214.133C107.764 214.133 106.777 213.148 106.777 211.933C106.777 210.718 107.764 209.733 108.982 209.733C110.2 209.733 111.188 210.718 111.188 211.933ZM127.36 2.19927C127.36 3.41429 126.373 4.39927 125.155 4.39927C123.937 4.39927 122.949 3.41429 122.949 2.19927C122.949 0.984241 123.937 -0.000732422 125.155 -0.000732422C126.373 -0.000732422 127.36 0.984241 127.36 2.19927ZM127.36 18.3326C127.36 19.5476 126.373 20.5326 125.155 20.5326C123.937 20.5326 122.949 19.5476 122.949 18.3326C122.949 17.1176 123.937 16.1326 125.155 16.1326C126.373 16.1326 127.36 17.1176 127.36 18.3326ZM127.36 34.4659C127.36 35.681 126.373 36.6659 125.155 36.6659C123.937 36.6659 122.949 35.681 122.949 34.4659C122.949 33.2509 123.937 32.2659 125.155 32.2659C126.373 32.2659 127.36 33.2509 127.36 34.4659ZM127.36 50.5993C127.36 51.8143 126.373 52.7993 125.155 52.7993C123.937 52.7993 122.949 51.8143 122.949 50.5993C122.949 49.3842 123.937 48.3993 125.155 48.3993C126.373 48.3993 127.36 49.3842 127.36 50.5993ZM127.36 66.7326C127.36 67.9476 126.373 68.9326 125.155 68.9326C123.937 68.9326 122.949 67.9476 122.949 66.7326C122.949 65.5176 123.937 64.5326 125.155 64.5326C126.373 64.5326 127.36 65.5176 127.36 66.7326ZM127.36 82.8659C127.36 84.081 126.373 85.0659 125.155 85.0659C123.937 85.0659 122.949 84.081 122.949 82.8659C122.949 81.6509 123.937 80.6659 125.155 80.6659C126.373 80.6659 127.36 81.6509 127.36 82.8659ZM127.36 98.9993C127.36 100.214 126.373 101.199 125.155 101.199C123.937 101.199 122.949 100.214 122.949 98.9993C122.949 97.7842 123.937 96.7993 125.155 96.7993C126.373 96.7993 127.36 97.7842 127.36 98.9993ZM127.36 115.133C127.36 116.348 126.373 117.333 125.155 117.333C123.937 117.333 122.949 116.348 122.949 115.133C122.949 113.918 123.937 112.933 125.155 112.933C126.373 112.933 127.36 113.918 127.36 115.133ZM127.36 131.266C127.36 132.481 126.373 133.466 125.155 133.466C123.937 133.466 122.949 132.481 122.949 131.266C122.949 130.051 123.937 129.066 125.155 129.066C126.373 129.066 127.36 130.051 127.36 131.266ZM127.36 147.399C127.36 148.614 126.373 149.599 125.155 149.599C123.937 149.599 122.949 148.614 122.949 147.399C122.949 146.184 123.937 145.199 125.155 145.199C126.373 145.199 127.36 146.184 127.36 147.399ZM127.36 163.533C127.36 164.748 126.373 165.733 125.155 165.733C123.937 165.733 122.949 164.748 122.949 163.533C122.949 162.318 123.937 161.333 125.155 161.333C126.373 161.333 127.36 162.318 127.36 163.533ZM127.36 179.666C127.36 180.881 126.373 181.866 125.155 181.866C123.937 181.866 122.949 180.881 122.949 179.666C122.949 178.451 123.937 177.466 125.155 177.466C126.373 177.466 127.36 178.451 127.36 179.666ZM127.36 195.799C127.36 197.014 126.373 197.999 125.155 197.999C123.937 197.999 122.949 197.014 122.949 195.799C122.949 194.584 123.937 193.599 125.155 193.599C126.373 193.599 127.36 194.584 127.36 195.799ZM127.36 211.933C127.36 213.148 126.373 214.133 125.155 214.133C123.937 214.133 122.949 213.148 122.949 211.933C122.949 210.718 123.937 209.733 125.155 209.733C126.373 209.733 127.36 210.718 127.36 211.933ZM143.533 2.19927C143.533 3.41429 142.545 4.39927 141.327 4.39927C140.109 4.39927 139.122 3.41429 139.122 2.19927C139.122 0.984241 140.109 -0.000732422 141.327 -0.000732422C142.545 -0.000732422 143.533 0.984241 143.533 2.19927ZM143.533 18.3326C143.533 19.5476 142.545 20.5326 141.327 20.5326C140.109 20.5326 139.122 19.5476 139.122 18.3326C139.122 17.1176 140.109 16.1326 141.327 16.1326C142.545 16.1326 143.533 17.1176 143.533 18.3326ZM143.533 34.4659C143.533 35.681 142.545 36.6659 141.327 36.6659C140.109 36.6659 139.122 35.681 139.122 34.4659C139.122 33.2509 140.109 32.2659 141.327 32.2659C142.545 32.2659 143.533 33.2509 143.533 34.4659ZM143.533 50.5993C143.533 51.8143 142.545 52.7993 141.327 52.7993C140.109 52.7993 139.122 51.8143 139.122 50.5993C139.122 49.3842 140.109 48.3993 141.327 48.3993C142.545 48.3993 143.533 49.3842 143.533 50.5993ZM143.533 66.7326C143.533 67.9476 142.545 68.9326 141.327 68.9326C140.109 68.9326 139.122 67.9476 139.122 66.7326C139.122 65.5176 140.109 64.5326 141.327 64.5326C142.545 64.5326 143.533 65.5176 143.533 66.7326ZM143.533 82.8659C143.533 84.081 142.545 85.0659 141.327 85.0659C140.109 85.0659 139.122 84.081 139.122 82.8659C139.122 81.6509 140.109 80.6659 141.327 80.6659C142.545 80.6659 143.533 81.6509 143.533 82.8659ZM143.533 98.9993C143.533 100.214 142.545 101.199 141.327 101.199C140.109 101.199 139.122 100.214 139.122 98.9993C139.122 97.7842 140.109 96.7993 141.327 96.7993C142.545 96.7993 143.533 97.7842 143.533 98.9993ZM143.533 115.133C143.533 116.348 142.545 117.333 141.327 117.333C140.109 117.333 139.122 116.348 139.122 115.133C139.122 113.918 140.109 112.933 141.327 112.933C142.545 112.933 143.533 113.918 143.533 115.133ZM143.533 131.266C143.533 132.481 142.545 133.466 141.327 133.466C140.109 133.466 139.122 132.481 139.122 131.266C139.122 130.051 140.109 129.066 141.327 129.066C142.545 129.066 143.533 130.051 143.533 131.266ZM143.533 147.399C143.533 148.614 142.545 149.599 141.327 149.599C140.109 149.599 139.122 148.614 139.122 147.399C139.122 146.184 140.109 145.199 141.327 145.199C142.545 145.199 143.533 146.184 143.533 147.399ZM143.533 163.533C143.533 164.748 142.545 165.733 141.327 165.733C140.109 165.733 139.122 164.748 139.122 163.533C139.122 162.318 140.109 161.333 141.327 161.333C142.545 161.333 143.533 162.318 143.533 163.533ZM143.533 179.666C143.533 180.881 142.545 181.866 141.327 181.866C140.109 181.866 139.122 180.881 139.122 179.666C139.122 178.451 140.109 177.466 141.327 177.466C142.545 177.466 143.533 178.451 143.533 179.666ZM143.533 195.799C143.533 197.014 142.545 197.999 141.327 197.999C140.109 197.999 139.122 197.014 139.122 195.799C139.122 194.584 140.109 193.599 141.327 193.599C142.545 193.599 143.533 194.584 143.533 195.799ZM143.533 211.933C143.533 213.148 142.545 214.133 141.327 214.133C140.109 214.133 139.122 213.148 139.122 211.933C139.122 210.718 140.109 209.733 141.327 209.733C142.545 209.733 143.533 210.718 143.533 211.933ZM159.705 2.19927C159.705 3.41429 158.718 4.39927 157.5 4.39927C156.282 4.39927 155.295 3.41429 155.295 2.19927C155.295 0.984241 156.282 -0.000732422 157.5 -0.000732422C158.718 -0.000732422 159.705 0.984241 159.705 2.19927ZM159.705 18.3326C159.705 19.5476 158.718 20.5326 157.5 20.5326C156.282 20.5326 155.295 19.5476 155.295 18.3326C155.295 17.1176 156.282 16.1326 157.5 16.1326C158.718 16.1326 159.705 17.1176 159.705 18.3326ZM159.705 34.4659C159.705 35.681 158.718 36.6659 157.5 36.6659C156.282 36.6659 155.295 35.681 155.295 34.4659C155.295 33.2509 156.282 32.2659 157.5 32.2659C158.718 32.2659 159.705 33.2509 159.705 34.4659ZM159.705 50.5993C159.705 51.8143 158.718 52.7993 157.5 52.7993C156.282 52.7993 155.295 51.8143 155.295 50.5993C155.295 49.3842 156.282 48.3993 157.5 48.3993C158.718 48.3993 159.705 49.3842 159.705 50.5993ZM159.705 66.7326C159.705 67.9476 158.718 68.9326 157.5 68.9326C156.282 68.9326 155.295 67.9476 155.295 66.7326C155.295 65.5176 156.282 64.5326 157.5 64.5326C158.718 64.5326 159.705 65.5176 159.705 66.7326ZM159.705 82.8659C159.705 84.081 158.718 85.0659 157.5 85.0659C156.282 85.0659 155.295 84.081 155.295 82.8659C155.295 81.6509 156.282 80.6659 157.5 80.6659C158.718 80.6659 159.705 81.6509 159.705 82.8659ZM159.705 98.9993C159.705 100.214 158.718 101.199 157.5 101.199C156.282 101.199 155.295 100.214 155.295 98.9993C155.295 97.7842 156.282 96.7993 157.5 96.7993C158.718 96.7993 159.705 97.7842 159.705 98.9993ZM159.705 115.133C159.705 116.348 158.718 117.333 157.5 117.333C156.282 117.333 155.295 116.348 155.295 115.133C155.295 113.918 156.282 112.933 157.5 112.933C158.718 112.933 159.705 113.918 159.705 115.133ZM159.705 131.266C159.705 132.481 158.718 133.466 157.5 133.466C156.282 133.466 155.295 132.481 155.295 131.266C155.295 130.051 156.282 129.066 157.5 129.066C158.718 129.066 159.705 130.051 159.705 131.266ZM159.705 147.399C159.705 148.614 158.718 149.599 157.5 149.599C156.282 149.599 155.295 148.614 155.295 147.399C155.295 146.184 156.282 145.199 157.5 145.199C158.718 145.199 159.705 146.184 159.705 147.399ZM159.705 163.533C159.705 164.748 158.718 165.733 157.5 165.733C156.282 165.733 155.295 164.748 155.295 163.533C155.295 162.318 156.282 161.333 157.5 161.333C158.718 161.333 159.705 162.318 159.705 163.533ZM159.705 179.666C159.705 180.881 158.718 181.866 157.5 181.866C156.282 181.866 155.295 180.881 155.295 179.666C155.295 178.451 156.282 177.466 157.5 177.466C158.718 177.466 159.705 178.451 159.705 179.666ZM159.705 195.799C159.705 197.014 158.718 197.999 157.5 197.999C156.282 197.999 155.295 197.014 155.295 195.799C155.295 194.584 156.282 193.599 157.5 193.599C158.718 193.599 159.705 194.584 159.705 195.799ZM159.705 211.933C159.705 213.148 158.718 214.133 157.5 214.133C156.282 214.133 155.295 213.148 155.295 211.933C155.295 210.718 156.282 209.733 157.5 209.733C158.718 209.733 159.705 210.718 159.705 211.933ZM175.878 2.19927C175.878 3.41429 174.891 4.39927 173.673 4.39927C172.455 4.39927 171.467 3.41429 171.467 2.19927C171.467 0.984241 172.455 -0.000732422 173.673 -0.000732422C174.891 -0.000732422 175.878 0.984241 175.878 2.19927ZM175.878 18.3326C175.878 19.5476 174.891 20.5326 173.673 20.5326C172.455 20.5326 171.467 19.5476 171.467 18.3326C171.467 17.1176 172.455 16.1326 173.673 16.1326C174.891 16.1326 175.878 17.1176 175.878 18.3326ZM175.878 34.4659C175.878 35.681 174.891 36.6659 173.673 36.6659C172.455 36.6659 171.467 35.681 171.467 34.4659C171.467 33.2509 172.455 32.2659 173.673 32.2659C174.891 32.2659 175.878 33.2509 175.878 34.4659ZM175.878 50.5993C175.878 51.8143 174.891 52.7993 173.673 52.7993C172.455 52.7993 171.467 51.8143 171.467 50.5993C171.467 49.3842 172.455 48.3993 173.673 48.3993C174.891 48.3993 175.878 49.3842 175.878 50.5993ZM175.878 66.7326C175.878 67.9476 174.891 68.9326 173.673 68.9326C172.455 68.9326 171.467 67.9476 171.467 66.7326C171.467 65.5176 172.455 64.5326 173.673 64.5326C174.891 64.5326 175.878 65.5176 175.878 66.7326ZM175.878 82.8659C175.878 84.081 174.891 85.0659 173.673 85.0659C172.455 85.0659 171.467 84.081 171.467 82.8659C171.467 81.6509 172.455 80.6659 173.673 80.6659C174.891 80.6659 175.878 81.6509 175.878 82.8659ZM175.878 98.9993C175.878 100.214 174.891 101.199 173.673 101.199C172.455 101.199 171.467 100.214 171.467 98.9993C171.467 97.7842 172.455 96.7993 173.673 96.7993C174.891 96.7993 175.878 97.7842 175.878 98.9993ZM175.878 115.133C175.878 116.348 174.891 117.333 173.673 117.333C172.455 117.333 171.467 116.348 171.467 115.133C171.467 113.918 172.455 112.933 173.673 112.933C174.891 112.933 175.878 113.918 175.878 115.133ZM175.878 131.266C175.878 132.481 174.891 133.466 173.673 133.466C172.455 133.466 171.467 132.481 171.467 131.266C171.467 130.051 172.455 129.066 173.673 129.066C174.891 129.066 175.878 130.051 175.878 131.266ZM175.878 147.399C175.878 148.614 174.891 149.599 173.673 149.599C172.455 149.599 171.467 148.614 171.467 147.399C171.467 146.184 172.455 145.199 173.673 145.199C174.891 145.199 175.878 146.184 175.878 147.399ZM175.878 163.533C175.878 164.748 174.891 165.733 173.673 165.733C172.455 165.733 171.467 164.748 171.467 163.533C171.467 162.318 172.455 161.333 173.673 161.333C174.891 161.333 175.878 162.318 175.878 163.533ZM175.878 179.666C175.878 180.881 174.891 181.866 173.673 181.866C172.455 181.866 171.467 180.881 171.467 179.666C171.467 178.451 172.455 177.466 173.673 177.466C174.891 177.466 175.878 178.451 175.878 179.666ZM175.878 195.799C175.878 197.014 174.891 197.999 173.673 197.999C172.455 197.999 171.467 197.014 171.467 195.799C171.467 194.584 172.455 193.599 173.673 193.599C174.891 193.599 175.878 194.584 175.878 195.799ZM175.878 211.933C175.878 213.148 174.891 214.133 173.673 214.133C172.455 214.133 171.467 213.148 171.467 211.933C171.467 210.718 172.455 209.733 173.673 209.733C174.891 209.733 175.878 210.718 175.878 211.933ZM192.051 2.19927C192.051 3.41429 191.063 4.39927 189.845 4.39927C188.627 4.39927 187.64 3.41429 187.64 2.19927C187.64 0.984241 188.627 -0.000732422 189.845 -0.000732422C191.063 -0.000732422 192.051 0.984241 192.051 2.19927ZM192.051 18.3326C192.051 19.5476 191.063 20.5326 189.845 20.5326C188.627 20.5326 187.64 19.5476 187.64 18.3326C187.64 17.1176 188.627 16.1326 189.845 16.1326C191.063 16.1326 192.051 17.1176 192.051 18.3326ZM192.051 34.4659C192.051 35.681 191.063 36.6659 189.845 36.6659C188.627 36.6659 187.64 35.681 187.64 34.4659C187.64 33.2509 188.627 32.2659 189.845 32.2659C191.063 32.2659 192.051 33.2509 192.051 34.4659ZM192.051 50.5993C192.051 51.8143 191.063 52.7993 189.845 52.7993C188.627 52.7993 187.64 51.8143 187.64 50.5993C187.64 49.3842 188.627 48.3993 189.845 48.3993C191.063 48.3993 192.051 49.3842 192.051 50.5993ZM192.051 66.7326C192.051 67.9476 191.063 68.9326 189.845 68.9326C188.627 68.9326 187.64 67.9476 187.64 66.7326C187.64 65.5176 188.627 64.5326 189.845 64.5326C191.063 64.5326 192.051 65.5176 192.051 66.7326ZM192.051 82.8659C192.051 84.081 191.063 85.0659 189.845 85.0659C188.627 85.0659 187.64 84.081 187.64 82.8659C187.64 81.6509 188.627 80.6659 189.845 80.6659C191.063 80.6659 192.051 81.6509 192.051 82.8659ZM192.051 98.9993C192.051 100.214 191.063 101.199 189.845 101.199C188.627 101.199 187.64 100.214 187.64 98.9993C187.64 97.7842 188.627 96.7993 189.845 96.7993C191.063 96.7993 192.051 97.7842 192.051 98.9993ZM192.051 115.133C192.051 116.348 191.063 117.333 189.845 117.333C188.627 117.333 187.64 116.348 187.64 115.133C187.64 113.918 188.627 112.933 189.845 112.933C191.063 112.933 192.051 113.918 192.051 115.133ZM192.051 131.266C192.051 132.481 191.063 133.466 189.845 133.466C188.627 133.466 187.64 132.481 187.64 131.266C187.64 130.051 188.627 129.066 189.845 129.066C191.063 129.066 192.051 130.051 192.051 131.266ZM192.051 147.399C192.051 148.614 191.063 149.599 189.845 149.599C188.627 149.599 187.64 148.614 187.64 147.399C187.64 146.184 188.627 145.199 189.845 145.199C191.063 145.199 192.051 146.184 192.051 147.399ZM192.051 163.533C192.051 164.748 191.063 165.733 189.845 165.733C188.627 165.733 187.64 164.748 187.64 163.533C187.64 162.318 188.627 161.333 189.845 161.333C191.063 161.333 192.051 162.318 192.051 163.533ZM192.051 179.666C192.051 180.881 191.063 181.866 189.845 181.866C188.627 181.866 187.64 180.881 187.64 179.666C187.64 178.451 188.627 177.466 189.845 177.466C191.063 177.466 192.051 178.451 192.051 179.666ZM192.051 195.799C192.051 197.014 191.063 197.999 189.845 197.999C188.627 197.999 187.64 197.014 187.64 195.799C187.64 194.584 188.627 193.599 189.845 193.599C191.063 193.599 192.051 194.584 192.051 195.799ZM192.051 211.933C192.051 213.148 191.063 214.133 189.845 214.133C188.627 214.133 187.64 213.148 187.64 211.933C187.64 210.718 188.627 209.733 189.845 209.733C191.063 209.733 192.051 210.718 192.051 211.933Z" fill="#F6F6F6"/>
<path fill-rule="evenodd" clip-rule="evenodd" d="M151.81 58.4183C145.121 54.5269 136.879 54.5269 130.19 58.4183L60.8105 98.7763C54.1209 102.668 50 109.859 50 117.642V198.358C50 206.14 54.1209 213.332 60.8105 217.223L130.19 257.581C136.879 261.473 145.121 261.473 151.81 257.581L221.19 217.223C227.879 213.332 232 206.14 232 198.358V117.642C232 109.859 227.879 102.668 221.19 98.7763L151.81 58.4183Z" fill="#F6F6F6"/>
<path fill-rule="evenodd" clip-rule="evenodd" d="M4.40625 249.671C5.48304 249.671 6.4594 250.11 7.16665 250.818C7.87413 251.527 8.3125 252.506 8.3125 253.585C8.3125 254.664 7.87405 255.643 7.16649 256.352C6.45926 257.06 5.48296 257.499 4.40625 257.499C3.32954 257.499 2.35324 257.06 1.64601 256.352C0.938453 255.643 0.5 254.664 0.5 253.585C0.5 252.506 0.938373 251.527 1.64585 250.818C2.3531 250.11 3.32946 249.671 4.40625 249.671ZM4.40625 249.998C3.41885 249.998 2.52309 250.4 1.87434 251.05C1.22604 251.699 0.82459 252.596 0.82459 253.585C0.82459 254.574 1.22604 255.471 1.87434 256.12C2.52309 256.77 3.41885 257.172 4.40625 257.172C5.39395 257.172 6.28961 256.77 6.93825 256.12C7.58656 255.471 7.98791 254.574 7.98791 253.585C7.98791 252.596 7.58656 251.699 6.93825 251.05C6.28961 250.4 5.39395 249.998 4.40625 249.998ZM232.73 198.171C232.807 198.171 232.883 198.2 232.943 198.26C233.002 198.319 233.031 198.396 233.031 198.474C233.031 198.551 233.002 198.629 232.942 198.688L229.551 202.085L232.942 205.482C233.002 205.541 233.031 205.619 233.031 205.696C233.031 205.774 233.002 205.851 232.942 205.911C232.884 205.97 232.807 205.999 232.73 205.999C232.653 205.999 232.576 205.97 232.517 205.911L229.125 202.512L225.733 205.911C225.674 205.97 225.597 205.999 225.52 205.999C225.443 205.999 225.366 205.97 225.308 205.911C225.248 205.851 225.219 205.774 225.219 205.696C225.219 205.619 225.248 205.541 225.308 205.482L228.698 202.085L225.308 198.688C225.248 198.629 225.219 198.551 225.219 198.474C225.219 198.396 225.248 198.319 225.308 198.259C225.367 198.2 225.443 198.171 225.52 198.171L229.125 201.656L232.517 198.259C232.576 198.2 232.653 198.171 232.73 198.171ZM56.4796 189.342C56.5568 189.342 56.6338 189.372 56.6927 189.431C56.7517 189.49 56.781 189.567 56.781 189.645C56.781 189.723 56.7514 189.801 56.6927 189.86L53.3012 193.256L56.6923 196.653C56.7515 196.713 56.7812 196.79 56.7812 196.868C56.7812 196.945 56.7515 197.023 56.6923 197.082C56.6337 197.141 56.5567 197.171 56.4796 197.171C56.4026 197.171 56.3256 197.141 56.2669 197.082L52.8747 193.683L49.4831 197.082C49.4244 197.141 49.3474 197.171 49.2704 197.171C49.1933 197.171 49.1163 197.141 49.0577 197.082C48.9985 197.023 48.9688 196.945 48.9688 196.868C48.9688 196.79 48.9985 196.713 49.0577 196.653L52.4482 193.256L49.0578 189.86C48.9986 189.801 48.969 189.723 48.969 189.645C48.969 189.567 48.9983 189.49 49.0573 189.431C49.1162 189.372 49.1932 189.342 49.2704 189.342L52.8747 192.829L56.2677 189.43C56.3262 189.372 56.4029 189.342 56.4796 189.342ZM229.125 114.299C230.202 114.299 231.178 114.738 231.885 115.447C232.593 116.156 233.031 117.134 233.031 118.213C233.031 119.293 232.593 120.271 231.885 120.98C231.178 121.689 230.202 122.128 229.125 122.128C228.048 122.128 227.072 121.689 226.365 120.98C225.657 120.271 225.219 119.293 225.219 118.213C225.219 117.134 225.657 116.156 226.365 115.447C227.072 114.738 228.048 114.299 229.125 114.299ZM229.125 114.626C228.137 114.626 227.242 115.028 226.593 115.678C225.945 116.328 225.543 117.224 225.543 118.213C225.543 119.202 225.945 120.099 226.593 120.749C227.242 121.399 228.137 121.801 229.125 121.801C230.112 121.801 231.008 121.399 231.657 120.749C232.305 120.099 232.707 119.202 232.707 118.213C232.707 117.224 232.305 116.328 231.657 115.678C231.008 115.028 230.112 114.626 229.125 114.626ZM281.199 52.4993C281.276 52.4993 281.352 52.5286 281.411 52.5873C281.47 52.6467 281.5 52.7244 281.5 52.8021C281.5 52.8795 281.47 52.9568 281.411 53.0162L278.02 56.4133L281.411 59.8105C281.47 59.8698 281.5 59.9473 281.5 60.0249C281.5 60.1025 281.47 60.1801 281.411 60.2394C281.352 60.2981 281.275 60.3278 281.198 60.3278C281.121 60.3278 281.044 60.2981 280.986 60.2394L277.593 56.8404L274.202 60.2394C274.143 60.2981 274.066 60.3278 273.989 60.3278C273.912 60.3278 273.835 60.2981 273.776 60.2394C273.717 60.1801 273.688 60.1025 273.688 60.0249C273.688 59.9473 273.717 59.8698 273.776 59.8105L277.167 56.4133L273.776 53.0158C273.717 52.9568 273.688 52.8795 273.688 52.8021C273.688 52.7244 273.717 52.6467 273.776 52.5873C273.835 52.5286 273.912 52.4993 273.989 52.4993L277.593 55.985L280.985 52.5878C281.044 52.5288 281.121 52.4993 281.199 52.4993ZM55.4548 53.4712C56.2642 54.1839 56.7086 55.1601 56.7731 56.1607C56.8375 57.1613 56.5221 58.1864 55.8107 58.9972C55.1251 59.7789 54.1777 60.2483 53.1415 60.3186C51.9344 60.3242 51.0213 59.9912 50.2972 59.3529C49.5131 58.6632 49.0446 57.7087 48.977 56.6644C48.9101 55.6211 49.2524 54.6135 49.9422 53.8277C50.653 53.0171 51.6267 52.572 52.6248 52.5075C53.623 52.4429 54.6457 52.7589 55.4548 53.4712ZM52.8781 52.8262C51.8827 52.8262 50.8921 53.2383 50.1847 54.0441C49.5535 54.7645 49.2395 55.6873 49.3018 56.644C49.3634 57.5997 49.7929 58.4747 50.5109 59.1069C51.2305 59.7406 52.1545 60.0577 53.1081 59.9929C54.0618 59.9313 54.9356 59.5003 55.5669 58.7807C56.2186 58.038 56.5083 57.0989 56.4493 56.1821C56.3904 55.2652 55.9829 54.3708 55.2414 53.7175C54.5619 53.1201 53.7181 52.8262 52.8781 52.8262Z" stroke="#E5E5E5"/>
<path fill-rule="evenodd" clip-rule="evenodd" d="M190.701 109.575C189.722 109.575 188.926 108.778 188.926 107.8C188.926 106.821 189.722 106.025 190.701 106.025C191.68 106.025 192.476 106.821 192.476 107.8C192.476 108.778 191.68 109.575 190.701 109.575Z" fill="#ECECFE"/>
<path fill-rule="evenodd" clip-rule="evenodd" d="M142.775 221.4C141.796 221.4 141 220.603 141 219.625C141 218.646 141.796 217.85 142.775 217.85C143.754 217.85 144.55 218.646 144.55 219.625C144.55 220.603 143.754 221.4 142.775 221.4Z" fill="#ECECFE"/>
<path fill-rule="evenodd" clip-rule="evenodd" d="M96.6266 104.25C95.6478 104.25 94.8516 103.453 94.8516 102.475C94.8516 101.496 95.6478 100.7 96.6266 100.7C97.6053 100.7 98.4016 101.496 98.4016 102.475C98.4016 103.453 97.6053 104.25 96.6266 104.25Z" fill="#ECECFE"/>
<path d="M144.549 146.85C144.549 144.889 142.96 143.3 140.999 143.3C139.039 143.3 137.449 144.889 137.449 146.85V175.25C137.449 177.21 139.039 178.8 140.999 178.8C142.96 178.8 144.549 177.21 144.549 175.25V146.85Z" fill="#E1000F"/>
<path d="M144.549 189.45C144.549 187.489 142.96 185.9 140.999 185.9C139.039 185.9 137.449 187.489 137.449 189.45C137.449 191.41 139.039 193 140.999 193C142.96 193 144.549 191.41 144.549 189.45Z" fill="#E1000F"/>
<path d="M139.412 108.781C140.031 107.542 141.739 107.476 142.474 108.585L142.587 108.781L190.512 204.631C191.071 205.749 190.33 207.054 189.129 207.188L188.924 207.2H174.724C173.744 207.2 172.949 206.405 172.949 205.425C172.949 204.515 173.634 203.764 174.517 203.662L174.724 203.65H186.05L140.999 113.544L95.9461 203.65H164.074C164.984 203.65 165.735 204.335 165.837 205.218L165.849 205.425C165.849 206.335 165.164 207.085 164.281 207.188L164.074 207.2H93.0742C91.8241 207.2 90.9881 205.954 91.4053 204.819L91.4866 204.631L139.412 108.781Z" fill="#000091"/>
<path d="M176.499 168.15C175.52 168.15 174.724 167.354 174.724 166.375C174.724 165.396 175.52 164.6 176.499 164.6C177.478 164.6 178.274 165.396 178.274 166.375C178.274 167.354 177.478 168.15 176.499 168.15Z" fill="#000091"/>
<path d="M181.534 172.501C181.047 171.757 180.07 171.48 179.255 171.887C178.379 172.326 178.023 173.392 178.462 174.269L190.887 199.119L190.99 199.298C191.476 200.042 192.454 200.319 193.268 199.912C194.145 199.474 194.5 198.408 194.062 197.531L181.637 172.681L181.534 172.501Z" fill="#000091"/>
</g>
<defs>
<clipPath id="clip0_7327_16934">
<rect width="282" height="319" fill="white" transform="translate(0 -0.000732422)"/>
</clipPath>
</defs>
</svg>
