<svg width="40" height="40" viewBox="0 0 40 40" fill="none" xmlns="http://www.w3.org/2000/svg">
<path fill-rule="evenodd" clip-rule="evenodd" d="M34 6.5C33.7243 6.5 33.5 6.2757 33.5 6C33.5 5.72428 33.7243 5.5 34 5.5C34.2757 5.5 34.5 5.72428 34.5 6C34.5 6.2757 34.2757 6.5 34 6.5Z" fill="#ECECFE"/>
<path fill-rule="evenodd" clip-rule="evenodd" d="M15 40C14.7243 40 14.5 39.7757 14.5 39.5C14.5 39.2243 14.7243 39 15 39C15.2757 39 15.5 39.2243 15.5 39.5C15.5 39.7757 15.2757 40 15 40Z" fill="#ECECFE"/>
<path fill-rule="evenodd" clip-rule="evenodd" d="M7.5 5C7.2243 5 7 4.7757 7 4.5C7 4.22428 7.2243 4 7.5 4C7.7757 4 8 4.22428 8 4.5C8 4.7757 7.7757 5 7.5 5Z" fill="#ECECFE"/>
<path fill-rule="evenodd" clip-rule="evenodd" d="M27 17.5C22.3056 17.5 18.5 21.3056 18.5 26C18.5 26.0318 18.5002 26.0636 18.5005 26.0954C18.4816 27.752 18.9672 29.4215 19.9777 30.8708C21.514 33.074 23.9776 34.3582 26.5626 34.4889C26.6752 34.4946 26.7883 34.4982 26.902 34.4994C28.0201 34.5122 29.1543 34.3088 30.2399 33.8704C30.2717 33.8576 30.3017 33.8417 30.3297 33.8231C31.5527 33.3019 32.6285 32.5023 33.4777 31.5039C33.538 31.4736 33.5947 31.4289 33.6442 31.3682C34.8777 29.8559 35.5205 27.988 35.4995 26.0922C35.4998 26.0615 35.5 26.0308 35.5 26C35.5 21.3056 31.6944 17.5 27 17.5ZM29.411 18.8959C28.6544 18.6392 27.8434 18.5 27 18.5C24.9708 18.5 23.1299 19.3059 21.7797 20.615C21.8679 20.7272 21.9418 20.8493 21.999 20.9778C22.0504 21.0901 22.0926 21.2057 22.1268 21.3248C22.1944 21.561 22.2258 21.761 22.2393 22.0302L22.2463 22.2468C22.2476 22.3244 22.2482 22.408 22.2482 22.4991L22.2485 22.5992L22.2514 22.768L22.2578 22.8988L22.2683 22.9979C22.2768 23.0549 22.2883 23.095 22.3036 23.1268C22.3061 23.132 22.318 23.1396 22.3394 23.1494L22.3949 23.1719L22.4759 23.1995L22.5827 23.2318L22.7913 23.2876L23.0586 23.3505L23.6676 23.4809L23.8811 23.5341C24.2564 23.6355 24.5339 23.8054 24.8557 24.1124L24.923 24.178L24.9177 24.1668C24.6195 23.4749 24.5788 22.5691 24.7667 21.9644L24.8023 21.8609C25.0609 21.1744 25.6418 20.908 26.4379 20.8896C26.4623 20.8891 26.4863 20.8887 26.5102 20.8885L26.6556 20.8899C26.6806 20.8905 26.7063 20.8913 26.733 20.8924L27.2743 20.9223L27.4304 20.927L27.5055 20.9257L27.5658 20.9208C27.6502 20.9104 27.7521 20.8096 27.8663 20.5861L28.0358 20.2059L28.0988 20.073C28.1289 20.0121 28.1561 19.9623 28.1757 19.9361C28.3411 19.7148 28.603 19.4804 28.9876 19.196L29.2097 19.0356L29.411 18.8959ZM27.2457 33.4961C27.1641 33.4987 27.0822 33.5 27 33.5C22.89 33.5 19.5521 30.194 19.5006 26.0962C19.5211 24.509 20.0697 22.9357 21.1238 21.6414L21.163 21.5935L21.1654 21.6001C21.2023 21.729 21.2236 21.849 21.2353 22.0055L21.2441 22.1759L21.2478 22.3807L21.2497 22.7251C21.2564 23.1236 21.2879 23.3218 21.4024 23.5603C21.5814 23.9317 21.8448 24.0872 22.4818 24.2454L22.6957 24.2957L22.9365 24.3477L23.3648 24.4377L23.5021 24.4693L23.6199 24.4994C23.8871 24.5716 24.1141 24.7568 24.5002 25.188L24.7656 25.4842C24.9165 25.647 25.0185 25.7436 25.1326 25.8087C25.2994 25.9037 25.5059 25.8949 25.664 25.7859C25.8545 25.6545 26.0572 25.3604 26.1528 25.0251C26.2473 24.6938 26.2279 24.3637 26.0534 24.1166L26.0019 24.0513C25.6574 23.6539 25.5675 22.6643 25.7378 22.2142C25.8207 21.9942 26.0273 21.8994 26.461 21.8894L26.577 21.8887L26.7764 21.8953L27.1821 21.9191L27.3404 21.9259C27.364 21.9266 27.3863 21.9271 27.4077 21.9273L27.5262 21.9261L27.6333 21.9192C27.6509 21.9175 27.6685 21.9156 27.6863 21.9135C28.1478 21.857 28.4627 21.5722 28.7058 21.1365L28.7771 21.0001L28.822 20.9039L28.9317 20.6508L28.9766 20.5376C28.9775 20.5346 28.9776 20.5335 28.9768 20.5346C29.0466 20.4412 29.1727 20.3224 29.3513 20.1792L29.5172 20.0504L29.7084 19.9097C29.7423 19.8853 29.7772 19.8604 29.8132 19.835L30.0412 19.6767L30.2015 19.568L30.3032 19.6152C32.2788 20.5603 33.7351 22.3082 34.274 24.4003L34.3189 24.5848C34.4335 25.0844 34.4932 25.5898 34.4994 26.0931C34.4863 27.1724 34.2452 28.1969 33.822 29.1206C33.747 28.4769 33.5227 28.1494 32.9469 27.8275C32.7494 27.7188 32.593 27.6406 32.4071 27.5554L32.2611 27.4896C31.8483 27.3072 31.7511 27.2377 31.5301 26.9217L31.4159 26.7563C30.8532 25.9196 30.4183 25.6513 29.3865 25.8108C27.5567 26.0945 27.0258 26.4459 26.8842 27.3805L26.8356 27.7148C26.8304 27.753 26.8256 27.7901 26.8212 27.8263L26.7995 28.031C26.7459 28.6432 26.8424 28.9272 27.2024 29.2966L27.4656 29.5688L27.7125 29.8293L27.9432 30.0779L28.1574 30.3144L28.3551 30.5386L28.5361 30.7504L28.7004 30.9494L28.8478 31.1355L28.9782 31.3084C28.9985 31.3362 29.0181 31.3633 29.037 31.3899L29.1417 31.5428C29.2378 31.6889 29.3081 31.8146 29.3519 31.9189L29.398 32.0355C29.5011 32.3128 29.5719 32.6236 29.5819 32.9337L29.582 33.0437C28.8499 33.3121 28.0644 33.4697 27.2457 33.4961ZM30.5606 32.6026C31.4238 32.1361 32.1852 31.5053 32.8027 30.752C32.8368 30.5301 32.8548 30.2937 32.8548 30.0425L32.8547 29.8305L32.8534 29.6319L32.8493 29.4624L32.8414 29.3189C32.8123 28.9462 32.7234 28.8482 32.4618 28.702L32.3384 28.6354C32.1801 28.5518 32.0414 28.4863 31.8561 28.404L31.7474 28.355C31.2592 28.1303 31.0293 27.9503 30.7089 27.4924L30.5383 27.2438L30.4451 27.1119C30.2251 26.8132 30.0905 26.7413 29.7621 26.7705L29.6197 26.7872L29.4076 26.8197L29.0548 26.8784L28.7622 26.9335L28.5977 26.9692L28.4555 27.0049C28.0606 27.1124 27.9441 27.2271 27.8939 27.4228L27.8793 27.4911L27.8444 27.7215L27.8082 27.9759L27.7928 28.1089L27.7845 28.2171L27.7835 28.3048C27.7868 28.3966 27.8054 28.4545 27.8408 28.5073L27.8754 28.5521C27.8883 28.567 27.9026 28.5823 27.9183 28.5984L28.067 28.7515L28.3503 29.0477L28.615 29.3307L28.8612 29.6007L29.0888 29.8578L29.2978 30.102L29.4882 30.3334L29.6601 30.5521C29.9582 30.9415 30.1628 31.2674 30.2741 31.5321C30.4113 31.8601 30.5161 32.2228 30.5606 32.6026Z" fill="#E1000F"/>
<path d="M33.4966 8.94169C33.4678 8.69302 33.2564 8.5 33 8.5H6L5.94169 8.50336C5.69302 8.53225 5.5 8.74358 5.5 9V32L5.50336 32.0583C5.53225 32.307 5.74358 32.5 6 32.5H18L18.0583 32.4966C18.307 32.4678 18.5 32.2564 18.5 32L18.4966 31.9417C18.4678 31.693 18.2564 31.5 18 31.5H6.5V13.5H25L25.0583 13.4966C25.307 13.4678 25.5 13.2564 25.5 13C25.5 12.7239 25.2761 12.5 25 12.5H6.5V9.5H32.5V12.5H28L27.9417 12.5034C27.693 12.5322 27.5 12.7436 27.5 13C27.5 13.2761 27.7239 13.5 28 13.5H32.5V17L32.5034 17.0583C32.5322 17.307 32.7436 17.5 33 17.5C33.2761 17.5 33.5 17.2761 33.5 17V9L33.4966 8.94169Z" fill="#000091"/>
<path d="M8 11.5C7.7243 11.5 7.5 11.2757 7.5 11C7.5 10.7243 7.7243 10.5 8 10.5C8.2757 10.5 8.5 10.7243 8.5 11C8.5 11.2757 8.2757 11.5 8 11.5Z" fill="#000091"/>
<path d="M9.5 11C9.5 11.2757 9.7243 11.5 10 11.5C10.2757 11.5 10.5 11.2757 10.5 11C10.5 10.7243 10.2757 10.5 10 10.5C9.7243 10.5 9.5 10.7243 9.5 11Z" fill="#000091"/>
<path d="M12 11.5C11.7243 11.5 11.5 11.2757 11.5 11C11.5 10.7243 11.7243 10.5 12 10.5C12.2757 10.5 12.5 10.7243 12.5 11C12.5 11.2757 12.2757 11.5 12 11.5Z" fill="#000091"/>
<path d="M31 10.5C31.2761 10.5 31.5 10.7239 31.5 11C31.5 11.2564 31.307 11.4678 31.0583 11.4966L31 11.5H16C15.7239 11.5 15.5 11.2761 15.5 11C15.5 10.7436 15.693 10.5322 15.9417 10.5034L16 10.5H31Z" fill="#000091"/>
<path d="M19.5 17C19.5 16.7239 19.2761 16.5 19 16.5H10L9.94169 16.5034C9.69302 16.5322 9.5 16.7436 9.5 17C9.5 17.2761 9.72386 17.5 10 17.5H19L19.0583 17.4966C19.307 17.4678 19.5 17.2564 19.5 17Z" fill="#000091"/>
<path d="M17 19.5C17.2761 19.5 17.5 19.7239 17.5 20C17.5 20.2564 17.307 20.4678 17.0583 20.4966L17 20.5H10C9.72386 20.5 9.5 20.2761 9.5 20C9.5 19.7436 9.69302 19.5322 9.94169 19.5034L10 19.5H17Z" fill="#000091"/>
<path d="M16.5 23C16.5 22.7239 16.2761 22.5 16 22.5H10L9.94169 22.5034C9.69302 22.5322 9.5 22.7436 9.5 23C9.5 23.2761 9.72386 23.5 10 23.5H16L16.0583 23.4966C16.307 23.4678 16.5 23.2564 16.5 23Z" fill="#000091"/>
</svg>
