<svg width="182" height="206" viewBox="0 0 182 206" fill="none" xmlns="http://www.w3.org/2000/svg">
    <path fill-rule="evenodd" clip-rule="evenodd"
        d="M101.81 3.4185C95.1209 -0.472832 86.8791 -0.472832 80.1895 3.4185L10.8105 43.7765C4.12093 47.6678 0 54.8593 0 62.642V143.358C0 151.141 4.12093 158.332 10.8105 162.223L80.1895 202.582C86.8791 206.473 95.1209 206.473 101.81 202.582L171.19 162.223C177.879 158.332 182 151.141 182 143.358V62.642C182 54.8593 177.879 47.6678 171.19 43.7765L101.81 3.4185Z"
        fill="#F6F6F6" />
    <path fill-rule="evenodd" clip-rule="evenodd"
        d="M153.125 70.55C152.146 70.55 151.35 69.7537 151.35 68.775C151.35 67.7962 152.146 67 153.125 67C154.104 67 154.9 67.7962 154.9 68.775C154.9 69.7537 154.104 70.55 153.125 70.55Z"
        fill="#ECECFE" />
    <path fill-rule="evenodd" clip-rule="evenodd"
        d="M28.8751 138C27.8964 138 27.1001 137.204 27.1001 136.225C27.1001 135.246 27.8964 134.45 28.8751 134.45C29.8538 134.45 30.6501 135.246 30.6501 136.225C30.6501 137.204 29.8538 138 28.8751 138Z"
        fill="#ECECFE" />
    <path fill-rule="evenodd" clip-rule="evenodd"
        d="M149.575 145.1C148.596 145.1 147.8 144.304 147.8 143.325C147.8 142.346 148.596 141.55 149.575 141.55C150.554 141.55 151.35 142.346 151.35 143.325C151.35 144.304 150.554 145.1 149.575 145.1Z"
        fill="#ECECFE" />
    <path
        d="M78.575 98.95H71.475C70.4946 98.95 69.7 99.7446 69.7 100.725V104.275C69.7 105.255 70.4946 106.05 71.475 106.05H78.575C79.5553 106.05 80.35 105.255 80.35 104.275V100.725C80.35 99.7446 79.5553 98.95 78.575 98.95Z"
        fill="#E1000F" />
    <path
        d="M85.6749 98.95C86.5852 98.95 87.3355 99.6352 87.438 100.518L87.4499 100.725V102.5H92.775C93.6852 102.5 94.4355 103.185 94.538 104.068L94.5499 104.275C94.5499 105.185 93.8647 105.935 92.982 106.038L92.775 106.05H85.6749C84.7647 106.05 84.0144 105.365 83.9119 104.482L83.9 104.275V100.725C83.9 99.7446 84.6946 98.95 85.6749 98.95Z"
        fill="#E1000F" />
    <path
        d="M92.775 81.2C93.7553 81.2 94.5499 81.9946 94.5499 82.975C94.5499 83.8852 93.8647 84.6355 92.982 84.738L92.775 84.75H87.4499V91.85H92.775C93.6852 91.85 94.4355 92.5352 94.538 93.4179L94.5499 93.625C94.5499 94.5352 93.8647 95.2855 92.982 95.388L92.775 95.4H85.6749C84.7647 95.4 84.0144 94.7147 83.9119 93.832L83.9 93.625V82.975C83.9 82.0647 84.5852 81.3144 85.4679 81.2119L85.6749 81.2H92.775Z"
        fill="#E1000F" />
    <path
        d="M92.775 109.6C93.7553 109.6 94.5499 110.395 94.5499 111.375C94.5499 112.285 93.8647 113.035 92.982 113.138L92.775 113.15H87.4499V120.25H89.2249V116.7C89.2249 115.79 89.9102 115.039 90.7929 114.937L91 114.925H92.775C93.7553 114.925 94.5499 115.72 94.5499 116.7C94.5499 117.61 93.8647 118.36 92.982 118.463L92.775 118.475V122.025C92.775 122.935 92.0897 123.685 91.207 123.788L91 123.8H85.6749C84.7647 123.8 84.0144 123.115 83.9119 122.232L83.9 122.025V111.375C83.9 110.465 84.5852 109.714 85.4679 109.612L85.6749 109.6H92.775Z"
        fill="#E1000F" />
    <path fill-rule="evenodd" clip-rule="evenodd"
        d="M124.189 81.2H125.273C130.852 81.2 135.375 85.7226 135.375 91.3016V94.8417C135.375 97.3877 136.452 99.8149 138.341 101.523L138.473 101.642C139.927 102.957 140.039 105.202 138.724 106.656C138.051 107.4 137.095 107.825 136.091 107.825H113.371C111.411 107.825 109.821 106.236 109.821 104.275C109.821 103.269 110.248 102.311 110.995 101.638L111.436 101.225C113.121 99.5477 114.075 97.2634 114.075 94.8737V91.3136C114.075 85.728 118.603 81.2 124.189 81.2ZM125.273 84.75H124.189C120.564 84.75 117.625 87.6886 117.625 91.3136V94.8737C117.625 98.4184 116.122 101.797 113.488 104.17L113.371 104.275H136.091L135.591 103.809C133.187 101.452 131.825 98.2221 131.825 94.8417V91.3016C131.825 87.6832 128.892 84.75 125.273 84.75Z"
        fill="#E1000F" />
    <path
        d="M124.725 113.15C128.072 113.15 130.05 111.172 130.05 107.825C130.05 106.845 129.255 106.05 128.275 106.05C127.295 106.05 126.5 106.845 126.5 107.825C126.5 109.211 126.111 109.6 124.725 109.6C123.339 109.6 122.95 109.211 122.95 107.825C122.95 106.845 122.155 106.05 121.175 106.05C120.195 106.05 119.4 106.845 119.4 107.825C119.4 111.172 121.378 113.15 124.725 113.15Z"
        fill="#E1000F" />
    <path fill-rule="evenodd" clip-rule="evenodd"
        d="M57.275 109.6H78.575C79.5553 109.6 80.35 110.395 80.35 111.375V122.025C80.35 123.005 79.5553 123.8 78.575 123.8H57.275C56.2947 123.8 55.5 123.005 55.5 122.025V111.375C55.5 110.395 56.2947 109.6 57.275 109.6ZM76.8 120.25V113.15H59.05V120.25H76.8Z"
        fill="#000091" />
    <path fill-rule="evenodd" clip-rule="evenodd"
        d="M57.275 91.8499H64.375C65.3553 91.8499 66.15 92.6446 66.15 93.6249V104.275C66.15 105.255 65.3553 106.05 64.375 106.05H57.275C56.2947 106.05 55.5 105.255 55.5 104.275V93.6249C55.5 92.6446 56.2947 91.8499 57.275 91.8499ZM62.6 102.5V95.3999H59.05V102.5H62.6Z"
        fill="#000091" />
    <path
        d="M60.825 81.1999H57.275C56.2947 81.1999 55.5 81.9946 55.5 82.9749V86.5249C55.5 87.5052 56.2947 88.2999 57.275 88.2999H60.825C61.8053 88.2999 62.6 87.5052 62.6 86.5249V82.9749C62.6 81.9946 61.8053 81.1999 60.825 81.1999Z"
        fill="#000091" />
    <path fill-rule="evenodd" clip-rule="evenodd"
        d="M78.575 81.1999H67.925C66.9447 81.1999 66.15 81.9946 66.15 82.9749V88.2999C66.15 89.2802 66.9447 90.0749 67.925 90.0749H71.475V93.6249C71.475 94.5352 72.1602 95.2854 73.043 95.388L73.25 95.3999H78.575C79.5553 95.3999 80.35 94.6052 80.35 93.6249V82.9749C80.35 81.9946 79.5553 81.1999 78.575 81.1999ZM69.7 86.5249V84.7499H76.8V91.8499H75.025V88.2999C75.025 87.3896 74.3398 86.6394 73.457 86.5368L73.25 86.5249H69.7Z"
        fill="#000091" />
    <path
        d="M82.125 49.2499C83.1053 49.2499 83.9 50.0446 83.9 51.0249C83.9 52.0052 83.1053 52.7999 82.125 52.7999H67.925C66.9447 52.7999 66.15 52.0052 66.15 51.0249C66.15 50.0446 66.9447 49.2499 67.925 49.2499H82.125Z"
        fill="#000091" />
    <path
        d="M124.725 70.5499C129.501 70.5499 134.098 71.8109 138.135 74.1686C138.981 74.663 139.266 75.75 138.772 76.5965C138.278 77.443 137.191 77.7285 136.344 77.2341C132.847 75.1916 128.868 74.0999 124.725 74.0999C111.981 74.0999 101.65 84.4309 101.65 97.1749C101.65 102.445 103.42 107.44 106.622 111.485C107.397 112.464 107.238 113.391 106.613 114.636L106.378 115.083L106.176 115.436L105.813 116.023L105.505 116.494L104.359 118.198L105.104 117.971L107.487 117.207L108.56 116.875L109.167 116.699L109.698 116.559C111.021 116.234 111.633 116.282 112.321 116.65L112.585 116.802C116.202 119.045 120.372 120.25 124.725 120.25C137.469 120.25 147.8 109.919 147.8 97.1749C147.8 91.9035 146.029 86.9071 142.826 82.8616C142.217 82.0931 142.347 80.9767 143.115 80.3681C143.884 79.7595 145 79.8891 145.609 80.6576C149.305 85.3249 151.35 91.0962 151.35 97.1749C151.35 111.879 139.43 123.8 124.725 123.8C119.971 123.8 115.397 122.55 111.379 120.218L110.981 119.98L110.909 119.988C110.817 119.999 110.71 120.017 110.588 120.04L110.025 120.168L109.367 120.346L107.956 120.784L106.307 121.315L105.125 121.685L104.449 121.884L103.854 122.045L103.331 122.168C101.861 122.48 101.246 122.28 100.458 121.565C99.395 120.601 99.5368 119.577 100.212 118.219L100.432 117.798L100.615 117.475L100.938 116.945L101.367 116.287L102.656 114.366L103.007 113.816L103.266 113.375L103.4 113.122L102.984 112.548C99.9673 108.29 98.2531 103.228 98.1098 97.9026L98.1 97.1749C98.1 82.4703 110.02 70.5499 124.725 70.5499Z"
        fill="#000091" />
    <path
        d="M99.875 42.1499C106.594 42.1499 112.068 47.4834 112.293 54.1477L112.3 54.5749V65.2249C112.3 66.2052 111.505 66.9999 110.525 66.9999C109.615 66.9999 108.864 66.3147 108.762 65.4319L108.75 65.2249V54.5749C108.75 49.8024 104.983 45.9097 100.26 45.7081L99.875 45.6999H50.175C45.4025 45.6999 41.5098 49.467 41.3082 54.1899L41.3 54.5749V150.425C41.3 155.197 45.0671 159.09 49.79 159.292L50.175 159.3H99.875C104.648 159.3 108.54 155.533 108.742 150.81L108.75 150.425V129.125C108.75 128.145 109.545 127.35 110.525 127.35C111.435 127.35 112.186 128.035 112.288 128.918L112.3 129.125V150.425C112.3 157.144 106.967 162.618 100.302 162.843L99.875 162.85H50.175C43.4558 162.85 37.9823 157.516 37.7572 150.852L37.75 150.425V54.5749C37.75 47.8557 43.0835 42.3823 49.7478 42.1571L50.175 42.1499H99.875Z"
        fill="#000091" />
    <path
        d="M92.775 148.65C93.7553 148.65 94.55 149.445 94.55 150.425C94.55 151.335 93.8648 152.085 92.982 152.188L92.775 152.2H57.275C56.2947 152.2 55.5 151.405 55.5 150.425C55.5 149.515 56.1852 148.764 57.068 148.662L57.275 148.65H92.775Z"
        fill="#000091" />
</svg>
    