<svg width="1920" height="1033" viewBox="0 0 1920 1033" fill="none" xmlns="http://www.w3.org/2000/svg">
<path fill-rule="evenodd" clip-rule="evenodd" d="M-0.263606 2.75038C5.76165 -0.798304 13.238 -0.798303 19.2632 2.75038L80.9979 39.1101C86.869 42.568 90.4732 48.8735 90.4732 55.6873V129.076C90.4732 135.889 86.869 142.195 80.9979 145.653L19.2632 182.012C13.238 185.561 5.76165 185.561 -0.263606 182.012C-0.2639 152 -0.263226 23 -0.263606 2.75038Z" fill="#8BF8E7"/>
<path fill-rule="evenodd" clip-rule="evenodd" d="M1919.81 685C1919.81 727.165 1919.81 952.165 1919.81 998.77L1802.44 929.642C1795.97 925.833 1792 918.887 1792 911.381V772.389C1792 764.883 1795.97 757.937 1802.44 754.128L1919.81 685Z" fill="#161616"/>
<path fill-rule="evenodd" clip-rule="evenodd" d="M238.403 1029.6C244.96 1033.39 253.039 1033.39 259.596 1029.6L327.603 990.34C334.161 986.554 338.2 979.557 338.2 971.986V893.458C338.2 885.886 334.161 878.889 327.603 875.104L259.596 835.84C253.039 832.054 244.96 832.054 238.403 835.84L170.396 875.104C163.838 878.889 159.799 885.886 159.799 893.458V971.986C159.799 979.557 163.838 986.554 170.396 990.34L238.403 1029.6Z" fill="#161616"/>
</svg>
