<svg width="208" height="234" viewBox="0 0 208 234" fill="none" xmlns="http://www.w3.org/2000/svg">
    <g clip-path="url(#clip0_2129_23917)">
        <path fill-rule="evenodd" clip-rule="evenodd"
              d="M27.1277 230.772C28.0212 230.772 28.7455 231.495 28.7455 232.386C28.7455 233.277 28.0212 234 27.1277 234C26.2343 234 25.51 233.277 25.51 232.386C25.51 231.495 26.2343 230.772 27.1277 230.772ZM38.991 230.772C39.8845 230.772 40.6088 231.495 40.6088 232.386C40.6088 233.277 39.8845 234 38.991 234C38.0976 234 37.3733 233.277 37.3733 232.386C37.3733 231.495 38.0976 230.772 38.991 230.772ZM50.8543 230.772C51.7478 230.772 52.4721 231.495 52.4721 232.386C52.4721 233.277 51.7478 234 50.8543 234C49.9609 234 49.2366 233.277 49.2366 232.386C49.2366 231.495 49.9609 230.772 50.8543 230.772ZM62.7176 230.772C63.6111 230.772 64.3354 231.495 64.3354 232.386C64.3354 233.277 63.6111 234 62.7176 234C61.8242 234 61.0999 233.277 61.0999 232.386C61.0999 231.495 61.8242 230.772 62.7176 230.772ZM74.5809 230.772C75.4744 230.772 76.1987 231.495 76.1987 232.386C76.1987 233.277 75.4744 234 74.5809 234C73.6875 234 72.9632 233.277 72.9632 232.386C72.9632 231.495 73.6875 230.772 74.5809 230.772ZM86.4442 230.772C87.3377 230.772 88.062 231.495 88.062 232.386C88.062 233.277 87.3377 234 86.4442 234C85.5508 234 84.8265 233.277 84.8265 232.386C84.8265 231.495 85.5508 230.772 86.4442 230.772ZM98.3075 230.772C99.201 230.772 99.9253 231.495 99.9253 232.386C99.9253 233.277 99.201 234 98.3075 234C97.4141 234 96.6898 233.277 96.6898 232.386C96.6898 231.495 97.4141 230.772 98.3075 230.772ZM110.171 230.772C111.064 230.772 111.789 231.495 111.789 232.386C111.789 233.277 111.064 234 110.171 234C109.277 234 108.553 233.277 108.553 232.386C108.553 231.495 109.277 230.772 110.171 230.772ZM122.034 230.772C122.928 230.772 123.652 231.495 123.652 232.386C123.652 233.277 122.928 234 122.034 234C121.141 234 120.416 233.277 120.416 232.386C120.416 231.495 121.141 230.772 122.034 230.772ZM133.897 230.705C134.791 230.705 135.515 231.427 135.515 232.319C135.515 233.21 134.791 233.932 133.897 233.932C133.004 233.932 132.28 233.21 132.28 232.319C132.28 231.427 133.004 230.705 133.897 230.705ZM145.761 230.705C146.654 230.705 147.378 231.427 147.378 232.319C147.378 233.21 146.654 233.932 145.761 233.932C144.867 233.932 144.143 233.21 144.143 232.319C144.143 231.427 144.867 230.705 145.761 230.705ZM157.624 230.705C158.517 230.705 159.242 231.427 159.242 232.319C159.242 233.21 158.517 233.932 157.624 233.932C156.731 233.932 156.006 233.21 156.006 232.319C156.006 231.427 156.731 230.705 157.624 230.705ZM169.487 230.705C170.381 230.705 171.105 231.427 171.105 232.319C171.105 233.21 170.381 233.932 169.487 233.932C168.594 233.932 167.87 233.21 167.87 232.319C167.87 231.427 168.594 230.705 169.487 230.705ZM181.351 230.705C182.244 230.705 182.968 231.427 182.968 232.319C182.968 233.21 182.244 233.932 181.351 233.932C180.457 233.932 179.733 233.21 179.733 232.319C179.733 231.427 180.457 230.705 181.351 230.705ZM193.214 230.705C194.107 230.705 194.832 231.427 194.832 232.319C194.832 233.21 194.107 233.932 193.214 233.932C192.32 233.932 191.596 233.21 191.596 232.319C191.596 231.427 192.32 230.705 193.214 230.705ZM205.077 230.705C205.971 230.705 206.695 231.427 206.695 232.319C206.695 233.21 205.971 233.932 205.077 233.932C204.184 233.932 203.46 233.21 203.46 232.319C203.46 231.427 204.184 230.705 205.077 230.705ZM122.034 218.938C122.928 218.938 123.652 219.66 123.652 220.552C123.652 221.443 122.928 222.166 122.034 222.166C121.141 222.166 120.416 221.443 120.416 220.552C120.416 219.66 121.141 218.938 122.034 218.938ZM133.897 218.87C134.791 218.87 135.515 219.593 135.515 220.484C135.515 221.375 134.791 222.098 133.897 222.098C133.004 222.098 132.28 221.375 132.28 220.484C132.28 219.593 133.004 218.87 133.897 218.87ZM145.761 218.87C146.654 218.87 147.378 219.593 147.378 220.484C147.378 221.375 146.654 222.098 145.761 222.098C144.867 222.098 144.143 221.375 144.143 220.484C144.143 219.593 144.867 218.87 145.761 218.87ZM157.624 218.87C158.517 218.87 159.242 219.593 159.242 220.484C159.242 221.375 158.517 222.098 157.624 222.098C156.731 222.098 156.006 221.375 156.006 220.484C156.006 219.593 156.731 218.87 157.624 218.87ZM27.1277 218.938C28.0212 218.938 28.7455 219.66 28.7455 220.552C28.7455 221.443 28.0212 222.166 27.1277 222.166C26.2343 222.166 25.51 221.443 25.51 220.552C25.51 219.66 26.2343 218.938 27.1277 218.938ZM50.8543 218.938C51.7478 218.938 52.4721 219.66 52.4721 220.552C52.4721 221.443 51.7478 222.166 50.8543 222.166C49.9609 222.166 49.2366 221.443 49.2366 220.552C49.2366 219.66 49.9609 218.938 50.8543 218.938ZM74.5809 218.938C75.4744 218.938 76.1987 219.66 76.1987 220.552C76.1987 221.443 75.4744 222.166 74.5809 222.166C73.6875 222.166 72.9632 221.443 72.9632 220.552C72.9632 219.66 73.6875 218.938 74.5809 218.938ZM98.3075 218.938C99.201 218.938 99.9253 219.66 99.9253 220.552C99.9253 221.443 99.201 222.166 98.3075 222.166C97.4141 222.166 96.6898 221.443 96.6898 220.552C96.6898 219.66 97.4141 218.938 98.3075 218.938ZM110.171 218.938C111.064 218.938 111.789 219.66 111.789 220.552C111.789 221.443 111.064 222.166 110.171 222.166C109.277 222.166 108.553 221.443 108.553 220.552C108.553 219.66 109.277 218.938 110.171 218.938ZM181.351 218.87C182.244 218.87 182.968 219.593 182.968 220.484C182.968 221.375 182.244 222.098 181.351 222.098C180.457 222.098 179.733 221.375 179.733 220.484C179.733 219.593 180.457 218.87 181.351 218.87ZM38.991 218.938C39.8845 218.938 40.6088 219.66 40.6088 220.552C40.6088 221.443 39.8845 222.166 38.991 222.166C38.0976 222.166 37.3733 221.443 37.3733 220.552C37.3733 219.66 38.0976 218.938 38.991 218.938ZM193.214 218.87C194.107 218.87 194.832 219.593 194.832 220.484C194.832 221.375 194.107 222.098 193.214 222.098C192.32 222.098 191.596 221.375 191.596 220.484C191.596 219.593 192.32 218.87 193.214 218.87ZM62.7176 218.938C63.6111 218.938 64.3354 219.66 64.3354 220.552C64.3354 221.443 63.6111 222.166 62.7176 222.166C61.8242 222.166 61.0999 221.443 61.0999 220.552C61.0999 219.66 61.8242 218.938 62.7176 218.938ZM205.077 218.87C205.971 218.87 206.695 219.593 206.695 220.484C206.695 221.375 205.971 222.098 205.077 222.098C204.184 222.098 203.46 221.375 203.46 220.484C203.46 219.593 204.184 218.87 205.077 218.87ZM86.4442 218.938C87.3377 218.938 88.062 219.66 88.062 220.552C88.062 221.443 87.3377 222.166 86.4442 222.166C85.5508 222.166 84.8265 221.443 84.8265 220.552C84.8265 219.66 85.5508 218.938 86.4442 218.938ZM169.487 218.87C170.381 218.87 171.105 219.593 171.105 220.484C171.105 221.375 170.381 222.098 169.487 222.098C168.594 222.098 167.87 221.375 167.87 220.484C167.87 219.593 168.594 218.87 169.487 218.87ZM50.8543 207.103C51.7478 207.103 52.4721 207.826 52.4721 208.717C52.4721 209.609 51.7478 210.331 50.8543 210.331C49.9609 210.331 49.2366 209.609 49.2366 208.717C49.2366 207.826 49.9609 207.103 50.8543 207.103ZM74.5809 207.103C75.4744 207.103 76.1987 207.826 76.1987 208.717C76.1987 209.609 75.4744 210.331 74.5809 210.331C73.6875 210.331 72.9632 209.609 72.9632 208.717C72.9632 207.826 73.6875 207.103 74.5809 207.103ZM86.4442 207.103C87.3377 207.103 88.062 207.826 88.062 208.717C88.062 209.609 87.3377 210.331 86.4442 210.331C85.5508 210.331 84.8265 209.609 84.8265 208.717C84.8265 207.826 85.5508 207.103 86.4442 207.103ZM98.3075 207.103C99.201 207.103 99.9253 207.826 99.9253 208.717C99.9253 209.609 99.201 210.331 98.3075 210.331C97.4141 210.331 96.6898 209.609 96.6898 208.717C96.6898 207.826 97.4141 207.103 98.3075 207.103ZM110.171 207.103C111.064 207.103 111.789 207.826 111.789 208.717C111.789 209.609 111.064 210.331 110.171 210.331C109.277 210.331 108.553 209.609 108.553 208.717C108.553 207.826 109.277 207.103 110.171 207.103ZM27.1277 207.103C28.0212 207.103 28.7455 207.826 28.7455 208.717C28.7455 209.609 28.0212 210.331 27.1277 210.331C26.2343 210.331 25.51 209.609 25.51 208.717C25.51 207.826 26.2343 207.103 27.1277 207.103ZM38.991 207.103C39.8845 207.103 40.6088 207.826 40.6088 208.717C40.6088 209.609 39.8845 210.331 38.991 210.331C38.0976 210.331 37.3733 209.609 37.3733 208.717C37.3733 207.826 38.0976 207.103 38.991 207.103ZM62.7176 207.103C63.6111 207.103 64.3354 207.826 64.3354 208.717C64.3354 209.609 63.6111 210.331 62.7176 210.331C61.8242 210.331 61.0999 209.609 61.0999 208.717C61.0999 207.826 61.8242 207.103 62.7176 207.103ZM122.034 207.103C122.928 207.103 123.652 207.826 123.652 208.717C123.652 209.609 122.928 210.331 122.034 210.331C121.141 210.331 120.416 209.609 120.416 208.717C120.416 207.826 121.141 207.103 122.034 207.103ZM133.897 207.036C134.791 207.036 135.515 207.758 135.515 208.65C135.515 209.541 134.791 210.263 133.897 210.263C133.004 210.263 132.28 209.541 132.28 208.65C132.28 207.758 133.004 207.036 133.897 207.036ZM145.761 207.036C146.654 207.036 147.378 207.758 147.378 208.65C147.378 209.541 146.654 210.263 145.761 210.263C144.867 210.263 144.143 209.541 144.143 208.65C144.143 207.758 144.867 207.036 145.761 207.036ZM157.624 207.036C158.517 207.036 159.242 207.758 159.242 208.65C159.242 209.541 158.517 210.263 157.624 210.263C156.731 210.263 156.006 209.541 156.006 208.65C156.006 207.758 156.731 207.036 157.624 207.036ZM169.487 207.036C170.381 207.036 171.105 207.758 171.105 208.65C171.105 209.541 170.381 210.263 169.487 210.263C168.594 210.263 167.87 209.541 167.87 208.65C167.87 207.758 168.594 207.036 169.487 207.036ZM181.351 207.036C182.244 207.036 182.968 207.758 182.968 208.65C182.968 209.541 182.244 210.263 181.351 210.263C180.457 210.263 179.733 209.541 179.733 208.65C179.733 207.758 180.457 207.036 181.351 207.036ZM193.214 207.036C194.107 207.036 194.832 207.758 194.832 208.65C194.832 209.541 194.107 210.263 193.214 210.263C192.32 210.263 191.596 209.541 191.596 208.65C191.596 207.758 192.32 207.036 193.214 207.036ZM205.077 207.036C205.971 207.036 206.695 207.758 206.695 208.65C206.695 209.541 205.971 210.263 205.077 210.263C204.184 210.263 203.46 209.541 203.46 208.65C203.46 207.758 204.184 207.036 205.077 207.036ZM27.1277 195.269C28.0212 195.269 28.7455 195.991 28.7455 196.883C28.7455 197.774 28.0212 198.497 27.1277 198.497C26.2343 198.497 25.51 197.774 25.51 196.883C25.51 195.991 26.2343 195.269 27.1277 195.269ZM38.991 195.269C39.8845 195.269 40.6088 195.991 40.6088 196.883C40.6088 197.774 39.8845 198.497 38.991 198.497C38.0976 198.497 37.3733 197.774 37.3733 196.883C37.3733 195.991 38.0976 195.269 38.991 195.269ZM50.8543 195.269C51.7478 195.269 52.4721 195.991 52.4721 196.883C52.4721 197.774 51.7478 198.497 50.8543 198.497C49.9609 198.497 49.2366 197.774 49.2366 196.883C49.2366 195.991 49.9609 195.269 50.8543 195.269ZM62.7176 195.269C63.6111 195.269 64.3354 195.991 64.3354 196.883C64.3354 197.774 63.6111 198.497 62.7176 198.497C61.8242 198.497 61.0999 197.774 61.0999 196.883C61.0999 195.991 61.8242 195.269 62.7176 195.269ZM74.5809 195.269C75.4744 195.269 76.1987 195.991 76.1987 196.883C76.1987 197.774 75.4744 198.497 74.5809 198.497C73.6875 198.497 72.9632 197.774 72.9632 196.883C72.9632 195.991 73.6875 195.269 74.5809 195.269ZM86.4442 195.269C87.3377 195.269 88.062 195.991 88.062 196.883C88.062 197.774 87.3377 198.497 86.4442 198.497C85.5508 198.497 84.8265 197.774 84.8265 196.883C84.8265 195.991 85.5508 195.269 86.4442 195.269ZM98.3075 195.269C99.201 195.269 99.9253 195.991 99.9253 196.883C99.9253 197.774 99.201 198.497 98.3075 198.497C97.4141 198.497 96.6898 197.774 96.6898 196.883C96.6898 195.991 97.4141 195.269 98.3075 195.269ZM110.171 195.269C111.064 195.269 111.789 195.991 111.789 196.883C111.789 197.774 111.064 198.497 110.171 198.497C109.277 198.497 108.553 197.774 108.553 196.883C108.553 195.991 109.277 195.269 110.171 195.269ZM122.034 195.269C122.928 195.269 123.652 195.991 123.652 196.883C123.652 197.774 122.928 198.497 122.034 198.497C121.141 198.497 120.416 197.774 120.416 196.883C120.416 195.991 121.141 195.269 122.034 195.269ZM133.897 195.201C134.791 195.201 135.515 195.924 135.515 196.815C135.515 197.706 134.791 198.429 133.897 198.429C133.004 198.429 132.28 197.706 132.28 196.815C132.28 195.924 133.004 195.201 133.897 195.201ZM145.761 195.201C146.654 195.201 147.378 195.924 147.378 196.815C147.378 197.706 146.654 198.429 145.761 198.429C144.867 198.429 144.143 197.706 144.143 196.815C144.143 195.924 144.867 195.201 145.761 195.201ZM157.624 195.201C158.517 195.201 159.242 195.924 159.242 196.815C159.242 197.706 158.517 198.429 157.624 198.429C156.731 198.429 156.006 197.706 156.006 196.815C156.006 195.924 156.731 195.201 157.624 195.201ZM169.487 195.201C170.381 195.201 171.105 195.924 171.105 196.815C171.105 197.706 170.381 198.429 169.487 198.429C168.594 198.429 167.87 197.706 167.87 196.815C167.87 195.924 168.594 195.201 169.487 195.201ZM181.351 195.201C182.244 195.201 182.968 195.924 182.968 196.815C182.968 197.706 182.244 198.429 181.351 198.429C180.457 198.429 179.733 197.706 179.733 196.815C179.733 195.924 180.457 195.201 181.351 195.201ZM193.214 195.201C194.107 195.201 194.832 195.924 194.832 196.815C194.832 197.706 194.107 198.429 193.214 198.429C192.32 198.429 191.596 197.706 191.596 196.815C191.596 195.924 192.32 195.201 193.214 195.201ZM205.077 195.201C205.971 195.201 206.695 195.924 206.695 196.815C206.695 197.706 205.971 198.429 205.077 198.429C204.184 198.429 203.46 197.706 203.46 196.815C203.46 195.924 204.184 195.201 205.077 195.201ZM27.1277 183.434C28.0212 183.434 28.7455 184.157 28.7455 185.048C28.7455 185.94 28.0212 186.662 27.1277 186.662C26.2343 186.662 25.51 185.94 25.51 185.048C25.51 184.157 26.2343 183.434 27.1277 183.434ZM38.991 183.434C39.8845 183.434 40.6088 184.157 40.6088 185.048C40.6088 185.94 39.8845 186.662 38.991 186.662C38.0976 186.662 37.3733 185.94 37.3733 185.048C37.3733 184.157 38.0976 183.434 38.991 183.434ZM50.8543 183.434C51.7478 183.434 52.4721 184.157 52.4721 185.048C52.4721 185.94 51.7478 186.662 50.8543 186.662C49.9609 186.662 49.2366 185.94 49.2366 185.048C49.2366 184.157 49.9609 183.434 50.8543 183.434ZM62.7176 183.434C63.6111 183.434 64.3354 184.157 64.3354 185.048C64.3354 185.94 63.6111 186.662 62.7176 186.662C61.8242 186.662 61.0999 185.94 61.0999 185.048C61.0999 184.157 61.8242 183.434 62.7176 183.434ZM74.5809 183.434C75.4744 183.434 76.1987 184.157 76.1987 185.048C76.1987 185.94 75.4744 186.662 74.5809 186.662C73.6875 186.662 72.9632 185.94 72.9632 185.048C72.9632 184.157 73.6875 183.434 74.5809 183.434ZM86.4442 183.434C87.3377 183.434 88.062 184.157 88.062 185.048C88.062 185.94 87.3377 186.662 86.4442 186.662C85.5508 186.662 84.8265 185.94 84.8265 185.048C84.8265 184.157 85.5508 183.434 86.4442 183.434ZM98.3075 183.434C99.201 183.434 99.9253 184.157 99.9253 185.048C99.9253 185.94 99.201 186.662 98.3075 186.662C97.4141 186.662 96.6898 185.94 96.6898 185.048C96.6898 184.157 97.4141 183.434 98.3075 183.434ZM110.171 183.434C111.064 183.434 111.789 184.157 111.789 185.048C111.789 185.94 111.064 186.662 110.171 186.662C109.277 186.662 108.553 185.94 108.553 185.048C108.553 184.157 109.277 183.434 110.171 183.434ZM122.034 183.434C122.928 183.434 123.652 184.157 123.652 185.048C123.652 185.94 122.928 186.662 122.034 186.662C121.141 186.662 120.416 185.94 120.416 185.048C120.416 184.157 121.141 183.434 122.034 183.434ZM58.4037 1.61379C58.4037 2.50507 57.6794 3.22759 56.786 3.22759C55.8925 3.22759 55.1683 2.50507 55.1683 1.61379C55.1683 0.72252 55.8925 0 56.786 0C57.6794 0 58.4037 0.72252 58.4037 1.61379ZM58.4037 13.4483C58.4037 14.3395 57.6794 15.0621 56.786 15.0621C55.8925 15.0621 55.1683 14.3395 55.1683 13.4483C55.1683 12.557 55.8925 11.8345 56.786 11.8345C57.6794 11.8345 58.4037 12.557 58.4037 13.4483ZM58.4037 25.2828C58.4037 26.174 57.6794 26.8966 56.786 26.8966C55.8925 26.8966 55.1683 26.174 55.1683 25.2828C55.1683 24.3915 55.8925 23.669 56.786 23.669C57.6794 23.669 58.4037 24.3915 58.4037 25.2828ZM58.4037 37.1172C58.4037 38.0085 57.6794 38.731 56.786 38.731C55.8925 38.731 55.1683 38.0085 55.1683 37.1172C55.1683 36.226 55.8925 35.5034 56.786 35.5034C57.6794 35.5034 58.4037 36.226 58.4037 37.1172ZM58.4037 48.9517C58.4037 49.843 57.6794 50.5655 56.786 50.5655C55.8925 50.5655 55.1683 49.843 55.1683 48.9517C55.1683 48.0604 55.8925 47.3379 56.786 47.3379C57.6794 47.3379 58.4037 48.0604 58.4037 48.9517ZM58.4037 60.7862C58.4037 61.6775 57.6794 62.4 56.786 62.4C55.8925 62.4 55.1683 61.6775 55.1683 60.7862C55.1683 59.8949 55.8925 59.1724 56.786 59.1724C57.6794 59.1724 58.4037 59.8949 58.4037 60.7862ZM58.4037 72.6207C58.4037 73.512 57.6794 74.2345 56.786 74.2345C55.8925 74.2345 55.1683 73.512 55.1683 72.6207C55.1683 71.7294 55.8925 71.0069 56.786 71.0069C57.6794 71.0069 58.4037 71.7294 58.4037 72.6207ZM58.4037 84.4552C58.4037 85.3464 57.6794 86.069 56.786 86.069C55.8925 86.069 55.1683 85.3464 55.1683 84.4552C55.1683 83.5639 55.8925 82.8414 56.786 82.8414C57.6794 82.8414 58.4037 83.5639 58.4037 84.4552ZM58.4037 96.2896C58.4037 97.1809 57.6794 97.9034 56.786 97.9034C55.8925 97.9034 55.1683 97.1809 55.1683 96.2896C55.1683 95.3984 55.8925 94.6759 56.786 94.6759C57.6794 94.6759 58.4037 95.3984 58.4037 96.2896ZM58.4037 108.124C58.4037 109.015 57.6794 109.738 56.786 109.738C55.8925 109.738 55.1683 109.015 55.1683 108.124C55.1683 107.233 55.8925 106.51 56.786 106.51C57.6794 106.51 58.4037 107.233 58.4037 108.124ZM58.4037 119.959C58.4037 120.85 57.6794 121.572 56.786 121.572C55.8925 121.572 55.1683 120.85 55.1683 119.959C55.1683 119.067 55.8925 118.345 56.786 118.345C57.6794 118.345 58.4037 119.067 58.4037 119.959ZM58.4037 131.793C58.4037 132.684 57.6794 133.407 56.786 133.407C55.8925 133.407 55.1683 132.684 55.1683 131.793C55.1683 130.902 55.8925 130.179 56.786 130.179C57.6794 130.179 58.4037 130.902 58.4037 131.793ZM58.4037 143.628C58.4037 144.519 57.6794 145.241 56.786 145.241C55.8925 145.241 55.1683 144.519 55.1683 143.628C55.1683 142.736 55.8925 142.014 56.786 142.014C57.6794 142.014 58.4037 142.736 58.4037 143.628ZM58.4037 155.462C58.4037 156.353 57.6794 157.076 56.786 157.076C55.8925 157.076 55.1683 156.353 55.1683 155.462C55.1683 154.571 55.8925 153.848 56.786 153.848C57.6794 153.848 58.4037 154.571 58.4037 155.462ZM70.267 72.6207C70.267 73.512 69.5427 74.2345 68.6493 74.2345C67.7558 74.2345 67.0316 73.512 67.0316 72.6207C67.0316 71.7294 67.7558 71.0069 68.6493 71.0069C69.5427 71.0069 70.267 71.7294 70.267 72.6207ZM70.267 84.4552C70.267 85.3464 69.5427 86.069 68.6493 86.069C67.7558 86.069 67.0316 85.3464 67.0316 84.4552C67.0316 83.5639 67.7558 82.8414 68.6493 82.8414C69.5427 82.8414 70.267 83.5639 70.267 84.4552ZM70.267 96.2896C70.267 97.1809 69.5427 97.9034 68.6493 97.9034C67.7558 97.9034 67.0316 97.1809 67.0316 96.2896C67.0316 95.3984 67.7558 94.6759 68.6493 94.6759C69.5427 94.6759 70.267 95.3984 70.267 96.2896ZM70.267 108.124C70.267 109.015 69.5427 109.738 68.6493 109.738C67.7558 109.738 67.0316 109.015 67.0316 108.124C67.0316 107.233 67.7558 106.51 68.6493 106.51C69.5427 106.51 70.267 107.233 70.267 108.124ZM70.267 1.61379C70.267 2.50507 69.5427 3.22759 68.6493 3.22759C67.7558 3.22759 67.0316 2.50507 67.0316 1.61379C67.0316 0.72252 67.7558 0 68.6493 0C69.5427 0 70.267 0.72252 70.267 1.61379ZM70.267 25.2828C70.267 26.174 69.5427 26.8966 68.6493 26.8966C67.7558 26.8966 67.0316 26.174 67.0316 25.2828C67.0316 24.3915 67.7558 23.669 68.6493 23.669C69.5427 23.669 70.267 24.3915 70.267 25.2828ZM70.267 48.9517C70.267 49.843 69.5427 50.5655 68.6493 50.5655C67.7558 50.5655 67.0316 49.843 67.0316 48.9517C67.0316 48.0604 67.7558 47.3379 68.6493 47.3379C69.5427 47.3379 70.267 48.0604 70.267 48.9517ZM70.267 60.7862C70.267 61.6775 69.5427 62.4 68.6493 62.4C67.7558 62.4 67.0316 61.6775 67.0316 60.7862C67.0316 59.8949 67.7558 59.1724 68.6493 59.1724C69.5427 59.1724 70.267 59.8949 70.267 60.7862ZM70.267 131.793C70.267 132.684 69.5427 133.407 68.6493 133.407C67.7558 133.407 67.0316 132.684 67.0316 131.793C67.0316 130.902 67.7558 130.179 68.6493 130.179C69.5427 130.179 70.267 130.902 70.267 131.793ZM70.267 143.628C70.267 144.519 69.5427 145.241 68.6493 145.241C67.7558 145.241 67.0316 144.519 67.0316 143.628C67.0316 142.736 67.7558 142.014 68.6493 142.014C69.5427 142.014 70.267 142.736 70.267 143.628ZM70.267 13.4483C70.267 14.3395 69.5427 15.0621 68.6493 15.0621C67.7558 15.0621 67.0316 14.3395 67.0316 13.4483C67.0316 12.557 67.7558 11.8345 68.6493 11.8345C69.5427 11.8345 70.267 12.557 70.267 13.4483ZM70.267 155.462C70.267 156.353 69.5427 157.076 68.6493 157.076C67.7558 157.076 67.0316 156.353 67.0316 155.462C67.0316 154.571 67.7558 153.848 68.6493 153.848C69.5427 153.848 70.267 154.571 70.267 155.462ZM70.267 37.1172C70.267 38.0085 69.5427 38.731 68.6493 38.731C67.7558 38.731 67.0316 38.0085 67.0316 37.1172C67.0316 36.226 67.7558 35.5034 68.6493 35.5034C69.5427 35.5034 70.267 36.226 70.267 37.1172ZM70.267 119.959C70.267 120.85 69.5427 121.572 68.6493 121.572C67.7558 121.572 67.0316 120.85 67.0316 119.959C67.0316 119.067 67.7558 118.345 68.6493 118.345C69.5427 118.345 70.267 119.067 70.267 119.959ZM82.1303 1.61379C82.1303 2.50507 81.406 3.22759 80.5126 3.22759C79.6191 3.22759 78.8949 2.50507 78.8949 1.61379C78.8949 0.72252 79.6191 0 80.5126 0C81.406 0 82.1303 0.72252 82.1303 1.61379ZM82.1303 25.2828C82.1303 26.174 81.406 26.8966 80.5126 26.8966C79.6191 26.8966 78.8949 26.174 78.8949 25.2828C78.8949 24.3915 79.6191 23.669 80.5126 23.669C81.406 23.669 82.1303 24.3915 82.1303 25.2828ZM82.1303 37.1172C82.1303 38.0085 81.406 38.731 80.5126 38.731C79.6191 38.731 78.8949 38.0085 78.8949 37.1172C78.8949 36.226 79.6191 35.5034 80.5126 35.5034C81.406 35.5034 82.1303 36.226 82.1303 37.1172ZM82.1303 48.9517C82.1303 49.843 81.406 50.5655 80.5126 50.5655C79.6191 50.5655 78.8949 49.843 78.8949 48.9517C78.8949 48.0604 79.6191 47.3379 80.5126 47.3379C81.406 47.3379 82.1303 48.0604 82.1303 48.9517ZM82.1303 60.7862C82.1303 61.6775 81.406 62.4 80.5126 62.4C79.6191 62.4 78.8949 61.6775 78.8949 60.7862C78.8949 59.8949 79.6191 59.1724 80.5126 59.1724C81.406 59.1724 82.1303 59.8949 82.1303 60.7862ZM82.1303 13.4483C82.1303 14.3395 81.406 15.0621 80.5126 15.0621C79.6191 15.0621 78.8949 14.3395 78.8949 13.4483C78.8949 12.557 79.6191 11.8345 80.5126 11.8345C81.406 11.8345 82.1303 12.557 82.1303 13.4483ZM82.1303 72.6207C82.1303 73.512 81.406 74.2345 80.5126 74.2345C79.6191 74.2345 78.8949 73.512 78.8949 72.6207C78.8949 71.7294 79.6191 71.0069 80.5126 71.0069C81.406 71.0069 82.1303 71.7294 82.1303 72.6207ZM82.1303 84.4552C82.1303 85.3464 81.406 86.069 80.5126 86.069C79.6191 86.069 78.8949 85.3464 78.8949 84.4552C78.8949 83.5639 79.6191 82.8414 80.5126 82.8414C81.406 82.8414 82.1303 83.5639 82.1303 84.4552ZM82.1303 96.2896C82.1303 97.1809 81.406 97.9034 80.5126 97.9034C79.6191 97.9034 78.8949 97.1809 78.8949 96.2896C78.8949 95.3984 79.6191 94.6759 80.5126 94.6759C81.406 94.6759 82.1303 95.3984 82.1303 96.2896ZM82.1303 108.124C82.1303 109.015 81.406 109.738 80.5126 109.738C79.6191 109.738 78.8949 109.015 78.8949 108.124C78.8949 107.233 79.6191 106.51 80.5126 106.51C81.406 106.51 82.1303 107.233 82.1303 108.124ZM82.1303 119.959C82.1303 120.85 81.406 121.572 80.5126 121.572C79.6191 121.572 78.8949 120.85 78.8949 119.959C78.8949 119.067 79.6191 118.345 80.5126 118.345C81.406 118.345 82.1303 119.067 82.1303 119.959ZM82.1303 131.793C82.1303 132.684 81.406 133.407 80.5126 133.407C79.6191 133.407 78.8949 132.684 78.8949 131.793C78.8949 130.902 79.6191 130.179 80.5126 130.179C81.406 130.179 82.1303 130.902 82.1303 131.793ZM82.1303 143.628C82.1303 144.519 81.406 145.241 80.5126 145.241C79.6191 145.241 78.8949 144.519 78.8949 143.628C78.8949 142.736 79.6191 142.014 80.5126 142.014C81.406 142.014 82.1303 142.736 82.1303 143.628ZM82.1303 155.462C82.1303 156.353 81.406 157.076 80.5126 157.076C79.6191 157.076 78.8949 156.353 78.8949 155.462C78.8949 154.571 79.6191 153.848 80.5126 153.848C81.406 153.848 82.1303 154.571 82.1303 155.462ZM93.9936 1.61379C93.9936 2.50507 93.2693 3.22759 92.3759 3.22759C91.4824 3.22759 90.7582 2.50507 90.7582 1.61379C90.7582 0.72252 91.4824 0 92.3759 0C93.2693 0 93.9936 0.72252 93.9936 1.61379ZM93.9936 13.4483C93.9936 14.3395 93.2693 15.0621 92.3759 15.0621C91.4824 15.0621 90.7582 14.3395 90.7582 13.4483C90.7582 12.557 91.4824 11.8345 92.3759 11.8345C93.2693 11.8345 93.9936 12.557 93.9936 13.4483ZM93.9936 25.2828C93.9936 26.174 93.2693 26.8966 92.3759 26.8966C91.4824 26.8966 90.7582 26.174 90.7582 25.2828C90.7582 24.3915 91.4824 23.669 92.3759 23.669C93.2693 23.669 93.9936 24.3915 93.9936 25.2828ZM93.9936 37.1172C93.9936 38.0085 93.2693 38.731 92.3759 38.731C91.4824 38.731 90.7582 38.0085 90.7582 37.1172C90.7582 36.226 91.4824 35.5034 92.3759 35.5034C93.2693 35.5034 93.9936 36.226 93.9936 37.1172ZM93.9936 48.9517C93.9936 49.843 93.2693 50.5655 92.3759 50.5655C91.4824 50.5655 90.7582 49.843 90.7582 48.9517C90.7582 48.0604 91.4824 47.3379 92.3759 47.3379C93.2693 47.3379 93.9936 48.0604 93.9936 48.9517ZM93.9936 60.7862C93.9936 61.6775 93.2693 62.4 92.3759 62.4C91.4824 62.4 90.7582 61.6775 90.7582 60.7862C90.7582 59.8949 91.4824 59.1724 92.3759 59.1724C93.2693 59.1724 93.9936 59.8949 93.9936 60.7862ZM93.9936 72.6207C93.9936 73.512 93.2693 74.2345 92.3759 74.2345C91.4824 74.2345 90.7582 73.512 90.7582 72.6207C90.7582 71.7294 91.4824 71.0069 92.3759 71.0069C93.2693 71.0069 93.9936 71.7294 93.9936 72.6207ZM93.9936 84.4552C93.9936 85.3464 93.2693 86.069 92.3759 86.069C91.4824 86.069 90.7582 85.3464 90.7582 84.4552C90.7582 83.5639 91.4824 82.8414 92.3759 82.8414C93.2693 82.8414 93.9936 83.5639 93.9936 84.4552ZM93.9936 96.2896C93.9936 97.1809 93.2693 97.9034 92.3759 97.9034C91.4824 97.9034 90.7582 97.1809 90.7582 96.2896C90.7582 95.3984 91.4824 94.6759 92.3759 94.6759C93.2693 94.6759 93.9936 95.3984 93.9936 96.2896ZM93.9936 108.124C93.9936 109.015 93.2693 109.738 92.3759 109.738C91.4824 109.738 90.7582 109.015 90.7582 108.124C90.7582 107.233 91.4824 106.51 92.3759 106.51C93.2693 106.51 93.9936 107.233 93.9936 108.124ZM93.9936 119.959C93.9936 120.85 93.2693 121.572 92.3759 121.572C91.4824 121.572 90.7582 120.85 90.7582 119.959C90.7582 119.067 91.4824 118.345 92.3759 118.345C93.2693 118.345 93.9936 119.067 93.9936 119.959ZM93.9936 131.793C93.9936 132.684 93.2693 133.407 92.3759 133.407C91.4824 133.407 90.7582 132.684 90.7582 131.793C90.7582 130.902 91.4824 130.179 92.3759 130.179C93.2693 130.179 93.9936 130.902 93.9936 131.793ZM93.9936 143.628C93.9936 144.519 93.2693 145.241 92.3759 145.241C91.4824 145.241 90.7582 144.519 90.7582 143.628C90.7582 142.736 91.4824 142.014 92.3759 142.014C93.2693 142.014 93.9936 142.736 93.9936 143.628ZM93.9936 155.462C93.9936 156.353 93.2693 157.076 92.3759 157.076C91.4824 157.076 90.7582 156.353 90.7582 155.462C90.7582 154.571 91.4824 153.848 92.3759 153.848C93.2693 153.848 93.9936 154.571 93.9936 155.462ZM105.857 1.61379C105.857 2.50507 105.133 3.22759 104.239 3.22759C103.346 3.22759 102.621 2.50507 102.621 1.61379C102.621 0.72252 103.346 0 104.239 0C105.133 0 105.857 0.72252 105.857 1.61379ZM105.857 13.4483C105.857 14.3395 105.133 15.0621 104.239 15.0621C103.346 15.0621 102.621 14.3395 102.621 13.4483C102.621 12.557 103.346 11.8345 104.239 11.8345C105.133 11.8345 105.857 12.557 105.857 13.4483ZM105.857 25.2828C105.857 26.174 105.133 26.8966 104.239 26.8966C103.346 26.8966 102.621 26.174 102.621 25.2828C102.621 24.3915 103.346 23.669 104.239 23.669C105.133 23.669 105.857 24.3915 105.857 25.2828ZM105.857 37.1172C105.857 38.0085 105.133 38.731 104.239 38.731C103.346 38.731 102.621 38.0085 102.621 37.1172C102.621 36.226 103.346 35.5034 104.239 35.5034C105.133 35.5034 105.857 36.226 105.857 37.1172ZM105.857 48.9517C105.857 49.843 105.133 50.5655 104.239 50.5655C103.346 50.5655 102.621 49.843 102.621 48.9517C102.621 48.0604 103.346 47.3379 104.239 47.3379C105.133 47.3379 105.857 48.0604 105.857 48.9517ZM105.857 60.7862C105.857 61.6775 105.133 62.4 104.239 62.4C103.346 62.4 102.621 61.6775 102.621 60.7862C102.621 59.8949 103.346 59.1724 104.239 59.1724C105.133 59.1724 105.857 59.8949 105.857 60.7862ZM105.857 72.6207C105.857 73.512 105.133 74.2345 104.239 74.2345C103.346 74.2345 102.621 73.512 102.621 72.6207C102.621 71.7294 103.346 71.0069 104.239 71.0069C105.133 71.0069 105.857 71.7294 105.857 72.6207ZM105.857 84.4552C105.857 85.3464 105.133 86.069 104.239 86.069C103.346 86.069 102.621 85.3464 102.621 84.4552C102.621 83.5639 103.346 82.8414 104.239 82.8414C105.133 82.8414 105.857 83.5639 105.857 84.4552ZM105.857 96.2896C105.857 97.1809 105.133 97.9034 104.239 97.9034C103.346 97.9034 102.621 97.1809 102.621 96.2896C102.621 95.3984 103.346 94.6759 104.239 94.6759C105.133 94.6759 105.857 95.3984 105.857 96.2896ZM105.857 108.124C105.857 109.015 105.133 109.738 104.239 109.738C103.346 109.738 102.621 109.015 102.621 108.124C102.621 107.233 103.346 106.51 104.239 106.51C105.133 106.51 105.857 107.233 105.857 108.124ZM105.857 119.959C105.857 120.85 105.133 121.572 104.239 121.572C103.346 121.572 102.621 120.85 102.621 119.959C102.621 119.067 103.346 118.345 104.239 118.345C105.133 118.345 105.857 119.067 105.857 119.959ZM105.857 131.793C105.857 132.684 105.133 133.407 104.239 133.407C103.346 133.407 102.621 132.684 102.621 131.793C102.621 130.902 103.346 130.179 104.239 130.179C105.133 130.179 105.857 130.902 105.857 131.793ZM105.857 143.628C105.857 144.519 105.133 145.241 104.239 145.241C103.346 145.241 102.621 144.519 102.621 143.628C102.621 142.736 103.346 142.014 104.239 142.014C105.133 142.014 105.857 142.736 105.857 143.628ZM105.857 155.462C105.857 156.353 105.133 157.076 104.239 157.076C103.346 157.076 102.621 156.353 102.621 155.462C102.621 154.571 103.346 153.848 104.239 153.848C105.133 153.848 105.857 154.571 105.857 155.462ZM117.72 1.61379C117.72 2.50507 116.996 3.22759 116.102 3.22759C115.209 3.22759 114.485 2.50507 114.485 1.61379C114.485 0.72252 115.209 0 116.102 0C116.996 0 117.72 0.72252 117.72 1.61379ZM117.72 13.4483C117.72 14.3395 116.996 15.0621 116.102 15.0621C115.209 15.0621 114.485 14.3395 114.485 13.4483C114.485 12.557 115.209 11.8345 116.102 11.8345C116.996 11.8345 117.72 12.557 117.72 13.4483ZM117.72 25.2828C117.72 26.174 116.996 26.8966 116.102 26.8966C115.209 26.8966 114.485 26.174 114.485 25.2828C114.485 24.3915 115.209 23.669 116.102 23.669C116.996 23.669 117.72 24.3915 117.72 25.2828ZM117.72 37.1172C117.72 38.0085 116.996 38.731 116.102 38.731C115.209 38.731 114.485 38.0085 114.485 37.1172C114.485 36.226 115.209 35.5034 116.102 35.5034C116.996 35.5034 117.72 36.226 117.72 37.1172ZM117.72 48.9517C117.72 49.843 116.996 50.5655 116.102 50.5655C115.209 50.5655 114.485 49.843 114.485 48.9517C114.485 48.0604 115.209 47.3379 116.102 47.3379C116.996 47.3379 117.72 48.0604 117.72 48.9517ZM117.72 60.7862C117.72 61.6775 116.996 62.4 116.102 62.4C115.209 62.4 114.485 61.6775 114.485 60.7862C114.485 59.8949 115.209 59.1724 116.102 59.1724C116.996 59.1724 117.72 59.8949 117.72 60.7862ZM117.72 72.6207C117.72 73.512 116.996 74.2345 116.102 74.2345C115.209 74.2345 114.485 73.512 114.485 72.6207C114.485 71.7294 115.209 71.0069 116.102 71.0069C116.996 71.0069 117.72 71.7294 117.72 72.6207ZM117.72 84.4552C117.72 85.3464 116.996 86.069 116.102 86.069C115.209 86.069 114.485 85.3464 114.485 84.4552C114.485 83.5639 115.209 82.8414 116.102 82.8414C116.996 82.8414 117.72 83.5639 117.72 84.4552ZM117.72 96.2896C117.72 97.1809 116.996 97.9034 116.102 97.9034C115.209 97.9034 114.485 97.1809 114.485 96.2896C114.485 95.3984 115.209 94.6759 116.102 94.6759C116.996 94.6759 117.72 95.3984 117.72 96.2896ZM117.72 108.124C117.72 109.015 116.996 109.738 116.102 109.738C115.209 109.738 114.485 109.015 114.485 108.124C114.485 107.233 115.209 106.51 116.102 106.51C116.996 106.51 117.72 107.233 117.72 108.124ZM117.72 119.959C117.72 120.85 116.996 121.572 116.102 121.572C115.209 121.572 114.485 120.85 114.485 119.959C114.485 119.067 115.209 118.345 116.102 118.345C116.996 118.345 117.72 119.067 117.72 119.959ZM117.72 131.793C117.72 132.684 116.996 133.407 116.102 133.407C115.209 133.407 114.485 132.684 114.485 131.793C114.485 130.902 115.209 130.179 116.102 130.179C116.996 130.179 117.72 130.902 117.72 131.793ZM117.72 143.628C117.72 144.519 116.996 145.241 116.102 145.241C115.209 145.241 114.485 144.519 114.485 143.628C114.485 142.736 115.209 142.014 116.102 142.014C116.996 142.014 117.72 142.736 117.72 143.628ZM117.72 155.462C117.72 156.353 116.996 157.076 116.102 157.076C115.209 157.076 114.485 156.353 114.485 155.462C114.485 154.571 115.209 153.848 116.102 153.848C116.996 153.848 117.72 154.571 117.72 155.462ZM129.584 1.61379C129.584 2.50507 128.859 3.22759 127.966 3.22759C127.072 3.22759 126.348 2.50507 126.348 1.61379C126.348 0.72252 127.072 0 127.966 0C128.859 0 129.584 0.72252 129.584 1.61379ZM129.584 13.4483C129.584 14.3395 128.859 15.0621 127.966 15.0621C127.072 15.0621 126.348 14.3395 126.348 13.4483C126.348 12.557 127.072 11.8345 127.966 11.8345C128.859 11.8345 129.584 12.557 129.584 13.4483ZM129.584 25.2828C129.584 26.174 128.859 26.8966 127.966 26.8966C127.072 26.8966 126.348 26.174 126.348 25.2828C126.348 24.3915 127.072 23.669 127.966 23.669C128.859 23.669 129.584 24.3915 129.584 25.2828ZM129.584 37.1172C129.584 38.0085 128.859 38.731 127.966 38.731C127.072 38.731 126.348 38.0085 126.348 37.1172C126.348 36.226 127.072 35.5034 127.966 35.5034C128.859 35.5034 129.584 36.226 129.584 37.1172ZM129.584 48.9517C129.584 49.843 128.859 50.5655 127.966 50.5655C127.072 50.5655 126.348 49.843 126.348 48.9517C126.348 48.0604 127.072 47.3379 127.966 47.3379C128.859 47.3379 129.584 48.0604 129.584 48.9517ZM129.584 60.7862C129.584 61.6775 128.859 62.4 127.966 62.4C127.072 62.4 126.348 61.6775 126.348 60.7862C126.348 59.8949 127.072 59.1724 127.966 59.1724C128.859 59.1724 129.584 59.8949 129.584 60.7862ZM129.584 72.6207C129.584 73.512 128.859 74.2345 127.966 74.2345C127.072 74.2345 126.348 73.512 126.348 72.6207C126.348 71.7294 127.072 71.0069 127.966 71.0069C128.859 71.0069 129.584 71.7294 129.584 72.6207ZM129.584 84.4552C129.584 85.3464 128.859 86.069 127.966 86.069C127.072 86.069 126.348 85.3464 126.348 84.4552C126.348 83.5639 127.072 82.8414 127.966 82.8414C128.859 82.8414 129.584 83.5639 129.584 84.4552ZM129.584 96.2896C129.584 97.1809 128.859 97.9034 127.966 97.9034C127.072 97.9034 126.348 97.1809 126.348 96.2896C126.348 95.3984 127.072 94.6759 127.966 94.6759C128.859 94.6759 129.584 95.3984 129.584 96.2896ZM129.584 108.124C129.584 109.015 128.859 109.738 127.966 109.738C127.072 109.738 126.348 109.015 126.348 108.124C126.348 107.233 127.072 106.51 127.966 106.51C128.859 106.51 129.584 107.233 129.584 108.124ZM129.584 119.959C129.584 120.85 128.859 121.572 127.966 121.572C127.072 121.572 126.348 120.85 126.348 119.959C126.348 119.067 127.072 118.345 127.966 118.345C128.859 118.345 129.584 119.067 129.584 119.959ZM129.584 131.793C129.584 132.684 128.859 133.407 127.966 133.407C127.072 133.407 126.348 132.684 126.348 131.793C126.348 130.902 127.072 130.179 127.966 130.179C128.859 130.179 129.584 130.902 129.584 131.793ZM129.584 143.628C129.584 144.519 128.859 145.241 127.966 145.241C127.072 145.241 126.348 144.519 126.348 143.628C126.348 142.736 127.072 142.014 127.966 142.014C128.859 142.014 129.584 142.736 129.584 143.628ZM129.584 155.462C129.584 156.353 128.859 157.076 127.966 157.076C127.072 157.076 126.348 156.353 126.348 155.462C126.348 154.571 127.072 153.848 127.966 153.848C128.859 153.848 129.584 154.571 129.584 155.462ZM141.447 1.61379C141.447 2.50507 140.723 3.22759 139.829 3.22759C138.936 3.22759 138.211 2.50507 138.211 1.61379C138.211 0.72252 138.936 0 139.829 0C140.723 0 141.447 0.72252 141.447 1.61379ZM141.447 13.4483C141.447 14.3395 140.723 15.0621 139.829 15.0621C138.936 15.0621 138.211 14.3395 138.211 13.4483C138.211 12.557 138.936 11.8345 139.829 11.8345C140.723 11.8345 141.447 12.557 141.447 13.4483ZM141.447 25.2828C141.447 26.174 140.723 26.8966 139.829 26.8966C138.936 26.8966 138.211 26.174 138.211 25.2828C138.211 24.3915 138.936 23.669 139.829 23.669C140.723 23.669 141.447 24.3915 141.447 25.2828ZM141.447 37.1172C141.447 38.0085 140.723 38.731 139.829 38.731C138.936 38.731 138.211 38.0085 138.211 37.1172C138.211 36.226 138.936 35.5034 139.829 35.5034C140.723 35.5034 141.447 36.226 141.447 37.1172ZM141.447 48.9517C141.447 49.843 140.723 50.5655 139.829 50.5655C138.936 50.5655 138.211 49.843 138.211 48.9517C138.211 48.0604 138.936 47.3379 139.829 47.3379C140.723 47.3379 141.447 48.0604 141.447 48.9517ZM141.447 60.7862C141.447 61.6775 140.723 62.4 139.829 62.4C138.936 62.4 138.211 61.6775 138.211 60.7862C138.211 59.8949 138.936 59.1724 139.829 59.1724C140.723 59.1724 141.447 59.8949 141.447 60.7862ZM141.447 72.6207C141.447 73.512 140.723 74.2345 139.829 74.2345C138.936 74.2345 138.211 73.512 138.211 72.6207C138.211 71.7294 138.936 71.0069 139.829 71.0069C140.723 71.0069 141.447 71.7294 141.447 72.6207ZM141.447 84.4552C141.447 85.3464 140.723 86.069 139.829 86.069C138.936 86.069 138.211 85.3464 138.211 84.4552C138.211 83.5639 138.936 82.8414 139.829 82.8414C140.723 82.8414 141.447 83.5639 141.447 84.4552ZM141.447 96.2896C141.447 97.1809 140.723 97.9034 139.829 97.9034C138.936 97.9034 138.211 97.1809 138.211 96.2896C138.211 95.3984 138.936 94.6759 139.829 94.6759C140.723 94.6759 141.447 95.3984 141.447 96.2896ZM141.447 108.124C141.447 109.015 140.723 109.738 139.829 109.738C138.936 109.738 138.211 109.015 138.211 108.124C138.211 107.233 138.936 106.51 139.829 106.51C140.723 106.51 141.447 107.233 141.447 108.124ZM141.447 119.959C141.447 120.85 140.723 121.572 139.829 121.572C138.936 121.572 138.211 120.85 138.211 119.959C138.211 119.067 138.936 118.345 139.829 118.345C140.723 118.345 141.447 119.067 141.447 119.959ZM141.447 131.793C141.447 132.684 140.723 133.407 139.829 133.407C138.936 133.407 138.211 132.684 138.211 131.793C138.211 130.902 138.936 130.179 139.829 130.179C140.723 130.179 141.447 130.902 141.447 131.793ZM141.447 143.628C141.447 144.519 140.723 145.241 139.829 145.241C138.936 145.241 138.211 144.519 138.211 143.628C138.211 142.736 138.936 142.014 139.829 142.014C140.723 142.014 141.447 142.736 141.447 143.628ZM141.447 155.462C141.447 156.353 140.723 157.076 139.829 157.076C138.936 157.076 138.211 156.353 138.211 155.462C138.211 154.571 138.936 153.848 139.829 153.848C140.723 153.848 141.447 154.571 141.447 155.462Z"
              fill="#F6F6F6"/>
        <path fill-rule="evenodd" clip-rule="evenodd"
              d="M114.811 17.9185C108.121 14.0272 99.8793 14.0272 93.1898 17.9185L23.8107 58.2765C17.1212 62.1678 13.0002 69.3593 13.0002 77.142V157.858C13.0002 165.641 17.1212 172.832 23.8107 176.723L93.1898 217.082C99.8793 220.973 108.121 220.973 114.811 217.082L184.19 176.723C190.879 172.832 195 165.641 195 157.858V77.142C195 69.3593 190.879 62.1678 184.19 58.2765L114.811 17.9185Z"
              fill="#F6F6F6"/>
        <path fill-rule="evenodd" clip-rule="evenodd"
              d="M3.80168 183.145C4.59155 183.145 5.30775 183.467 5.82655 183.986C6.34551 184.506 6.66708 185.224 6.66708 186.016C6.66708 186.807 6.34545 187.525 5.82643 188.045C5.30765 188.565 4.59149 188.887 3.80168 188.887C3.01186 188.887 2.29571 188.565 1.77693 188.045C1.2579 187.525 0.936279 186.807 0.936279 186.016C0.936279 185.224 1.25784 184.506 1.77681 183.986C2.2956 183.467 3.01181 183.145 3.80168 183.145ZM3.80168 183.384C3.07738 183.384 2.4203 183.679 1.94441 184.156C1.46886 184.633 1.17438 185.29 1.17438 186.016C1.17438 186.741 1.46886 187.399 1.94441 187.876C2.4203 188.352 3.07738 188.647 3.80168 188.647C4.5262 188.647 5.1832 188.352 5.65901 187.876C6.13457 187.399 6.42898 186.741 6.42898 186.016C6.42898 185.29 6.13457 184.633 5.65901 184.156C5.1832 183.679 4.5262 183.384 3.80168 183.384ZM171.287 145.367C171.343 145.367 171.399 145.389 171.443 145.433C171.486 145.476 171.508 145.533 171.508 145.589C171.508 145.646 171.486 145.703 171.443 145.747L168.955 148.238L171.443 150.73C171.486 150.774 171.508 150.831 171.508 150.888C171.508 150.944 171.486 151.001 171.443 151.045C171.4 151.088 171.343 151.11 171.287 151.11C171.23 151.11 171.174 151.088 171.131 151.045L168.642 148.552L166.154 151.045C166.111 151.088 166.055 151.11 165.998 151.11C165.942 151.11 165.885 151.088 165.842 151.045C165.799 151.001 165.777 150.944 165.777 150.888C165.777 150.831 165.799 150.774 165.842 150.73L168.329 148.238L165.842 145.747C165.799 145.703 165.777 145.646 165.777 145.589C165.777 145.533 165.799 145.476 165.843 145.432C165.885 145.389 165.942 145.367 165.998 145.367L168.642 147.924L171.131 145.432C171.174 145.389 171.23 145.367 171.287 145.367ZM41.9997 138.891C42.0563 138.891 42.1128 138.913 42.156 138.956C42.1992 138.999 42.2208 139.056 42.2208 139.113C42.2208 139.17 42.1991 139.227 42.156 139.271L39.6682 141.762L42.1557 144.254C42.1992 144.298 42.221 144.354 42.221 144.411C42.221 144.468 42.1992 144.525 42.1557 144.569C42.1127 144.612 42.0562 144.634 41.9997 144.634C41.9432 144.634 41.8867 144.612 41.8437 144.569L39.3554 142.075L36.8674 144.569C36.8244 144.612 36.7679 144.634 36.7114 144.634C36.6549 144.634 36.5984 144.612 36.5554 144.569C36.512 144.525 36.4902 144.468 36.4902 144.411C36.4902 144.354 36.512 144.298 36.5554 144.254L39.0425 141.762L36.5555 139.271C36.512 139.227 36.4904 139.17 36.4904 139.113C36.4904 139.056 36.5119 138.999 36.5551 138.956C36.5983 138.913 36.6548 138.891 36.7114 138.891L39.3554 141.449L41.8442 138.956C41.8871 138.913 41.9434 138.891 41.9997 138.891ZM168.642 83.8439C169.432 83.8439 170.148 84.166 170.667 84.6856C171.186 85.2056 171.508 85.9234 171.508 86.715C171.508 87.5067 171.186 88.2247 170.667 88.7447C170.148 89.2644 169.432 89.5865 168.642 89.5865C167.852 89.5865 167.136 89.2644 166.618 88.7446C166.099 88.2246 165.777 87.5067 165.777 86.715C165.777 85.9234 166.099 85.2056 166.618 84.6857C167.136 84.166 167.852 83.8439 168.642 83.8439ZM168.642 84.0837C167.918 84.0837 167.261 84.3787 166.785 84.8554C166.31 85.3318 166.015 85.9895 166.015 86.715C166.015 87.4404 166.31 88.0983 166.785 88.5748C167.261 89.0516 167.918 89.3467 168.642 89.3467C169.366 89.3467 170.024 89.0516 170.499 88.5748C170.975 88.0983 171.27 87.4403 171.27 86.715C171.27 85.9896 170.975 85.3318 170.5 84.8554C170.024 84.3787 169.366 84.0837 168.642 84.0837ZM206.841 38.511C206.897 38.511 206.953 38.5325 206.996 38.5756C207.04 38.6191 207.062 38.6761 207.062 38.7331C207.062 38.7899 207.04 38.8466 206.996 38.8902L204.509 41.3821L206.996 43.8741C207.04 43.9176 207.062 43.9744 207.062 44.0314C207.062 44.0883 207.04 44.1452 206.996 44.1887C206.953 44.2318 206.897 44.2536 206.84 44.2536C206.784 44.2536 206.727 44.2318 206.684 44.1887L204.196 41.6954L201.708 44.1887C201.665 44.2318 201.609 44.2536 201.552 44.2536C201.496 44.2536 201.439 44.2318 201.396 44.1887C201.353 44.1452 201.331 44.0883 201.331 44.0314C201.331 43.9744 201.353 43.9176 201.396 43.874L203.883 41.3821L201.396 38.8899C201.353 38.8466 201.331 38.7899 201.331 38.7331C201.331 38.6761 201.353 38.6191 201.396 38.5756C201.439 38.5325 201.496 38.511 201.552 38.511L204.196 41.0679L206.684 38.5759C206.727 38.5327 206.784 38.511 206.841 38.511ZM41.2479 39.224C41.8417 39.7467 42.1677 40.4628 42.2149 41.1968C42.2622 41.9308 42.0309 42.6828 41.509 43.2775C41.0061 43.8509 40.3111 44.1952 39.5511 44.2468C38.6656 44.2509 37.9958 44.0066 37.4647 43.5384C36.8895 43.0325 36.5458 42.3323 36.4962 41.5663C36.4471 40.801 36.6983 40.0619 37.2043 39.4855C37.7256 38.8909 38.4399 38.5644 39.1721 38.517C39.9042 38.4697 40.6545 38.7015 41.2479 39.224ZM39.3578 38.7508C38.6277 38.7508 37.901 39.0531 37.3821 39.6442C36.9191 40.1726 36.6888 40.8495 36.7345 41.5513C36.7796 42.2524 37.0947 42.8942 37.6214 43.358C38.1493 43.8228 38.827 44.0554 39.5265 44.0079C40.2261 43.9627 40.8671 43.6465 41.3302 43.1187C41.8082 42.5739 42.0207 41.885 41.9775 41.2125C41.9342 40.5399 41.6353 39.8839 41.0914 39.4046C40.593 38.9664 39.974 38.7508 39.3578 38.7508Z"
              stroke="#E5E5E5" stroke-width="0.733542"/>
        <path fill-rule="evenodd" clip-rule="evenodd"
              d="M144.905 90.1685C144.226 90.1685 143.674 89.616 143.674 88.9369C143.674 88.2578 144.226 87.7053 144.905 87.7053C145.584 87.7053 146.137 88.2578 146.137 88.9369C146.137 89.616 145.584 90.1685 144.905 90.1685Z"
              fill="#ECECFE"/>
        <path fill-rule="evenodd" clip-rule="evenodd"
              d="M63.6212 90.1685C62.9421 90.1685 62.3896 89.616 62.3896 88.9369C62.3896 88.2578 62.9421 87.7053 63.6212 87.7053C64.3003 87.7053 64.8528 88.2578 64.8528 88.9369C64.8528 89.616 64.3003 90.1685 63.6212 90.1685Z"
              fill="#ECECFE"/>
        <path fill-rule="evenodd" clip-rule="evenodd"
              d="M68.5475 151.747C67.8684 151.747 67.3159 151.195 67.3159 150.516C67.3159 149.837 67.8684 149.284 68.5475 149.284C69.2266 149.284 69.7791 149.837 69.7791 150.516C69.7791 151.195 69.2266 151.747 68.5475 151.747Z"
              fill="#ECECFE"/>
        <path fill-rule="evenodd" clip-rule="evenodd"
              d="M78.4003 75.3894C77.7212 75.3894 77.1687 74.8369 77.1687 74.1578C77.1687 73.4787 77.7212 72.9263 78.4003 72.9263C79.0794 72.9263 79.6319 73.4787 79.6319 74.1578C79.6319 74.8369 79.0794 75.3894 78.4003 75.3894Z"
              fill="#ECECFE"/>
        <path fill-rule="evenodd" clip-rule="evenodd"
              d="M122.737 164.063C122.058 164.063 121.506 163.511 121.506 162.832C121.506 162.153 122.058 161.6 122.737 161.6C123.416 161.6 123.969 162.153 123.969 162.832C123.969 163.511 123.416 164.063 122.737 164.063Z"
              fill="#ECECFE"/>
    </g>
    <defs>
        <clipPath id="clip0_2129_23917">
            <rect width="206.859" height="234" fill="white" transform="translate(0.570557)"/>
        </clipPath>
    </defs>
</svg>
