<svg width="1693" height="1244" viewBox="0 0 1693 1244" fill="none" xmlns="http://www.w3.org/2000/svg">
<path fill-rule="evenodd" clip-rule="evenodd" d="M54.9959 1121.82C58.4018 1123.79 62.5982 1123.79 66.0041 1121.82L81.4097 1112.93C84.8156 1110.96 86.9138 1107.33 86.9138 1103.39V1085.61C86.9138 1081.67 84.8156 1078.04 81.4097 1076.07L66.0041 1067.18C62.5982 1065.21 58.4018 1065.21 54.9959 1067.18L39.5903 1076.07C36.1844 1078.04 34.0862 1081.67 34.0862 1085.61L34.0862 1103.39C34.0862 1107.33 36.1844 1110.96 39.5903 1112.93L54.9959 1121.82Z" fill="#1B1B35"/>
<path fill-rule="evenodd" clip-rule="evenodd" d="M307.996 1240.82C311.402 1242.79 315.598 1242.79 319.004 1240.82L359.524 1217.43C362.93 1215.46 365.029 1211.83 365.029 1207.89V1161.11C365.029 1157.17 362.93 1153.54 359.524 1151.57L319.004 1128.18C315.598 1126.21 311.402 1126.21 307.996 1128.18L267.476 1151.57C264.07 1153.54 261.971 1157.17 261.971 1161.11V1207.89C261.971 1211.83 264.07 1215.46 267.476 1217.43L307.996 1240.82Z" fill="#1B1B35"/>
<path fill-rule="evenodd" clip-rule="evenodd" d="M1634 373.178C1637.4 371.211 1641.6 371.211 1645 373.178L1680.33 393.572C1683.73 395.539 1685.83 399.173 1685.83 403.106V443.894C1685.83 447.827 1683.73 451.461 1680.33 453.428L1645 473.822C1641.6 475.789 1637.4 475.789 1634 473.822L1598.67 453.428C1595.27 451.461 1593.17 447.827 1593.17 443.894V403.106C1593.17 399.173 1595.27 395.539 1598.67 393.572L1634 373.178Z" fill="#F6F6F6"/>
<path fill-rule="evenodd" clip-rule="evenodd" d="M153.428 13.7712C122.525 -4.03699 84.4754 -4.03701 53.5718 13.7711L-0.999874 45.2179C-0.999863 398 -1.00016 813 -0.999874 969.782L53.5717 1001.23C84.4754 1019.04 122.525 1019.04 153.428 1001.23L506.793 797.604C537.773 779.751 556.864 746.716 556.864 710.96V304.04C556.864 268.284 537.773 235.249 506.793 217.396L153.428 13.7712Z" fill="#F6F6F6"/>
</svg>
