<svg width="1817" height="1015" viewBox="0 0 1817 1015" fill="none" xmlns="http://www.w3.org/2000/svg">
<path fill-rule="evenodd" clip-rule="evenodd" d="M418 193.557C416.453 194.45 414.547 194.45 413 193.557L401.979 187.193C400.432 186.3 399.479 184.65 399.479 182.863V170.137C399.479 168.35 400.432 166.7 401.979 165.807L413 159.443C414.547 158.55 416.453 158.55 418 159.443L429.021 165.807C430.568 166.7 431.521 168.35 431.521 170.137V182.863C431.521 184.65 430.568 186.3 429.021 187.193L418 193.557Z" fill="#1B1B35"/>
<path fill-rule="evenodd" clip-rule="evenodd" d="M304 294.691C301.525 296.12 298.475 296.12 296 294.691L277.153 283.809C274.678 282.38 273.153 279.739 273.153 276.881V255.119C273.153 252.261 274.678 249.62 277.153 248.191L296 237.309C298.475 235.88 301.525 235.88 304 237.309L322.847 248.191C325.322 249.62 326.847 252.261 326.847 255.119V276.881C326.847 279.739 325.322 282.38 322.847 283.809L304 294.691Z" fill="#1B1B35"/>
<path fill-rule="evenodd" clip-rule="evenodd" d="M59.0041 373.178C55.5982 371.211 51.4018 371.211 47.9959 373.178L12.6718 393.572C9.2658 395.539 7.16764 399.173 7.16764 403.106V443.894C7.16764 447.827 9.2658 451.461 12.6718 453.428L47.9959 473.822C51.4018 475.789 55.5982 475.789 59.0041 473.822L94.3282 453.428C97.7342 451.461 99.8324 447.827 99.8324 443.894V403.106C99.8324 399.173 97.7342 395.539 94.3282 393.572L59.0041 373.178Z" fill="#F6F6F6"/>
<path fill-rule="evenodd" clip-rule="evenodd" d="M1539.57 13.7712C1570.48 -4.03699 1608.52 -4.03701 1639.43 13.7711L1816.11 115.584C1816.11 304.04 1816.11 710.96 1816.11 899.416L1639.43 1001.23C1608.52 1019.04 1570.48 1019.04 1539.57 1001.23L1186.21 797.604C1155.23 779.751 1136.14 746.716 1136.14 710.96V304.04C1136.14 268.284 1155.23 235.249 1186.21 217.396L1539.57 13.7712Z" fill="#F6F6F6"/>
</svg>
