<svg width="1920" height="1330" viewBox="0 0 1920 1330" fill="none" xmlns="http://www.w3.org/2000/svg">
<path fill-rule="evenodd" clip-rule="evenodd" d="M1920.06 1163.69L1842.6 1118.96C1836.04 1115.18 1832 1108.18 1832 1100.61V965.079C1832 957.507 1836.04 950.511 1842.6 946.725L1920.06 902C1920.06 918.344 1920.06 1123.84 1920.06 1163.69Z" fill="#1B1B35"/>
<path fill-rule="evenodd" clip-rule="evenodd" d="M49.8802 65.5775C55.8327 62.1408 63.1664 62.1408 69.1189 65.5775L130.854 101.22C136.806 104.657 140.473 111.008 140.473 117.881V189.166C140.473 196.04 136.806 202.391 130.854 205.827L69.1189 241.47C63.1664 244.907 55.8327 244.907 49.8802 241.47L2.11896e-05 212.672C-4.17529e-05 189.166 2.09808e-05 117.881 2.11896e-05 94.3758L49.8802 65.5775Z" fill="#8BF8E7"/>
<path fill-rule="evenodd" clip-rule="evenodd" d="M328.996 3.89802C332.401 1.93159 336.598 1.93159 340.004 3.89802L375.328 24.2924C378.734 26.2588 380.832 29.893 380.832 33.8258V74.6146C380.832 78.5475 378.734 82.1816 375.328 84.148L340.004 104.542C336.598 106.509 332.401 106.509 328.996 104.542L293.671 84.148C290.265 82.1816 288.167 78.5475 288.167 74.6146V33.8258C288.167 29.893 290.265 26.2588 293.671 24.2924L328.996 3.89802Z" fill="#FBB8F6"/>
<path fill-rule="evenodd" clip-rule="evenodd" d="M316.403 1233.18C322.96 1236.97 331.039 1236.97 337.596 1233.18L405.604 1193.92C412.161 1190.13 416.2 1183.13 416.2 1175.56V1097.03C416.2 1089.46 412.161 1082.47 405.604 1078.68L337.596 1039.42C331.039 1035.63 322.96 1035.63 316.403 1039.42L248.396 1078.68C241.839 1082.47 237.799 1089.46 237.799 1097.03L237.799 1175.56C237.799 1183.13 241.839 1190.13 248.396 1193.92L316.403 1233.18Z" fill="#1B1B35"/>
<path fill-rule="evenodd" clip-rule="evenodd" d="M581.201 1326.12C584.607 1328.09 588.803 1328.09 592.209 1326.12L627.533 1305.73C630.939 1303.76 633.037 1300.12 633.037 1296.19V1255.4C633.037 1251.47 630.939 1247.84 627.533 1245.87L592.209 1225.48C588.803 1223.51 584.607 1223.51 581.201 1225.48L545.877 1245.87C542.471 1247.84 540.372 1251.47 540.372 1255.4V1296.19C540.372 1300.12 542.471 1303.76 545.877 1305.73L581.201 1326.12Z" fill="#1B1B35"/>
</svg>
