<svg width="1920" height="1283" viewBox="0 0 1920 1283" fill="none" xmlns="http://www.w3.org/2000/svg">
<path fill-rule="evenodd" clip-rule="evenodd" d="M231.072 13.3561C261.975 -4.45203 300.025 -4.45204 330.928 13.3561L684.293 216.981C715.273 234.834 734.364 267.869 734.364 303.625V710.545C734.364 746.301 715.273 779.336 684.293 797.189L330.928 1000.81C300.025 1018.62 261.975 1018.62 231.072 1000.81L0 868.085C-1.52588e-05 781.585 3.05176e-05 317.085 0 146.511L231.072 13.3561Z" fill="#F5F5FE"/>
<path fill-rule="evenodd" clip-rule="evenodd" d="M13.6746 197.119C17.0806 199.086 21.2769 199.086 24.6829 197.119L60.007 176.725C63.413 174.758 65.5111 171.124 65.5111 167.191V126.403C65.5111 122.47 63.413 118.836 60.007 116.869L24.6829 96.4748C21.2769 94.5084 17.0806 94.5084 13.6746 96.4748L6.59771e-06 104.37C9.53674e-06 134.37 3.71153e-05 171.87 6.59771e-06 188.26C4.37691 191.447 8.99083 194.415 13.6746 197.119Z" fill="#1B1B35"/>
<path fill-rule="evenodd" clip-rule="evenodd" d="M813.444 1189.4C828.914 1180.47 847.974 1180.47 863.444 1189.4L1023.89 1282.03C992 1282.03 719.5 1282.03 653 1282.03L813.444 1189.4Z" fill="#1B1B35"/>
<path fill-rule="evenodd" clip-rule="evenodd" d="M1509.6 1145.54C1516.16 1141.76 1524.24 1141.76 1530.8 1145.54L1598.8 1184.81C1605.36 1188.59 1609.4 1195.59 1609.4 1203.16V1281.69C1570.76 1281.69 1457.76 1281.69 1431 1281.69V1203.16C1431 1195.59 1435.04 1188.59 1441.6 1184.81L1509.6 1145.54Z" fill="#1B1B35"/>
<path fill-rule="evenodd" clip-rule="evenodd" d="M1846.6 787.543C1853.16 783.757 1861.24 783.757 1867.8 787.543L1920.26 817.83C1920.26 857.828 1920.26 926.328 1920.26 951.019L1867.8 981.306C1861.24 985.092 1853.16 985.092 1846.6 981.306L1778.6 942.043C1772.04 938.257 1768 931.26 1768 923.688V845.161C1768 837.589 1772.04 830.592 1778.6 826.806L1846.6 787.543Z" fill="#1B1B35"/>
<path fill-rule="evenodd" clip-rule="evenodd" d="M1471 910.881C1474.4 908.914 1478.6 908.914 1482 910.881L1517.33 931.275C1520.73 933.242 1522.83 936.876 1522.83 940.809V981.598C1522.83 985.53 1520.73 989.164 1517.33 991.131L1482 1011.53C1478.6 1013.49 1474.4 1013.49 1471 1011.53L1435.67 991.131C1432.27 989.164 1430.17 985.53 1430.17 981.598V940.809C1430.17 936.876 1432.27 933.242 1435.67 931.275L1471 910.881Z" fill="#1B1B35"/>
<path fill-rule="evenodd" clip-rule="evenodd" d="M1049.44 976.478C1052.85 974.511 1057.04 974.511 1060.45 976.478L1095.77 996.872C1099.18 998.838 1101.28 1002.47 1101.28 1006.41V1047.19C1101.28 1051.13 1099.18 1054.76 1095.77 1056.73L1060.45 1077.12C1057.04 1079.09 1052.85 1079.09 1049.44 1077.12L1014.12 1056.73C1010.71 1054.76 1008.61 1051.13 1008.61 1047.19V1006.41C1008.61 1002.47 1010.71 998.838 1014.12 996.872L1049.44 976.478Z" fill="#1B1B35"/>
<path fill-rule="evenodd" clip-rule="evenodd" d="M1774.64 545.178C1778.05 543.211 1782.24 543.211 1785.65 545.178L1820.97 565.572C1824.38 567.539 1826.48 571.173 1826.48 575.106V615.894C1826.48 619.827 1824.38 623.461 1820.97 625.428L1785.65 645.822C1782.24 647.789 1778.05 647.789 1774.64 645.822L1739.32 625.428C1735.91 623.461 1733.81 619.827 1733.81 615.894V575.106C1733.81 571.173 1735.91 567.539 1739.32 565.572L1774.64 545.178Z" fill="#1B1B35"/>
<path fill-rule="evenodd" clip-rule="evenodd" d="M1828.83 1211.18C1832.23 1209.21 1836.43 1209.21 1839.84 1211.18L1875.16 1231.57C1878.57 1233.54 1880.66 1237.17 1880.66 1241.11V1281.89C1869.89 1281.89 1803.89 1281.89 1788 1281.89V1241.11C1788 1237.17 1790.1 1233.54 1793.5 1231.57L1828.83 1211.18Z" fill="#1B1B35"/>
</svg>
