<svg width="282" height="319" viewBox="0 0 282 319" fill="none" xmlns="http://www.w3.org/2000/svg">
<g clip-path="url(#clip0_2343_82153)">
<path fill-rule="evenodd" clip-rule="evenodd" d="M36.2054 314.6C37.4233 314.6 38.4107 315.585 38.4107 316.8C38.4107 318.015 37.4233 319 36.2054 319C34.9874 319 34 318.015 34 316.8C34 315.585 34.9874 314.6 36.2054 314.6ZM52.378 314.6C53.596 314.6 54.5833 315.585 54.5833 316.8C54.5833 318.015 53.596 319 52.378 319C51.16 319 50.1726 318.015 50.1726 316.8C50.1726 315.585 51.16 314.6 52.378 314.6ZM68.5506 314.6C69.7686 314.6 70.756 315.585 70.756 316.8C70.756 318.015 69.7686 319 68.5506 319C67.3326 319 66.3452 318.015 66.3452 316.8C66.3452 315.585 67.3326 314.6 68.5506 314.6ZM84.7232 314.6C85.9412 314.6 86.9286 315.585 86.9286 316.8C86.9286 318.015 85.9412 319 84.7232 319C83.5052 319 82.5179 318.015 82.5179 316.8C82.5179 315.585 83.5052 314.6 84.7232 314.6ZM100.896 314.6C102.114 314.6 103.101 315.585 103.101 316.8C103.101 318.015 102.114 319 100.896 319C99.6778 319 98.6905 318.015 98.6905 316.8C98.6905 315.585 99.6778 314.6 100.896 314.6ZM117.068 314.6C118.286 314.6 119.274 315.585 119.274 316.8C119.274 318.015 118.286 319 117.068 319C115.85 319 114.863 318.015 114.863 316.8C114.863 315.585 115.85 314.6 117.068 314.6ZM133.241 314.6C134.459 314.6 135.446 315.585 135.446 316.8C135.446 318.015 134.459 319 133.241 319C132.023 319 131.036 318.015 131.036 316.8C131.036 315.585 132.023 314.6 133.241 314.6ZM149.414 314.6C150.632 314.6 151.619 315.585 151.619 316.8C151.619 318.015 150.632 319 149.414 319C148.196 319 147.208 318.015 147.208 316.8C147.208 315.585 148.196 314.6 149.414 314.6ZM165.586 314.6C166.804 314.6 167.792 315.585 167.792 316.8C167.792 318.015 166.804 319 165.586 319C164.368 319 163.381 318.015 163.381 316.8C163.381 315.585 164.368 314.6 165.586 314.6ZM181.759 314.507C182.977 314.507 183.964 315.492 183.964 316.707C183.964 317.922 182.977 318.907 181.759 318.907C180.541 318.907 179.554 317.922 179.554 316.707C179.554 315.492 180.541 314.507 181.759 314.507ZM197.932 314.507C199.15 314.507 200.137 315.492 200.137 316.707C200.137 317.922 199.15 318.907 197.932 318.907C196.714 318.907 195.726 317.922 195.726 316.707C195.726 315.492 196.714 314.507 197.932 314.507ZM214.104 314.507C215.322 314.507 216.31 315.492 216.31 316.707C216.31 317.922 215.322 318.907 214.104 318.907C212.886 318.907 211.899 317.922 211.899 316.707C211.899 315.492 212.886 314.507 214.104 314.507ZM230.277 314.507C231.495 314.507 232.482 315.492 232.482 316.707C232.482 317.922 231.495 318.907 230.277 318.907C229.059 318.907 228.071 317.922 228.071 316.707C228.071 315.492 229.059 314.507 230.277 314.507ZM246.449 314.507C247.667 314.507 248.655 315.492 248.655 316.707C248.655 317.922 247.667 318.907 246.449 318.907C245.231 318.907 244.244 317.922 244.244 316.707C244.244 315.492 245.231 314.507 246.449 314.507ZM262.622 314.507C263.84 314.507 264.827 315.492 264.827 316.707C264.827 317.922 263.84 318.907 262.622 318.907C261.404 318.907 260.417 317.922 260.417 316.707C260.417 315.492 261.404 314.507 262.622 314.507ZM278.795 314.507C280.013 314.507 281 315.492 281 316.707C281 317.922 280.013 318.907 278.795 318.907C277.577 318.907 276.589 317.922 276.589 316.707C276.589 315.492 277.577 314.507 278.795 314.507ZM165.586 298.466C166.804 298.466 167.792 299.451 167.792 300.666C167.792 301.881 166.804 302.866 165.586 302.866C164.368 302.866 163.381 301.881 163.381 300.666C163.381 299.451 164.368 298.466 165.586 298.466ZM181.759 298.374C182.977 298.374 183.964 299.359 183.964 300.574C183.964 301.789 182.977 302.774 181.759 302.774C180.541 302.774 179.554 301.789 179.554 300.574C179.554 299.359 180.541 298.374 181.759 298.374ZM197.932 298.374C199.15 298.374 200.137 299.359 200.137 300.574C200.137 301.789 199.15 302.774 197.932 302.774C196.714 302.774 195.726 301.789 195.726 300.574C195.726 299.359 196.714 298.374 197.932 298.374ZM214.104 298.374C215.322 298.374 216.31 299.359 216.31 300.574C216.31 301.789 215.322 302.774 214.104 302.774C212.886 302.774 211.899 301.789 211.899 300.574C211.899 299.359 212.886 298.374 214.104 298.374ZM36.2054 298.466C37.4233 298.466 38.4107 299.451 38.4107 300.666C38.4107 301.881 37.4233 302.866 36.2054 302.866C34.9874 302.866 34 301.881 34 300.666C34 299.451 34.9874 298.466 36.2054 298.466ZM68.5506 298.466C69.7686 298.466 70.756 299.451 70.756 300.666C70.756 301.881 69.7686 302.866 68.5506 302.866C67.3326 302.866 66.3452 301.881 66.3452 300.666C66.3452 299.451 67.3326 298.466 68.5506 298.466ZM100.896 298.466C102.114 298.466 103.101 299.451 103.101 300.666C103.101 301.881 102.114 302.866 100.896 302.866C99.6778 302.866 98.6905 301.881 98.6905 300.666C98.6905 299.451 99.6778 298.466 100.896 298.466ZM133.241 298.466C134.459 298.466 135.446 299.451 135.446 300.666C135.446 301.881 134.459 302.866 133.241 302.866C132.023 302.866 131.036 301.881 131.036 300.666C131.036 299.451 132.023 298.466 133.241 298.466ZM149.414 298.466C150.632 298.466 151.619 299.451 151.619 300.666C151.619 301.881 150.632 302.866 149.414 302.866C148.196 302.866 147.208 301.881 147.208 300.666C147.208 299.451 148.196 298.466 149.414 298.466ZM246.449 298.374C247.667 298.374 248.655 299.359 248.655 300.574C248.655 301.789 247.667 302.774 246.449 302.774C245.231 302.774 244.244 301.789 244.244 300.574C244.244 299.359 245.231 298.374 246.449 298.374ZM52.378 298.466C53.596 298.466 54.5833 299.451 54.5833 300.666C54.5833 301.881 53.596 302.866 52.378 302.866C51.16 302.866 50.1726 301.881 50.1726 300.666C50.1726 299.451 51.16 298.466 52.378 298.466ZM262.622 298.374C263.84 298.374 264.827 299.359 264.827 300.574C264.827 301.789 263.84 302.774 262.622 302.774C261.404 302.774 260.417 301.789 260.417 300.574C260.417 299.359 261.404 298.374 262.622 298.374ZM84.7232 298.466C85.9412 298.466 86.9286 299.451 86.9286 300.666C86.9286 301.881 85.9412 302.866 84.7232 302.866C83.5052 302.866 82.5179 301.881 82.5179 300.666C82.5179 299.451 83.5052 298.466 84.7232 298.466ZM278.795 298.374C280.013 298.374 281 299.359 281 300.574C281 301.789 280.013 302.774 278.795 302.774C277.577 302.774 276.589 301.789 276.589 300.574C276.589 299.359 277.577 298.374 278.795 298.374ZM117.068 298.466C118.286 298.466 119.274 299.451 119.274 300.666C119.274 301.881 118.286 302.866 117.068 302.866C115.85 302.866 114.863 301.881 114.863 300.666C114.863 299.451 115.85 298.466 117.068 298.466ZM230.277 298.374C231.495 298.374 232.482 299.359 232.482 300.574C232.482 301.789 231.495 302.774 230.277 302.774C229.059 302.774 228.071 301.789 228.071 300.574C228.071 299.359 229.059 298.374 230.277 298.374ZM68.5506 282.333C69.7686 282.333 70.756 283.318 70.756 284.533C70.756 285.748 69.7686 286.733 68.5506 286.733C67.3326 286.733 66.3452 285.748 66.3452 284.533C66.3452 283.318 67.3326 282.333 68.5506 282.333ZM100.896 282.333C102.114 282.333 103.101 283.318 103.101 284.533C103.101 285.748 102.114 286.733 100.896 286.733C99.6778 286.733 98.6905 285.748 98.6905 284.533C98.6905 283.318 99.6778 282.333 100.896 282.333ZM117.068 282.333C118.286 282.333 119.274 283.318 119.274 284.533C119.274 285.748 118.286 286.733 117.068 286.733C115.85 286.733 114.863 285.748 114.863 284.533C114.863 283.318 115.85 282.333 117.068 282.333ZM133.241 282.333C134.459 282.333 135.446 283.318 135.446 284.533C135.446 285.748 134.459 286.733 133.241 286.733C132.023 286.733 131.036 285.748 131.036 284.533C131.036 283.318 132.023 282.333 133.241 282.333ZM149.414 282.333C150.632 282.333 151.619 283.318 151.619 284.533C151.619 285.748 150.632 286.733 149.414 286.733C148.196 286.733 147.208 285.748 147.208 284.533C147.208 283.318 148.196 282.333 149.414 282.333ZM36.2054 282.333C37.4233 282.333 38.4107 283.318 38.4107 284.533C38.4107 285.748 37.4233 286.733 36.2054 286.733C34.9874 286.733 34 285.748 34 284.533C34 283.318 34.9874 282.333 36.2054 282.333ZM52.378 282.333C53.596 282.333 54.5833 283.318 54.5833 284.533C54.5833 285.748 53.596 286.733 52.378 286.733C51.16 286.733 50.1726 285.748 50.1726 284.533C50.1726 283.318 51.16 282.333 52.378 282.333ZM84.7232 282.333C85.9412 282.333 86.9286 283.318 86.9286 284.533C86.9286 285.748 85.9412 286.733 84.7232 286.733C83.5052 286.733 82.5179 285.748 82.5179 284.533C82.5179 283.318 83.5052 282.333 84.7232 282.333ZM165.586 282.333C166.804 282.333 167.792 283.318 167.792 284.533C167.792 285.748 166.804 286.733 165.586 286.733C164.368 286.733 163.381 285.748 163.381 284.533C163.381 283.318 164.368 282.333 165.586 282.333ZM181.759 282.241C182.977 282.241 183.964 283.226 183.964 284.441C183.964 285.656 182.977 286.641 181.759 286.641C180.541 286.641 179.554 285.656 179.554 284.441C179.554 283.226 180.541 282.241 181.759 282.241ZM197.932 282.241C199.15 282.241 200.137 283.226 200.137 284.441C200.137 285.656 199.15 286.641 197.932 286.641C196.714 286.641 195.726 285.656 195.726 284.441C195.726 283.226 196.714 282.241 197.932 282.241ZM214.104 282.241C215.322 282.241 216.31 283.226 216.31 284.441C216.31 285.656 215.322 286.641 214.104 286.641C212.886 286.641 211.899 285.656 211.899 284.441C211.899 283.226 212.886 282.241 214.104 282.241ZM230.277 282.241C231.495 282.241 232.482 283.226 232.482 284.441C232.482 285.656 231.495 286.641 230.277 286.641C229.059 286.641 228.071 285.656 228.071 284.441C228.071 283.226 229.059 282.241 230.277 282.241ZM246.449 282.241C247.667 282.241 248.655 283.226 248.655 284.441C248.655 285.656 247.667 286.641 246.449 286.641C245.231 286.641 244.244 285.656 244.244 284.441C244.244 283.226 245.231 282.241 246.449 282.241ZM262.622 282.241C263.84 282.241 264.827 283.226 264.827 284.441C264.827 285.656 263.84 286.641 262.622 286.641C261.404 286.641 260.417 285.656 260.417 284.441C260.417 283.226 261.404 282.241 262.622 282.241ZM278.795 282.241C280.013 282.241 281 283.226 281 284.441C281 285.656 280.013 286.641 278.795 286.641C277.577 286.641 276.589 285.656 276.589 284.441C276.589 283.226 277.577 282.241 278.795 282.241ZM36.2054 266.2C37.4233 266.2 38.4107 267.185 38.4107 268.4C38.4107 269.615 37.4233 270.6 36.2054 270.6C34.9874 270.6 34 269.615 34 268.4C34 267.185 34.9874 266.2 36.2054 266.2ZM52.378 266.2C53.596 266.2 54.5833 267.185 54.5833 268.4C54.5833 269.615 53.596 270.6 52.378 270.6C51.16 270.6 50.1726 269.615 50.1726 268.4C50.1726 267.185 51.16 266.2 52.378 266.2ZM68.5506 266.2C69.7686 266.2 70.756 267.185 70.756 268.4C70.756 269.615 69.7686 270.6 68.5506 270.6C67.3326 270.6 66.3452 269.615 66.3452 268.4C66.3452 267.185 67.3326 266.2 68.5506 266.2ZM84.7232 266.2C85.9412 266.2 86.9286 267.185 86.9286 268.4C86.9286 269.615 85.9412 270.6 84.7232 270.6C83.5052 270.6 82.5179 269.615 82.5179 268.4C82.5179 267.185 83.5052 266.2 84.7232 266.2ZM100.896 266.2C102.114 266.2 103.101 267.185 103.101 268.4C103.101 269.615 102.114 270.6 100.896 270.6C99.6778 270.6 98.6905 269.615 98.6905 268.4C98.6905 267.185 99.6778 266.2 100.896 266.2ZM117.068 266.2C118.286 266.2 119.274 267.185 119.274 268.4C119.274 269.615 118.286 270.6 117.068 270.6C115.85 270.6 114.863 269.615 114.863 268.4C114.863 267.185 115.85 266.2 117.068 266.2ZM133.241 266.2C134.459 266.2 135.446 267.185 135.446 268.4C135.446 269.615 134.459 270.6 133.241 270.6C132.023 270.6 131.036 269.615 131.036 268.4C131.036 267.185 132.023 266.2 133.241 266.2ZM149.414 266.2C150.632 266.2 151.619 267.185 151.619 268.4C151.619 269.615 150.632 270.6 149.414 270.6C148.196 270.6 147.208 269.615 147.208 268.4C147.208 267.185 148.196 266.2 149.414 266.2ZM165.586 266.2C166.804 266.2 167.792 267.185 167.792 268.4C167.792 269.615 166.804 270.6 165.586 270.6C164.368 270.6 163.381 269.615 163.381 268.4C163.381 267.185 164.368 266.2 165.586 266.2ZM181.759 266.107C182.977 266.107 183.964 267.092 183.964 268.307C183.964 269.522 182.977 270.507 181.759 270.507C180.541 270.507 179.554 269.522 179.554 268.307C179.554 267.092 180.541 266.107 181.759 266.107ZM197.932 266.107C199.15 266.107 200.137 267.092 200.137 268.307C200.137 269.522 199.15 270.507 197.932 270.507C196.714 270.507 195.726 269.522 195.726 268.307C195.726 267.092 196.714 266.107 197.932 266.107ZM214.104 266.107C215.322 266.107 216.31 267.092 216.31 268.307C216.31 269.522 215.322 270.507 214.104 270.507C212.886 270.507 211.899 269.522 211.899 268.307C211.899 267.092 212.886 266.107 214.104 266.107ZM230.277 266.107C231.495 266.107 232.482 267.092 232.482 268.307C232.482 269.522 231.495 270.507 230.277 270.507C229.059 270.507 228.071 269.522 228.071 268.307C228.071 267.092 229.059 266.107 230.277 266.107ZM246.449 266.107C247.667 266.107 248.655 267.092 248.655 268.307C248.655 269.522 247.667 270.507 246.449 270.507C245.231 270.507 244.244 269.522 244.244 268.307C244.244 267.092 245.231 266.107 246.449 266.107ZM262.622 266.107C263.84 266.107 264.827 267.092 264.827 268.307C264.827 269.522 263.84 270.507 262.622 270.507C261.404 270.507 260.417 269.522 260.417 268.307C260.417 267.092 261.404 266.107 262.622 266.107ZM278.795 266.107C280.013 266.107 281 267.092 281 268.307C281 269.522 280.013 270.507 278.795 270.507C277.577 270.507 276.589 269.522 276.589 268.307C276.589 267.092 277.577 266.107 278.795 266.107ZM36.2054 250.066C37.4233 250.066 38.4107 251.051 38.4107 252.266C38.4107 253.481 37.4233 254.466 36.2054 254.466C34.9874 254.466 34 253.481 34 252.266C34 251.051 34.9874 250.066 36.2054 250.066ZM52.378 250.066C53.596 250.066 54.5833 251.051 54.5833 252.266C54.5833 253.481 53.596 254.466 52.378 254.466C51.16 254.466 50.1726 253.481 50.1726 252.266C50.1726 251.051 51.16 250.066 52.378 250.066ZM68.5506 250.066C69.7686 250.066 70.756 251.051 70.756 252.266C70.756 253.481 69.7686 254.466 68.5506 254.466C67.3326 254.466 66.3452 253.481 66.3452 252.266C66.3452 251.051 67.3326 250.066 68.5506 250.066ZM84.7232 250.066C85.9412 250.066 86.9286 251.051 86.9286 252.266C86.9286 253.481 85.9412 254.466 84.7232 254.466C83.5052 254.466 82.5179 253.481 82.5179 252.266C82.5179 251.051 83.5052 250.066 84.7232 250.066ZM100.896 250.066C102.114 250.066 103.101 251.051 103.101 252.266C103.101 253.481 102.114 254.466 100.896 254.466C99.6778 254.466 98.6905 253.481 98.6905 252.266C98.6905 251.051 99.6778 250.066 100.896 250.066ZM117.068 250.066C118.286 250.066 119.274 251.051 119.274 252.266C119.274 253.481 118.286 254.466 117.068 254.466C115.85 254.466 114.863 253.481 114.863 252.266C114.863 251.051 115.85 250.066 117.068 250.066ZM133.241 250.066C134.459 250.066 135.446 251.051 135.446 252.266C135.446 253.481 134.459 254.466 133.241 254.466C132.023 254.466 131.036 253.481 131.036 252.266C131.036 251.051 132.023 250.066 133.241 250.066ZM149.414 250.066C150.632 250.066 151.619 251.051 151.619 252.266C151.619 253.481 150.632 254.466 149.414 254.466C148.196 254.466 147.208 253.481 147.208 252.266C147.208 251.051 148.196 250.066 149.414 250.066ZM165.586 250.066C166.804 250.066 167.792 251.051 167.792 252.266C167.792 253.481 166.804 254.466 165.586 254.466C164.368 254.466 163.381 253.481 163.381 252.266C163.381 251.051 164.368 250.066 165.586 250.066ZM78.8423 2.1996C78.8423 3.41463 77.8549 4.3996 76.6369 4.3996C75.4189 4.3996 74.4315 3.41463 74.4315 2.1996C74.4315 0.984577 75.4189 -0.000396729 76.6369 -0.000396729C77.8549 -0.000396729 78.8423 0.984577 78.8423 2.1996ZM78.8423 18.3329C78.8423 19.548 77.8549 20.5329 76.6369 20.5329C75.4189 20.5329 74.4315 19.548 74.4315 18.3329C74.4315 17.1179 75.4189 16.1329 76.6369 16.1329C77.8549 16.1329 78.8423 17.1179 78.8423 18.3329ZM78.8423 34.4663C78.8423 35.6813 77.8549 36.6663 76.6369 36.6663C75.4189 36.6663 74.4315 35.6813 74.4315 34.4663C74.4315 33.2512 75.4189 32.2663 76.6369 32.2663C77.8549 32.2663 78.8423 33.2512 78.8423 34.4663ZM78.8423 50.5996C78.8423 51.8146 77.8549 52.7996 76.6369 52.7996C75.4189 52.7996 74.4315 51.8146 74.4315 50.5996C74.4315 49.3846 75.4189 48.3996 76.6369 48.3996C77.8549 48.3996 78.8423 49.3846 78.8423 50.5996ZM78.8423 66.7329C78.8423 67.948 77.8549 68.9329 76.6369 68.9329C75.4189 68.9329 74.4315 67.948 74.4315 66.7329C74.4315 65.5179 75.4189 64.5329 76.6369 64.5329C77.8549 64.5329 78.8423 65.5179 78.8423 66.7329ZM78.8423 82.8663C78.8423 84.0813 77.8549 85.0663 76.6369 85.0663C75.4189 85.0663 74.4315 84.0813 74.4315 82.8663C74.4315 81.6512 75.4189 80.6663 76.6369 80.6663C77.8549 80.6663 78.8423 81.6512 78.8423 82.8663ZM78.8423 98.9996C78.8423 100.215 77.8549 101.2 76.6369 101.2C75.4189 101.2 74.4315 100.215 74.4315 98.9996C74.4315 97.7846 75.4189 96.7996 76.6369 96.7996C77.8549 96.7996 78.8423 97.7846 78.8423 98.9996ZM78.8423 115.133C78.8423 116.348 77.8549 117.333 76.6369 117.333C75.4189 117.333 74.4315 116.348 74.4315 115.133C74.4315 113.918 75.4189 112.933 76.6369 112.933C77.8549 112.933 78.8423 113.918 78.8423 115.133ZM78.8423 131.266C78.8423 132.481 77.8549 133.466 76.6369 133.466C75.4189 133.466 74.4315 132.481 74.4315 131.266C74.4315 130.051 75.4189 129.066 76.6369 129.066C77.8549 129.066 78.8423 130.051 78.8423 131.266ZM78.8423 147.4C78.8423 148.615 77.8549 149.6 76.6369 149.6C75.4189 149.6 74.4315 148.615 74.4315 147.4C74.4315 146.185 75.4189 145.2 76.6369 145.2C77.8549 145.2 78.8423 146.185 78.8423 147.4ZM78.8423 163.533C78.8423 164.748 77.8549 165.733 76.6369 165.733C75.4189 165.733 74.4315 164.748 74.4315 163.533C74.4315 162.318 75.4189 161.333 76.6369 161.333C77.8549 161.333 78.8423 162.318 78.8423 163.533ZM78.8423 179.666C78.8423 180.881 77.8549 181.866 76.6369 181.866C75.4189 181.866 74.4315 180.881 74.4315 179.666C74.4315 178.451 75.4189 177.466 76.6369 177.466C77.8549 177.466 78.8423 178.451 78.8423 179.666ZM78.8423 195.8C78.8423 197.015 77.8549 198 76.6369 198C75.4189 198 74.4315 197.015 74.4315 195.8C74.4315 194.585 75.4189 193.6 76.6369 193.6C77.8549 193.6 78.8423 194.585 78.8423 195.8ZM78.8423 211.933C78.8423 213.148 77.8549 214.133 76.6369 214.133C75.4189 214.133 74.4315 213.148 74.4315 211.933C74.4315 210.718 75.4189 209.733 76.6369 209.733C77.8549 209.733 78.8423 210.718 78.8423 211.933ZM95.0149 98.9996C95.0149 100.215 94.0275 101.2 92.8095 101.2C91.5915 101.2 90.6042 100.215 90.6042 98.9996C90.6042 97.7846 91.5915 96.7996 92.8095 96.7996C94.0275 96.7996 95.0149 97.7846 95.0149 98.9996ZM95.0149 115.133C95.0149 116.348 94.0275 117.333 92.8095 117.333C91.5915 117.333 90.6042 116.348 90.6042 115.133C90.6042 113.918 91.5915 112.933 92.8095 112.933C94.0275 112.933 95.0149 113.918 95.0149 115.133ZM95.0149 131.266C95.0149 132.481 94.0275 133.466 92.8095 133.466C91.5915 133.466 90.6042 132.481 90.6042 131.266C90.6042 130.051 91.5915 129.066 92.8095 129.066C94.0275 129.066 95.0149 130.051 95.0149 131.266ZM95.0149 147.4C95.0149 148.615 94.0275 149.6 92.8095 149.6C91.5915 149.6 90.6042 148.615 90.6042 147.4C90.6042 146.185 91.5915 145.2 92.8095 145.2C94.0275 145.2 95.0149 146.185 95.0149 147.4ZM95.0149 2.1996C95.0149 3.41463 94.0275 4.3996 92.8095 4.3996C91.5915 4.3996 90.6042 3.41463 90.6042 2.1996C90.6042 0.984577 91.5915 -0.000396729 92.8095 -0.000396729C94.0275 -0.000396729 95.0149 0.984577 95.0149 2.1996ZM95.0149 34.4663C95.0149 35.6813 94.0275 36.6663 92.8095 36.6663C91.5915 36.6663 90.6042 35.6813 90.6042 34.4663C90.6042 33.2512 91.5915 32.2663 92.8095 32.2663C94.0275 32.2663 95.0149 33.2512 95.0149 34.4663ZM95.0149 66.7329C95.0149 67.948 94.0275 68.9329 92.8095 68.9329C91.5915 68.9329 90.6042 67.948 90.6042 66.7329C90.6042 65.5179 91.5915 64.5329 92.8095 64.5329C94.0275 64.5329 95.0149 65.5179 95.0149 66.7329ZM95.0149 82.8663C95.0149 84.0813 94.0275 85.0663 92.8095 85.0663C91.5915 85.0663 90.6042 84.0813 90.6042 82.8663C90.6042 81.6512 91.5915 80.6663 92.8095 80.6663C94.0275 80.6663 95.0149 81.6512 95.0149 82.8663ZM95.0149 179.666C95.0149 180.881 94.0275 181.866 92.8095 181.866C91.5915 181.866 90.6042 180.881 90.6042 179.666C90.6042 178.451 91.5915 177.466 92.8095 177.466C94.0275 177.466 95.0149 178.451 95.0149 179.666ZM95.0149 195.8C95.0149 197.015 94.0275 198 92.8095 198C91.5915 198 90.6042 197.015 90.6042 195.8C90.6042 194.585 91.5915 193.6 92.8095 193.6C94.0275 193.6 95.0149 194.585 95.0149 195.8ZM95.0149 18.3329C95.0149 19.548 94.0275 20.5329 92.8095 20.5329C91.5915 20.5329 90.6042 19.548 90.6042 18.3329C90.6042 17.1179 91.5915 16.1329 92.8095 16.1329C94.0275 16.1329 95.0149 17.1179 95.0149 18.3329ZM95.0149 211.933C95.0149 213.148 94.0275 214.133 92.8095 214.133C91.5915 214.133 90.6042 213.148 90.6042 211.933C90.6042 210.718 91.5915 209.733 92.8095 209.733C94.0275 209.733 95.0149 210.718 95.0149 211.933ZM95.0149 50.5996C95.0149 51.8146 94.0275 52.7996 92.8095 52.7996C91.5915 52.7996 90.6042 51.8146 90.6042 50.5996C90.6042 49.3846 91.5915 48.3996 92.8095 48.3996C94.0275 48.3996 95.0149 49.3846 95.0149 50.5996ZM95.0149 163.533C95.0149 164.748 94.0275 165.733 92.8095 165.733C91.5915 165.733 90.6042 164.748 90.6042 163.533C90.6042 162.318 91.5915 161.333 92.8095 161.333C94.0275 161.333 95.0149 162.318 95.0149 163.533ZM111.188 2.1996C111.188 3.41463 110.2 4.3996 108.982 4.3996C107.764 4.3996 106.777 3.41463 106.777 2.1996C106.777 0.984577 107.764 -0.000396729 108.982 -0.000396729C110.2 -0.000396729 111.188 0.984577 111.188 2.1996ZM111.188 34.4663C111.188 35.6813 110.2 36.6663 108.982 36.6663C107.764 36.6663 106.777 35.6813 106.777 34.4663C106.777 33.2512 107.764 32.2663 108.982 32.2663C110.2 32.2663 111.188 33.2512 111.188 34.4663ZM111.188 50.5996C111.188 51.8146 110.2 52.7996 108.982 52.7996C107.764 52.7996 106.777 51.8146 106.777 50.5996C106.777 49.3846 107.764 48.3996 108.982 48.3996C110.2 48.3996 111.188 49.3846 111.188 50.5996ZM111.188 66.7329C111.188 67.948 110.2 68.9329 108.982 68.9329C107.764 68.9329 106.777 67.948 106.777 66.7329C106.777 65.5179 107.764 64.5329 108.982 64.5329C110.2 64.5329 111.188 65.5179 111.188 66.7329ZM111.188 82.8663C111.188 84.0813 110.2 85.0663 108.982 85.0663C107.764 85.0663 106.777 84.0813 106.777 82.8663C106.777 81.6512 107.764 80.6663 108.982 80.6663C110.2 80.6663 111.188 81.6512 111.188 82.8663ZM111.188 18.3329C111.188 19.548 110.2 20.5329 108.982 20.5329C107.764 20.5329 106.777 19.548 106.777 18.3329C106.777 17.1179 107.764 16.1329 108.982 16.1329C110.2 16.1329 111.188 17.1179 111.188 18.3329ZM111.188 98.9996C111.188 100.215 110.2 101.2 108.982 101.2C107.764 101.2 106.777 100.215 106.777 98.9996C106.777 97.7846 107.764 96.7996 108.982 96.7996C110.2 96.7996 111.188 97.7846 111.188 98.9996ZM111.188 115.133C111.188 116.348 110.2 117.333 108.982 117.333C107.764 117.333 106.777 116.348 106.777 115.133C106.777 113.918 107.764 112.933 108.982 112.933C110.2 112.933 111.188 113.918 111.188 115.133ZM111.188 131.266C111.188 132.481 110.2 133.466 108.982 133.466C107.764 133.466 106.777 132.481 106.777 131.266C106.777 130.051 107.764 129.066 108.982 129.066C110.2 129.066 111.188 130.051 111.188 131.266ZM111.188 147.4C111.188 148.615 110.2 149.6 108.982 149.6C107.764 149.6 106.777 148.615 106.777 147.4C106.777 146.185 107.764 145.2 108.982 145.2C110.2 145.2 111.188 146.185 111.188 147.4ZM111.188 163.533C111.188 164.748 110.2 165.733 108.982 165.733C107.764 165.733 106.777 164.748 106.777 163.533C106.777 162.318 107.764 161.333 108.982 161.333C110.2 161.333 111.188 162.318 111.188 163.533ZM111.188 179.666C111.188 180.881 110.2 181.866 108.982 181.866C107.764 181.866 106.777 180.881 106.777 179.666C106.777 178.451 107.764 177.466 108.982 177.466C110.2 177.466 111.188 178.451 111.188 179.666ZM111.188 195.8C111.188 197.015 110.2 198 108.982 198C107.764 198 106.777 197.015 106.777 195.8C106.777 194.585 107.764 193.6 108.982 193.6C110.2 193.6 111.188 194.585 111.188 195.8ZM111.188 211.933C111.188 213.148 110.2 214.133 108.982 214.133C107.764 214.133 106.777 213.148 106.777 211.933C106.777 210.718 107.764 209.733 108.982 209.733C110.2 209.733 111.188 210.718 111.188 211.933ZM127.36 2.1996C127.36 3.41463 126.373 4.3996 125.155 4.3996C123.937 4.3996 122.949 3.41463 122.949 2.1996C122.949 0.984577 123.937 -0.000396729 125.155 -0.000396729C126.373 -0.000396729 127.36 0.984577 127.36 2.1996ZM127.36 18.3329C127.36 19.548 126.373 20.5329 125.155 20.5329C123.937 20.5329 122.949 19.548 122.949 18.3329C122.949 17.1179 123.937 16.1329 125.155 16.1329C126.373 16.1329 127.36 17.1179 127.36 18.3329ZM127.36 34.4663C127.36 35.6813 126.373 36.6663 125.155 36.6663C123.937 36.6663 122.949 35.6813 122.949 34.4663C122.949 33.2512 123.937 32.2663 125.155 32.2663C126.373 32.2663 127.36 33.2512 127.36 34.4663ZM127.36 50.5996C127.36 51.8146 126.373 52.7996 125.155 52.7996C123.937 52.7996 122.949 51.8146 122.949 50.5996C122.949 49.3846 123.937 48.3996 125.155 48.3996C126.373 48.3996 127.36 49.3846 127.36 50.5996ZM127.36 66.7329C127.36 67.948 126.373 68.9329 125.155 68.9329C123.937 68.9329 122.949 67.948 122.949 66.7329C122.949 65.5179 123.937 64.5329 125.155 64.5329C126.373 64.5329 127.36 65.5179 127.36 66.7329ZM127.36 82.8663C127.36 84.0813 126.373 85.0663 125.155 85.0663C123.937 85.0663 122.949 84.0813 122.949 82.8663C122.949 81.6512 123.937 80.6663 125.155 80.6663C126.373 80.6663 127.36 81.6512 127.36 82.8663ZM127.36 98.9996C127.36 100.215 126.373 101.2 125.155 101.2C123.937 101.2 122.949 100.215 122.949 98.9996C122.949 97.7846 123.937 96.7996 125.155 96.7996C126.373 96.7996 127.36 97.7846 127.36 98.9996ZM127.36 115.133C127.36 116.348 126.373 117.333 125.155 117.333C123.937 117.333 122.949 116.348 122.949 115.133C122.949 113.918 123.937 112.933 125.155 112.933C126.373 112.933 127.36 113.918 127.36 115.133ZM127.36 131.266C127.36 132.481 126.373 133.466 125.155 133.466C123.937 133.466 122.949 132.481 122.949 131.266C122.949 130.051 123.937 129.066 125.155 129.066C126.373 129.066 127.36 130.051 127.36 131.266ZM127.36 147.4C127.36 148.615 126.373 149.6 125.155 149.6C123.937 149.6 122.949 148.615 122.949 147.4C122.949 146.185 123.937 145.2 125.155 145.2C126.373 145.2 127.36 146.185 127.36 147.4ZM127.36 163.533C127.36 164.748 126.373 165.733 125.155 165.733C123.937 165.733 122.949 164.748 122.949 163.533C122.949 162.318 123.937 161.333 125.155 161.333C126.373 161.333 127.36 162.318 127.36 163.533ZM127.36 179.666C127.36 180.881 126.373 181.866 125.155 181.866C123.937 181.866 122.949 180.881 122.949 179.666C122.949 178.451 123.937 177.466 125.155 177.466C126.373 177.466 127.36 178.451 127.36 179.666ZM127.36 195.8C127.36 197.015 126.373 198 125.155 198C123.937 198 122.949 197.015 122.949 195.8C122.949 194.585 123.937 193.6 125.155 193.6C126.373 193.6 127.36 194.585 127.36 195.8ZM127.36 211.933C127.36 213.148 126.373 214.133 125.155 214.133C123.937 214.133 122.949 213.148 122.949 211.933C122.949 210.718 123.937 209.733 125.155 209.733C126.373 209.733 127.36 210.718 127.36 211.933ZM143.533 2.1996C143.533 3.41463 142.545 4.3996 141.327 4.3996C140.109 4.3996 139.122 3.41463 139.122 2.1996C139.122 0.984577 140.109 -0.000396729 141.327 -0.000396729C142.545 -0.000396729 143.533 0.984577 143.533 2.1996ZM143.533 18.3329C143.533 19.548 142.545 20.5329 141.327 20.5329C140.109 20.5329 139.122 19.548 139.122 18.3329C139.122 17.1179 140.109 16.1329 141.327 16.1329C142.545 16.1329 143.533 17.1179 143.533 18.3329ZM143.533 34.4663C143.533 35.6813 142.545 36.6663 141.327 36.6663C140.109 36.6663 139.122 35.6813 139.122 34.4663C139.122 33.2512 140.109 32.2663 141.327 32.2663C142.545 32.2663 143.533 33.2512 143.533 34.4663ZM143.533 50.5996C143.533 51.8146 142.545 52.7996 141.327 52.7996C140.109 52.7996 139.122 51.8146 139.122 50.5996C139.122 49.3846 140.109 48.3996 141.327 48.3996C142.545 48.3996 143.533 49.3846 143.533 50.5996ZM143.533 66.7329C143.533 67.948 142.545 68.9329 141.327 68.9329C140.109 68.9329 139.122 67.948 139.122 66.7329C139.122 65.5179 140.109 64.5329 141.327 64.5329C142.545 64.5329 143.533 65.5179 143.533 66.7329ZM143.533 82.8663C143.533 84.0813 142.545 85.0663 141.327 85.0663C140.109 85.0663 139.122 84.0813 139.122 82.8663C139.122 81.6512 140.109 80.6663 141.327 80.6663C142.545 80.6663 143.533 81.6512 143.533 82.8663ZM143.533 98.9996C143.533 100.215 142.545 101.2 141.327 101.2C140.109 101.2 139.122 100.215 139.122 98.9996C139.122 97.7846 140.109 96.7996 141.327 96.7996C142.545 96.7996 143.533 97.7846 143.533 98.9996ZM143.533 115.133C143.533 116.348 142.545 117.333 141.327 117.333C140.109 117.333 139.122 116.348 139.122 115.133C139.122 113.918 140.109 112.933 141.327 112.933C142.545 112.933 143.533 113.918 143.533 115.133ZM143.533 131.266C143.533 132.481 142.545 133.466 141.327 133.466C140.109 133.466 139.122 132.481 139.122 131.266C139.122 130.051 140.109 129.066 141.327 129.066C142.545 129.066 143.533 130.051 143.533 131.266ZM143.533 147.4C143.533 148.615 142.545 149.6 141.327 149.6C140.109 149.6 139.122 148.615 139.122 147.4C139.122 146.185 140.109 145.2 141.327 145.2C142.545 145.2 143.533 146.185 143.533 147.4ZM143.533 163.533C143.533 164.748 142.545 165.733 141.327 165.733C140.109 165.733 139.122 164.748 139.122 163.533C139.122 162.318 140.109 161.333 141.327 161.333C142.545 161.333 143.533 162.318 143.533 163.533ZM143.533 179.666C143.533 180.881 142.545 181.866 141.327 181.866C140.109 181.866 139.122 180.881 139.122 179.666C139.122 178.451 140.109 177.466 141.327 177.466C142.545 177.466 143.533 178.451 143.533 179.666ZM143.533 195.8C143.533 197.015 142.545 198 141.327 198C140.109 198 139.122 197.015 139.122 195.8C139.122 194.585 140.109 193.6 141.327 193.6C142.545 193.6 143.533 194.585 143.533 195.8ZM143.533 211.933C143.533 213.148 142.545 214.133 141.327 214.133C140.109 214.133 139.122 213.148 139.122 211.933C139.122 210.718 140.109 209.733 141.327 209.733C142.545 209.733 143.533 210.718 143.533 211.933ZM159.705 2.1996C159.705 3.41463 158.718 4.3996 157.5 4.3996C156.282 4.3996 155.295 3.41463 155.295 2.1996C155.295 0.984577 156.282 -0.000396729 157.5 -0.000396729C158.718 -0.000396729 159.705 0.984577 159.705 2.1996ZM159.705 18.3329C159.705 19.548 158.718 20.5329 157.5 20.5329C156.282 20.5329 155.295 19.548 155.295 18.3329C155.295 17.1179 156.282 16.1329 157.5 16.1329C158.718 16.1329 159.705 17.1179 159.705 18.3329ZM159.705 34.4663C159.705 35.6813 158.718 36.6663 157.5 36.6663C156.282 36.6663 155.295 35.6813 155.295 34.4663C155.295 33.2512 156.282 32.2663 157.5 32.2663C158.718 32.2663 159.705 33.2512 159.705 34.4663ZM159.705 50.5996C159.705 51.8146 158.718 52.7996 157.5 52.7996C156.282 52.7996 155.295 51.8146 155.295 50.5996C155.295 49.3846 156.282 48.3996 157.5 48.3996C158.718 48.3996 159.705 49.3846 159.705 50.5996ZM159.705 66.7329C159.705 67.948 158.718 68.9329 157.5 68.9329C156.282 68.9329 155.295 67.948 155.295 66.7329C155.295 65.5179 156.282 64.5329 157.5 64.5329C158.718 64.5329 159.705 65.5179 159.705 66.7329ZM159.705 82.8663C159.705 84.0813 158.718 85.0663 157.5 85.0663C156.282 85.0663 155.295 84.0813 155.295 82.8663C155.295 81.6512 156.282 80.6663 157.5 80.6663C158.718 80.6663 159.705 81.6512 159.705 82.8663ZM159.705 98.9996C159.705 100.215 158.718 101.2 157.5 101.2C156.282 101.2 155.295 100.215 155.295 98.9996C155.295 97.7846 156.282 96.7996 157.5 96.7996C158.718 96.7996 159.705 97.7846 159.705 98.9996ZM159.705 115.133C159.705 116.348 158.718 117.333 157.5 117.333C156.282 117.333 155.295 116.348 155.295 115.133C155.295 113.918 156.282 112.933 157.5 112.933C158.718 112.933 159.705 113.918 159.705 115.133ZM159.705 131.266C159.705 132.481 158.718 133.466 157.5 133.466C156.282 133.466 155.295 132.481 155.295 131.266C155.295 130.051 156.282 129.066 157.5 129.066C158.718 129.066 159.705 130.051 159.705 131.266ZM159.705 147.4C159.705 148.615 158.718 149.6 157.5 149.6C156.282 149.6 155.295 148.615 155.295 147.4C155.295 146.185 156.282 145.2 157.5 145.2C158.718 145.2 159.705 146.185 159.705 147.4ZM159.705 163.533C159.705 164.748 158.718 165.733 157.5 165.733C156.282 165.733 155.295 164.748 155.295 163.533C155.295 162.318 156.282 161.333 157.5 161.333C158.718 161.333 159.705 162.318 159.705 163.533ZM159.705 179.666C159.705 180.881 158.718 181.866 157.5 181.866C156.282 181.866 155.295 180.881 155.295 179.666C155.295 178.451 156.282 177.466 157.5 177.466C158.718 177.466 159.705 178.451 159.705 179.666ZM159.705 195.8C159.705 197.015 158.718 198 157.5 198C156.282 198 155.295 197.015 155.295 195.8C155.295 194.585 156.282 193.6 157.5 193.6C158.718 193.6 159.705 194.585 159.705 195.8ZM159.705 211.933C159.705 213.148 158.718 214.133 157.5 214.133C156.282 214.133 155.295 213.148 155.295 211.933C155.295 210.718 156.282 209.733 157.5 209.733C158.718 209.733 159.705 210.718 159.705 211.933ZM175.878 2.1996C175.878 3.41463 174.891 4.3996 173.673 4.3996C172.455 4.3996 171.467 3.41463 171.467 2.1996C171.467 0.984577 172.455 -0.000396729 173.673 -0.000396729C174.891 -0.000396729 175.878 0.984577 175.878 2.1996ZM175.878 18.3329C175.878 19.548 174.891 20.5329 173.673 20.5329C172.455 20.5329 171.467 19.548 171.467 18.3329C171.467 17.1179 172.455 16.1329 173.673 16.1329C174.891 16.1329 175.878 17.1179 175.878 18.3329ZM175.878 34.4663C175.878 35.6813 174.891 36.6663 173.673 36.6663C172.455 36.6663 171.467 35.6813 171.467 34.4663C171.467 33.2512 172.455 32.2663 173.673 32.2663C174.891 32.2663 175.878 33.2512 175.878 34.4663ZM175.878 50.5996C175.878 51.8146 174.891 52.7996 173.673 52.7996C172.455 52.7996 171.467 51.8146 171.467 50.5996C171.467 49.3846 172.455 48.3996 173.673 48.3996C174.891 48.3996 175.878 49.3846 175.878 50.5996ZM175.878 66.7329C175.878 67.948 174.891 68.9329 173.673 68.9329C172.455 68.9329 171.467 67.948 171.467 66.7329C171.467 65.5179 172.455 64.5329 173.673 64.5329C174.891 64.5329 175.878 65.5179 175.878 66.7329ZM175.878 82.8663C175.878 84.0813 174.891 85.0663 173.673 85.0663C172.455 85.0663 171.467 84.0813 171.467 82.8663C171.467 81.6512 172.455 80.6663 173.673 80.6663C174.891 80.6663 175.878 81.6512 175.878 82.8663ZM175.878 98.9996C175.878 100.215 174.891 101.2 173.673 101.2C172.455 101.2 171.467 100.215 171.467 98.9996C171.467 97.7846 172.455 96.7996 173.673 96.7996C174.891 96.7996 175.878 97.7846 175.878 98.9996ZM175.878 115.133C175.878 116.348 174.891 117.333 173.673 117.333C172.455 117.333 171.467 116.348 171.467 115.133C171.467 113.918 172.455 112.933 173.673 112.933C174.891 112.933 175.878 113.918 175.878 115.133ZM175.878 131.266C175.878 132.481 174.891 133.466 173.673 133.466C172.455 133.466 171.467 132.481 171.467 131.266C171.467 130.051 172.455 129.066 173.673 129.066C174.891 129.066 175.878 130.051 175.878 131.266ZM175.878 147.4C175.878 148.615 174.891 149.6 173.673 149.6C172.455 149.6 171.467 148.615 171.467 147.4C171.467 146.185 172.455 145.2 173.673 145.2C174.891 145.2 175.878 146.185 175.878 147.4ZM175.878 163.533C175.878 164.748 174.891 165.733 173.673 165.733C172.455 165.733 171.467 164.748 171.467 163.533C171.467 162.318 172.455 161.333 173.673 161.333C174.891 161.333 175.878 162.318 175.878 163.533ZM175.878 179.666C175.878 180.881 174.891 181.866 173.673 181.866C172.455 181.866 171.467 180.881 171.467 179.666C171.467 178.451 172.455 177.466 173.673 177.466C174.891 177.466 175.878 178.451 175.878 179.666ZM175.878 195.8C175.878 197.015 174.891 198 173.673 198C172.455 198 171.467 197.015 171.467 195.8C171.467 194.585 172.455 193.6 173.673 193.6C174.891 193.6 175.878 194.585 175.878 195.8ZM175.878 211.933C175.878 213.148 174.891 214.133 173.673 214.133C172.455 214.133 171.467 213.148 171.467 211.933C171.467 210.718 172.455 209.733 173.673 209.733C174.891 209.733 175.878 210.718 175.878 211.933ZM192.051 2.1996C192.051 3.41463 191.063 4.3996 189.845 4.3996C188.627 4.3996 187.64 3.41463 187.64 2.1996C187.64 0.984577 188.627 -0.000396729 189.845 -0.000396729C191.063 -0.000396729 192.051 0.984577 192.051 2.1996ZM192.051 18.3329C192.051 19.548 191.063 20.5329 189.845 20.5329C188.627 20.5329 187.64 19.548 187.64 18.3329C187.64 17.1179 188.627 16.1329 189.845 16.1329C191.063 16.1329 192.051 17.1179 192.051 18.3329ZM192.051 34.4663C192.051 35.6813 191.063 36.6663 189.845 36.6663C188.627 36.6663 187.64 35.6813 187.64 34.4663C187.64 33.2512 188.627 32.2663 189.845 32.2663C191.063 32.2663 192.051 33.2512 192.051 34.4663ZM192.051 50.5996C192.051 51.8146 191.063 52.7996 189.845 52.7996C188.627 52.7996 187.64 51.8146 187.64 50.5996C187.64 49.3846 188.627 48.3996 189.845 48.3996C191.063 48.3996 192.051 49.3846 192.051 50.5996ZM192.051 66.7329C192.051 67.948 191.063 68.9329 189.845 68.9329C188.627 68.9329 187.64 67.948 187.64 66.7329C187.64 65.5179 188.627 64.5329 189.845 64.5329C191.063 64.5329 192.051 65.5179 192.051 66.7329ZM192.051 82.8663C192.051 84.0813 191.063 85.0663 189.845 85.0663C188.627 85.0663 187.64 84.0813 187.64 82.8663C187.64 81.6512 188.627 80.6663 189.845 80.6663C191.063 80.6663 192.051 81.6512 192.051 82.8663ZM192.051 98.9996C192.051 100.215 191.063 101.2 189.845 101.2C188.627 101.2 187.64 100.215 187.64 98.9996C187.64 97.7846 188.627 96.7996 189.845 96.7996C191.063 96.7996 192.051 97.7846 192.051 98.9996ZM192.051 115.133C192.051 116.348 191.063 117.333 189.845 117.333C188.627 117.333 187.64 116.348 187.64 115.133C187.64 113.918 188.627 112.933 189.845 112.933C191.063 112.933 192.051 113.918 192.051 115.133ZM192.051 131.266C192.051 132.481 191.063 133.466 189.845 133.466C188.627 133.466 187.64 132.481 187.64 131.266C187.64 130.051 188.627 129.066 189.845 129.066C191.063 129.066 192.051 130.051 192.051 131.266ZM192.051 147.4C192.051 148.615 191.063 149.6 189.845 149.6C188.627 149.6 187.64 148.615 187.64 147.4C187.64 146.185 188.627 145.2 189.845 145.2C191.063 145.2 192.051 146.185 192.051 147.4ZM192.051 163.533C192.051 164.748 191.063 165.733 189.845 165.733C188.627 165.733 187.64 164.748 187.64 163.533C187.64 162.318 188.627 161.333 189.845 161.333C191.063 161.333 192.051 162.318 192.051 163.533ZM192.051 179.666C192.051 180.881 191.063 181.866 189.845 181.866C188.627 181.866 187.64 180.881 187.64 179.666C187.64 178.451 188.627 177.466 189.845 177.466C191.063 177.466 192.051 178.451 192.051 179.666ZM192.051 195.8C192.051 197.015 191.063 198 189.845 198C188.627 198 187.64 197.015 187.64 195.8C187.64 194.585 188.627 193.6 189.845 193.6C191.063 193.6 192.051 194.585 192.051 195.8ZM192.051 211.933C192.051 213.148 191.063 214.133 189.845 214.133C188.627 214.133 187.64 213.148 187.64 211.933C187.64 210.718 188.627 209.733 189.845 209.733C191.063 209.733 192.051 210.718 192.051 211.933Z" fill="#F6F6F6"/>
<path fill-rule="evenodd" clip-rule="evenodd" d="M151.81 58.4186C145.121 54.5273 136.879 54.5273 130.19 58.4186L60.8105 98.7766C54.1209 102.668 50 109.859 50 117.642V198.358C50 206.141 54.1209 213.332 60.8105 217.224L130.19 257.582C136.879 261.473 145.121 261.473 151.81 257.582L221.19 217.224C227.879 213.332 232 206.141 232 198.358V117.642C232 109.859 227.879 102.668 221.19 98.7766L151.81 58.4186Z" fill="#F6F6F6"/>
<path fill-rule="evenodd" clip-rule="evenodd" d="M4.40625 249.671C5.48304 249.671 6.4594 250.11 7.16665 250.819C7.87413 251.527 8.3125 252.506 8.3125 253.585C8.3125 254.664 7.87405 255.643 7.16649 256.352C6.45926 257.06 5.48296 257.5 4.40625 257.5C3.32954 257.5 2.35324 257.06 1.64601 256.352C0.938453 255.643 0.5 254.664 0.5 253.585C0.5 252.506 0.938373 251.527 1.64585 250.819C2.3531 250.11 3.32946 249.671 4.40625 249.671ZM4.40625 249.998C3.41885 249.998 2.52309 250.4 1.87434 251.05C1.22604 251.7 0.82459 252.596 0.82459 253.585C0.82459 254.574 1.22604 255.471 1.87434 256.12C2.52309 256.77 3.41885 257.173 4.40625 257.173C5.39395 257.173 6.28961 256.77 6.93825 256.121C7.58656 255.471 7.98791 254.574 7.98791 253.585C7.98791 252.596 7.58656 251.699 6.93825 251.05C6.28961 250.4 5.39395 249.998 4.40625 249.998ZM232.73 198.171C232.807 198.171 232.883 198.201 232.943 198.26C233.002 198.319 233.031 198.397 233.031 198.474C233.031 198.552 233.002 198.629 232.942 198.689L229.551 202.085L232.942 205.482C233.002 205.541 233.031 205.619 233.031 205.697C233.031 205.774 233.002 205.852 232.942 205.911C232.884 205.97 232.807 206 232.73 206C232.653 206 232.576 205.97 232.517 205.911L229.125 202.512L225.733 205.911C225.674 205.97 225.597 206 225.52 206C225.443 206 225.366 205.97 225.308 205.911C225.248 205.852 225.219 205.774 225.219 205.697C225.219 205.619 225.248 205.541 225.308 205.482L228.698 202.085L225.308 198.689C225.248 198.629 225.219 198.552 225.219 198.474C225.219 198.397 225.248 198.319 225.308 198.259C225.367 198.2 225.443 198.171 225.52 198.171L229.125 201.657L232.517 198.26C232.576 198.201 232.653 198.171 232.73 198.171ZM56.4796 189.342C56.5568 189.342 56.6338 189.372 56.6927 189.431C56.7517 189.49 56.781 189.568 56.781 189.645C56.781 189.723 56.7514 189.801 56.6927 189.86L53.3012 193.256L56.6923 196.654C56.7515 196.713 56.7812 196.79 56.7812 196.868C56.7812 196.946 56.7515 197.023 56.6923 197.083C56.6337 197.141 56.5567 197.171 56.4796 197.171C56.4026 197.171 56.3256 197.141 56.2669 197.083L52.8747 193.684L49.4831 197.083C49.4244 197.141 49.3474 197.171 49.2704 197.171C49.1933 197.171 49.1163 197.141 49.0577 197.083C48.9985 197.023 48.9688 196.946 48.9688 196.868C48.9688 196.79 48.9985 196.713 49.0577 196.654L52.4482 193.256L49.0578 189.861C48.9986 189.801 48.969 189.723 48.969 189.645C48.969 189.568 48.9983 189.49 49.0573 189.431C49.1162 189.372 49.1932 189.342 49.2704 189.342L52.8747 192.829L56.2677 189.431C56.3262 189.372 56.4029 189.342 56.4796 189.342ZM229.125 114.3C230.202 114.3 231.178 114.739 231.885 115.447C232.593 116.156 233.031 117.134 233.031 118.214C233.031 119.293 232.593 120.272 231.885 120.981C231.178 121.689 230.202 122.128 229.125 122.128C228.048 122.128 227.072 121.689 226.365 120.981C225.657 120.272 225.219 119.293 225.219 118.214C225.219 117.134 225.657 116.156 226.365 115.447C227.072 114.739 228.048 114.3 229.125 114.3ZM229.125 114.627C228.137 114.627 227.242 115.029 226.593 115.678C225.945 116.328 225.543 117.225 225.543 118.214C225.543 119.202 225.945 120.099 226.593 120.749C227.242 121.399 228.137 121.801 229.125 121.801C230.112 121.801 231.008 121.399 231.657 120.749C232.305 120.099 232.707 119.202 232.707 118.214C232.707 117.225 232.305 116.328 231.657 115.679C231.008 115.029 230.112 114.627 229.125 114.627ZM281.199 52.4996C281.276 52.4996 281.352 52.529 281.411 52.5877C281.47 52.647 281.5 52.7247 281.5 52.8024C281.5 52.8798 281.47 52.9572 281.411 53.0166L278.02 56.4136L281.411 59.8108C281.47 59.8701 281.5 59.9476 281.5 60.0252C281.5 60.1029 281.47 60.1804 281.411 60.2397C281.352 60.2985 281.275 60.3282 281.198 60.3282C281.121 60.3282 281.044 60.2985 280.986 60.2397L277.593 56.8408L274.202 60.2397C274.143 60.2985 274.066 60.3282 273.989 60.3282C273.912 60.3282 273.835 60.2985 273.776 60.2397C273.717 60.1804 273.688 60.1029 273.688 60.0252C273.688 59.9476 273.717 59.8701 273.776 59.8108L277.167 56.4136L273.776 53.0161C273.717 52.9572 273.688 52.8798 273.688 52.8024C273.688 52.7247 273.717 52.647 273.776 52.5877C273.835 52.529 273.912 52.4996 273.989 52.4996L277.593 55.9853L280.985 52.5881C281.044 52.5292 281.121 52.4996 281.199 52.4996ZM55.4548 53.4716C56.2642 54.1842 56.7086 55.1605 56.7731 56.161C56.8375 57.1616 56.5221 58.1868 55.8107 58.9975C55.1251 59.7792 54.1777 60.2486 53.1415 60.319C51.9344 60.3245 51.0213 59.9915 50.2972 59.3532C49.5131 58.6635 49.0446 57.709 48.977 56.6648C48.9101 55.6214 49.2524 54.6139 49.9422 53.828C50.653 53.0175 51.6267 52.5724 52.6248 52.5078C53.623 52.4433 54.6457 52.7593 55.4548 53.4716ZM52.8781 52.8265C51.8827 52.8265 50.8921 53.2386 50.1847 54.0445C49.5535 54.7648 49.2395 55.6876 49.3018 56.6444C49.3634 57.6 49.7929 58.475 50.5109 59.1072C51.2305 59.7409 52.1545 60.0581 53.1081 59.9933C54.0618 59.9317 54.9356 59.5006 55.5669 58.781C56.2186 58.0383 56.5083 57.0992 56.4493 56.1824C56.3904 55.2655 55.9829 54.3712 55.2414 53.7178C54.5619 53.1204 53.7181 52.8265 52.8781 52.8265Z" stroke="#E5E5E5"/>
<path fill-rule="evenodd" clip-rule="evenodd" d="M190.7 109.575C189.721 109.575 188.925 108.779 188.925 107.8C188.925 106.821 189.721 106.025 190.7 106.025C191.679 106.025 192.475 106.821 192.475 107.8C192.475 108.779 191.679 109.575 190.7 109.575Z" fill="#CACAFB"/>
<path fill-rule="evenodd" clip-rule="evenodd" d="M142.775 221.4C141.796 221.4 141 220.604 141 219.625C141 218.646 141.796 217.85 142.775 217.85C143.754 217.85 144.55 218.646 144.55 219.625C144.55 220.604 143.754 221.4 142.775 221.4Z" fill="#CACAFB"/>
<path fill-rule="evenodd" clip-rule="evenodd" d="M96.625 104.25C95.6462 104.25 94.85 103.454 94.85 102.475C94.85 101.496 95.6462 100.7 96.625 100.7C97.6037 100.7 98.4 101.496 98.4 102.475C98.4 103.454 97.6037 104.25 96.625 104.25Z" fill="#CACAFB"/>
<path d="M98.4 125.55C97.4213 125.55 96.625 124.754 96.625 123.775C96.625 122.796 97.4213 122 98.4 122C99.3787 122 100.175 122.796 100.175 123.775C100.175 124.754 99.3787 125.55 98.4 125.55Z" fill="#E1000F"/>
<path d="M105.5 125.55C104.521 125.55 103.725 124.754 103.725 123.775C103.725 122.796 104.521 122 105.5 122C106.479 122 107.275 122.796 107.275 123.775C107.275 124.754 106.479 125.55 105.5 125.55Z" fill="#E1000F"/>
<path d="M110.825 123.775C110.825 124.754 111.621 125.55 112.6 125.55C113.579 125.55 114.375 124.754 114.375 123.775C114.375 122.796 113.579 122 112.6 122C111.621 122 110.825 122.796 110.825 123.775Z" fill="#E1000F"/>
<path d="M180.05 122C181.03 122 181.825 122.795 181.825 123.775C181.825 124.685 181.14 125.436 180.257 125.538L180.05 125.55H126.8C125.82 125.55 125.025 124.755 125.025 123.775C125.025 122.865 125.71 122.115 126.593 122.012L126.8 122H180.05Z" fill="#E1000F"/>
<path fill-rule="evenodd" clip-rule="evenodd" d="M161.044 174.729C160.711 175.424 160.525 176.203 160.525 177.025C160.525 179.966 162.909 182.35 165.85 182.35C168.791 182.35 171.175 179.966 171.175 177.025C171.175 175.933 170.846 174.918 170.283 174.073L177.92 163.89L178.043 163.704C178.48 162.938 178.289 161.948 177.565 161.405C176.781 160.817 175.668 160.976 175.08 161.76L167.443 171.943C166.94 171.785 166.405 171.7 165.85 171.7C165.028 171.7 164.249 171.886 163.554 172.219L160.005 168.67L159.838 168.522C159.142 167.981 158.135 168.03 157.495 168.67C156.802 169.363 156.802 170.487 157.495 171.18L161.044 174.729ZM165.85 175.25C166.83 175.25 167.625 176.045 167.625 177.025C167.625 178.005 166.83 178.8 165.85 178.8C164.87 178.8 164.075 178.005 164.075 177.025C164.075 176.045 164.87 175.25 165.85 175.25Z" fill="#E1000F"/>
<path d="M188.913 116.468C188.811 115.585 188.06 114.9 187.15 114.9H91.3L91.093 114.912C90.2102 115.015 89.525 115.765 89.525 116.675V198.325L89.537 198.532C89.6395 199.415 90.3897 200.1 91.3 200.1H133.9L134.107 200.088C134.99 199.986 135.675 199.235 135.675 198.325L135.663 198.118C135.561 197.235 134.81 196.55 133.9 196.55H93.075V132.65H158.75L158.957 132.638C159.84 132.536 160.525 131.785 160.525 130.875C160.525 129.895 159.73 129.1 158.75 129.1H93.075V118.45H185.375V145.075L185.387 145.282C185.49 146.165 186.24 146.85 187.15 146.85C188.13 146.85 188.925 146.055 188.925 145.075V116.675L188.913 116.468Z" fill="#000091"/>
<path d="M196.025 177.025C196.025 160.36 182.515 146.85 165.85 146.85C149.185 146.85 135.675 160.36 135.675 177.025C135.675 192.327 147.065 204.969 161.83 206.935L161.045 207.72L160.897 207.887C160.356 208.584 160.405 209.59 161.045 210.23C161.738 210.923 162.862 210.923 163.555 210.23L167.105 206.68C167.157 206.628 167.206 206.573 167.252 206.514C167.351 206.387 167.431 206.248 167.49 206.104C167.566 205.922 167.612 205.724 167.623 205.516C167.624 205.486 167.625 205.456 167.625 205.425C167.625 205.186 167.578 204.958 167.492 204.75C167.405 204.539 167.276 204.341 167.105 204.17L163.555 200.62L163.388 200.472C162.692 199.931 161.685 199.98 161.045 200.62L160.897 200.787C160.356 201.484 160.405 202.49 161.045 203.13L161.151 203.237C148.688 201.018 139.225 190.126 139.225 177.025C139.225 162.321 151.145 150.4 165.85 150.4C180.555 150.4 192.475 162.321 192.475 177.025C192.475 183.236 190.344 189.115 186.503 193.83C185.884 194.59 185.998 195.708 186.758 196.327C187.518 196.946 188.636 196.832 189.255 196.072C193.608 190.73 196.025 184.06 196.025 177.025Z" fill="#000091"/>
<path d="M184.712 200.58C185.476 199.967 185.599 198.85 184.986 198.085C184.373 197.32 183.256 197.197 182.491 197.81C181.444 198.65 180.335 199.409 179.174 200.082C178.326 200.573 178.037 201.659 178.528 202.507C179.019 203.356 180.105 203.645 180.954 203.154C182.269 202.392 183.525 201.531 184.712 200.58Z" fill="#000091"/>
<path d="M169.795 157.899C168.506 157.635 167.186 157.5 165.85 157.5C155.067 157.5 146.325 166.242 146.325 177.025C146.325 187.809 155.067 196.55 165.85 196.55C176.633 196.55 185.375 187.809 185.375 177.025C185.375 174.334 184.829 171.717 183.785 169.297C183.397 168.397 182.353 167.982 181.452 168.37C180.552 168.759 180.137 169.803 180.526 170.703C181.379 172.681 181.825 174.82 181.825 177.025C181.825 185.848 174.673 193 165.85 193C157.027 193 149.875 185.848 149.875 177.025C149.875 168.202 157.027 161.05 165.85 161.05C166.946 161.05 168.027 161.16 169.081 161.377C170.041 161.574 170.98 160.955 171.177 159.995C171.374 159.035 170.755 158.096 169.795 157.899Z" fill="#000091"/>
<path d="M137.45 143.3C138.43 143.3 139.225 144.095 139.225 145.075C139.225 145.985 138.54 146.736 137.657 146.838L137.45 146.85H105.5C104.52 146.85 103.725 146.055 103.725 145.075C103.725 144.165 104.41 143.415 105.293 143.312L105.5 143.3H137.45Z" fill="#000091"/>
<path d="M132.125 155.725C132.125 154.745 131.33 153.95 130.35 153.95H105.5L105.293 153.962C104.41 154.065 103.725 154.815 103.725 155.725C103.725 156.705 104.52 157.5 105.5 157.5H130.35L130.557 157.488C131.44 157.386 132.125 156.635 132.125 155.725Z" fill="#000091"/>
<path d="M126.8 164.6C127.78 164.6 128.575 165.395 128.575 166.375C128.575 167.285 127.89 168.036 127.007 168.138L126.8 168.15H105.5C104.52 168.15 103.725 167.355 103.725 166.375C103.725 165.465 104.41 164.715 105.293 164.612L105.5 164.6H126.8Z" fill="#000091"/>
</g>
<defs>
<clipPath id="clip0_2343_82153">
<rect width="282" height="319" fill="white" transform="translate(0 -0.000396729)"/>
</clipPath>
</defs>
</svg>
