<svg width="24" height="24" viewBox="0 0 24 24" fill="none" xmlns="http://www.w3.org/2000/svg">
<path d="M18.3158 5.68652H5.68433V18.318H18.3158V5.68652Z" fill="white"/>
<path d="M18.3158 24.0021L24.0001 18.3179L21.158 17.833L18.3158 18.3179L17.7971 20.9176L18.3158 24.0021Z" fill="#EA4335"/>
<path d="M0 18.3179V22.1074C0 23.1543 0.847874 24.0021 1.89469 24.0021H5.68425L6.26784 21.16L5.68425 18.3179L2.5874 17.833L0 18.3179Z" fill="#188038"/>
<path d="M24.0001 5.6862V1.89664C24.0001 0.849828 23.1522 0.00195312 22.1054 0.00195312H18.3158C17.9701 1.41158 17.7972 2.44895 17.7971 3.11408C17.7971 3.77914 17.97 4.63652 18.3158 5.6862C19.573 6.0462 20.5204 6.2262 21.158 6.2262C21.7955 6.2262 22.7429 6.04627 24.0001 5.6862Z" fill="#1967D2"/>
<path d="M23.9999 5.68652H18.3157V18.318H23.9999V5.68652Z" fill="#FBBC04"/>
<path d="M18.3158 18.3174H5.68433V24.0016H18.3158V18.3174Z" fill="#34A853"/>
<path d="M18.3157 0.00195312H1.89478C0.847874 0.00195312 0 0.849828 0 1.89664V18.3177H5.68425V5.6862H18.3157V0.00195312Z" fill="#4285F4"/>
<path d="M8.27529 15.4849C7.80316 15.1659 7.47626 14.7002 7.29785 14.0842L8.39369 13.6327C8.49307 14.0117 8.66676 14.3054 8.91476 14.5138C9.16104 14.7222 9.46104 14.8249 9.81157 14.8249C10.1699 14.8249 10.4778 14.7159 10.7352 14.498C10.9926 14.2801 11.1221 14.0022 11.1221 13.6659C11.1221 13.3217 10.9863 13.0406 10.7148 12.8227C10.4432 12.6049 10.1021 12.4959 9.69476 12.4959H9.06157V11.4112H9.62998C9.98047 11.4112 10.2757 11.3165 10.5157 11.1269C10.7557 10.9375 10.8757 10.6785 10.8757 10.3485C10.8757 10.0549 10.7684 9.82114 10.5537 9.64592C10.339 9.47061 10.0673 9.3822 9.73732 9.3822C9.41519 9.3822 9.15944 9.46752 8.96998 9.63955C8.78056 9.81208 8.63819 10.03 8.55626 10.2727L7.47157 9.82114C7.61519 9.4138 7.87891 9.0538 8.26573 8.74273C8.65254 8.43167 9.14679 8.27539 9.74679 8.27539C10.1905 8.27539 10.59 8.3607 10.9437 8.53273C11.2973 8.70486 11.5752 8.94327 11.7757 9.24645C11.9763 9.55114 12.0757 9.8922 12.0757 10.2711C12.0757 10.658 11.9826 10.9849 11.7963 11.2533C11.6101 11.5217 11.381 11.7269 11.1094 11.8706V11.9353C11.4601 12.0799 11.7647 12.3174 11.9905 12.6222C12.2194 12.9301 12.3348 13.298 12.3348 13.7275C12.3348 14.1569 12.2257 14.5406 12.0078 14.8769C11.79 15.2133 11.4885 15.4785 11.1063 15.6711C10.7226 15.8638 10.2916 15.9618 9.81316 15.9618C9.25891 15.9633 8.74741 15.8038 8.27529 15.4849ZM15.0062 10.0469L13.8031 10.9169L13.2015 10.0043L15.3599 8.44742H16.1872V15.7911H15.0062V10.0469Z" fill="#4285F4"/>
</svg>
