<svg width="24" height="24" viewBox="0 0 24 24" fill="none" xmlns="http://www.w3.org/2000/svg">
<path d="M15.0149 5.09082V9.78539L16.6748 10.8182C16.7348 10.831 16.7968 10.831 16.8568 10.8182L23.9939 6.05768C23.9886 5.82663 23.9032 5.60441 23.7519 5.42834C23.6006 5.25227 23.3927 5.13309 23.163 5.09082H15.0149Z" fill="#0072C6"/>
<path d="M15.0149 11.5362L16.5284 12.5648C16.5992 12.6077 16.6806 12.6304 16.7636 12.6304C16.8467 12.6304 16.9281 12.6077 16.9989 12.5648C16.7389 12.7199 23.993 7.95508 23.993 7.95508V16.5831C24.0119 16.7579 23.992 16.9347 23.9346 17.1011C23.8772 17.2676 23.7838 17.4196 23.6608 17.5465C23.5379 17.6735 23.3884 17.7723 23.2228 17.8361C23.0572 17.8999 22.8795 17.9272 22.7021 17.9159H15.014L15.0149 11.5362ZM7.17953 9.37194C6.92807 9.37083 6.68098 9.437 6.46442 9.56344C6.24785 9.68989 6.06987 9.8719 5.94929 10.0902C5.62013 10.6691 5.46222 11.3279 5.49359 11.9914C5.45938 12.6534 5.61752 13.3114 5.94929 13.8874C6.06929 14.0968 6.24288 14.2712 6.45262 14.3932C6.66235 14.5152 6.90085 14.5804 7.14413 14.5823C7.38742 14.5843 7.62694 14.5228 7.8386 14.4041C8.05027 14.2854 8.22664 14.1137 8.34998 13.9062C8.67878 13.3331 8.83369 12.6784 8.79615 12.0205C8.83369 11.342 8.68395 10.6661 8.36297 10.0654C8.24796 9.85435 8.07703 9.67831 7.86853 9.55614C7.66003 9.43398 7.42184 9.3703 7.17953 9.37194Z" fill="#0072C6"/>
<path d="M0 2.70624V21.0722L14.1217 24.002V0.00195312L0 2.70624ZM9.45026 14.9942C9.18614 15.3627 8.8349 15.6617 8.42716 15.865C8.01943 16.0684 7.5676 16.1699 7.11109 16.1608C6.66608 16.1686 6.22574 16.07 5.82753 15.8733C5.42932 15.6766 5.08501 15.3877 4.82389 15.0311C4.20467 14.1757 3.89488 13.1387 3.94454 12.0877C3.89199 10.9851 4.20737 9.89601 4.84209 8.98824C5.10975 8.61292 5.46656 8.30843 5.8811 8.10157C6.29564 7.89471 6.75521 7.79182 7.21938 7.80195C7.66112 7.79348 8.09822 7.89227 8.49242 8.08966C8.88662 8.28706 9.22591 8.57704 9.48058 8.93424C10.0936 9.80824 10.3981 10.8579 10.3469 11.9205C10.4012 13.0152 10.0857 14.0965 9.45026 14.9942Z" fill="#0072C6"/>
</svg>
