<svg width="135" height="135" viewBox="0 0 135 135" fill="none" xmlns="http://www.w3.org/2000/svg">
<g clip-path="url(#clip0_46_3281)">
<circle cx="67.5" cy="67.5" r="67.5" fill="white"/>
<path d="M49.96 47.21L49.965 47.2036L49.97 47.21H49.96Z" fill="#7AB1E8"/>
<path d="M49.965 47.2036L41.36 36.24L44.9 11.44C48.02 10.2 51.27 9.22001 54.62 8.51001L58.57 36.24L49.965 47.2036Z" fill="#7AB1E8"/>
<path d="M82.08 59.76L68.28 57.79L68.27 57.8L73.47 44.86L113.87 28.63C114.93 29.86 115.93 31.13 116.89 32.45L82.08 59.76Z" fill="#7AB1E8"/>
<path d="M26.45 44.85L31.65 57.79L17.85 59.76L8.32001 52.28C9.53001 47.83 11.23 43.58 13.36 39.59L26.45 44.85Z" fill="#7AB1E8"/>
<path d="M73.48 91.88L68.28 78.94H68.29L82.09 76.97L116.91 104.29C115.95 105.6 114.94 106.88 113.89 108.11L73.48 91.88Z" fill="#7AB1E8"/>
<path d="M31.65 78.94L17.85 76.97L8.32001 84.45C9.53001 88.9 11.23 93.15 13.36 97.14L26.46 91.88L31.66 78.94H31.65Z" fill="#7AB1E8"/>
<path d="M41.35 100.48L49.96 89.51L58.57 100.48L54.61 128.22C51.26 127.51 48.01 126.52 44.89 125.29L41.35 100.48Z" fill="#7AB1E8"/>
<path d="M51.64 47.66L67.06 56.56C67.58 56.86 68 57.28 68.28 57.78L87.28 10.49C85.01 9.70999 82.68 9.05999 80.3 8.54999L49.97 47.21C50.55 47.21 51.12 47.36 51.64 47.66Z" fill="#E1000F"/>
<path d="M68.28 78.94C67.99 79.44 67.57 79.87 67.06 80.16L51.64 89.06C51.12 89.36 50.55 89.51 49.97 89.51L80.31 128.18C82.69 127.67 85.02 127.02 87.29 126.24L68.29 78.94H68.28Z" fill="#E1000F"/>
<path d="M31.2 59.45V77.27C31.2 77.87 31.36 78.44 31.65 78.94L6.57999 75.36C6.30999 73.07 6.17999 70.74 6.17999 68.37C6.17999 66 6.32 63.66 6.57999 61.36L31.65 57.78C31.36 58.28 31.2 58.85 31.2 59.45Z" fill="#E1000F"/>
<path d="M32.87 56.56L48.29 47.66C48.81 47.36 49.38 47.21 49.96 47.21L29.1 20.62C25.85 23.22 22.88 26.15 20.23 29.36L31.65 57.79C31.94 57.29 32.36 56.86 32.87 56.57V56.56Z" fill="#000091"/>
<path d="M128.51 66.38L68.28 57.79C68.57 58.29 68.73 58.86 68.73 59.46V77.27C68.73 77.87 68.57 78.44 68.28 78.94L128.51 70.35C128.53 69.69 128.54 69.03 128.54 68.37C128.54 67.71 128.53 67.04 128.51 66.38Z" fill="#000091"/>
<path d="M32.87 80.16L48.29 89.06H48.3C48.82 89.36 49.39 89.51 49.97 89.51L29.1 116.11C25.86 113.51 22.88 110.58 20.23 107.38L31.65 78.94C31.93 79.44 32.35 79.86 32.87 80.16Z" fill="#000091"/>
</g>
<defs>
<clipPath id="clip0_46_3281">
<rect width="135" height="135" fill="white"/>
</clipPath>
</defs>
</svg>
