<svg width="88" height="88" viewBox="0 0 88 88" fill="none" xmlns="http://www.w3.org/2000/svg">
<path fill-rule="evenodd" clip-rule="evenodd" d="M61.6 84.7C60.9935 84.7 60.5 84.2065 60.5 83.6C60.5 82.9934 60.9935 82.5 61.6 82.5C62.2065 82.5 62.7 82.9934 62.7 83.6C62.7 84.2065 62.2065 84.7 61.6 84.7Z" fill="#CACAFB"/>
<path fill-rule="evenodd" clip-rule="evenodd" d="M8.79995 71.5003C8.19341 71.5003 7.69995 71.0068 7.69995 70.4003C7.69995 69.7937 8.19341 69.3003 8.79995 69.3003C9.40649 69.3003 9.89995 69.7937 9.89995 70.4003C9.89995 71.0068 9.40649 71.5003 8.79995 71.5003Z" fill="#CACAFB"/>
<path fill-rule="evenodd" clip-rule="evenodd" d="M83.6 63.8001C82.9935 63.8001 82.5 63.3066 82.5 62.7001C82.5 62.0935 82.9935 61.6001 83.6 61.6001C84.2065 61.6001 84.7 62.0935 84.7 62.7001C84.7 63.3066 84.2065 63.8001 83.6 63.8001Z" fill="#CACAFB"/>
<path fill-rule="evenodd" clip-rule="evenodd" d="M71.4999 11.0003C70.8934 11.0003 70.3999 10.5068 70.3999 9.90029C70.3999 9.2937 70.8934 8.80029 71.4999 8.80029C72.1064 8.80029 72.5999 9.2937 72.5999 9.90029C72.5999 10.5068 72.1064 11.0003 71.4999 11.0003Z" fill="#CACAFB"/>
<path fill-rule="evenodd" clip-rule="evenodd" d="M26.4 4.4002C25.7935 4.4002 25.3 3.90674 25.3 3.3002C25.3 2.6936 25.7935 2.2002 26.4 2.2002C27.0066 2.2002 27.5 2.6936 27.5 3.3002C27.5 3.90674 27.0066 4.4002 26.4 4.4002Z" fill="#CACAFB"/>
<path d="M40.8058 17.2488C41.2642 18.5012 40.8433 19.9718 40.0137 20.668C39.6604 20.9644 39.3487 21.1395 38.8184 21.3007L38.4719 21.3966C38.4091 21.4126 38.3436 21.4287 38.2751 21.4449L37.8265 21.5455L35.7108 21.9782L35.4449 22.0348L35.5933 22.1124L35.8633 22.2589L36.3785 22.5488C36.9046 22.8525 37.0849 23.5253 36.7811 24.0514C36.4773 24.5775 35.8046 24.7578 35.2785 24.454L35.0436 24.3201L34.5529 24.0508L32.8658 23.1685L32.1113 22.7663C31.9866 22.6989 31.8617 22.631 31.7359 22.562L30.9611 22.1312L30.1179 21.6498C29.5918 21.346 29.4115 20.6733 29.7152 20.1471C30.019 19.621 30.6918 19.4408 31.2179 19.7445L32.0392 20.2134C32.1693 20.2867 32.2965 20.358 32.4217 20.4276L32.5701 20.509C32.6815 20.4309 32.8093 20.3722 32.9498 20.3392L33.5513 20.1997L34.6996 19.9442L35.5457 19.7653L37.2855 19.4115L37.7766 19.3025L38.0206 19.2405L38.2103 19.1836C38.2379 19.1744 38.2638 19.1653 38.288 19.1562L38.4161 19.1016L38.5164 19.0447L38.5995 18.9827C38.7313 18.8721 38.8743 18.3723 38.7399 18.005C38.5135 17.3867 37.6202 16.8562 35.7369 16.6435L32.0154 16.2615L29.9643 16.0584L27.6774 15.8416L25.3396 15.6356L24.2847 15.5518L24.1137 15.5546L23.9859 15.5674L23.7684 15.6046L23.6034 15.6426L23.42 15.6919L23.1062 15.7887L22.6049 15.9642L21.9943 16.198L21.2585 16.4959L19.8854 17.0756L17.3866 18.1606L17.2678 18.2019L17.1872 18.2215L17.1027 18.2338C17.0882 18.2352 17.0734 18.2363 17.0583 18.2369L16.9636 18.2366L16.8592 18.2268L16.7426 18.2065L16.6116 18.1751L16.3827 18.1049L16.2051 18.0415L15.8953 17.9193L15.6563 17.8185L15.0901 17.5667L14.1923 17.1487L11.6231 15.9169C11.0758 15.6531 10.8461 14.9956 11.1099 14.4484C11.3737 13.9011 12.0312 13.6714 12.5785 13.9352L14.5065 14.8551L15.2891 15.2205L16.1436 15.6092L16.6622 15.835L16.9482 15.9509L19.1705 14.9859L20.4218 14.4559L21.0548 14.1969L21.78 13.9144L22.0976 13.7981L22.5251 13.6526L22.902 13.5391L23.1294 13.4798L23.3409 13.4326L23.5391 13.3967L23.7266 13.3711L23.9061 13.3551C23.9355 13.3532 23.9647 13.3516 23.9937 13.3504L24.2515 13.3481L24.5071 13.3614L25.8796 13.4733L28.3058 13.6904L31.1719 13.9664L35.0706 14.3627L35.6762 14.4259C38.4967 14.6851 40.2279 15.6701 40.8058 17.2488Z" fill="#E1000F"/>
<path d="M28.3723 39.6527C28.8778 39.8712 29.4781 39.6809 29.7601 39.1924C30.0639 38.6662 29.8836 37.9935 29.3575 37.6897L26.125 35.8235L26.0102 35.7657C25.5047 35.5472 24.9045 35.7376 24.6224 36.2261C24.3186 36.7522 24.4989 37.425 25.025 37.7287L28.2575 39.595L28.3723 39.6527Z" fill="#E1000F"/>
<path d="M22.5334 42.073C22.2514 42.5616 21.6512 42.7519 21.1456 42.5334L21.0308 42.4757L16.1074 39.6331C15.941 39.5371 15.7149 39.3142 15.4467 38.99L15.2068 38.6879C15.1653 38.6336 15.123 38.5774 15.08 38.5194L14.8139 38.1495L14.5333 37.7389L14.2407 37.2912L13.9385 36.8099C13.8875 36.7271 13.8362 36.6431 13.7847 36.5578L13.4728 36.0329L13.1576 35.4832L12.8415 34.9125C12.7889 34.8158 12.7363 34.7184 12.6839 34.6204L12.371 34.0247C12.3193 33.9243 12.2677 33.8234 12.2164 33.722L11.9123 33.1094L11.6172 32.49L11.3335 31.8673L11.0637 31.2449C10.9763 31.0379 10.8917 30.8315 10.8102 30.6264L10.674 30.2756L9.62108 29.4757L7.4051 27.8181L7.00399 27.5079L6.77594 27.3218L6.67698 27.2327L6.58019 27.137L6.54467 27.0908L6.46384 26.9487L6.36727 26.7661C6.16498 26.1932 6.46538 25.5649 7.03822 25.3626C7.43481 25.2225 7.858 25.3234 8.14801 25.5888L8.21602 25.6581L8.52343 25.9032L11.7533 28.329L12.1037 28.603L12.2847 28.755L12.4258 28.8902L12.4609 28.9351L12.5082 29.0135L12.6385 29.2513C13.4291 31.386 14.4887 33.4922 15.6524 35.3834L15.8407 35.6859L16.2101 36.2592C16.3914 36.5342 16.5667 36.7903 16.7319 37.0222L17.0033 37.3937L17.1965 37.6433L17.2928 37.7621C17.2975 37.7706 17.2926 37.7734 17.2557 37.7545L22.1308 40.5704C22.6569 40.8742 22.8372 41.5469 22.5334 42.073Z" fill="#E1000F"/>
<path d="M25.3 43.9998C25.9075 43.9998 26.4 43.5073 26.4 42.8998C26.4 42.2923 25.9075 41.7998 25.3 41.7998C24.6925 41.7998 24.2 42.2923 24.2 42.8998C24.2 43.5073 24.6925 43.9998 25.3 43.9998Z" fill="#E1000F"/>
<path d="M59.8603 46.9275C59.5566 46.4013 59.7368 45.7286 60.263 45.4248L60.4964 45.2883L60.9749 44.9981L62.9466 43.7499C63.0672 43.6747 63.1874 43.6002 63.3082 43.5259L64.046 43.0778L64.84 42.6084C64.9795 42.527 65.1231 42.4436 65.2718 42.3578C65.7979 42.054 66.4707 42.2343 66.7744 42.7604C67.0782 43.2865 66.8979 43.9593 66.3718 44.263L65.555 44.7399L65.128 44.9956C65.1211 45.0311 65.1123 45.0665 65.1016 45.1018C64.9804 45.5041 64.8622 45.888 64.7447 46.2613L64.3924 47.3584L63.6799 49.4977L63.5861 49.8003L63.5178 50.0426L63.4722 50.2352L63.4653 50.2701C63.4623 50.286 63.4595 50.3014 63.4571 50.3163L63.4404 50.4545L63.4395 50.5698L63.4516 50.6728C63.4814 50.8422 63.8428 51.216 64.2281 51.2832C64.8767 51.3963 65.7828 50.8879 66.9087 49.3633L69.412 45.8979L71.3818 43.1393L72.5614 41.4641L73.3686 40.3012C73.4308 40.2109 73.4917 40.1222 73.5514 40.0352C73.7271 39.7788 73.9015 39.3632 74.0708 38.794L74.1829 38.3918L74.2932 37.9445L74.4016 37.4523L74.5077 36.9158L74.6114 36.3351L74.7124 35.7107L74.8105 35.043C74.8266 34.9281 74.8425 34.8115 74.8583 34.693L74.9515 33.961L75.0412 33.1865C75.0459 33.1439 75.0511 33.1033 75.0579 33.064L75.0839 32.9483L75.1096 32.8721L75.1656 32.7549L75.2173 32.6725L75.2826 32.5845L75.4105 32.4385L75.5184 32.3293L75.719 32.1436L76.069 31.8458L76.8014 31.2643L78.2455 30.1656L79.7458 29.0394C80.2319 28.675 80.9213 28.7737 81.2857 29.2598C81.6501 29.7459 81.5514 30.4354 81.0653 30.7997L79.096 32.2893L78.0655 33.0875L77.5838 33.4715L77.1862 33.8034L77.0742 34.7202C77.0563 34.8595 77.0382 34.9967 77.02 35.1319L76.9077 35.9181C76.525 38.4568 76.0553 40.1762 75.4536 41.1446L75.3659 41.2791L74.5828 42.4118L73.6789 43.7011L72.0971 45.9281L69.5671 49.4434L68.8595 50.4196C67.2248 52.7325 65.5061 53.7393 63.8501 53.4505C62.5362 53.2213 61.4731 52.1214 61.285 51.0549C61.1969 50.5552 61.2108 50.1727 61.376 49.5357L61.4814 49.1607L61.6186 48.7219L62.2644 46.7854L62.1334 46.8683L61.6167 47.1817C61.5322 47.2318 61.4479 47.281 61.363 47.3301C60.8368 47.6339 60.1641 47.4536 59.8603 46.9275Z" fill="#E1000F"/>
<path d="M70.7598 21.8097L67.9624 23.0441L67.4302 23.2651L67.2142 23.3432C67.0163 23.4066 66.917 23.4321 66.7388 23.4133L66.6209 23.3967C64.3832 23.0181 62.0379 22.8848 59.8279 22.9477L59.4733 22.9596L58.795 22.9929L58.1681 23.0374C58.0685 23.0456 57.9716 23.0543 57.8776 23.0633L57.4224 23.1125L57.1112 23.1548L56.9613 23.1787C56.9518 23.1785 56.9521 23.1728 56.9869 23.1503L50.05 27.154C49.5239 27.4578 48.8511 27.2775 48.5474 26.7514C48.2653 26.2628 48.4006 25.6479 48.8426 25.3193L48.95 25.2488L55.9342 21.2164C56.1525 21.0904 56.6124 20.9844 57.2434 20.9042L57.6887 20.8547C57.7669 20.8471 57.847 20.8398 57.9289 20.8329L58.4417 20.7955L58.9935 20.7667L59.58 20.7469C59.6804 20.7443 59.782 20.7422 59.8847 20.7404L60.5143 20.7347L61.1669 20.7389L61.8378 20.7534L62.5225 20.7785L63.2162 20.8147L63.9145 20.8622L64.6126 20.9216L65.3059 20.9931C65.6506 21.0319 65.9917 21.0755 66.3268 21.124L66.713 21.183L66.9511 21.0837L69.9921 19.7451L70.2896 19.6195L70.5216 19.5262L70.6727 19.4704L70.7386 19.4485C70.9796 19.3724 71.0791 19.351 71.3445 19.4004C71.9417 19.5117 72.3357 20.086 72.2244 20.6832C72.1132 21.2805 71.5389 21.6745 70.9416 21.5632C71.0158 21.577 71.062 21.5904 71.0932 21.6012L71.1545 21.6243C71.1755 21.6301 71.1916 21.6259 71.2462 21.6049L70.7598 21.8097Z" fill="#E1000F"/>
<path d="M53.9 30.7998C54.5075 30.7998 55 30.3073 55 29.6998C55 29.0923 54.5075 28.5998 53.9 28.5998C53.2925 28.5998 52.8 29.0923 52.8 29.6998C52.8 30.3073 53.2925 30.7998 53.9 30.7998Z" fill="#E1000F"/>
<path d="M46.1943 30.0387C46.0847 28.0106 44.4054 26.3999 42.35 26.3999C40.2237 26.3999 38.5 28.1236 38.5 30.2499V32.2704C37.9999 32.0328 37.4405 31.8999 36.85 31.8999C34.7237 31.8999 33 33.6236 33 35.7499V52.1234L32.3309 51.3377L30.9866 49.7333L30.3035 48.9309L29.8908 48.4641L29.6543 48.2089L29.4432 47.9934C29.4098 47.9605 29.3773 47.9291 29.3456 47.8991L29.1635 47.7349C29.0763 47.6603 28.994 47.5965 28.9142 47.541L28.7569 47.4402C28.6791 47.3947 28.6019 47.3557 28.5226 47.321L28.3604 47.2563C27.3428 46.8859 25.8586 47.2567 25.0033 48.2799C23.9251 49.5697 23.9377 51.5615 25.1234 54.1337L26.7621 57.7877L28.3542 61.2812L29.1967 63.0941L29.786 64.3386L29.8635 64.4918C30.2374 65.1943 30.9323 66.0323 31.9576 67.0254L32.4544 67.4949C32.8012 67.8153 33.1795 68.1508 33.5895 68.5018L34.2283 69.04C34.4492 69.2234 34.678 69.4107 34.9148 69.602L35.1993 69.8307L35.1995 73.7001L35.2081 73.8381C35.276 74.3804 35.7388 74.8001 36.2995 74.8001C36.9071 74.8001 37.3995 74.3076 37.3995 73.7001V68.7671L36.6651 68.1858L35.7732 67.4621L35.2263 67.0046L34.7176 66.5673L34.2473 66.1508L33.8156 65.7553L33.4226 65.3812C33.2981 65.2601 33.1801 65.1426 33.0686 65.0287L32.7536 64.6983L32.4778 64.3903L32.2415 64.1051C32.0249 63.8313 31.8677 63.5921 31.7706 63.3891L31.3393 62.4806L30.5257 60.7363L29.1878 57.8119L27.0135 52.9723C26.2561 51.235 26.2689 50.1961 26.6912 49.6909C26.942 49.3908 27.4464 49.2648 27.608 49.3236C27.6226 49.329 27.6412 49.3395 27.6641 49.3557L27.7457 49.4214L27.8548 49.5231L28.1627 49.8436L28.6025 50.3354L29.1889 51.017L30.6564 52.7647L31.2445 53.4578L31.7781 54.0758L32.2817 54.6461L32.7802 55.1962L33.2981 55.7535C33.5695 56.0422 33.9601 56.1518 34.3217 56.0776C34.3486 56.0721 34.3751 56.0656 34.4012 56.0582C34.8623 55.9272 35.2 55.503 35.2 54.9999V35.7499L35.2076 35.591C35.2875 34.7543 35.9924 34.0999 36.85 34.0999C37.7613 34.0999 38.5 34.8386 38.5 35.7499V49.4999L38.5074 49.6282C38.571 50.1753 39.0359 50.5999 39.6 50.5999C40.2075 50.5999 40.7 50.1074 40.7 49.4999V30.2499L40.7076 30.091C40.7875 29.2543 41.4924 28.5999 42.35 28.5999C43.2613 28.5999 44 29.3386 44 30.2499V49.4999L44.0074 49.6282C44.071 50.1753 44.5359 50.5999 45.1 50.5999C45.7075 50.5999 46.2 50.1074 46.2 49.4999V33.5175L46.2076 33.3622C46.2872 32.544 46.9896 31.8999 47.85 31.8999C48.7642 31.8999 49.5 32.6271 49.5 33.5175V49.4999L49.5074 49.6282C49.571 50.1753 50.0359 50.5999 50.6 50.5999C51.2075 50.5999 51.7 50.1074 51.7 49.4999V37.9175L51.7076 37.7622C51.7872 36.944 52.4896 36.2999 53.35 36.2999C54.2642 36.2999 55 37.0271 55 37.9175V58.2999L54.9963 58.62C54.9491 60.6179 54.4404 62.0843 52.982 64.294C52.824 64.5333 52.553 64.8509 52.1716 65.2473L51.8177 65.6065L51.41 66.0044L51.0029 66.3906L49.4984 67.7817L48.9375 68.3107L48.4 68.8443V73.6999L48.4074 73.8282C48.471 74.3753 48.9359 74.7999 49.5 74.7999L49.6283 74.7925C50.1754 74.729 50.6 74.264 50.6 73.6999V69.7641L50.7093 69.6612L52.509 67.9942L52.9524 67.5734L53.4151 67.1212C54.0655 66.4727 54.5221 65.9543 54.8181 65.5058C56.5831 62.8317 57.2 60.9121 57.2 58.2999V37.9175L57.1943 37.7078C57.0845 35.6943 55.4027 34.0999 53.35 34.0999C52.7599 34.0999 52.2003 34.2317 51.7 34.4674V33.5175L51.6943 33.3078C51.5845 31.2943 49.9027 29.6999 47.85 29.6999C47.2579 29.6999 46.6967 29.8326 46.1952 30.0697L46.1943 30.0387Z" fill="#000091"/>
</svg>
