<svg width="451" height="400" viewBox="0 0 451 400" fill="none" xmlns="http://www.w3.org/2000/svg">
<path fill-rule="evenodd" clip-rule="evenodd" d="M240.5 5.7735C246.688 2.20084 254.312 2.20085 260.5 5.7735L413.705 94.2265C419.893 97.7991 423.705 104.402 423.705 111.547V288.453C423.705 295.598 419.893 302.201 413.705 305.773L260.5 394.226C254.312 397.799 246.688 397.799 240.5 394.226L87.2949 305.773C81.1069 302.201 77.2949 295.598 77.2949 288.453V111.547C77.2949 104.402 81.1069 97.7991 87.2949 94.2265L240.5 5.7735Z" fill="#313178"/>
<path fill-rule="evenodd" clip-rule="evenodd" d="M48 101.732C49.8564 100.66 52.1436 100.66 54 101.732L91.7343 123.518C93.5907 124.59 94.7343 126.571 94.7343 128.714V172.286C94.7343 174.429 93.5907 176.41 91.7343 177.482L54 199.268C52.1436 200.34 49.8564 200.34 48 199.268L10.2657 177.482C8.40931 176.41 7.26572 174.429 7.26572 172.286V128.714C7.26572 126.571 8.40931 124.59 10.2657 123.518L48 101.732Z" fill="#FEF7DA"/>
<path fill-rule="evenodd" clip-rule="evenodd" d="M87 189.866C87.9282 189.33 89.0718 189.33 90 189.866L96.9593 193.884C97.8875 194.42 98.4593 195.41 98.4593 196.482V204.518C98.4593 205.59 97.8875 206.58 96.9593 207.116L90 211.134C89.0718 211.67 87.9282 211.67 87 211.134L80.0407 207.116C79.1125 206.58 78.5407 205.59 78.5407 204.518V196.482C78.5407 195.41 79.1125 194.42 80.0407 193.884L87 189.866Z" fill="#FEF7DA"/>
<path fill-rule="evenodd" clip-rule="evenodd" d="M111.5 157.289C111.809 157.11 112.191 157.11 112.5 157.289L116.263 159.461C116.573 159.64 116.763 159.97 116.763 160.327V164.673C116.763 165.03 116.573 165.36 116.263 165.539L112.5 167.711C112.191 167.89 111.809 167.89 111.5 167.711L107.737 165.539C107.427 165.36 107.237 165.03 107.237 164.673V160.327C107.237 159.97 107.427 159.64 107.737 159.461L111.5 157.289Z" fill="#FEF7DA"/>
</svg>
