<svg width="436" height="382" viewBox="0 0 436 382" fill="none"
    xmlns="http://www.w3.org/2000/svg">
    <path fill-rule="evenodd" clip-rule="evenodd" d="M235 5.77351C241.188 2.20085 248.812 2.20085 255 5.7735L400.411 89.7265C406.599 93.2991 410.411 99.9017 410.411 107.047V274.953C410.411 282.098 406.599 288.701 400.411 292.273L255 376.226C248.812 379.799 241.188 379.799 235 376.226L89.5892 292.273C83.4011 288.701 79.5891 282.098 79.5891 274.953V107.047C79.5891 99.9017 83.4011 93.2991 89.5891 89.7265L235 5.77351Z" fill="#313178"/>
    <path fill-rule="evenodd" clip-rule="evenodd" d="M48.5 98.7321C50.3564 97.6603 52.6436 97.6603 54.5 98.7321L92.2343 120.518C94.0907 121.59 95.2343 123.571 95.2343 125.714V169.286C95.2343 171.429 94.0907 173.41 92.2343 174.482L54.5 196.268C52.6436 197.34 50.3564 197.34 48.5 196.268L10.7657 174.482C8.90931 173.41 7.76572 171.429 7.76572 169.286V125.714C7.76572 123.571 8.90931 121.59 10.7657 120.518L48.5 98.7321Z" fill="#FEF7DA"/>
    <path fill-rule="evenodd" clip-rule="evenodd" d="M87.5 186.866C88.4282 186.33 89.5718 186.33 90.5 186.866L97.4593 190.884C98.3875 191.42 98.9593 192.41 98.9593 193.482V201.518C98.9593 202.59 98.3875 203.58 97.4593 204.116L90.5 208.134C89.5718 208.67 88.4282 208.67 87.5 208.134L80.5407 204.116C79.6125 203.58 79.0407 202.59 79.0407 201.518V193.482C79.0407 192.41 79.6125 191.42 80.5407 190.884L87.5 186.866Z" fill="#FEF7DA"/>
    <path fill-rule="evenodd" clip-rule="evenodd" d="M112 154.289C112.309 154.11 112.691 154.11 113 154.289L116.763 156.461C117.073 156.64 117.263 156.97 117.263 157.327V161.673C117.263 162.03 117.073 162.36 116.763 162.539L113 164.711C112.691 164.89 112.309 164.89 112 164.711L108.237 162.539C107.927 162.36 107.737 162.03 107.737 161.673V157.327C107.737 156.97 107.927 156.64 108.237 156.461L112 154.289Z" fill="#FEF7DA"/>
    <path d="M65.899 165.053H90.099V158.953H74.149L82.599 150.803C86.049 147.453 89.199 143.753 89.199 138.953C89.199 132.953 84.299 129.053 78.199 129.053C72.099 129.053 67.749 132.053 64.799 136.853L70.299 140.203C72.149 137.103 74.199 135.053 77.549 135.053C80.299 135.053 82.299 136.753 82.299 139.653C82.299 142.503 80.599 144.403 77.899 147.153L65.899 158.953V165.053Z" fill="#1B1B35"/>
</svg>
