<svg width="447" height="400" viewBox="0 0 447 400" fill="none" xmlns="http://www.w3.org/2000/svg">
<path fill-rule="evenodd" clip-rule="evenodd" d="M236.5 5.7735C242.688 2.20084 250.312 2.20085 256.5 5.7735L409.705 94.2265C415.893 97.7991 419.705 104.402 419.705 111.547V288.453C419.705 295.598 415.893 302.201 409.705 305.773L256.5 394.226C250.312 397.799 242.688 397.799 236.5 394.226L83.2949 305.773C77.1069 302.201 73.2949 295.598 73.2949 288.453V111.547C73.2949 104.402 77.1069 97.7991 83.2949 94.2265L236.5 5.7735Z" fill="#313178"/>
<path fill-rule="evenodd" clip-rule="evenodd" d="M48 200.732C49.8564 199.66 52.1436 199.66 54 200.732L91.7343 222.518C93.5907 223.59 94.7343 225.571 94.7343 227.714V271.286C94.7343 273.429 93.5907 275.41 91.7343 276.482L54 298.268C52.1436 299.34 49.8564 299.34 48 298.268L10.2657 276.482C8.40931 275.41 7.26572 273.429 7.26572 271.286V227.714C7.26572 225.571 8.40931 223.59 10.2657 222.518L48 200.732Z" fill="#FF9575"/>
<path fill-rule="evenodd" clip-rule="evenodd" d="M87.25 288.722C88.0235 288.275 88.9765 288.275 89.75 288.722L97.2093 293.028C97.9828 293.475 98.4593 294.3 98.4593 295.193V303.807C98.4593 304.7 97.9828 305.525 97.2093 305.972L89.75 310.278C88.9765 310.725 88.0235 310.725 87.25 310.278L79.7907 305.972C79.0172 305.525 78.5407 304.7 78.5407 303.807V295.193C78.5407 294.3 79.0172 293.475 79.7907 293.028L87.25 288.722Z" fill="#FF9575"/>
<path fill-rule="evenodd" clip-rule="evenodd" d="M111.5 256.289C111.809 256.11 112.191 256.11 112.5 256.289L116.263 258.461C116.573 258.64 116.763 258.97 116.763 259.327V263.673C116.763 264.03 116.573 264.36 116.263 264.539L112.5 266.711C112.191 266.89 111.809 266.89 111.5 266.711L107.737 264.539C107.427 264.36 107.237 264.03 107.237 263.673V259.327C107.237 258.97 107.427 258.64 107.737 258.461L111.5 256.289Z" fill="#FF9575"/>
</svg>
