<svg width="449" height="400" viewBox="0 0 449 400" fill="none" xmlns="http://www.w3.org/2000/svg">
<path fill-rule="evenodd" clip-rule="evenodd" d="M238.25 5.7735C244.438 2.20084 252.062 2.20085 258.25 5.7735L411.455 94.2265C417.643 97.7991 421.455 104.402 421.455 111.547V288.453C421.455 295.598 417.643 302.201 411.455 305.773L258.25 394.226C252.062 397.799 244.438 397.799 238.25 394.226L85.0449 305.773C78.8569 302.201 75.0449 295.598 75.0449 288.453V111.547C75.0449 104.402 78.8569 97.7992 85.0449 94.2265L238.25 5.7735Z" fill="#313178"/>
<path fill-rule="evenodd" clip-rule="evenodd" d="M57.25 124.887C60.344 123.1 64.156 123.1 67.25 124.887L100.984 144.363C104.078 146.15 105.984 149.451 105.984 153.024V191.976C105.984 195.549 104.078 198.85 100.984 200.637L67.25 220.113C64.156 221.9 60.344 221.9 57.25 220.113L23.5157 200.637C20.4217 198.85 18.5157 195.549 18.5157 191.976V153.024C18.5157 149.451 20.4217 146.15 23.5157 144.363L57.25 124.887Z" fill="#FCEEAC"/>
<path fill-rule="evenodd" clip-rule="evenodd" d="M10.75 110.866C11.6782 110.33 12.8218 110.33 13.75 110.866L20.7093 114.884C21.6375 115.42 22.2093 116.41 22.2093 117.482V125.518C22.2093 126.59 21.6375 127.58 20.7093 128.116L13.75 132.134C12.8218 132.67 11.6782 132.67 10.75 132.134L3.79071 128.116C2.8625 127.58 2.29071 126.59 2.29071 125.518V117.482C2.29071 116.41 2.8625 115.42 3.79071 114.884L10.75 110.866Z" fill="#FCEEAC"/>
<path fill-rule="evenodd" clip-rule="evenodd" d="M37.75 84.2887C38.0594 84.11 38.4406 84.11 38.75 84.2887L42.5131 86.4613C42.8225 86.64 43.0131 86.9701 43.0131 87.3274V91.6726C43.0131 92.0299 42.8225 92.36 42.5131 92.5387L38.75 94.7113C38.4406 94.89 38.0594 94.89 37.75 94.7113L33.9869 92.5387C33.6775 92.36 33.4869 92.0299 33.4869 91.6727V87.3274C33.4869 86.9701 33.6775 86.64 33.9869 86.4613L37.75 84.2887Z" fill="#FCEEAC"/>
</svg>
