<svg width="436" height="382" viewBox="0 0 436 382" fill="none"
    xmlns="http://www.w3.org/2000/svg">
    <path fill-rule="evenodd" clip-rule="evenodd" d="M235 5.77351C241.188 2.20085 248.812 2.20085 255 5.7735L400.411 89.7265C406.599 93.2991 410.411 99.9017 410.411 107.047V274.953C410.411 282.098 406.599 288.701 400.411 292.273L255 376.226C248.812 379.799 241.188 379.799 235 376.226L89.5892 292.273C83.4011 288.701 79.5891 282.098 79.5891 274.953V107.047C79.5891 99.9017 83.4011 93.2991 89.5891 89.7265L235 5.77351Z" fill="#313178"/>
    <path fill-rule="evenodd" clip-rule="evenodd" d="M60 126.887C63.094 125.1 66.906 125.1 70 126.887L103.734 146.363C106.828 148.15 108.734 151.451 108.734 155.024V193.976C108.734 197.549 106.828 200.85 103.734 202.637L70 222.113C66.906 223.9 63.094 223.9 60 222.113L26.2657 202.637C23.1717 200.85 21.2657 197.549 21.2657 193.976V155.024C21.2657 151.451 23.1717 148.15 26.2657 146.363L60 126.887Z" fill="#FCEEAC"/>
    <path fill-rule="evenodd" clip-rule="evenodd" d="M13.5 112.866C14.4282 112.33 15.5718 112.33 16.5 112.866L23.4593 116.884C24.3875 117.42 24.9593 118.41 24.9593 119.482V127.518C24.9593 128.59 24.3875 129.58 23.4593 130.116L16.5 134.134C15.5718 134.67 14.4282 134.67 13.5 134.134L6.54071 130.116C5.6125 129.58 5.04071 128.59 5.04071 127.518V119.482C5.04071 118.41 5.6125 117.42 6.54071 116.884L13.5 112.866Z" fill="#FCEEAC"/>
    <path fill-rule="evenodd" clip-rule="evenodd" d="M40.5 86.2887C40.8094 86.11 41.1906 86.11 41.5 86.2887L45.2631 88.4613C45.5725 88.64 45.7631 88.9701 45.7631 89.3274V93.6726C45.7631 94.0299 45.5725 94.36 45.2631 94.5387L41.5 96.7113C41.1906 96.89 40.8094 96.89 40.5 96.7113L36.7369 94.5387C36.4275 94.36 36.2369 94.0299 36.2369 93.6726V89.3274C36.2369 88.9701 36.4275 88.64 36.7369 88.4613L40.5 86.2887Z" fill="#FCEEAC"/>
    <path d="M87.199 192.003H93.949V157.003H87.399L76.599 163.253L79.949 168.053L87.199 163.953V192.003Z" fill="#1B1B35"/>
</svg>
