<svg width="436" height="382" viewBox="0 0 436 382" fill="none"
    xmlns="http://www.w3.org/2000/svg">
    <path fill-rule="evenodd" clip-rule="evenodd" d="M235 5.77351C241.188 2.20085 248.812 2.20085 255 5.7735L400.411 89.7265C406.599 93.2991 410.411 99.9017 410.411 107.047V274.953C410.411 282.098 406.599 288.701 400.411 292.273L255 376.226C248.812 379.799 241.188 379.799 235 376.226L89.5892 292.273C83.4011 288.701 79.5891 282.098 79.5891 274.953V107.047C79.5891 99.9017 83.4011 93.2991 89.5891 89.7265L235 5.77351Z" fill="#313178"/>
    <path fill-rule="evenodd" clip-rule="evenodd" d="M48.5 195.732C50.3564 194.66 52.6436 194.66 54.5 195.732L92.2343 217.518C94.0907 218.59 95.2343 220.571 95.2343 222.714V266.286C95.2343 268.429 94.0907 270.41 92.2343 271.482L54.5 293.268C52.6436 294.34 50.3564 294.34 48.5 293.268L10.7657 271.482C8.90931 270.41 7.76572 268.429 7.76572 266.286V222.714C7.76572 220.571 8.90931 218.59 10.7657 217.518L48.5 195.732Z" fill="#FF9575"/>
    <path fill-rule="evenodd" clip-rule="evenodd" d="M87.75 283.722C88.5235 283.275 89.4765 283.275 90.25 283.722L97.7093 288.028C98.4828 288.475 98.9593 289.3 98.9593 290.193V298.807C98.9593 299.7 98.4828 300.525 97.7093 300.972L90.25 305.278C89.4765 305.725 88.5235 305.725 87.75 305.278L80.2907 300.972C79.5172 300.525 79.0407 299.7 79.0407 298.807V290.193C79.0407 289.3 79.5172 288.475 80.2907 288.028L87.75 283.722Z" fill="#FF9575"/>
    <path fill-rule="evenodd" clip-rule="evenodd" d="M112 251.289C112.309 251.11 112.691 251.11 113 251.289L116.763 253.461C117.073 253.64 117.263 253.97 117.263 254.327V258.673C117.263 259.03 117.073 259.36 116.763 259.539L113 261.711C112.691 261.89 112.309 261.89 112 261.711L108.237 259.539C107.927 259.36 107.737 259.03 107.737 258.673V254.327C107.737 253.97 107.927 253.64 108.237 253.461L112 251.289Z" fill="#FF9575"/>
    <path d="M90.549 252.053C90.549 248.203 88.599 245.053 85.049 243.253C87.649 241.453 89.049 238.703 89.049 235.453C89.049 229.703 84.299 226.053 77.899 226.053C72.249 226.053 68.299 228.503 65.749 232.653L71.249 236.053C72.699 233.553 74.599 232.053 77.399 232.053C80.149 232.053 82.149 233.553 82.149 236.203C82.149 238.903 79.999 240.553 77.049 240.553H71.749V246.553H77.499C81.199 246.553 83.699 248.553 83.699 251.753C83.699 255.003 81.149 257.053 77.749 257.053C74.299 257.053 71.949 255.353 69.999 251.503L64.099 255.153C66.949 260.153 71.199 263.053 77.799 263.053C85.099 263.053 90.549 258.703 90.549 252.053Z" fill="#1B1B35"/>
</svg>
