<svg width="1920" height="1127" viewBox="0 0 1920 1127" fill="none" xmlns="http://www.w3.org/2000/svg">
<path fill-rule="evenodd" clip-rule="evenodd" d="M1920.5 839.068L1841.94 793.713C1831.76 787.832 1825.48 776.964 1825.48 765.202V643.216C1825.48 631.455 1831.76 620.586 1841.94 614.705L1920.5 569.351C1920.5 604.502 1920.5 815.502 1920.5 839.068Z" fill="#FEECC2"/>
<path fill-rule="evenodd" clip-rule="evenodd" d="M736.878 0V24.1033C736.878 28.0361 734.78 31.6703 731.374 33.6367L696.05 54.0311C692.644 55.9975 688.448 55.9975 685.042 54.0311L649.717 33.6367C646.312 31.6703 644.213 28.0361 644.213 24.1033V0C667 0.00153542 698 0.000295639 736.878 0Z" fill="#FBB8F6"/>
<path fill-rule="evenodd" clip-rule="evenodd" d="M0 104.002L61.7347 139.644C67.6872 143.081 71.354 149.432 71.354 156.306V227.591C71.354 234.464 67.6872 240.815 61.7347 244.252L0 279.894C1.90735e-05 227.591 0.000278473 148.239 0 104.002Z" fill="#8BF8E7"/>
</svg>
