<svg width="1920" height="1110" viewBox="0 0 1920 1110" fill="none" xmlns="http://www.w3.org/2000/svg">
<path fill-rule="evenodd" clip-rule="evenodd" d="M-5.40214e-05 149.454L34.0036 169.086C40.5608 172.872 44.6003 179.869 44.6003 187.44V265.968C44.6003 273.54 40.5608 280.536 34.0036 284.322L-5.40214e-05 303.954C-9.97979e-05 256.792 0.000276088 201.792 -5.40214e-05 149.454Z" fill="#FEECC2"/>
<path fill-rule="evenodd" clip-rule="evenodd" d="M381.321 140.446C375.368 143.883 368.034 143.883 362.082 140.446L334.988 124.804C329.036 121.367 325.369 115.016 325.369 108.143V76.8575C325.369 69.9841 329.036 63.6329 334.988 60.1963L362.082 44.5537C368.034 41.1171 375.368 41.1171 381.321 44.5537L408.414 60.1963C414.367 63.6329 418.034 69.9841 418.034 76.8575V108.143C418.034 115.016 414.367 121.367 408.414 124.804L381.321 140.446Z" fill="#8BF8E7"/>
<path fill-rule="evenodd" clip-rule="evenodd" d="M1902.84 216.573C1899.43 218.54 1895.23 218.54 1891.83 216.573L1856.5 196.179C1853.1 194.212 1851 190.578 1851 186.646V145.857C1851 141.924 1853.1 138.29 1856.5 136.323L1891.83 115.929C1895.23 113.962 1899.43 113.962 1902.84 115.929L1920.5 126.126C1920.5 137.839 1920.5 186.646 1920.5 206.376L1902.84 216.573Z" fill="#FBB8F6"/>
</svg>
