<svg id="Calque_1" data-name="Calque 1" xmlns="http://www.w3.org/2000/svg" viewBox="0 0 684.75 332.46"><defs><style>.cls-1{fill:#f5961e;}.cls-2{fill:#553c6e;}.cls-3{fill:none;}</style></defs><path class="cls-1" d="M96,237.5c-3.12-5-8.63-8.75-16.52-11.22l-.9,2.9a31,31,0,0,1,11.75,6.28,33.19,33.19,0,0,0-10.71-.79l.3,3c2.42-.25,8.8-.3,12.12,1.69-3.51,1.4-7.28,4.86-8.2,5.74l2.08,2.18c2.2-2.09,6-4.94,8.12-5.42,1,3.84-3.37,10.21-5.27,12.5l2.32,1.93a34,34,0,0,0,4.83-7.8,29,29,0,0,1-3.69,12.66l2.58,1.58c.28-.46,7.35-11.77,2.61-22.53,7.69-2.12,17.82,3.43,17.94,3.5l1.34-2.44c-.53-.3-11-6.79-20.7-3.77" transform="translate(0 0.02)"/><path class="cls-1" d="M188.08,117.33l.15,3a26.83,26.83,0,0,1-21.53-10.9c-9.47,8.09-9.58,20.09-9.58,20.09l-3.14-.29a34.82,34.82,0,0,1,11.31-22.52,33.12,33.12,0,0,1-2.22-19.84l3,.59a28.94,28.94,0,0,0,.13,10.71c1.13-4.87,2.63-6.2,2.63-6.2l2.4,1.49c-1,1.54-3.87,7.78-3.09,11.32a34.39,34.39,0,0,1,8.48-4.37l1,2.59a41.38,41.38,0,0,0-8,4.25c4.16,5.15,13.58,2.83,13.58,2.83l.52,2.81a18.76,18.76,0,0,1-8.43.56,25.23,25.23,0,0,0,12.84,3.87" transform="translate(0 0.02)"/><path class="cls-2" d="M278.88,293.25V191.39h18.8l1.59,7,1.8-1.51c6.3-5.3,13.76-7.87,22.81-7.87,18.82,0,29.62,13.89,29.62,38.11,0,25.71-14.32,40.46-39.29,40.46a97.76,97.76,0,0,1-11-.72l-1.6-.19v26.54ZM316.41,208A19,19,0,0,0,302,213.87l-.4.41v33l1.08.28a43.46,43.46,0,0,0,10.9,1.36c10.88,0,17.12-7.52,17.12-20.63C330.74,211.53,322.94,208,316.41,208Z" transform="translate(0 0.02)"/><path class="cls-2" d="M443.72,265.42v-74h18.81l2.16,9.17,1.84-2.21c5.36-6.43,11.25-9.3,19.11-9.3a27.9,27.9,0,0,1,5.45.53v21.93a33.73,33.73,0,0,0-6-.43c-5.17,0-12.54,1.84-18.33,10.6l-.24.36v43.38Z" transform="translate(0 0.02)"/><path class="cls-2" d="M242.11,265.42v-74h22.75v74Zm11.37-83.8a14.46,14.46,0,1,1,14.46-14.45A14.46,14.46,0,0,1,253.48,181.62Z" transform="translate(0 0.02)"/><path class="cls-2" d="M503.84,265.42v-74H526.6v74Zm11.38-83.8a14.46,14.46,0,1,1,14.46-14.45A14.46,14.46,0,0,1,515.22,181.62Z" transform="translate(0 0.02)"/><path class="cls-2" d="M191.4,266.16c-3.94-1.63-10.1-3.23-18.92-.3-2.26-6.36,1-13.46,2.58-16.87,3.55,4.14,6.59,7.52,6.85,7.81l2.24-2c-.06-.06-3.06-3.4-6.61-7.52,3.82-1.08,11.21-2.61,16.05-.08a22.82,22.82,0,0,0-2.19,19M160.24,281a24.65,24.65,0,0,0-15.46-9.64A59.78,59.78,0,0,1,146,258.5c4,.56,7.74,7.87,8.86,10.76l2.82-1.1a35.83,35.83,0,0,0-4-7.41,27,27,0,0,1,8.83,8.78l2.64-1.5c-.24-.4-5.3-9.11-14.37-11.81a21.39,21.39,0,0,0,6-11.44A20.48,20.48,0,0,0,168.07,249c-2.87,2.32-6.16,5.66-7.62,9.8l2.85,1c1.41-4,5-7.27,7.8-9.3-1.76,4.52-3.56,10.68-1.23,16.88A24.62,24.62,0,0,0,160.24,281m-34.55-1.76c-1.4-6.6-4-11.66-7.65-15.08,2.27-3.66,2.44-8.47,1.93-12.65a56.41,56.41,0,0,1,3.45,8l2.37,1.5a36.25,36.25,0,0,1,8.34-2.34,40.76,40.76,0,0,0-7.93,6.05l2.09,2.18A38.84,38.84,0,0,1,138,260a46,46,0,0,0-4.89,7.75l2.79,1.2c1-2.27,3.65-7.24,6.73-9.42a64.74,64.74,0,0,0-.91,12.13c-5.23.37-10.61,2.92-16.07,7.61m-2-55c5.91-.17,14.28-2.9,14.28-2.9l-9.61,8.8,2.4,2.73,9.13-7.34c-1.11,5.88-5.51,18.45-21,17.49,3.08-2.62,6-5.23,7.88-7.11l-2.16-2.12c-2.12,2.16-8.28,7.32-8.28,7.32s-.05-10.83,7.34-16.87m-16.08-5.82a19.3,19.3,0,0,0,11.68,5.85,25.83,25.83,0,0,0-5.88,13.93,50.21,50.21,0,0,0-9.39-7.2c2.12-3.54,3.14-9,3.59-12.58m15.66-11.75A110.19,110.19,0,0,1,136,212.89L107.91,211s7.23-7.58,15.41-4.35m2.87-3.68c-4.41-2.74-6.78-9.65-5.15-16.28,3.11,3.5,9,9.19,9,9.19l1.94-2.32s-5.6-5.36-8.57-8.72c12.57-1.1,15.48,9.9,19.39,20.85l-8.16-7.75-2.63,2.58,7.6,8.47a60.62,60.62,0,0,1-13.47-6m-24.48-19.13c4.76-6.41,3.42-14.69,2.23-19,3.93,1.62,11.51,3.86,18.93.31,2,5.23-.7,12.67-2.34,16.32-3.58-4.17-6.37-7.67-6.43-7.74l-2.36,1.88c.23.29,3,3.81,6.61,8-3.6,1.06-11.55,2.9-16.64.22M187,216c-7.25-.85-12.17-1.28-26.95-1.94,3.89-3.09,18.74-7.66,26.95,1.94m-34.64,9.6,7.51,7.71,2.86-2.69-7-8.19a28.36,28.36,0,0,0,15.79,5.83c4.27,4.62,3.9,11.16,3,15.47-3-3.56-5.41-6.73-7.44-9.59l-2.54,1.65a126.9,126.9,0,0,0,7.91,10.2s0,0,0,0c-4.49.51-12.29-1.08-15.44-5.19-.36-6.07-4.63-15.24-4.63-15.24m-5.44,30c-.18,0-.12-12.08,1.24-27.73,3.06,7,10.14,18.47-1.24,27.73m-3.55-.41c-7.74-8.92-5.53-15.43-4.13-18.34l4-8.33a258.06,258.06,0,0,0,.13,26.67m14.71-36.7c13.42.24,22.63.22,30.29.78C180.87,228.08,163.86,225.81,158.08,218.43ZM107.85,214l27.47,3.78a55.19,55.19,0,0,1-10.15,2.72c-4.47.55-11.17,1.92-17.32-6.5m12.3,31.77c6.11,2,13.67-2.52,14.22-2.9,0,3.38,2,8.33,5,12.26a41.86,41.86,0,0,0-13.23,2.68,69.07,69.07,0,0,0-6-12m90.92-7.9c-6.15.72-12,3.38-15.51,6.89-4.95-2.92-11.9-2.12-16.57-1.06,2.4-2.46,6.26-5.71,10.53-6.56l-.59-3c-4.33.85-8.16,3.66-10.86,6.2.32-3.62.16-8.35-2-11.77a22.18,22.18,0,0,0,12.4-5c1.37,9.34,9.21,15.57,9.58,15.86l1.86-2.39a26.85,26.85,0,0,1-7.4-10,24.26,24.26,0,0,0,6.74,5.07l1.49-2.64c-2.49-1.4-8.3-5.49-9.35-10.22a48.55,48.55,0,0,1,12.42.59c-.87,8.35,4.32,15,7.24,18m4.8-36.66c-6.31,4.92-10.15,10.18-11.54,15.66a83.92,83.92,0,0,0-11.48-.75c2.57-2.77,7.93-4.73,10.31-5.36l-.78-2.93a35.27,35.27,0,0,0-7.95,3.29,35,35,0,0,1,7.85-8.22l-1.86-2.38A38.1,38.1,0,0,0,192,209.3c.54-3,1.47-6.26,3.05-8l-2.26-2a19.58,19.58,0,0,0-4.32,13.94c-10.27-10.71-22-6.44-30.93-2.57l8.93-8.83-2.62-2.87-10,8.31,4.84-12.18L156,193.79l-4.89,10.58.83-13.59-3.37-.24-1.67,14.56c-4-12.29-7.93-23.21-19.51-23.28,2.9-2.3,6.24-5.68,7.72-9.84l-2.89-1.26c-1.46,4.1-5.19,7.67-8,9.7,1.75-4.54,3.55-11.43,1.22-16.78,4.68-3.23,8.27-8.7,10.66-16.39l-2.89-.89a34.69,34.69,0,0,1-4.91,10.25,35.15,35.15,0,0,0,.27-8.6l-3,.29c.25,2.43.32,8.81-1.68,12.13-1.41-3.51-4.87-7.28-5.73-8.2l-2.2,2.08c2.09,2.2,5,6,5.43,8.11-3.82,1-10.21-3.37-12.5-5.27L107,159.49a35.82,35.82,0,0,0,7.12,4.52,26.77,26.77,0,0,1-12-3.41l-2.18,1.92c0,.08,2.85,6.62,1.86,13.2a34.57,34.57,0,0,0-3.68-8.58l-2.58,1.59c1.55,2.53,4.91,9.45,3.4,13.12-2-.79-5.37-4.17-7.24-6.55l-2.38,1.87c.78,1,4,5,7.29,6.86-3.53,1.51-9.71.56-12.24-.08l-.74,2.94a36.15,36.15,0,0,0,7.27,1,36,36,0,0,1-9.63,1.81l.21,3c5.31-.48,12.63-1.31,18.2-6.55,5,3,12,2.18,16.71,1.11a23.35,23.35,0,0,1-10.33,6.36l.58,3c5.2-1.07,8.85-4.31,10.79-6.11-.89,3.5.45,8.12,2.58,11.53a22,22,0,0,0-12.2,4.62c-1.35-9.38-9.24-15.65-9.61-15.94l-1.85,2.39a27,27,0,0,1,7.4,10A36.07,36.07,0,0,0,97,198l-1.49,2.64c2.54,1.44,9.58,6.4,9.34,10.48a2,2,0,0,1,0,.34c-.64,4.1-8.65,7.1-11.72,7.92l.78,2.92a34.78,34.78,0,0,0,5-1.76,30.68,30.68,0,0,0,3-1.51,35.31,35.31,0,0,1-7.84,8.2l1.86,2.39A38.28,38.28,0,0,0,104.2,221a25.61,25.61,0,0,1-3.46,10l.82,2c6.4,3.1,12.06,9.69,12.58,10.23-4.86,4-9.32,7.6-9.4,7.67l1.88,2.37c.32-.25,4.46-3.55,9.08-7.39,1,3.14,2.76,11.65,0,16.53-4.89-3.27-12-4.8-23.43-1.11l.84,2.83c1.41-.42,8.42-2.67,13.79-1.8a37.6,37.6,0,0,0-7.74,3.4l1.58,2.58c2.38-1.44,9.45-4.89,13.13-3.4-.79,2-4.17,5.36-6.54,7.24l1.86,2.37c1-.78,5-4,6.87-7.29,1.51,3.53.55,9.71-.09,12.25l2.93.73a34.81,34.81,0,0,0,1-8.54,35.25,35.25,0,0,1,3.38,10.86l2.53.84a35,35,0,0,1,10.23-7.1,34.87,34.87,0,0,0-4.44,7.43l2.79,1.19c1-2.39,4-7.89,7.35-9.79-.48,3.73.72,8.73,1,10l2.94-.75c-.73-2.83-1.37-7.27-.87-9.47,3.47-.23,7.44,7.87,8.42,10.39L156,284a36.94,36.94,0,0,0-3-5.94,25.61,25.61,0,0,1,6.31,6.89l2.77-.29A34.62,34.62,0,0,1,167,274.42a35.28,35.28,0,0,0-.28,8.59l3-.31c-.42-3.51-.32-8.86,1.69-12.13,1.39,3.5,4.86,7.3,5.73,8.21l2.2-2.07c-2.09-2.22-5-6-5.43-8.14,4.42-1.3,10.21,3.38,12.5,5.29l1.79-2.21c-.56-.47-4-3.65-7.43-4.74,5.35-.51,12.36,3.45,12.43,3.49l2.17-1.91a27.17,27.17,0,0,1-1.84-13.12,34.67,34.67,0,0,0,3.66,8.5l2.58-1.59c-1.43-2.35-4.89-9.44-3.39-13.12,2,.8,5.36,4.17,7.24,6.55l2.38-1.88c-.78-1-4-5-7.3-6.86,3.53-1.51,9.72-.54,12.25.09l.74-2.94a36.33,36.33,0,0,0-8.27-1,37.07,37.07,0,0,1,11.17-2.62l.78-2.72a26.48,26.48,0,0,1-7.41-10,22.89,22.89,0,0,0,6.75,5.09l1.49-2.64c-3.66-1.78-8.84-6.18-9.28-10.11a34.37,34.37,0,0,1,9.45,2.5l1.17-2.79a56.74,56.74,0,0,0-9.71-2.47c2.36-3,8.24-5.19,10.76-5.87l-.77-2.92a35.79,35.79,0,0,0-8,3.29,35.47,35.47,0,0,1,7.86-8.22Z" transform="translate(0 0.02)"/><path class="cls-2" d="M299.36,68.87l-2-2.26c-.45.4-12.14,11.33-10.29,25.89-13.51.57-23.22-9.35-23.34-9.48l-2,2.32c.56.58,11.21,11,26.19,10.09a38.47,38.47,0,0,0,16,18.44l1.71-2.5a48.59,48.59,0,0,1-11.11-10.48A37,37,0,0,0,305,105l.6-3c-5.8-1.16-12.37-4.08-14.28-7.16a38.28,38.28,0,0,0,12.23-4.38l-1.29-2.56A45.35,45.35,0,0,1,290.6,92c-1-5.32,5.86-10.85,10.42-13.85l-1.59-2.37a36.6,36.6,0,0,0-8.66,7.4c2.05-8.39,8.51-14.28,8.59-14.34" transform="translate(0 0.02)"/><path class="cls-2" d="M249.37,118c-.14-.07-13.8-6.34-25.75.56-5.26-11.2-.37-23-.32-23.1l0-.1-2.88-.89,0,.08c-.05.13-5.38,13.26.87,26a35.7,35.7,0,0,0-9.88,20.29l0,.09,2.94.59,0-.1A44.89,44.89,0,0,1,219,128.6a35.25,35.25,0,0,0,.41,9.86l0,.1,2.93-.6,0-.1c-1-4.93-1.07-11.64.83-14.54a34.06,34.06,0,0,0,7.92,8.58l.17.14.07.06,1.85-2.17-.08-.07a41.5,41.5,0,0,1-7.68-8.31c1.86-1.17,6.27-2.14,15.36,3.91l.08.06,1.56-2.38-.25-.17a32.27,32.27,0,0,0-8.84-4.46,29.62,29.62,0,0,1,14.77,2.17l.1,0,1.28-2.72Z" transform="translate(0 0.02)"/><path class="cls-2" d="M206.68,61.28c5.18-7,3.35-16.6,1-22.33l-2.77,1.23c0,.09,2.81,6.51,1.84,13A26,26,0,0,0,203,44.79l-2.48,1.53c1.43,2.34,5.05,8.34,3.33,13.19a36.26,36.26,0,0,1-7.11-6.68l-2.38,2a35,35,0,0,0,7.11,6.92,21.11,21.11,0,0,1-12-.35l-.79,2.83a16.74,16.74,0,0,0,9.07,1,22.08,22.08,0,0,1-12.54,2.44l.2,3a25.22,25.22,0,0,0,19.3-6.9c9.32,5.1,20.79-.26,21.37-.47L225,60.45c-.13,0-11.23,5.15-18.35.83" transform="translate(0 0.02)"/><path class="cls-2" d="M405.44,238.22c.74-.07,1.46-.15,2.16-.25a47.45,47.45,0,0,0,8.33-2.19A23.76,23.76,0,0,0,431,215.27c0-.44.06-.88.06-1.33,0-23.41-24.79-24.83-29.28-24.9h-.7C377.56,189,363,204.54,363,229.5c0,12.06,3.43,21.51,10.2,28.08s16.79,10,29.52,10c11.12,0,19.32-1.2,28-4.13V246.9c-7,2.38-13.31,3.66-23.76,3.66-11,0-17.39-3.75-20-11.72h7.74C397.84,238.77,401.67,238.6,405.44,238.22Zm-20-12.9a36.26,36.26,0,0,1,1.64-8.74.86.86,0,0,1,.05-.15c.08-.24.17-.49.26-.73s.14-.39.22-.57.15-.35.23-.53.17-.39.26-.58a14.74,14.74,0,0,1,1.2-2.09h0c2.7-4,6.84-6.06,12.29-6.06l.69,0a11.72,11.72,0,0,1,1.45.21,9.67,9.67,0,0,1,7.63,9.43c0,2.87-1.53,6.11-7.21,8.1C396.42,226.06,385.42,225.32,385.42,225.32Z" transform="translate(0 0.02)"/><path class="cls-2" d="M571.6,189.13c-9.87,0-20.13,1.43-27.72,3.85v18a66.69,66.69,0,0,1,21.71-3.5c10.62,0,17.7,2.11,17.7,12.42V223s-22.86-4.27-36.32,4.21c-.38.24-.75.49-1.12.75a20.54,20.54,0,0,0-3.24,3h0a14.91,14.91,0,0,0-1.37,1.74,19.28,19.28,0,0,0-2.12,3.94c-1.69,4.14-2.68,10.3.86,17.71,5.14,10.78,16.28,12.93,21,13.36l.24,0c1.23.1,2,.08,2,.08a34.08,34.08,0,0,0,12.13-2.08c.37-.14.74-.28,1.09-.43l.22-.1,1.1-.51.26-.12.93-.49.29-.16,1-.57,0,0c4.16-2.62,5.5-5.24,5.5-5.24l1.54,7.39h18.93V222C606.19,198,596.82,189.13,571.6,189.13Zm11.69,47.15c0,5-1.61,12.74-11.09,15.18-9.81,2.24-13.57-1.25-14.77-3a8.78,8.78,0,0,1-1.34-5.06,7.77,7.77,0,0,1,.16-1.38c.44-1.91,2.13-5.28,8.4-6.58,9-1.86,18.64.65,18.64.65Z" transform="translate(0 0.02)"/><path class="cls-2" d="M174,167.35a35.54,35.54,0,0,0,6.5-5.85l-2.31-2c-1.69,2-6.16,6.38-9.9,7.21,1.55-3.43,1.88-8.56,1.93-9.82l-3-.14c-.15,3-.88,7.72-2.07,9.54-3.37-2.1-4.66-9.69-4.89-12.65l-3,.22a34.65,34.65,0,0,0,1.86,8.7,24.83,24.83,0,0,1-5.68-10.48l-3,.64c2.73,10.86,9.91,15.42,13.76,16.74a49,49,0,0,1-4.84,11.5l2.52,1.68a49.48,49.48,0,0,0,5.23-12.37c8.53,1.77,18.36-3.49,19.16-3.9l-1.35-2.7A36.38,36.38,0,0,1,174,167.35" transform="translate(0 0.02)"/><polygon class="cls-3" points="684.75 332.46 0.1 332.46 0 0 684.75 0 684.75 332.46"/></svg>