<svg height="386" viewBox="0 0 1333 386" width="1333" xmlns="http://www.w3.org/2000/svg" xmlns:xlink="http://www.w3.org/1999/xlink"><linearGradient id="a" x1="25.37347%" x2="60.045934%" y1="87.478243%" y2="0%"><stop offset="0" stop-color="#000091"/><stop offset="1" stop-color="#e10110"/></linearGradient><g fill="none" fill-rule="evenodd" transform="translate(.874867 .891475)"><path d="m210.247325 348.483403c.081062.207501.16228.414951.243283.622271l.241996.621485c3.849749 9.934882 6.349598 19.381366-33.565754 19.381366h-155.1113736c-16.02154541 0-22.0554764-8.670654-22.0554764-20.625122v-62.122589c1.13954367-14.134745 7.35164441-22.482117 18.6363022-25.042114 16.9269867-3.839997 76.638855-24.342011 109.1277158-46.553131 32.488861-22.211121 78.430237 123.342804 82.483307 133.717834zm67.461273-348.483403c20.525702 0 26.30136 22.0920726 26.41482 34.3158085l.001715.3673627v300.6204838c0 24.119165-11.250692 33.614537-18.781404 33.802032l-.22705.002838h-26.183868c-21.156311 0-27.169708-18.039459-30.874115-37.253387-3.704407-19.213929-36.862549-94.754761-49.982788-114.680146-13.120239-19.925384-14.160462-24.166809-4.658997-32.566467s29.280732-32.41037 45.906769-66.624756c16.626038-34.2143857 26.063538-83.0934674 29.244476-98.4815823 3.180939-15.38811497 8.40741-19.5021867 29.140442-19.5021867zm-160.818509.00112519 1.323647.00084736c.467025.00032521.951999.00068819 1.453993.00108712l1.026408.00084524c8.912694.00758277 22.565684.02520151 36.403223.04386005l2.400047.0032436c.947423.00128311 1.894477.00256866 2.839702.00385375l1.416284.00192695c.235757.00032098.471355.00064185.70677.00096255l1.410115.00192188c13.13719.01791258 25.558112.03503075 33.255732.04344187l.806488.00086752c.394025.00041674.774083.00080767 1.13956.0011716l.711328.00069146c.115253.00010912.22884.00021515.340739.00031804l.650945.00057935c.105053.00009016.208371.0001771.309933.00026076l.96813.00073406c.151038.0001031.296844.00019643.437309.00027978l1.422136.00050703c.575832 0 1.16229-.00324585 1.756026-.00568072l.596038-.00201429.901527-.00003561c8.952528.02572148 18.892527.97373152 18.892527 16.08453576 0 16.9784317-24.360107 100.8983537-64.270569 145.7147447-39.910461 44.816391-126.5503844 80.308822-145.1066893 80.308822-15.70420086 0-18.11793653-7.402712-18.48892771-15.60445l-.02162022-.541861-.01641638-.543757c-.00468442-.181522-.00862095-.363289-.01192898-.545231l-.00815803-.546285c-.00108523-.091112-.00204319-.182251-.0028888-.273407l-.00404527-.58826-.00181852-.588227-.00050102-73.868894c0-9.405105-2.04594421-30.992645 10.40786743-30.992645 12.4538116 0 39.4876099-15.352097 58.9438477-35.9218293 19.4562378-20.5697327 28.1968383-44.1123886 28.1968383-56.5155564l.0001981-.3723425.0018378-.7459154c.0029679-.7465659.0096642-1.4947436.0231306-2.2414773l.0158359-.7461392c.2717149-11.0572337 2.2561427-21.5726199 15.8808724-21.5726199l2.673332.00078681c.202441.0001031.409543.00021596.621196.00033838zm-79.7711277-.00022184c1.1835966.00289652 2.3739901.01248802 3.5676091.02483157l1.4336622.01588088c2.630381.03061148 5.2694577.06690936 7.8791983.06690936 23.7249145 0 29.0370483 12.79209904 29.0370483 29.67737584 0 16.8852767-15.9530945 34.0284805-23.8244629 42.6545639-7.8713684 8.6260833-31.1996155 28.5648341-42.3899078 28.5648341-7.33375095 0-11.54812423-3.3444836-12.64311987-10.0334516l-.05385586-.3489637v-67.9704285c0-20.43500365 16.73560543-22.60211668 35.57700393-22.65156175z" fill="url(#a)"/><g fill="#1f1f1f" fill-rule="nonzero"><g transform="translate(414.480133 18.608525)"><path d="m0 199.5h40.47v-80.655h20.805l53.295 80.655h47.595l-62.415-88.35c20.52-9.405 32.205-27.36 32.205-51.585 0-37.05-27.075-59.565-70.965-59.565h-60.99zm63.27-165.87c17.1 0 27.075 10.26 27.075 25.365 0 16.245-9.975 26.22-27.075 26.22h-22.8v-51.585z"/><path d="m301.04 176.13-25.935-20.52c-7.695 10.26-21.375 17.1-37.05 17.1-22.515 0-39.045-10.83-42.465-37.62h100.605c1.14-4.845 2.28-12.255 2.28-20.235 0-37.62-26.22-64.695-66.12-64.695-47.025 0-73.815 35.055-73.815 77.52 0 41.895 28.785 77.52 79.8 77.52 27.075 0 49.305-11.115 62.7-29.07zm-69.54-96.33c20.235 0 30.78 14.535 31.35 29.07h-66.12c3.99-18.81 16.245-29.07 34.77-29.07z"/><path d="m298.555 55.86 52.155 143.64h47.595l52.44-143.64h-39.045l-37.05 102.6-37.335-102.6z"/><path d="m497.565 203.775c16.815 0 33.915-7.125 43.035-18.24v13.965h36.195v-92.91c0-31.635-21.375-56.43-62.985-56.43-26.22 0-47.31 10.83-60.135 28.5l26.505 20.235c7.695-10.545 18.525-17.1 32.49-17.1 16.53 0 27.93 9.69 27.93 24.795v3.705l-43.89 7.41c-30.78 5.13-47.595 21.375-47.595 43.035 0 26.505 19.665 43.035 48.45 43.035zm-12.54-44.745c0-8.835 6.27-15.105 21.375-17.67l34.2-5.7v20.235c-7.125 11.4-19.095 19.095-35.625 19.095-12.255 0-19.95-6.27-19.95-15.96z"/></g><g transform="translate(414.223133 266.136525)"><path d="m0 88.972h44.368v-10.148h-33.276v-72.452h-11.092z"/><path d="m47.7051228 37.996 12.154-31.624h-11.446l-10.03 31.624z"/><path d="m115.470246 79.178-7.434-5.782c-3.894 5.31-10.3840004 8.85-18.0540004 8.85-12.744 0-21.83-8.614-22.184-22.892h45.6660004c.354-1.652.708-3.894.708-6.254 0-14.632-10.502-25.96-26.6680004-25.96-18.408 0-29.972 14.042-29.972 32.096 0 17.346 12.39 32.096 32.45 32.096 11.0920004 0 19.9420004-4.72 25.4880004-12.154zm-28.2020004-43.542c10.502 0 16.5200004 7.316 16.8740004 16.048h-35.6360004c2.124-10.266 8.968-16.048 18.762-16.048z"/><path d="m128.129368 88.972 16.992-24.072 16.992 24.072h11.446l-21.948-30.798 20.414-28.674h-11.564l-15.458 21.948-15.458-21.948h-11.446l20.296 28.674-21.948 30.798z"/><path d="m181.262491 118h10.03v-36.108c5.31 6.018 12.272 9.44 21.122 9.44 18.644 0 30.562-14.75 30.562-32.096s-11.918-32.096-30.562-32.096c-8.85 0-15.812 3.422-21.122 9.44v-7.08h-10.03zm29.972-81.42c12.626 0 21.24 10.03 21.24 22.656s-8.614 22.656-21.24 22.656c-8.142 0-15.34-3.894-19.942-11.092v-23.128c4.484-7.08 11.682-11.092 19.942-11.092z"/><path d="m284.309614 20.06 13.806-19.588h-11.328l-12.272 19.588zm22.656 59.118-7.434-5.782c-3.894 5.31-10.384 8.85-18.054 8.85-12.744 0-21.83-8.614-22.184-22.892h45.666c.354-1.652.708-3.894.708-6.254 0-14.632-10.502-25.96-26.668-25.96-18.408 0-29.972 14.042-29.972 32.096 0 17.346 12.39 32.096 32.45 32.096 11.092 0 19.942-4.72 25.488-12.154zm-28.202-43.542c10.502 0 16.52 7.316 16.874 16.048h-35.636c2.124-10.266 8.968-16.048 18.762-16.048z"/><path d="m317.028737 88.972h10.03v-40.828c3.658-6.018 8.732-10.03 16.52-10.03 2.36 0 4.13.236 5.9.708v-9.794c-1.416-.472-3.186-.708-5.074-.708-7.552 0-12.98 3.422-17.346 8.614v-7.434h-10.03z"/><path d="m363.31786 14.042c3.894 0 6.962-3.186 6.962-7.08 0-3.776-3.068-6.962-6.962-6.962s-7.08 3.186-7.08 6.962c0 3.894 3.186 7.08 7.08 7.08zm-5.074 74.93h10.03v-59.472h-10.03z"/><path d="m383.882982 88.972h10.03v-41.182c3.422-6.136 8.496-11.21 16.638-11.21 8.614 0 14.042 5.664 14.042 15.576v36.816h10.03v-37.17c0-1.416-.118-2.714-.236-4.012 3.894-6.962 9.204-11.21 16.756-11.21 8.496 0 14.042 5.664 14.042 15.576v36.816h10.03v-37.17c0-16.166-9.322-24.662-22.066-24.662-10.266 0-16.52 4.956-21.24 11.446-3.658-7.552-10.738-11.446-19.352-11.446-8.26 0-14.16 3.658-18.644 8.85v-6.49h-10.03z"/><path d="m542.626105 79.178-7.434-5.782c-3.894 5.31-10.384 8.85-18.054 8.85-12.744 0-21.83-8.614-22.184-22.892h45.666c.354-1.652.708-3.894.708-6.254 0-14.632-10.502-25.96-26.668-25.96-18.408 0-29.972 14.042-29.972 32.096 0 17.346 12.39 32.096 32.45 32.096 11.092 0 19.942-4.72 25.488-12.154zm-28.202-43.542c10.502 0 16.52 7.316 16.874 16.048h-35.636c2.124-10.266 8.968-16.048 18.762-16.048z"/><path d="m552.689228 88.972h10.03v-41.182c3.776-6.254 9.204-11.21 17.818-11.21 9.204 0 15.222 6.136 15.222 16.756v35.636h10.03v-35.99c0-16.874-9.912-25.842-23.246-25.842-8.85 0-14.986 3.776-19.824 9.086v-6.726h-10.03z"/><path d="m623.758351 69.03c0 14.514 7.434 21.122 20.65 21.122 4.248 0 7.434-.472 10.266-1.652v-8.968c-2.242.944-4.956 1.416-8.85 1.416-7.198 0-11.918-2.596-11.918-11.918v-30.444h20.65v-9.086h-20.65v-14.868h-10.148v14.868h-11.21v9.086h11.21z"/><path d="m680.431474 90.624c7.67 0 15.458-3.422 19.942-9.204v7.552h10.03v-39.884c0-13.098-8.968-21.948-24.072-21.948-10.384 0-18.762 4.366-23.954 11.446l7.552 5.782c3.658-5.074 9.204-8.26 16.048-8.26 8.496 0 14.396 4.72 14.396 12.98v4.13l-20.06 3.304c-12.626 2.124-19.47 8.496-19.47 17.464 0 10.148 7.906 16.638 19.588 16.638zm-9.44-16.992c0-5.074 3.658-8.732 11.8-10.148l17.582-2.95v11.682c-3.894 6.372-10.384 10.148-18.29 10.148-6.962 0-11.092-3.658-11.092-8.732z"/><path d="m728.372596 69.03c0 14.514 7.434 21.122 20.65 21.122 4.248 0 7.434-.472 10.266-1.652v-8.968c-2.242.944-4.956 1.416-8.85 1.416-7.198 0-11.918-2.596-11.918-11.918v-30.444h20.65v-9.086h-20.65v-14.868h-10.148v14.868h-11.21v9.086h11.21z"/><path d="m773.953719 14.042c3.894 0 6.962-3.186 6.962-7.08 0-3.776-3.068-6.962-6.962-6.962s-7.08 3.186-7.08 6.962c0 3.894 3.186 7.08 7.08 7.08zm-5.074 74.93h10.03v-59.472h-10.03z"/><path d="m821.658842 27.14c-19.234 0-32.214 14.75-32.214 32.096s12.98 32.096 32.214 32.096c19.116 0 32.214-14.75 32.214-32.096s-13.098-32.096-32.214-32.096zm.118 54.752c-12.744 0-21.83-10.266-21.83-22.656s9.086-22.656 21.83-22.656c12.39 0 21.476 10.266 21.476 22.656 0 12.272-9.086 22.656-21.476 22.656z"/><path d="m864.407965 88.972h10.03v-41.182c3.776-6.254 9.204-11.21 17.818-11.21 9.204 0 15.222 6.136 15.222 16.756v35.636h10.03v-35.99c0-16.874-9.912-25.842-23.246-25.842-8.85 0-14.986 3.776-19.824 9.086v-6.726h-10.03z"/></g></g></g></svg>