<svg width="88" height="88" viewBox="0 0 88 88" fill="none" xmlns="http://www.w3.org/2000/svg">
<path fill-rule="evenodd" clip-rule="evenodd" d="M83.6 77.0003C82.9935 77.0003 82.5 76.5068 82.5 75.9003C82.5 75.2937 82.9935 74.8003 83.6 74.8003C84.2065 74.8003 84.7 75.2937 84.7 75.9003C84.7 76.5068 84.2065 77.0003 83.6 77.0003Z" fill="#CACAFB"/>
<path fill-rule="evenodd" clip-rule="evenodd" d="M42.9 4.4002C42.2935 4.4002 41.8 3.90674 41.8 3.3002C41.8 2.6936 42.2935 2.2002 42.9 2.2002C43.5066 2.2002 44 2.6936 44 3.3002C44 3.90674 43.5066 4.4002 42.9 4.4002Z" fill="#CACAFB"/>
<path fill-rule="evenodd" clip-rule="evenodd" d="M4.40005 68.2C3.79351 68.2 3.30005 67.7065 3.30005 67.1C3.30005 66.4934 3.79351 66 4.40005 66C5.00659 66 5.50005 66.4934 5.50005 67.1C5.50005 67.7065 5.00659 68.2 4.40005 68.2Z" fill="#CACAFB"/>
<path fill-rule="evenodd" clip-rule="evenodd" d="M59.6764 47.5144L63.9485 37.2169C64.4141 36.0946 65.7014 35.5623 66.8237 36.0279C67.3596 36.2503 67.7861 36.6754 68.0101 37.2107L72.3199 47.51C72.5672 48.1008 72.5447 48.7702 72.2582 49.3431L70.5879 52.6838C70.5332 52.793 70.4703 52.8964 70.3999 52.9932V57.0214L72.5435 63.4521C72.5818 63.5671 72.6008 63.6874 72.5999 63.808L72.5924 63.9287L71.037 77.1287C70.9768 77.6399 70.5721 78.0349 70.0716 78.0927L69.9446 78.0999H62.0553C61.5405 78.0999 61.1009 77.7443 60.985 77.2539L60.9629 77.1287L60.4525 72.7974C60.3814 72.1941 60.8129 71.6473 61.4163 71.5762C61.9765 71.5102 62.4879 71.8775 62.6151 72.4134L62.6374 72.54L63.0333 75.8999H68.9655L70.3779 63.9132L68.5068 58.2999H63.492L61.5435 64.1478C61.3651 64.683 60.8152 64.9898 60.2761 64.877L60.1521 64.8435C59.6169 64.6651 59.3101 64.1152 59.4229 63.5761L59.4564 63.4521L61.5999 57.0214V52.9932C61.5296 52.8964 61.4667 52.793 61.412 52.6838L59.7408 49.3413C59.4554 48.7704 59.4319 48.1038 59.6764 47.5144ZM63.7999 53.8999V56.0999H68.1999V53.8999H63.7999ZM64.8999 40.6648L61.7085 48.3574L63.3798 51.6999H68.6201L70.2905 48.3592L67.0999 40.7348V46.1999C67.0999 46.8075 66.6075 47.2999 65.9999 47.2999C65.4358 47.2999 64.9709 46.8753 64.9073 46.3282L64.8999 46.1999V40.6648Z" fill="#E1000F"/>
<path d="M51.6999 58.2999C53.7741 58.2999 55 59.5258 55 61.5999C55 61.6899 54.9889 61.7795 54.9671 61.8667C54.4112 64.0903 51.9395 65.5354 47.529 66.3322L46.8165 66.4526C46.5736 66.491 46.3254 66.5275 46.0717 66.5624L45.2947 66.6616C45.1625 66.6773 45.029 66.6925 44.8941 66.7073L44.0687 66.7909L43.2109 66.8643L42.3208 66.9275L41.3983 66.9807C41.2419 66.9887 41.0841 66.9963 40.9249 67.0035L39.9539 67.0418L38.9505 67.0704L37.9146 67.0894L36.3 67.0999C35.6924 67.0999 35.2 66.6075 35.2 65.9999C35.2 65.3924 35.6924 64.8999 36.3 64.8999L37.345 64.8952C37.5163 64.8936 37.6862 64.8916 37.8548 64.8893L38.8491 64.8704L39.8096 64.8424L40.7363 64.8053L41.6291 64.7592L42.488 64.7043L43.313 64.6408L44.104 64.5688C44.233 64.5561 44.3606 64.543 44.4868 64.5296L45.2269 64.4451C45.5885 64.4007 45.9373 64.3533 46.2733 64.303L46.9284 64.1982L47.5494 64.0857L48.1363 63.9654C50.7956 63.3865 52.3406 62.561 52.7601 61.5521L52.7966 61.4514L52.7893 61.3218C52.7384 60.7297 52.4939 60.5269 51.8452 60.5025L51.6999 60.4999C50.5573 60.4999 49.3539 61.1016 48.0778 62.3778C47.4149 63.0406 46.3021 62.6204 46.2065 61.7249L46.2 61.5999C46.2 60.7408 45.9591 60.4999 45.1 60.4999C43.9573 60.4999 42.7539 61.1016 41.4778 62.3778C41.0482 62.8073 40.3517 62.8073 39.9221 62.3778C39.4926 61.9482 39.4926 61.2517 39.9221 60.8221C41.5793 59.1649 43.3093 58.2999 45.1 58.2999C46.3593 58.2999 47.3059 58.7518 47.8553 59.5711L47.8983 59.6408L48.1135 59.4914C49.1884 58.7654 50.2908 58.3645 51.4177 58.3071L51.6999 58.2999Z" fill="#E1000F"/>
<path d="M61.5927 13.0718C61.5292 12.5247 61.0642 12.1001 60.5001 12.1001H18.7001L18.5718 12.1075C18.0247 12.171 17.6001 12.636 17.6001 13.2001V72.6001L17.6075 72.7284C17.671 73.2755 18.136 73.7001 18.7001 73.7001H53.9001L54.0284 73.6927C54.5755 73.6292 55.0001 73.1642 55.0001 72.6001L54.9927 72.4718C54.9292 71.9247 54.4642 71.5001 53.9001 71.5001H19.8001V14.3001H59.4001V35.2001L59.4075 35.3284C59.471 35.8755 59.936 36.3001 60.5001 36.3001C61.1076 36.3001 61.6001 35.8076 61.6001 35.2001V13.2001L61.5927 13.0718Z" fill="#000091"/>
<path d="M44.0001 19.8001C44.0001 19.1926 43.5076 18.7001 42.9001 18.7001H25.3001L25.1718 18.7075C24.6247 18.771 24.2001 19.236 24.2001 19.8001C24.2001 20.4076 24.6926 20.9001 25.3001 20.9001H42.9001L43.0284 20.8927C43.5755 20.8292 44.0001 20.3642 44.0001 19.8001Z" fill="#000091"/>
<path d="M53.9001 25.3001C54.5076 25.3001 55.0001 25.7926 55.0001 26.4001C55.0001 26.9642 54.5755 27.4292 54.0284 27.4927L53.9001 27.5001H25.3001C24.6926 27.5001 24.2001 27.0076 24.2001 26.4001C24.2001 25.836 24.6247 25.371 25.1718 25.3075L25.3001 25.3001H53.9001Z" fill="#000091"/>
<path d="M48.4001 33.0001C48.4001 32.3926 47.9076 31.9001 47.3001 31.9001H25.3001L25.1718 31.9075C24.6247 31.971 24.2001 32.436 24.2001 33.0001C24.2001 33.6076 24.6926 34.1001 25.3001 34.1001H47.3001L47.4284 34.0927C47.9755 34.0292 48.4001 33.5642 48.4001 33.0001Z" fill="#000091"/>
<path d="M53.9001 38.5001C54.5076 38.5001 55.0001 38.9926 55.0001 39.6001C55.0001 40.1642 54.5755 40.6292 54.0284 40.6927L53.9001 40.7001H25.3001C24.6926 40.7001 24.2001 40.2076 24.2001 39.6001C24.2001 39.036 24.6247 38.571 25.1718 38.5075L25.3001 38.5001H53.9001Z" fill="#000091"/>
<path d="M65.9927 21.8718C65.9292 21.3247 65.4642 20.9001 64.9001 20.9001C64.2926 20.9001 63.8001 21.3926 63.8001 22.0001V30.8001L63.8075 30.9284C63.871 31.4755 64.336 31.9001 64.9001 31.9001C65.5076 31.9001 66.0001 31.4076 66.0001 30.8001V22.0001L65.9927 21.8718Z" fill="#000091"/>
<path d="M56.1001 75.9001C56.7076 75.9001 57.2001 76.3926 57.2001 77.0001C57.2001 77.5642 56.7755 78.0292 56.2284 78.0927L56.1001 78.1001H27.5001C26.8926 78.1001 26.4001 77.6076 26.4001 77.0001C26.4001 76.436 26.8247 75.971 27.3718 75.9075L27.5001 75.9001H56.1001Z" fill="#000091"/>
<path d="M48.4001 46.2001C48.4001 45.5926 47.9076 45.1001 47.3001 45.1001H25.3001L25.1718 45.1075C24.6247 45.171 24.2001 45.636 24.2001 46.2001C24.2001 46.8076 24.6926 47.3001 25.3001 47.3001H47.3001L47.4284 47.2927C47.9755 47.2292 48.4001 46.7642 48.4001 46.2001Z" fill="#000091"/>
</svg>
