<svg width="88" height="88" viewBox="0 0 88 88" fill="none" xmlns="http://www.w3.org/2000/svg">
<path fill-rule="evenodd" clip-rule="evenodd" d="M80.3002 19.8001C79.6937 19.8001 79.2002 19.3066 79.2002 18.7001C79.2002 18.0935 79.6937 17.6001 80.3002 17.6001C80.9067 17.6001 81.4002 18.0935 81.4002 18.7001C81.4002 19.3066 80.9067 19.8001 80.3002 19.8001Z" fill="#CACAFB"/>
<path fill-rule="evenodd" clip-rule="evenodd" d="M7.7001 19.8001C7.09356 19.8001 6.6001 19.3066 6.6001 18.7001C6.6001 18.0935 7.09356 17.6001 7.7001 17.6001C8.30664 17.6001 8.8001 18.0935 8.8001 18.7001C8.8001 19.3066 8.30664 19.8001 7.7001 19.8001Z" fill="#CACAFB"/>
<path fill-rule="evenodd" clip-rule="evenodd" d="M12.1 74.8001C11.4935 74.8001 11 74.3066 11 73.7001C11 73.0935 11.4935 72.6001 12.1 72.6001C12.7065 72.6001 13.2 73.0935 13.2 73.7001C13.2 74.3066 12.7065 74.8001 12.1 74.8001Z" fill="#CACAFB"/>
<path fill-rule="evenodd" clip-rule="evenodd" d="M20.9 6.5999C20.2935 6.5999 19.8 6.10644 19.8 5.4999C19.8 4.89331 20.2935 4.3999 20.9 4.3999C21.5066 4.3999 22 4.89331 22 5.4999C22 6.10644 21.5066 6.5999 20.9 6.5999Z" fill="#CACAFB"/>
<path fill-rule="evenodd" clip-rule="evenodd" d="M60.5001 85.8001C59.8936 85.8001 59.4001 85.3066 59.4001 84.7001C59.4001 84.0935 59.8936 83.6001 60.5001 83.6001C61.1067 83.6001 61.6001 84.0935 61.6001 84.7001C61.6001 85.3066 61.1067 85.8001 60.5001 85.8001Z" fill="#CACAFB"/>
<path d="M59.4402 44.805C59.6032 44.2198 60.2097 43.8774 60.795 44.0404C63.3685 44.757 65.3414 46.7754 65.8637 49.2782C65.9878 49.8729 65.6063 50.4556 65.0116 50.5797C64.4169 50.7038 63.8342 50.3223 63.7101 49.7276C63.3597 48.0485 62.0029 46.6605 60.2048 46.1598C59.6196 45.9968 59.2773 45.3903 59.4402 44.805Z" fill="#E1000F"/>
<path fill-rule="evenodd" clip-rule="evenodd" d="M48.3999 50.6001C48.3999 44.5334 53.3334 39.6001 59.3999 39.6001C65.4664 39.6001 70.3999 44.5334 70.3999 50.6001C70.3999 53.4228 69.3317 56.0003 67.5782 57.9496L74.063 69.1816C74.9743 70.76 74.4335 72.7783 72.8552 73.6895C71.3332 74.5682 69.4021 74.0968 68.4491 72.6468L68.3473 72.4816L61.8995 61.3138C61.0963 61.5011 60.2594 61.6001 59.3999 61.6001C53.3335 61.6001 48.3999 56.6665 48.3999 50.6001ZM64.0182 60.5834L70.2525 71.3816C70.5563 71.9078 71.229 72.088 71.7552 71.7843C72.2437 71.5022 72.434 70.902 72.2155 70.3964L72.1578 70.2816L65.9109 59.4617C65.3219 59.8956 64.6882 60.2723 64.0182 60.5834ZM68.1999 50.6001C68.1999 45.7485 64.2514 41.8001 59.3999 41.8001C54.5484 41.8001 50.5999 45.7485 50.5999 50.6001C50.5999 55.4514 54.5486 59.4001 59.3999 59.4001C64.2512 59.4001 68.1999 55.4514 68.1999 50.6001Z" fill="#E1000F"/>
<path d="M75.8926 19.6719C75.8291 19.1248 75.3642 18.7002 74.8 18.7002H15.4L15.2718 18.7076C14.7247 18.7711 14.3 19.2361 14.3 19.8002V70.4002L14.3074 70.5285C14.371 71.0756 14.8359 71.5002 15.4 71.5002H61.6L61.7283 71.4928C62.2754 71.4293 62.7001 70.9643 62.7001 70.4002L62.6926 70.2719C62.6291 69.7248 62.1642 69.3002 61.6 69.3002H16.5V29.7002H57.2001L57.3283 29.6928C57.8754 29.6293 58.3 29.1643 58.3 28.6002C58.3 27.9927 57.8076 27.5002 57.2001 27.5002H16.5V20.9002H73.7001V27.5002H63.8L63.6718 27.5076C63.1247 27.5711 62.7001 28.0361 62.7001 28.6002C62.7001 29.2077 63.1925 29.7002 63.8 29.7002H73.7001V61.6002L73.7075 61.7285C73.771 62.2756 74.2359 62.7002 74.8 62.7002C75.4076 62.7002 75.9001 62.2077 75.9001 61.6002V19.8002L75.8926 19.6719Z" fill="#000091"/>
<path d="M19.8 25.3002C19.1935 25.3002 18.7 24.8067 18.7 24.2002C18.7 23.5936 19.1935 23.1002 19.8 23.1002C20.4066 23.1002 20.9 23.5936 20.9 24.2002C20.9 24.8067 20.4066 25.3002 19.8 25.3002Z" fill="#000091"/>
<path d="M23.1 24.2002C23.1 24.8067 23.5935 25.3002 24.2 25.3002C24.8066 25.3002 25.3 24.8067 25.3 24.2002C25.3 23.5936 24.8066 23.1002 24.2 23.1002C23.5935 23.1002 23.1 23.5936 23.1 24.2002Z" fill="#000091"/>
<path d="M28.6 25.3002C27.9935 25.3002 27.5 24.8067 27.5 24.2002C27.5 23.5936 27.9935 23.1002 28.6 23.1002C29.2066 23.1002 29.7 23.5936 29.7 24.2002C29.7 24.8067 29.2066 25.3002 28.6 25.3002Z" fill="#000091"/>
<path d="M70.4001 23.1002C71.0076 23.1002 71.5 23.5927 71.5 24.2002C71.5 24.7643 71.0754 25.2293 70.5283 25.2928L70.4001 25.3002H37.4C36.7925 25.3002 36.3 24.8077 36.3 24.2002C36.3 23.6361 36.7247 23.1711 37.2718 23.1076L37.4 23.1002H70.4001Z" fill="#000091"/>
<path d="M45.1 37.4002C45.1 36.7927 44.6076 36.3002 44 36.3002H24.2L24.0718 36.3076C23.5247 36.3711 23.1 36.8361 23.1 37.4002C23.1 38.0077 23.5925 38.5002 24.2 38.5002H44L44.1283 38.4928C44.6754 38.4293 45.1 37.9643 45.1 37.4002Z" fill="#000091"/>
<path d="M39.6 42.9002C40.2076 42.9002 40.7001 43.3927 40.7001 44.0002C40.7001 44.5643 40.2754 45.0293 39.7283 45.0928L39.6 45.1002H24.2C23.5925 45.1002 23.1 44.6077 23.1 44.0002C23.1 43.4361 23.5247 42.9711 24.0718 42.9076L24.2 42.9002H39.6Z" fill="#000091"/>
<path d="M38.5 50.6002C38.5 49.9927 38.0076 49.5002 37.4 49.5002H24.2L24.0718 49.5076C23.5247 49.5711 23.1 50.0361 23.1 50.6002C23.1 51.2077 23.5925 51.7002 24.2 51.7002H37.4L37.5283 51.6928C38.0754 51.6293 38.5 51.1643 38.5 50.6002Z" fill="#000091"/>
</svg>
