<svg width="88" height="88" viewBox="0 0 88 88" fill="none" xmlns="http://www.w3.org/2000/svg">
<path fill-rule="evenodd" clip-rule="evenodd" d="M73.7001 12.0999C73.0936 12.0999 72.6001 11.6064 72.6001 10.9999C72.6001 10.3933 73.0936 9.8999 73.7001 9.8999C74.3066 9.8999 74.8001 10.3933 74.8001 10.9999C74.8001 11.6064 74.3066 12.0999 73.7001 12.0999Z" fill="#CACAFB"/>
<path fill-rule="evenodd" clip-rule="evenodd" d="M44 81.4002C43.3935 81.4002 42.9 80.9067 42.9 80.3002C42.9 79.6936 43.3935 79.2002 44 79.2002C44.6066 79.2002 45.1 79.6936 45.1 80.3002C45.1 80.9067 44.6066 81.4002 44 81.4002Z" fill="#CACAFB"/>
<path fill-rule="evenodd" clip-rule="evenodd" d="M15.4 8.8001C14.7935 8.8001 14.3 8.30664 14.3 7.7001C14.3 7.09351 14.7935 6.6001 15.4 6.6001C16.0066 6.6001 16.5 7.09351 16.5 7.7001C16.5 8.30664 16.0066 8.8001 15.4 8.8001Z" fill="#CACAFB"/>
<path d="M44.805 20.1099C47.9913 16.7469 53.1977 16.7777 56.3545 20.1159C57.5656 21.3967 58.2368 23.2608 58.2958 25.4061C58.3125 26.0134 58.8183 26.4922 59.4256 26.4755C60.0329 26.4588 60.5117 25.9529 60.495 25.3456C60.4219 22.6908 59.5641 20.308 57.953 18.6043C54.1843 14.619 48.0911 14.3349 44 17.8427C39.9089 14.3349 33.8157 14.619 30.047 18.6043C26.1863 22.687 26.8741 30.6704 31.0589 35.0958C32.9775 37.1248 35.8186 39.2909 39.5877 41.6064L40.6387 42.2417C41.1756 42.5611 41.7299 42.8834 42.3014 43.2085L43.4442 43.8494C43.479 43.8697 43.5148 43.888 43.5514 43.9044C43.6962 43.9692 43.8489 44.0002 43.9998 44.0001C44.1508 44.0003 44.3036 43.9693 44.4486 43.9044C44.4852 43.8881 44.521 43.8697 44.5558 43.8494L45.6986 43.2085C46.2701 42.8834 46.8244 42.5611 47.3613 42.2417L48.4123 41.6064C52.1814 39.2909 55.0225 37.1248 56.9411 35.0958C57.3586 34.6544 57.3391 33.9582 56.8977 33.5408C56.4563 33.1233 55.7601 33.1428 55.3427 33.5842C53.5634 35.4657 50.8534 37.5277 47.2182 39.7579L46.2039 40.3703C45.5009 40.7882 44.7662 41.2118 44 41.641C43.2338 41.2118 42.4992 40.7882 41.7961 40.3703L40.7818 39.7579C37.1466 37.5277 34.4366 35.4657 32.6573 33.5842C29.2237 29.9531 28.6491 23.2845 31.6455 20.1159C34.8022 16.7777 40.0085 16.7469 43.1949 20.1097C43.2038 20.1192 43.2129 20.1287 43.2222 20.1379C43.3126 20.2284 43.4151 20.3 43.5246 20.3524C43.8235 20.4955 44.1748 20.4965 44.4754 20.3524C44.5849 20.3 44.6874 20.2284 44.7778 20.1379C44.7871 20.1287 44.7961 20.1193 44.805 20.1099Z" fill="#E1000F"/>
<path d="M18.7 28.5999C19.3075 28.5999 19.8 29.0924 19.8 29.6999C19.8 30.2641 19.3754 30.729 18.8283 30.7925L18.7 30.7999H12.1C11.4925 30.7999 11 30.3074 11 29.6999C11 29.1358 11.4246 28.6709 11.9717 28.6073L12.1 28.5999H18.7Z" fill="#E1000F"/>
<path d="M23.1 30.7999C23.7075 30.7999 24.2 30.3074 24.2 29.6999C24.2 29.0924 23.7075 28.5999 23.1 28.5999C22.4925 28.5999 22 29.0924 22 29.6999C22 30.3074 22.4925 30.7999 23.1 30.7999Z" fill="#E1000F"/>
<path d="M50.6787 22.6916C50.9903 21.9125 52.0086 21.7672 52.5327 22.3807L52.6153 22.49L56.6885 28.6001H64.9C65.4641 28.6001 65.9291 29.0248 65.9926 29.5719L66 29.7001C66 30.2643 65.5754 30.7292 65.0283 30.7927L64.9 30.8001H56.1C55.7782 30.8001 55.475 30.6594 55.2676 30.4192L55.1848 30.3103L51.9442 25.4497L48.3213 34.5087C48.0097 35.2877 46.9914 35.4331 46.4673 34.8196L46.3848 34.7103L42.7284 29.2271L41.4778 30.478C41.3059 30.6499 41.083 30.759 40.8446 30.7906L40.7 30.8001H36.3C35.6925 30.8001 35.2 30.3077 35.2 29.7001C35.2 29.136 35.6247 28.6711 36.1717 28.6075L36.3 28.6001H40.2424L42.1222 26.7223C42.5803 26.2642 43.3227 26.3042 43.7327 26.7811L43.8153 26.89L47.0547 31.7494L50.6787 22.6916Z" fill="#000091"/>
<path d="M67.0251 46.9583C69.6106 45.4655 72.8428 46.1211 74.2259 48.5167C75.6089 50.9123 74.5606 54.0392 71.9751 55.5319L54.3275 67.029L54.0635 67.1625C51.8362 68.2374 48.915 68.3787 44.8098 67.9218L44.4816 67.8844L43.8106 67.8024L43.1057 67.7092L42.3498 67.6029L40.2553 67.2889L37.7139 66.9163L36.2077 66.7132L35.4156 66.6164L34.7005 66.5382L34.057 66.4787L33.4798 66.4376L33.129 66.4205L32.8037 66.4116L32.3598 66.4135C32.3132 66.4147 32.2676 66.4162 32.2228 66.4181L31.9639 66.4336L31.7241 66.4571L31.5016 66.4886L31.2949 66.5282L31.1023 66.5758L30.9222 66.6314L30.753 66.6949C30.7256 66.7062 30.6986 66.7177 30.672 66.7297L30.5162 66.8051L30.3673 66.8884L30.3421 66.9039L30.9947 68.6972L31.0557 68.8805C31.5541 70.5356 30.7122 72.3118 29.0886 72.9027L23.085 75.0879L22.9619 75.1248C22.4261 75.2522 21.8681 74.9605 21.6751 74.4304C21.4673 73.8595 21.7617 73.2283 22.3326 73.0205L28.3361 70.8354L28.445 70.788C28.8996 70.5559 29.1229 69.9866 28.9274 69.4496L22.1554 50.8437L22.1044 50.7242C21.8587 50.2258 21.3007 49.9842 20.8117 50.1622L14.8081 52.3473L14.6992 52.3947C14.2446 52.6268 14.0214 53.1962 14.2168 53.7331L17.6687 64.2477L17.7017 64.3718C17.8119 64.9114 17.5026 65.4599 16.9666 65.6358C16.3894 65.8253 15.7679 65.511 15.5784 64.9338L12.0783 54.2725C11.5901 52.6471 12.432 50.8709 14.0557 50.28L20.0592 48.0949L20.2402 48.035C21.8742 47.5476 23.6243 48.4469 24.2227 50.0912L24.5185 50.9039C24.5727 50.8494 24.6335 50.7997 24.7005 50.7561C31.135 46.5738 39.8973 47.1375 44.7968 50.6164L45.0467 50.7989C47.1194 52.3559 48.9617 52.2919 52.1582 50.5431L52.6886 50.2448L53.2443 49.9168L53.8267 49.5592C54.0255 49.435 54.229 49.3059 54.4374 49.1718C54.4518 49.1626 54.4663 49.1537 54.4809 49.1453L54.4967 49.1351L54.5073 49.1284L56.5704 47.8585L56.7626 47.745C58.7676 46.6295 61.3244 47.2726 62.5576 49.2461C64.056 51.6441 64.2347 53.171 62.2076 54.4376L61.7294 54.7565L58.6446 56.8032L56.368 58.2988L53.8631 59.9196L52.6069 60.715C50.903 61.7812 48.0737 61.5981 44.0075 60.2677L43.2306 60.0049C42.9668 59.9128 42.6981 59.8163 42.4245 59.7153L41.5891 59.3991C41.1641 59.2344 40.728 59.0598 40.2807 58.8753C39.7191 58.6437 39.4516 58.0007 39.6832 57.439C39.9148 56.8774 40.5579 56.6099 41.1195 56.8415C41.2632 56.9007 41.4055 56.9589 41.5464 57.0158L42.376 57.3439C42.5115 57.3963 42.6457 57.4476 42.7785 57.4977L43.5592 57.7851C43.8139 57.8764 44.0632 57.9632 44.3069 58.0455L45.0216 58.2792L45.703 58.4864C48.5834 59.3269 50.5208 59.4252 51.4399 58.85L52.9624 57.884L54.8309 56.6749L57.8601 54.6849L61.161 52.4907C61.5578 52.1969 61.5637 51.9084 61.0843 51.0637L60.9065 50.7607L60.6918 50.4119C60.0628 49.4052 58.7367 49.099 57.7299 49.7281L55.6606 51.0019L55.6474 51.009L55.6276 51.0221L55.3005 51.2309L54.6636 51.6277C54.5593 51.6915 54.4559 51.7541 54.3534 51.8156L53.7491 52.1702C49.5909 54.5536 46.922 54.8513 43.939 52.7147L43.7254 52.5579C39.5917 49.4528 31.6396 48.8697 25.8995 52.6007C25.6837 52.741 25.437 52.7959 25.1991 52.7738L29.5783 64.8056L29.6402 64.772L29.8519 64.6683L30.0673 64.5747L30.2886 64.4912L30.5175 64.4177L30.7561 64.3542L31.0062 64.3006C31.0917 64.2844 31.1795 64.2699 31.2698 64.257L31.5489 64.2231L31.8454 64.1991L32.1611 64.1848C32.2154 64.1832 32.2707 64.182 32.3268 64.1812L32.6751 64.1814L33.0476 64.1912L33.4461 64.2106L33.8726 64.2395L34.329 64.2779L35.0739 64.353L35.8971 64.4492L37.1276 64.6098L38.901 64.8622L41.8492 65.3053L43.0343 65.4782L44.0835 65.6194L44.7353 65.6991L45.5103 65.7841C49.1206 66.1514 51.613 65.9781 53.2142 65.1342L70.8247 53.6576L71.0019 53.5492C72.5003 52.5799 73.0363 50.8563 72.3206 49.6167C71.5774 48.3294 69.7072 47.9501 68.1251 48.8635C67.599 49.1673 66.9262 48.987 66.6225 48.4609C66.3187 47.9348 66.499 47.262 67.0251 46.9583Z" fill="#000091"/>
<path d="M18.7 55.0001C19.3075 55.0001 19.8 54.5077 19.8 53.9001C19.8 53.2926 19.3075 52.8001 18.7 52.8001C18.0925 52.8001 17.6 53.2926 17.6 53.9001C17.6 54.5077 18.0925 55.0001 18.7 55.0001Z" fill="#000091"/>
<path d="M69.3 30.8001C69.9075 30.8001 70.4 30.3077 70.4 29.7001C70.4 29.0926 69.9075 28.6001 69.3 28.6001C68.6925 28.6001 68.2 29.0926 68.2 29.7001C68.2 30.3077 68.6925 30.8001 69.3 30.8001Z" fill="#000091"/>
</svg>
